<?xml version="1.0" encoding="utf-8"?>
<!-- Generator: Adobe Illustrator 14.0.0, SVG Export Plug-In . SVG Version: 6.00 Build 43363)  -->
<!DOCTYPE svg PUBLIC "-//W3C//DTD SVG 1.1//EN" "http://www.w3.org/Graphics/SVG/1.1/DTD/svg11.dtd">
<svg version="1.1" id="Layer_1" xmlns="http://www.w3.org/2000/svg" xmlns:xlink="http://www.w3.org/1999/xlink" x="0px" y="0px"
	 width="45.848px" height="44.667px" viewBox="0 0 45.848 44.667" enable-background="new 0 0 45.848 44.667" xml:space="preserve">
<g>
	<path fill="#474747" d="M22.805,23.615c0.034,0,0.068,0,0.109,0c0.014,0,0.027,0,0.041,0c0.021,0,0.048,0,0.068,0
		c1.998-0.034,3.613-0.738,4.806-2.084c2.625-2.966,2.188-8.051,2.141-8.535c-0.17-3.643-1.888-5.386-3.306-6.198
		c-1.057-0.608-2.29-0.937-3.667-0.964h-0.047c-0.007,0-0.021,0-0.027,0h-0.041c-0.756,0-2.243,0.123-3.667,0.937
		c-1.431,0.813-3.176,2.556-3.347,6.226c-0.048,0.484-0.484,5.569,2.141,8.535C19.192,22.876,20.807,23.581,22.805,23.615z
		 M17.685,13.166c0-0.02,0.007-0.04,0.007-0.055c0.225-4.899,3.695-5.426,5.181-5.426H22.9c0.014,0,0.034,0,0.055,0
		c1.84,0.041,4.969,0.793,5.181,5.426c0,0.021,0,0.042,0.007,0.055c0.007,0.048,0.484,4.695-1.684,7.142
		c-0.859,0.971-2.004,1.449-3.51,1.463c-0.014,0-0.021,0-0.034,0l0,0c-0.014,0-0.021,0-0.034,0c-1.5-0.014-2.651-0.492-3.504-1.463
		C17.215,17.875,17.678,13.207,17.685,13.166z"/>
	<path fill="#474747" d="M36.922,32.047c0-0.007,0-0.014,0-0.021c0-0.055-0.007-0.109-0.007-0.171
		c-0.041-1.353-0.129-4.517-3.088-5.528c-0.021-0.007-0.048-0.014-0.068-0.021c-3.074-0.786-5.63-2.563-5.658-2.583
		c-0.416-0.294-0.988-0.191-1.282,0.226c-0.293,0.417-0.191,0.991,0.225,1.284c0.116,0.082,2.829,1.976,6.224,2.851
		c1.588,0.566,1.766,2.269,1.813,3.826c0,0.062,0,0.116,0.007,0.171c0.007,0.615-0.034,1.565-0.143,2.112
		c-1.104,0.628-5.433,2.802-12.018,2.802c-6.558,0-10.914-2.181-12.024-2.81c-0.109-0.546-0.157-1.496-0.143-2.111
		c0-0.055,0.006-0.109,0.006-0.171c0.048-1.558,0.225-3.26,1.813-3.826c3.395-0.875,6.108-2.775,6.224-2.851
		c0.416-0.293,0.518-0.867,0.225-1.284c-0.293-0.417-0.866-0.52-1.282-0.226c-0.027,0.021-2.57,1.797-5.658,2.583
		c-0.027,0.007-0.048,0.014-0.068,0.021c-2.958,1.019-3.047,4.183-3.088,5.528c0,0.062,0,0.116-0.007,0.171c0,0.007,0,0.014,0,0.021
		c-0.007,0.355-0.014,2.18,0.348,3.096c0.068,0.178,0.191,0.328,0.354,0.431c0.205,0.137,5.105,3.267,13.306,3.267
		c8.2,0,13.102-3.137,13.306-3.267c0.157-0.103,0.286-0.253,0.354-0.431C36.936,34.227,36.929,32.403,36.922,32.047z"/>
</g>
</svg>
