<?xml version="1.0" encoding="utf-8"?>
<!-- Generator: Adobe Illustrator 16.0.0, SVG Export Plug-In . SVG Version: 6.00 Build 0)  -->
<!DOCTYPE svg PUBLIC "-//W3C//DTD SVG 1.1//EN" "http://www.w3.org/Graphics/SVG/1.1/DTD/svg11.dtd">
<svg version="1.1" id="Layer_1" xmlns="http://www.w3.org/2000/svg" xmlns:xlink="http://www.w3.org/1999/xlink" x="0px" y="0px"
	 width="72px" height="57.784px" viewBox="0 0 72 57.784" enable-background="new 0 0 72 57.784" xml:space="preserve">
<g>
	<g>
		<path fill="white" d="M52.5,9.392h-6v-1.5c0-0.9-0.6-1.5-1.5-1.5s-1.5,0.6-1.5,1.5v1.5h-15v-1.5c0-0.9-0.6-1.5-1.5-1.5
			s-1.5,0.6-1.5,1.5v1.5h-6c-4.2,0-7.5,3.301-7.5,7.5v27c0,4.2,3.3,7.5,7.5,7.5h33c4.2,0,7.5-3.3,7.5-7.5v-27
			C60,12.692,56.7,9.392,52.5,9.392z M57,43.892c0,2.4-2.1,4.5-4.5,4.5h-33c-2.4,0-4.5-2.1-4.5-4.5v-19.5h42V43.892z M57,21.392H15
			v-4.5c0-2.4,2.1-4.5,4.5-4.5h6v1.5c0,0.9,0.6,1.5,1.5,1.5s1.5-0.6,1.5-1.5v-1.5h15v1.5c0,0.9,0.6,1.5,1.5,1.5s1.5-0.6,1.5-1.5
			v-1.5h6c2.4,0,4.5,2.1,4.5,4.5V21.392z M22.5,43.892c0.9,0,1.5-0.3,2.1-0.9c0.601-0.6,0.9-1.5,0.9-2.1s-0.3-1.5-0.9-2.1
			c-1.199-1.2-3-1.2-4.199,0c-0.601,0.6-0.9,1.199-0.9,2.1c0,0.6,0.3,1.5,0.9,2.1C21,43.592,21.6,43.892,22.5,43.892z M22.5,34.892
			c0.9,0,1.5-0.3,2.1-0.9c0.601-0.6,0.9-1.5,0.9-2.1s-0.3-1.5-0.9-2.1c-1.199-1.2-3-1.2-4.199,0c-0.601,0.6-0.9,1.199-0.9,2.1
			s0.3,1.5,0.9,2.1C21,34.592,21.6,34.892,22.5,34.892z M31.5,43.892c0.9,0,1.5-0.3,2.1-0.9c0.601-0.6,0.9-1.5,0.9-2.1
			s-0.3-1.5-0.9-2.1c-1.199-1.2-3-1.2-4.199,0c-0.601,0.6-0.9,1.5-0.9,2.1s0.3,1.5,0.9,2.1C30,43.592,30.6,43.892,31.5,43.892z
			 M31.5,34.892c0.9,0,1.5-0.3,2.1-0.9c0.601-0.6,0.9-1.5,0.9-2.1s-0.3-1.5-0.9-2.1c-1.199-1.2-3-1.2-4.199,0
			c-0.601,0.6-0.9,1.5-0.9,2.1s0.3,1.5,0.9,2.1C30,34.592,30.6,34.892,31.5,34.892z M40.5,43.892c0.9,0,1.5-0.3,2.1-0.9
			c0.601-0.6,0.9-1.199,0.9-2.1s-0.3-1.5-0.9-2.1c-1.199-1.2-3-1.2-4.199,0c-0.601,0.6-0.9,1.5-0.9,2.1s0.3,1.5,0.9,2.1
			C39,43.592,39.6,43.892,40.5,43.892z M40.5,34.892c0.9,0,1.5-0.3,2.1-0.9c0.601-0.6,0.9-1.199,0.9-2.1c0-0.6-0.3-1.5-0.9-2.1
			c-1.199-1.2-3-1.2-4.199,0c-0.601,0.6-0.9,1.5-0.9,2.1s0.3,1.5,0.9,2.1C39,34.592,39.6,34.892,40.5,34.892z M49.5,43.892
			c0.9,0,1.5-0.3,2.1-0.9c0.601-0.6,0.9-1.5,0.9-2.1s-0.3-1.5-0.9-2.1c-1.199-1.2-3-1.2-4.199,0c-0.601,0.6-0.9,1.199-0.9,2.1
			c0,0.6,0.3,1.5,0.9,2.1C48,43.592,48.6,43.892,49.5,43.892z M49.5,34.892c0.9,0,1.5-0.3,2.1-0.9c0.601-0.6,0.9-1.199,0.9-2.1
			c0-0.6-0.3-1.5-0.9-2.1c-1.199-1.2-3-1.2-4.199,0c-0.601,0.6-0.9,1.5-0.9,2.1s0.3,1.5,0.9,2.1C48,34.592,48.6,34.892,49.5,34.892z
			"/>
	</g>
</g>
</svg>
