<?xml version="1.0" encoding="utf-8"?>
<!-- Generator: Adobe Illustrator 14.0.0, SVG Export Plug-In . SVG Version: 6.00 Build 43363)  -->
<!DOCTYPE svg PUBLIC "-//W3C//DTD SVG 1.1//EN" "http://www.w3.org/Graphics/SVG/1.1/DTD/svg11.dtd">
<svg version="1.1" id="Layer_1" xmlns="http://www.w3.org/2000/svg" xmlns:xlink="http://www.w3.org/1999/xlink" x="0px" y="0px"
	 width="45.848px" height="44.667px" viewBox="0 0 45.848 44.667" enable-background="new 0 0 45.848 44.667" xml:space="preserve">
<g>
	<path fill="#474747" d="M21.713,20.759h2.422v2.422h-2.422V20.759z"/>
	<path fill="#474747" d="M34.791,9.255h-1.453V6.833h-2.422v2.422H14.932V6.833H12.51v2.422h-1.453c-2.003,0-3.633,1.63-3.633,3.633
		v21.313c0,2.003,1.63,3.633,3.633,3.633h8.053h0.182h4.224c-0.837-0.691-1.566-1.508-2.159-2.422h-2.064H19.11h-8.053
		c-0.667,0-1.211-0.543-1.211-1.211V18.216h26.156v2.422v0.121v0.006c0.914,0.593,1.73,1.322,2.422,2.159v-2.165v-0.121v-7.75
		C38.424,10.885,36.794,9.255,34.791,9.255z M36.002,15.794H9.846v-2.906c0-0.668,0.543-1.211,1.211-1.211h1.453v2.422h2.422v-2.422
		h15.984v2.422h2.422v-2.422h1.453c0.668,0,1.211,0.543,1.211,1.211V15.794z"/>
	<path fill="#474747" d="M30.25,21.486c-4.507,0-8.174,3.667-8.174,8.174s3.667,8.174,8.174,8.174s8.174-3.667,8.174-8.174
		S34.757,21.486,30.25,21.486z M30.25,35.412c-3.172,0-5.752-2.58-5.752-5.752s2.58-5.752,5.752-5.752s5.752,2.58,5.752,5.752
		S33.422,35.412,30.25,35.412z"/>
	<path fill="#474747" d="M31.401,25.603h-2.422v5.268h4.48v-2.422h-2.059V25.603z"/>
	<path fill="#474747" d="M16.869,25.603h2.422v2.422h-2.422V25.603z"/>
	<path fill="#474747" d="M12.026,25.603h2.422v2.422h-2.422V25.603z"/>
	<path fill="#474747" d="M12.026,20.759h2.422v2.422h-2.422V20.759z"/>
	<path fill="#474747" d="M12.026,30.447h2.422v2.422h-2.422V30.447z"/>
	<path fill="#474747" d="M16.869,20.759h2.422v2.422h-2.422V20.759z"/>
	<path fill="#474747" d="M16.869,30.447h2.422v2.422h-2.422V30.447z"/>
</g>
</svg>
