<?xml version="1.0" encoding="iso-8859-1"?>
<!-- Generator: Adobe Illustrator 19.0.0, SVG Export Plug-In . SVG Version: 6.00 Build 0)  -->
<svg xmlns="http://www.w3.org/2000/svg" xmlns:xlink="http://www.w3.org/1999/xlink" version="1.1" id="Capa_1" x="0px" y="0px" viewBox="0 0 398.848 398.848" style="enable-background:new 0 0 398.848 398.848;" xml:space="preserve" width="512px" height="512px">
<g>
	<g>
		<path d="M248.576,54.272c-19.968-1.024-23.552-12.288-23.552-12.288c-0.512-2.048-2.56-3.584-5.12-3.584h-39.936    c-2.048,0-3.584,1.024-4.608,2.56c-7.68,12.8-24.064,12.288-24.576,12.288c-1.536,0-3.072,0.512-4.096,1.536    c-1.024,1.024-1.536,2.56-1.536,3.584c0.512,1.536,2.56,66.048,51.2,105.984c1.024,1.024,2.048,1.024,3.072,1.024    s2.048-0.512,3.072-1.024c48.64-39.936,50.688-102.4,50.688-104.96S251.136,54.272,248.576,54.272z M199.936,153.6    c-34.304-30.72-41.984-76.288-43.52-91.648c6.656-0.512,18.944-3.584,26.624-14.336h34.304c2.56,5.12,9.728,13.312,26.112,15.872    C241.92,77.824,234.752,122.88,199.936,153.6z" fill="#39bebc"/>
	</g>
</g>
<g>
	<g>
		<path d="M339.712,0H59.136c-3.072,0-5.12,2.048-5.12,5.12v388.608c0,3.072,2.048,5.12,5.12,5.12h280.576    c3.072,0,5.12-2.048,5.12-5.12V5.12C344.832,2.048,342.784,0,339.712,0z M334.592,388.608H64.256V10.24h270.336V388.608z" fill="#39bebc"/>
	</g>
</g>
<g>
	<g>
		<path d="M297.216,191.488H101.632c-3.072,0-5.12,2.048-5.12,5.12c0,2.56,2.56,5.12,5.12,5.12h195.584    c3.072,0,5.12-2.048,5.12-5.12C302.336,193.536,300.288,191.488,297.216,191.488z" fill="#39bebc"/>
	</g>
</g>
<g>
	<g>
		<path d="M297.216,226.816H101.632c-3.072,0-5.12,2.048-5.12,5.12c0,3.072,2.56,5.12,5.12,5.12h195.584    c3.072,0,5.12-2.048,5.12-5.12C302.336,228.864,300.288,226.816,297.216,226.816z" fill="#39bebc"/>
	</g>
</g>
<g>
	<g>
		<path d="M297.216,262.656H101.632c-3.072,0-5.12,2.048-5.12,5.12c0,2.56,2.56,5.12,5.12,5.12h195.584    c3.072,0,5.12-2.048,5.12-5.12C302.336,264.704,300.288,262.656,297.216,262.656z" fill="#39bebc"/>
	</g>
</g>
<g>
	<g>
		<path d="M297.216,297.984H101.632c-3.072,0-5.12,2.048-5.12,5.12c0,3.072,2.56,5.12,5.12,5.12h195.584    c3.072,0,5.12-2.048,5.12-5.12C302.336,300.032,300.288,297.984,297.216,297.984z" fill="#39bebc"/>
	</g>
</g>
<g>
	<g>
		<path d="M297.216,333.824H101.632c-3.072,0-5.12,2.048-5.12,5.12c0,2.56,2.56,5.12,5.12,5.12h195.584    c3.072,0,5.12-2.048,5.12-5.12C302.336,335.872,300.288,333.824,297.216,333.824z" fill="#39bebc"/>
	</g>
</g>
<g>
</g>
<g>
</g>
<g>
</g>
<g>
</g>
<g>
</g>
<g>
</g>
<g>
</g>
<g>
</g>
<g>
</g>
<g>
</g>
<g>
</g>
<g>
</g>
<g>
</g>
<g>
</g>
<g>
</g>
</svg>
