<?xml version="1.0" encoding="iso-8859-1"?>
<!-- Generator: Adobe Illustrator 16.0.0, SVG Export Plug-In . SVG Version: 6.00 Build 0)  -->
<!DOCTYPE svg PUBLIC "-//W3C//DTD SVG 1.1//EN" "http://www.w3.org/Graphics/SVG/1.1/DTD/svg11.dtd">
<svg xmlns="http://www.w3.org/2000/svg" xmlns:xlink="http://www.w3.org/1999/xlink" version="1.1" id="Capa_1" x="0px" y="0px" width="512px" height="512px" viewBox="0 0 792 792" style="enable-background:new 0 0 792 792;" xml:space="preserve">
<g>
	<g id="Sandglass">
		<g>
			<path d="M643.5,717.75h-12.375v-99c0-25.319-9.528-48.461-25.195-65.983L495.198,428.992     c-7.821-8.762-12.573-20.32-12.573-32.992s4.752-24.23,12.598-32.992l110.731-123.799c15.643-17.499,25.171-40.615,25.171-65.959     v-99H643.5c20.493,0,37.125-16.632,37.125-37.125S663.993,0,643.5,0h-495c-20.493,0-37.125,16.632-37.125,37.125     S128.007,74.25,148.5,74.25h12.375v99c0,25.344,9.529,48.46,25.195,65.983l110.731,123.8     c7.821,8.736,12.573,20.295,12.573,32.967s-4.752,24.23-12.598,32.992L186.046,552.767     c-15.642,17.522-25.171,40.664-25.171,65.983v99H148.5c-20.493,0-37.125,16.632-37.125,37.125S128.007,792,148.5,792h495     c20.493,0,37.125-16.632,37.125-37.125S663.993,717.75,643.5,717.75z M556.875,717.75h-321.75v-99     c0-7.821,3.416-13.291,6.262-16.483l110.756-123.8c20.295-22.721,31.482-52,31.482-82.467c0-30.467-11.187-59.771-31.507-82.492     L241.412,189.733c-2.871-3.217-6.287-8.687-6.287-16.483v-99h321.75v99c0,7.796-3.416,13.266-6.286,16.483L439.832,313.558     c-20.271,22.671-31.457,51.975-31.457,82.442c0,30.467,11.187,59.746,31.507,82.492l110.707,123.75     c2.846,3.217,6.286,8.687,6.286,16.508V717.75z" fill="#39bebc"/>
		</g>
	</g>
</g>
<g>
</g>
<g>
</g>
<g>
</g>
<g>
</g>
<g>
</g>
<g>
</g>
<g>
</g>
<g>
</g>
<g>
</g>
<g>
</g>
<g>
</g>
<g>
</g>
<g>
</g>
<g>
</g>
<g>
</g>
</svg>
