<?xml version="1.0" encoding="utf-8"?>
<!-- Generator: Adobe Illustrator 16.0.0, SVG Export Plug-In . SVG Version: 6.00 Build 0)  -->
<!DOCTYPE svg PUBLIC "-//W3C//DTD SVG 1.1//EN" "http://www.w3.org/Graphics/SVG/1.1/DTD/svg11.dtd">
<svg version="1.1" id="Layer_1" xmlns="http://www.w3.org/2000/svg" xmlns:xlink="http://www.w3.org/1999/xlink" x="0px" y="0px"
	 width="44.384px" height="41.548px" viewBox="0 0 44.384 41.548" enable-background="new 0 0 44.384 41.548" xml:space="preserve">
<path fill="#303030" d="M38.376,23.124c-0.348-0.088-0.695,0-0.998,0.218c-1.129,0.959-2.432,1.744-3.865,2.267
	c-1.346,0.523-2.822,0.785-4.385,0.785c-3.518,0-6.73-1.438-9.031-3.75c-2.301-2.311-3.732-5.537-3.732-9.069
	c0-1.482,0.26-2.922,0.693-4.229c0.479-1.396,1.172-2.66,2.084-3.75c0.391-0.479,0.305-1.178-0.174-1.57
	c-0.303-0.218-0.65-0.305-0.998-0.218C14.28,4.81,11.067,7.033,8.765,9.999c-2.213,2.921-3.559,6.54-3.559,10.508
	c0,4.753,1.91,9.07,5.035,12.21c3.127,3.139,7.424,5.058,12.156,5.058c3.996,0,7.686-1.396,10.639-3.706
	c2.996-2.354,5.166-5.712,6.078-9.55C39.331,23.864,38.983,23.254,38.376,23.124z M31.733,32.236
	c-2.52,2.006-5.73,3.228-9.248,3.228c-4.125,0-7.859-1.701-10.551-4.404S7.55,24.605,7.55,20.464c0-3.445,1.129-6.585,3.082-9.113
	c1.346-1.744,3.039-3.184,4.994-4.187c-0.217,0.479-0.436,0.96-0.609,1.482c-0.564,1.57-0.824,3.228-0.824,4.972
	c0,4.142,1.693,7.936,4.385,10.639c2.691,2.704,6.469,4.404,10.594,4.404c1.824,0,3.561-0.305,5.168-0.916
	c0.564-0.218,1.129-0.436,1.648-0.697C34.946,29.054,33.513,30.842,31.733,32.236z"/>
</svg>
