<?xml version="1.0" encoding="iso-8859-1"?>
<!-- Generator: Adobe Illustrator 19.0.0, SVG Export Plug-In . SVG Version: 6.00 Build 0)  -->
<svg xmlns="http://www.w3.org/2000/svg" xmlns:xlink="http://www.w3.org/1999/xlink" version="1.1" id="Capa_1" x="0px" y="0px" viewBox="0 0 512.001 512.001" style="enable-background:new 0 0 512.001 512.001;" xml:space="preserve" width="512px" height="512px">
<g>
	<g>
		<path d="M431.141,0H80.871C51.098,0,26.876,25.198,26.876,56.17v407.964c0,26.383,20.528,47.869,46.058,47.867l366.138-0.026    c25.394-0.001,46.052-21.474,46.052-47.866V56.17C485.126,25.198,460.908,0,431.141,0z M41.939,56.17    c0-22.667,17.465-41.107,38.932-41.107h350.269c21.461,0,38.922,18.44,38.922,41.107v5.521H41.939V56.17z M470.064,464.107h-0.001    c0,18.087-13.902,32.803-30.99,32.804l-366.138,0.026c-17.02,0-30.994-14.571-30.994-32.805V76.754h428.124V464.107z" fill="#006DF0"/>
	</g>
</g>
<g>
	<g>
		<path d="M406.88,31.565H65.457c-4.159,0-7.531,3.372-7.531,7.531c0,4.159,3.372,7.531,7.531,7.531H406.88    c4.159,0,7.531-3.372,7.531-7.531C414.411,34.938,411.039,31.565,406.88,31.565z" fill="#006DF0"/>
	</g>
</g>
<g>
	<g>
		<circle cx="438.116" cy="39.097" r="10.815" fill="#006DF0"/>
	</g>
</g>
<g>
	<g>
		<path d="M161.888,143.367l-12.595-1.831l-5.632-11.413c-4.285-8.681-16.668-8.68-20.953,0l-5.632,11.413l-12.599,1.832    c-9.696,1.414-13.322,13.25-6.47,19.927l9.113,8.882c-2.138,12.776-2.324,12.812-2.324,14.547c0,8.78,9.385,14.384,17.123,10.314    l11.266-5.922c10.033,4.919,12.07,7.272,16.704,7.272c7.189,0,12.752-6.469,11.514-13.666l-2.152-12.544    c6.583-7.323,12.647-9.707,12.647-17.227C171.896,149.082,167.688,144.211,161.888,143.367z M143.934,170.997    c0,1.658,0.234,2.083,1.463,9.521l-6.779-3.565c-7.659-4.021-13.801,2.134-17.648,3.565c0.044-3.888,4.303-11.679-2.066-17.888    l-5.482-5.343l7.573-1.102c8.577-1.244,9.745-9.553,12.187-13.256l3.388,6.864c3.834,7.772,12.08,6.31,16.374,7.494    C149.622,161.19,143.934,163.849,143.934,170.997z" fill="#006DF0"/>
	</g>
</g>
<g>
	<g>
		<path d="M243.765,143.367l-12.596-1.831l-5.631-11.411c-1.982-4.018-5.997-6.514-10.478-6.514c-4.479,0-8.493,2.495-10.477,6.513    l-5.632,11.413l-12.596,1.831c-9.72,1.414-13.313,13.262-6.474,19.927l9.115,8.883c-2.138,12.776-2.324,12.812-2.324,14.548    c0,8.781,9.386,14.382,17.123,10.313l11.266-5.922c10.163,4.984,12.077,7.273,16.703,7.273c7.191,0,12.753-6.471,11.514-13.667    l-2.152-12.544c6.585-7.325,12.647-9.71,12.647-17.227C253.773,149.082,249.564,144.211,243.765,143.367z M225.813,170.997    c0,1.671,0.245,2.142,1.463,9.521l-6.78-3.565c-7.68-4.03-13.804,2.135-17.647,3.565c0.152-4.052,4.172-11.809-2.066-17.888    l-5.483-5.344c4.301-1.185,12.539,0.278,16.372-7.491l3.389-6.866c2.456,3.723,3.611,12.012,12.185,13.256l7.577,1.102    C231.497,161.194,225.813,163.841,225.813,170.997z" fill="#006DF0"/>
	</g>
</g>
<g>
	<g>
		<path d="M325.645,143.366l-12.596-1.831l-5.632-11.411c-4.285-8.683-16.669-8.68-20.954-0.001l-5.633,11.413l-12.599,1.832    c-5.796,0.846-10.003,5.717-10.003,11.584c0,3.159,1.255,6.122,3.533,8.343l9.114,8.883c-2.138,12.776-2.324,12.812-2.324,14.547    c0,6.431,5.242,11.664,11.686,11.664c4.628,0,6.512-2.273,16.704-7.272c10.14,4.972,12.072,7.272,16.704,7.272    c7.189,0,12.752-6.469,11.514-13.666l-2.152-12.544c6.583-7.323,12.647-9.707,12.647-17.227    C335.653,149.081,331.445,144.21,325.645,143.366z M307.859,172.973l1.294,7.546c-3.443-0.957-9.655-7.775-17.65-3.563    l-6.777,3.563c0.172-4.33,4.157-11.82-2.066-17.888l-5.482-5.343l7.574-1.103c8.577-1.244,9.745-9.553,12.187-13.256    c2.453,3.719,3.611,12.013,12.185,13.256l7.577,1.102C313.353,161.219,306.408,164.665,307.859,172.973z" fill="#006DF0"/>
	</g>
</g>
<g>
	<g>
		<path d="M417.532,154.951c0-5.869-4.209-10.741-10.008-11.584l-12.595-1.831l-5.631-11.412c-4.285-8.683-16.669-8.68-20.954-0.001    l-5.632,11.413l-12.596,1.831c-5.798,0.844-10.007,5.715-10.007,11.584c-0.002,7.518,6.06,9.902,12.646,17.227    c-2.144,12.808-2.323,12.808-2.323,14.548c0,8.78,9.385,14.383,17.122,10.313l11.266-5.922    c10.163,4.984,12.078,7.273,16.704,7.273c7.191,0,12.753-6.471,11.514-13.667l-2.152-12.544l9.114-8.884    C416.277,161.074,417.532,158.112,417.532,154.951z M389.737,172.973l1.294,7.546c-5.58-2.65-7.78-4.905-12.214-4.905    c-4.427,0-6.587,2.231-12.213,4.905c1.184-7.175,1.463-7.845,1.463-9.521c0-3.131-1.286-6.181-3.529-8.366l-5.483-5.344    c4.303-1.187,12.54,0.276,16.373-7.493l3.389-6.866c2.455,3.723,3.611,12.012,12.185,13.256l7.577,1.102    C395.213,161.241,388.304,164.634,389.737,172.973z" fill="#006DF0"/>
	</g>
</g>
<g>
	<g>
		<path d="M427.507,248.469H84.495c-4.159,0-7.531,3.371-7.531,7.531s3.372,7.531,7.531,7.531h343.012    c4.159,0,7.531-3.371,7.531-7.531S431.666,248.469,427.507,248.469z" fill="#006DF0"/>
	</g>
</g>
<g>
	<g>
		<path d="M427.507,286.628H172.444c-4.159,0-7.531,3.371-7.531,7.531c0,4.16,3.372,7.531,7.531,7.531h255.063    c4.159,0,7.531-3.371,7.531-7.531C435.038,289.999,431.666,286.628,427.507,286.628z" fill="#006DF0"/>
	</g>
</g>
<g>
	<g>
		<path d="M142.318,286.628H84.495c-4.159,0-7.531,3.371-7.531,7.531c0,4.16,3.372,7.531,7.531,7.531h57.824    c4.159,0,7.531-3.371,7.531-7.531C149.85,289.999,146.478,286.628,142.318,286.628z" fill="#006DF0"/>
	</g>
</g>
<g>
	<g>
		<path d="M285.331,324.787H84.495c-4.159,0-7.531,3.371-7.531,7.531s3.372,7.531,7.531,7.531h200.837    c4.159,0,7.531-3.371,7.531-7.531S289.491,324.787,285.331,324.787z" fill="#006DF0"/>
	</g>
</g>
<g>
	<g>
		<path d="M427.507,324.787h-112.05c-4.159,0-7.531,3.371-7.531,7.531s3.372,7.531,7.531,7.531h112.05    c4.159,0,7.531-3.371,7.531-7.531S431.666,324.787,427.507,324.787z" fill="#006DF0"/>
	</g>
</g>
<g>
	<g>
		<path d="M427.507,362.946H84.495c-4.159,0-7.531,3.371-7.531,7.531s3.372,7.531,7.531,7.531h343.012    c4.159,0,7.531-3.371,7.531-7.531S431.666,362.946,427.507,362.946z" fill="#006DF0"/>
	</g>
</g>
<g>
	<g>
		<path d="M427.507,401.105H84.495c-4.159,0-7.531,3.371-7.531,7.531s3.372,7.531,7.531,7.531h343.012    c4.159,0,7.531-3.371,7.531-7.531S431.666,401.105,427.507,401.105z" fill="#006DF0"/>
	</g>
</g>
<g>
	<g>
		<path d="M427.507,439.264H150.352c-4.159,0-7.531,3.371-7.531,7.531s3.372,7.531,7.531,7.531h277.155    c4.159,0,7.531-3.371,7.531-7.531S431.666,439.264,427.507,439.264z" fill="#006DF0"/>
	</g>
</g>
<g>
	<g>
		<path d="M120.226,439.264H84.495c-4.159,0-7.531,3.371-7.531,7.531s3.372,7.531,7.531,7.531h35.732    c4.159,0,7.531-3.371,7.531-7.531S124.386,439.264,120.226,439.264z" fill="#006DF0"/>
	</g>
</g>
<g>
</g>
<g>
</g>
<g>
</g>
<g>
</g>
<g>
</g>
<g>
</g>
<g>
</g>
<g>
</g>
<g>
</g>
<g>
</g>
<g>
</g>
<g>
</g>
<g>
</g>
<g>
</g>
<g>
</g>
</svg>
