<?xml version="1.0" encoding="utf-8"?>
<!-- Generator: Adobe Illustrator 14.0.0, SVG Export Plug-In . SVG Version: 6.00 Build 43363)  -->
<!DOCTYPE svg PUBLIC "-//W3C//DTD SVG 1.1//EN" "http://www.w3.org/Graphics/SVG/1.1/DTD/svg11.dtd">
<svg version="1.1" id="Layer_1" xmlns="http://www.w3.org/2000/svg" xmlns:xlink="http://www.w3.org/1999/xlink" x="0px" y="0px"
	 width="45.848px" height="44.667px" viewBox="0 0 45.848 44.667" enable-background="new 0 0 45.848 44.667" xml:space="preserve">
<g>
	<path fill="#474747" d="M39.924,21.172h-1.647v-7.504c0-1.8-1.479-3.263-3.296-3.263h-2.232L30.465,6.34
		c-0.349-0.621-1.011-1.007-1.729-1.007c-0.335,0-0.667,0.086-0.96,0.247l-8.766,4.825H9.22c-1.817,0-3.296,1.463-3.296,3.263
		v22.402c0,1.799,1.479,3.263,3.296,3.263h25.761c1.817,0,3.296-1.464,3.296-3.263v-6.579h1.647V21.172L39.924,21.172z
		 M34.981,11.71c1.015,0,1.844,0.764,1.955,1.74h-2.477l-0.977-1.74H34.981z M28.417,6.72c0.309-0.171,0.725-0.051,0.896,0.254
		l3.639,6.476h-16.76L28.417,6.72z M36.958,36.071c0,1.079-0.888,1.958-1.978,1.958H9.22c-1.091,0-1.978-0.879-1.978-1.958V13.668
		c0-1.08,0.887-1.958,1.978-1.958h7.42l-3.161,1.74H9.632c-0.365,0-0.659,0.292-0.659,0.652s0.294,0.652,0.659,0.652h1.476h24.085
		h1.766v6.417h-4.82c-2.238,0-4.061,1.804-4.061,4.02v0.281c0,2.216,1.822,4.02,4.061,4.02h4.82V36.071L36.958,36.071z
		 M38.606,28.187h-0.329h-6.139c-1.513,0-2.742-1.218-2.742-2.715v-0.28c0-1.497,1.229-2.715,2.742-2.715h6.139h0.329V28.187z
		 M34.156,25.385c0,0.796-0.651,1.44-1.455,1.44c-0.805,0-1.455-0.645-1.455-1.44s0.65-1.44,1.455-1.44
		C33.505,23.945,34.156,24.59,34.156,25.385z"/>
</g>
</svg>
