<svg xmlns="http://www.w3.org/2000/svg" height="456pt" version="1.1" viewBox="0 -4 456 456" width="456pt">
<g id="surface1">
<path d="M 456 224 L 432.960938 277.855469 L 426.015625 336.023438 L 379.078125 371.078125 L 344.023438 418.015625 L 285.855469 424.960938 L 232 448 L 178.144531 424.960938 L 119.976562 418.015625 L 84.921875 371.078125 L 37.984375 336.023438 L 31.039062 277.855469 L 8 224 L 31.039062 170.144531 L 37.984375 111.976562 L 84.921875 76.921875 L 119.976562 29.984375 L 178.144531 23.039062 L 232 0 L 285.855469 23.039062 L 344.023438 29.984375 L 379.078125 76.921875 L 426.015625 111.976562 L 432.960938 170.144531 Z M 456 224 " style=" stroke:none;fill-rule:nonzero;fill:rgb(100%,85.490196%,26.666667%);fill-opacity:1;" />
<path d="M 352 256 L 344 256 C 357.253906 256 368 266.746094 368 280 C 368 293.253906 357.253906 304 344 304 L 328 304 C 341.253906 304 352 314.746094 352 328 C 352 341.253906 341.253906 352 328 352 L 120 352 L 120 160 L 136 160 C 175.765625 160 208 127.765625 208 88 L 208 56 L 224 56 C 241.671875 56 256 70.328125 256 88 L 256 160 L 342.640625 160 C 355.5625 159.722656 366.546875 169.386719 367.921875 182.238281 C 368.410156 188.890625 366.109375 195.445312 361.570312 200.332031 C 357.035156 205.21875 350.667969 207.996094 344 208 L 350.640625 208 C 363.5625 207.722656 374.546875 217.386719 375.921875 230.238281 C 376.410156 236.890625 374.109375 243.445312 369.570312 248.332031 C 365.035156 253.21875 358.667969 255.996094 352 256 Z M 352 256 " style=" stroke:none;fill-rule:nonzero;fill:rgb(100%,92.941176%,90.980392%);fill-opacity:1;" />
<path d="M 32 144 L 120 144 L 120 368 L 96 368 L 32 344 L 40 280 L 0 224 L 40 168 Z M 32 144 " style=" stroke:none;fill-rule:nonzero;fill:rgb(0%,42.745098%,94.117647%);fill-opacity:1;" />
</g>
</svg>