<?xml version="1.0" encoding="iso-8859-1"?>
<!-- Generator: Adobe Illustrator 19.0.0, SVG Export Plug-In . SVG Version: 6.00 Build 0)  -->
<svg version="1.1" id="Capa_1" xmlns="http://www.w3.org/2000/svg" xmlns:xlink="http://www.w3.org/1999/xlink" x="0px" y="0px"
	 viewBox="0 0 480 480" style="enable-background:new 0 0 480 480;" xml:space="preserve">
<g>
	<g>
		<g>
			<path d="M450.975,202.4l-11.336-11.336c-9.499-9.065-24.445-9.065-33.944,0l-47.656,47.704V8c0-4.418-3.582-8-8-8h-216
				c-0.16,0-0.312,0.08-0.472,0.096c-0.72,0.042-1.43,0.182-2.112,0.416c-0.248,0.088-0.488,0.152-0.72,0.256
				c-0.874,0.387-1.671,0.929-2.352,1.6l-104,104c-0.671,0.678-1.213,1.472-1.6,2.344c-0.112,0.248-0.176,0.496-0.264,0.752
				c-0.231,0.663-0.368,1.355-0.408,2.056c0,0.176-0.104,0.328-0.104,0.504V472c0,4.418,3.582,8,8,8h320.032c4.418,0,8-3.582,8-8
				V329.232l92.936-92.912C460.333,226.95,460.333,211.77,450.975,202.4z M126.039,27.312V104H49.351L126.039,27.312z M342.039,464
				h-304V120h96c4.418,0,8-3.582,8-8V16h200v238.688L230.375,366.4c-0.504,0.583-0.964,1.204-1.376,1.856l-39.608,73.528
				c-2.099,3.888-0.648,8.741,3.24,10.84c2.372,1.28,5.229,1.28,7.601,0l73.52-39.6c0.656-0.416,1.279-0.881,1.864-1.392
				l66.424-66.4V464z M237.983,385.336l18.72,18.72l-40.568,21.848L237.983,385.336z M269.959,394.688l-22.608-22.608
				l130.016-130.024c1.264,1.264,17.088,17.128,22.576,22.648L269.959,394.688z M411.271,253.4c-1.6-1.6-22.496-22.448-22.656-22.6
				l11.424-11.472l22.672,22.664L411.271,253.4z M439.645,225.002c-0.002,0.002-0.004,0.004-0.006,0.006l-5.656,5.648L411.375,208
				l5.664-5.648c3.173-3.02,8.164-2.999,11.312,0.048l11.288,11.288C442.764,216.81,442.767,221.876,439.645,225.002z"/>
			<path d="M230.039,160h48v-32h32V80h-32V48h-48v32h-32v48h32V160z M214.039,112V96h32V64h16v32h32v16h-32v32h-16v-32H214.039z"/>
			<rect x="70.039" y="232" width="32" height="16"/>
			<rect x="70.039" y="280" width="32" height="16"/>
			<rect x="70.039" y="328" width="32" height="16"/>
			<rect x="118.039" y="328" width="104" height="16"/>
			<rect x="118.039" y="280" width="152" height="16"/>
			<rect x="118.039" y="232" width="192" height="16"/>
			<rect x="70.039" y="424" width="16" height="16"/>
			<rect x="102.039" y="424" width="16" height="16"/>
			<rect x="134.039" y="424" width="16" height="16"/>
			<rect x="166.039" y="424" width="16" height="16"/>
		</g>
	</g>
</g>
<g>
</g>
<g>
</g>
<g>
</g>
<g>
</g>
<g>
</g>
<g>
</g>
<g>
</g>
<g>
</g>
<g>
</g>
<g>
</g>
<g>
</g>
<g>
</g>
<g>
</g>
<g>
</g>
<g>
</g>
</svg>
