<?xml version="1.0" encoding="utf-8"?>
<!-- Generator: Adobe Illustrator 16.0.0, SVG Export Plug-In . SVG Version: 6.00 Build 0)  -->
<!DOCTYPE svg PUBLIC "-//W3C//DTD SVG 1.1//EN" "http://www.w3.org/Graphics/SVG/1.1/DTD/svg11.dtd">
<svg version="1.1" id="Layer_1" xmlns="http://www.w3.org/2000/svg" xmlns:xlink="http://www.w3.org/1999/xlink" x="0px" y="0px"
	 width="44.384px" height="41.548px" viewBox="0 0 44.384 41.548" enable-background="new 0 0 44.384 41.548" xml:space="preserve">
<g>
	<g>
		<path fill="#303030" d="M8.051,20.774c0-0.686-0.555-1.24-1.24-1.24H4.333c-0.685,0-1.239,0.555-1.239,1.24
			c0,0.684,0.555,1.238,1.239,1.238h2.478C7.496,22.013,8.051,21.458,8.051,20.774z M39.854,19.534h-2.478
			c-0.686,0-1.24,0.555-1.24,1.24c0,0.684,0.555,1.238,1.24,1.238h2.478c0.685,0,1.239-0.555,1.239-1.238
			C41.094,20.089,40.539,19.534,39.854,19.534z M22.094,34.817c-0.684,0-1.239,0.555-1.239,1.238v2.479
			c0,0.686,0.555,1.24,1.239,1.24s1.239-0.555,1.239-1.24v-2.479C23.333,35.372,22.777,34.817,22.094,34.817z M22.094,6.729
			c0.685,0,1.239-0.555,1.239-1.238V3.013c0-0.684-0.556-1.238-1.239-1.238s-1.239,0.555-1.239,1.238v2.479
			C20.854,6.175,21.409,6.729,22.094,6.729z M30.809,33.39c-0.343-0.594-1.101-0.797-1.693-0.453
			c-0.592,0.342-0.795,1.1-0.453,1.691l1.239,2.146c0.343,0.594,1.101,0.795,1.692,0.453c0.593-0.342,0.796-1.1,0.453-1.691
			L30.809,33.39z M13.379,8.157c0.343,0.594,1.102,0.797,1.693,0.455s0.795-1.1,0.453-1.693l-1.239-2.146
			c-0.342-0.592-1.1-0.795-1.692-0.453s-0.796,1.1-0.453,1.693L13.379,8.157z M38.095,28.581l-2.146-1.238
			c-0.593-0.344-1.351-0.141-1.692,0.453c-0.342,0.592-0.139,1.35,0.453,1.693l2.146,1.238c0.592,0.342,1.351,0.139,1.693-0.453
			C38.891,29.681,38.688,28.923,38.095,28.581z M9.479,12.06l-2.146-1.24c-0.593-0.342-1.351-0.139-1.693,0.455
			c-0.342,0.592-0.139,1.35,0.454,1.691l2.146,1.24c0.593,0.342,1.351,0.139,1.692-0.453C10.273,13.159,10.07,12.401,9.479,12.06z
			 M35.948,14.206l2.146-1.24c0.593-0.342,0.796-1.1,0.454-1.691c-0.343-0.594-1.101-0.797-1.693-0.455l-2.146,1.24
			c-0.592,0.342-0.795,1.1-0.453,1.693C34.598,14.345,35.355,14.548,35.948,14.206z M8.239,27.343l-2.146,1.238
			c-0.593,0.342-0.796,1.1-0.454,1.693c0.343,0.592,1.102,0.795,1.693,0.453l2.146-1.238c0.592-0.344,0.795-1.102,0.453-1.693
			C9.59,27.202,8.832,26.999,8.239,27.343z M29.115,8.612c0.593,0.342,1.351,0.139,1.693-0.455l1.238-2.145
			c0.343-0.594,0.14-1.352-0.453-1.693s-1.351-0.139-1.692,0.453l-1.239,2.146C28.32,7.513,28.523,8.271,29.115,8.612z
			 M15.072,32.937c-0.593-0.344-1.351-0.141-1.693,0.453l-1.238,2.146c-0.343,0.592-0.14,1.35,0.453,1.691
			c0.592,0.344,1.35,0.141,1.692-0.453l1.239-2.146C15.867,34.036,15.664,33.278,15.072,32.937z M22.094,9.208
			c-6.377,0-11.565,5.189-11.565,11.566s5.188,11.564,11.565,11.564s11.565-5.188,11.565-11.564S28.471,9.208,22.094,9.208z
			 M22.094,29.86c-5.011,0-9.087-4.076-9.087-9.086c0-5.012,4.076-9.088,9.087-9.088s9.087,4.076,9.087,9.088
			C31.181,25.784,27.104,29.86,22.094,29.86z M22.094,14.165c-3.645,0-6.609,2.965-6.609,6.609c0,0.684,0.556,1.238,1.24,1.238
			c0.684,0,1.238-0.555,1.238-1.238c0-2.277,1.854-4.131,4.131-4.131c0.685,0,1.239-0.555,1.239-1.238
			C23.333,14.72,22.777,14.165,22.094,14.165z"/>
	</g>
</g>
</svg>
