<?xml version="1.0" encoding="iso-8859-1"?>
<!-- Generator: Adobe Illustrator 19.0.0, SVG Export Plug-In . SVG Version: 6.00 Build 0)  -->
<svg xmlns="http://www.w3.org/2000/svg" xmlns:xlink="http://www.w3.org/1999/xlink" version="1.1" id="Capa_1" x="0px" y="0px" viewBox="0 0 415.999 415.999" style="enable-background:new 0 0 415.999 415.999;" xml:space="preserve" width="512px" height="512px">
<g>
	<g>
		<path d="M335.999,64h-44.423c-5.926-6.583-13.538-11.62-22.284-14.136c-7.368-2.118-13.038-7.788-15.156-15.156    C248.371,14.664,229.898,0,208,0c-21.898,0-40.37,14.664-46.136,34.707c-2.121,7.376-7.805,13.039-15.181,15.164    c-8.738,2.518-16.342,7.55-22.262,14.129H80C62.327,64,48,78.327,48,96v287.999c0,17.673,14.326,32,31.999,32h255.999    c17.674,0,32-14.327,32-32V96C367.999,78.327,353.673,64,335.999,64z M208.206,32c8.837,0,16,7.163,16,16c0,8.836-7.163,16-16,16    s-16-7.164-16-16C192.206,39.163,199.369,32,208.206,32z M336,383.999L336,383.999H80V96h32v32h192V96H336V383.999z" fill="#f15c23"/>
	</g>
</g>
<g>
	<g>
		<polygon points="230.628,252.115 275.883,206.845 253.25,184.212 207.995,229.482 162.746,184.234 140.205,206.774     185.455,252.023 140.112,297.367 162.744,320 208.088,274.655 253.351,319.902 275.891,297.362   " fill="#f15c23"/>
	</g>
</g>
<g>
</g>
<g>
</g>
<g>
</g>
<g>
</g>
<g>
</g>
<g>
</g>
<g>
</g>
<g>
</g>
<g>
</g>
<g>
</g>
<g>
</g>
<g>
</g>
<g>
</g>
<g>
</g>
<g>
</g>
</svg>
