<?xml version="1.0" encoding="utf-8"?>
<!-- Generator: Adobe Illustrator 14.0.0, SVG Export Plug-In . SVG Version: 6.00 Build 43363)  -->
<!DOCTYPE svg PUBLIC "-//W3C//DTD SVG 1.1//EN" "http://www.w3.org/Graphics/SVG/1.1/DTD/svg11.dtd">
<svg version="1.1" id="Layer_1" xmlns="http://www.w3.org/2000/svg" xmlns:xlink="http://www.w3.org/1999/xlink" x="0px" y="0px"
	 width="45.848px" height="44.667px" viewBox="0 0 45.848 44.667" enable-background="new 0 0 45.848 44.667" xml:space="preserve">
<g>
	<path fill="#474747" d="M19.348,9.341c0-0.523,0.429-0.947,0.958-0.947h1.66V6.755c0-0.523,0.429-0.947,0.958-0.947
		s0.958,0.424,0.958,0.947v1.639h1.66c0.53,0,0.959,0.424,0.959,0.947s-0.429,0.947-0.959,0.947h-1.66v1.639
		c0,0.523-0.429,0.947-0.958,0.947s-0.958-0.424-0.958-0.947v-1.639h-1.66C19.777,10.288,19.348,9.864,19.348,9.341z M42.424,41.387
		c0,0.523-0.429,0.947-0.958,0.947H4.382c-0.529,0-0.958-0.424-0.958-0.947s0.429-0.947,0.958-0.947h3.677V9.341
		c0-0.523,0.429-0.947,0.959-0.947h6.875c0.469-3.418,3.443-6.061,7.031-6.061s6.562,2.643,7.031,6.061h6.875
		c0.254,0,0.498,0.1,0.678,0.277c0.18,0.177,0.281,0.418,0.281,0.669V40.44h3.676C41.995,40.44,42.424,40.864,42.424,41.387z
		 M17.746,9.341c0,2.82,2.323,5.114,5.178,5.114s5.178-2.294,5.178-5.114s-2.323-5.114-5.178-5.114S17.746,6.521,17.746,9.341z
		 M21.966,33.621h-4.945v6.819h4.944L21.966,33.621z M28.828,33.621h-4.945l0,6.819h4.945V33.621L28.828,33.621z M35.872,10.288
		h-5.917c-0.469,3.417-3.443,6.061-7.031,6.061s-6.562-2.643-7.031-6.061H9.977V40.44h5.127v-7.766c0-0.523,0.429-0.947,0.958-0.947
		h6.862l0,0h6.862c0.53,0,0.959,0.424,0.959,0.947v7.766h5.127V10.288L35.872,10.288z M29.513,18.633h3.267
		c0.529,0,0.958,0.424,0.958,0.947v8.44c0,0.523-0.429,0.947-0.958,0.947h-3.267c-0.529,0-0.958-0.424-0.958-0.947v-8.44
		C28.554,19.057,28.983,18.633,29.513,18.633z M30.471,27.073h1.35v-6.546h-1.35V27.073z M25.516,19.58v8.44
		c0,0.523-0.429,0.947-0.958,0.947h-3.267c-0.529,0-0.958-0.424-0.958-0.947v-8.44c0-0.523,0.429-0.947,0.958-0.947h3.267
		C25.087,18.633,25.516,19.057,25.516,19.58z M23.599,20.527H22.25v6.546h1.349V20.527z M17.294,19.58v8.44
		c0,0.523-0.429,0.947-0.958,0.947h-3.267c-0.529,0-0.958-0.424-0.958-0.947v-8.44c0-0.523,0.429-0.947,0.958-0.947h3.267
		C16.865,18.633,17.294,19.057,17.294,19.58z M15.377,20.527h-1.35v6.546h1.35V20.527z"/>
</g>
</svg>
