<?xml version="1.0" encoding="iso-8859-1"?>
<!-- Generator: Adobe Illustrator 19.0.0, SVG Export Plug-In . SVG Version: 6.00 Build 0)  -->
<svg version="1.1" id="Layer_1" xmlns="http://www.w3.org/2000/svg" xmlns:xlink="http://www.w3.org/1999/xlink" x="0px" y="0px"
	 viewBox="0 0 512 512" style="enable-background:new 0 0 512 512;" xml:space="preserve">
<g>
	<g>
		<g>
			<path d="M444.875,109.792L338.208,3.125c-2-2-4.708-3.125-7.542-3.125h-224C83.135,0,64,19.135,64,42.667v426.667
				C64,492.865,83.135,512,106.667,512h298.667C428.865,512,448,492.865,448,469.333v-352
				C448,114.5,446.875,111.792,444.875,109.792z M341.333,36.417l70.25,70.25h-48.917c-11.76,0-21.333-9.573-21.333-21.333V36.417z
				 M426.667,469.333c0,11.76-9.573,21.333-21.333,21.333H106.667c-11.76,0-21.333-9.573-21.333-21.333V42.667
				c0-11.76,9.573-21.333,21.333-21.333H320v64C320,108.865,339.135,128,362.667,128h64V469.333z"/>
			<path d="M337.333,301c-4.604-3.667-11.302-2.917-15,1.667l-31.441,39.302l-48.62-68.066
				c20.393-7.499,35.061-26.941,35.061-49.902c0-29.406-23.927-53.333-53.333-53.333h-42.667c-5.896,0-10.667,4.771-10.667,10.667
				v149.333c0,5.896,4.771,10.667,10.667,10.667c5.896,0,10.667-4.771,10.667-10.667v-53.333h26.514l58.531,81.943L237,409.333
				c-3.677,4.604-2.927,11.313,1.667,15c1.969,1.573,4.323,2.333,6.656,2.333c3.135,0,6.229-1.375,8.344-4l36.272-45.34
				l32.051,44.871c2.083,2.917,5.354,4.469,8.688,4.469c2.146,0,4.313-0.646,6.188-1.99c4.792-3.417,5.906-10.083,2.479-14.875
				l-35.559-49.783L339,316C342.677,311.396,341.927,304.688,337.333,301z M192,256v-64h32c17.646,0,32,14.354,32,32
				s-14.354,32-32,32H192z"/>
		</g>
	</g>
</g>
<g>
</g>
<g>
</g>
<g>
</g>
<g>
</g>
<g>
</g>
<g>
</g>
<g>
</g>
<g>
</g>
<g>
</g>
<g>
</g>
<g>
</g>
<g>
</g>
<g>
</g>
<g>
</g>
<g>
</g>
</svg>
