<?xml version="1.0" encoding="utf-8"?>
<!-- Generator: Adobe Illustrator 14.0.0, SVG Export Plug-In . SVG Version: 6.00 Build 43363)  -->
<!DOCTYPE svg PUBLIC "-//W3C//DTD SVG 1.1//EN" "http://www.w3.org/Graphics/SVG/1.1/DTD/svg11.dtd">
<svg version="1.1" id="Layer_1" xmlns="http://www.w3.org/2000/svg" xmlns:xlink="http://www.w3.org/1999/xlink" x="0px" y="0px"
	 width="45.848px" height="44.667px" viewBox="0 0 45.848 44.667" enable-background="new 0 0 45.848 44.667" xml:space="preserve">
<g>
	<path fill="#474747" d="M39.611,39.833c-0.323,0-0.628-0.191-0.755-0.507l-2.028-5.034c-1.042-2.546-2.24-3.831-3.908-4.133
		l-0.424,2.006l0.586,5.229c0.031,0.274-0.082,0.545-0.299,0.718l-1.308,1.042c-0.145,0.115-0.324,0.178-0.509,0.178h-0.464
		c-0.185,0-0.365-0.063-0.509-0.178l-1.309-1.042c-0.217-0.173-0.329-0.443-0.299-0.718l0.586-5.229l-0.424-2.006
		c-1.667,0.302-2.866,1.587-3.909,4.137l-2.06,5.034c-0.168,0.412-0.643,0.611-1.059,0.443c-0.416-0.167-0.617-0.638-0.448-1.05
		l2.06-5.034c0.894-2.183,2.479-5.067,5.968-5.208c0.031-0.003,0.062-0.005,0.093-0.005h3.081c0.032,0,0.063,0.002,0.094,0.005
		c3.49,0.141,5.074,3.025,5.968,5.208l2.03,5.038c0.167,0.413-0.037,0.883-0.454,1.048C39.814,39.814,39.712,39.833,39.611,39.833z
		 M30.052,37.133l0.683,0.544l0.683-0.544l-0.471-4.201h-0.424L30.052,37.133z M30.456,31.319h0.559l0.26-1.23h-1.079L30.456,31.319
		z M6.236,39.833c-0.102,0-0.205-0.019-0.305-0.06c-0.416-0.167-0.616-0.638-0.448-1.05l2.029-4.96
		c0.904-2.207,2.524-5.143,6.154-5.143h2.691c1.957,0,3.567,0.862,4.787,2.564c0.02,0.027,0.112,0.152,0.225,0.304
		c0.388,0.525,0.492,0.666,0.526,0.717c0.248,0.372,0.145,0.872-0.23,1.117c-0.373,0.245-0.875,0.145-1.123-0.223
		c-0.044-0.063-0.33-0.449-0.483-0.657c-0.121-0.163-0.221-0.298-0.24-0.325c-0.563-0.784-1.191-1.313-1.923-1.606l-2.227,3.025
		c-0.153,0.209-0.397,0.331-0.656,0.331c-0.26,0-0.504-0.122-0.657-0.331l-2.227-3.025c-1.269,0.511-2.244,1.741-3.11,3.858
		L6.99,39.33C6.862,39.643,6.558,39.833,6.236,39.833z M13.937,30.233l1.076,1.462l1.076-1.462H13.937z M18.292,39.833H9.646
		c-0.449,0-0.813-0.361-0.813-0.807s0.364-0.806,0.813-0.806h8.646c0.449,0,0.813,0.36,0.813,0.806S18.741,39.833,18.292,39.833z
		 M34.431,33.965c-0.449,0-0.813-0.36-0.813-0.806v-0.101c0-0.445,0.364-0.807,0.813-0.807c0.449,0,0.813,0.361,0.813,0.807v0.101
		C35.244,33.604,34.88,33.965,34.431,33.965z M15.013,27.438c-2.274,0-4.125-1.835-4.125-4.09c0-1.858,1.255-3.431,2.969-3.927
		c0.008-0.003,0.017-0.006,0.025-0.008c0.271-0.077,0.551-0.125,0.833-0.146h0c0.001,0,0.002,0,0.004,0
		c0.002,0,0.003-0.001,0.004-0.001c0.002,0,0.003,0,0.005,0c0.001,0,0.003,0,0.004,0c0.002,0,0.003-0.001,0.005-0.001
		c0.001,0,0.002,0,0.004,0c0.003,0,0.006,0,0.009-0.001l0,0c0.014,0,0.027-0.001,0.041-0.002l0,0c0.004,0,0.009,0,0.013-0.001
		c0.001,0.001,0.006,0,0.009,0c0.001,0,0.003,0,0.004,0s0.003,0,0.005,0c0.001-0.001,0.002-0.001,0.004-0.001s0.002,0,0.004,0
		s0.003,0,0.004,0s0.003,0,0.004,0s0.002-0.001,0.004,0c0.003-0.001,0.006,0,0.009-0.001c0.05-0.002,0.101-0.003,0.152-0.003
		c0.001,0,0.002,0,0.003,0c0.001,0,0.002,0,0.003,0c0,0,0,0,0,0c0.004,0,0.008,0,0.012,0l0,0c0.002,0,0.004,0,0.006,0
		s0.005,0,0.006,0c0.002,0,0.005,0,0.007,0c0,0,0.001,0,0.002,0c2.021,0.017,3.707,1.459,4.033,3.411
		c0.038,0.221,0.057,0.448,0.057,0.68C19.138,25.603,17.288,27.438,15.013,27.438z M13.551,21.339
		c-0.628,0.451-1.037,1.184-1.037,2.009c0,1.366,1.121,2.479,2.499,2.479c1.168,0,2.151-0.799,2.424-1.875
		C15.671,23.962,14.152,22.895,13.551,21.339z M15.116,20.871c0.376,0.844,1.208,1.427,2.179,1.466
		C16.917,21.502,16.087,20.91,15.116,20.871z M30.734,27.251c-2.302,0-4.174-1.856-4.174-4.14c0-2.282,1.873-4.14,4.174-4.14
		c0.275,0,0.545,0.026,0.806,0.077c0.017,0.003,0.034,0.007,0.051,0.011c1.893,0.393,3.318,2.061,3.318,4.052
		C34.909,25.395,33.037,27.251,30.734,27.251z M29.291,21.029c-0.667,0.457-1.104,1.22-1.104,2.082c0,1.394,1.143,2.527,2.548,2.527
		c1.406,0,2.549-1.134,2.549-2.527c0-1.037-0.633-1.93-1.537-2.319c-0.341,0.436-0.767,0.801-1.257,1.073
		c-0.392,0.218-0.887,0.079-1.106-0.309C29.289,21.391,29.261,21.204,29.291,21.029z M11.479,18.823
		c-0.142,0-0.284-0.037-0.411-0.111c-0.249-0.145-0.402-0.409-0.402-0.695v-7.264c0-1.411,1.158-2.56,2.582-2.56h2.884
		c0.449,0,0.813,0.36,0.813,0.806s-0.364,0.807-0.813,0.807h-2.884c-0.527,0-0.956,0.425-0.956,0.947v5.888l1.119-0.621
		c0.122-0.068,0.258-0.104,0.397-0.104h7.054c0.449,0,0.813,0.361,0.813,0.807s-0.364,0.806-0.813,0.806h-6.842l-2.144,1.191
		C11.753,18.789,11.616,18.823,11.479,18.823z M30.739,17.153c-0.225,0-0.444-0.092-0.601-0.263l-2.502-2.722h-6.573
		c-1.424,0-2.582-1.148-2.582-2.56V7.395c0-1.412,1.158-2.561,2.582-2.561h7.907c1.424,0,2.582,1.148,2.582,2.561v8.952
		c0,0.333-0.207,0.632-0.52,0.752C30.937,17.136,30.837,17.153,30.739,17.153z M21.063,6.446c-0.527,0-0.956,0.425-0.956,0.948
		v4.215c0,0.522,0.429,0.947,0.956,0.947h6.932c0.229,0,0.447,0.096,0.601,0.264l1.331,1.446V7.395c0-0.523-0.429-0.948-0.956-0.948
		H21.063z M15.969,12.853h-1.475c-0.449,0-0.813-0.361-0.813-0.806c0-0.445,0.364-0.807,0.813-0.807h1.475
		c0.449,0,0.813,0.361,0.813,0.807C16.782,12.491,16.418,12.853,15.969,12.853z M27.55,9.54h-3.355c-0.449,0-0.813-0.36-0.813-0.806
		s0.364-0.807,0.813-0.807h3.355c0.449,0,0.813,0.361,0.813,0.807S27.999,9.54,27.55,9.54z"/>
</g>
</svg>
