<?xml version="1.0" encoding="utf-8"?>
<!-- Generator: Adobe Illustrator 16.0.0, SVG Export Plug-In . SVG Version: 6.00 Build 0)  -->
<!DOCTYPE svg PUBLIC "-//W3C//DTD SVG 1.1//EN" "http://www.w3.org/Graphics/SVG/1.1/DTD/svg11.dtd">
<svg version="1.1" id="Layer_1" xmlns="http://www.w3.org/2000/svg" xmlns:xlink="http://www.w3.org/1999/xlink" x="0px" y="0px"
	 width="25.25px" height="26.979px" viewBox="0 0 25.25 26.979" enable-background="new 0 0 25.25 26.979" xml:space="preserve">
<path fill="#4FC2C1" d="M20.462,7.199c-0.106-0.098-0.243-0.146-0.409-0.146h-3.046c-0.202-0.904-0.582-1.688-1.14-2.353h4.149
	c0.167,0,0.303-0.049,0.409-0.147c0.107-0.098,0.16-0.223,0.16-0.375V2.51c0-0.153-0.053-0.278-0.16-0.376
	c-0.106-0.098-0.242-0.147-0.409-0.147H5.197c-0.166,0-0.303,0.049-0.41,0.147c-0.105,0.098-0.16,0.223-0.16,0.376v2.173
	c0,0.142,0.057,0.264,0.17,0.368s0.246,0.155,0.4,0.155H7.78c2.505,0,4.097,0.615,4.773,1.846H5.197
	c-0.166,0-0.303,0.049-0.41,0.147c-0.105,0.098-0.16,0.224-0.16,0.376v1.667c0,0.153,0.054,0.278,0.16,0.375
	c0.107,0.098,0.244,0.147,0.41,0.147h7.605c-0.261,0.893-0.869,1.574-1.826,2.042c-0.955,0.468-2.217,0.703-3.784,0.703H5.197
	c-0.154,0-0.287,0.052-0.4,0.155s-0.17,0.226-0.17,0.367v2.075c0,0.142,0.054,0.262,0.16,0.36c2.28,2.222,5.237,5.332,8.871,9.33
	c0.106,0.131,0.255,0.196,0.445,0.196h3.473c0.25,0,0.422-0.098,0.517-0.294c0.119-0.196,0.096-0.382-0.071-0.556
	c-3.467-3.899-6.191-6.819-8.176-8.757c2.02-0.218,3.658-0.817,4.917-1.797c1.259-0.98,2.024-2.255,2.298-3.824h2.992
	c0.166,0,0.303-0.049,0.409-0.146c0.106-0.098,0.161-0.224,0.161-0.376V7.575C20.623,7.422,20.568,7.297,20.462,7.199z"/>
</svg>
