<?xml version="1.0" encoding="iso-8859-1"?>
<!-- Generator: Adobe Illustrator 19.0.0, SVG Export Plug-In . SVG Version: 6.00 Build 0)  -->
<svg xmlns="http://www.w3.org/2000/svg" xmlns:xlink="http://www.w3.org/1999/xlink" version="1.1" id="Capa_1" x="0px" y="0px" viewBox="0 0 480.264 480.264" style="enable-background:new 0 0 480.264 480.264;" xml:space="preserve" width="512px" height="512px">
<g>
	<g>
		<path d="M456.136,96c-0.003,0-0.005,0-0.008,0h-8V24c0-13.255-10.745-24-24-24h-368c-30.913,0.035-55.965,25.087-56,56v400    c0,13.255,10.745,24,24,24l432.424,0.264c13.067-0.286,23.526-10.93,23.584-24V120C480.136,106.745,469.391,96,456.136,96z     M56.128,16h368c4.418,0,8,3.582,8,8v72h-376c-22.091,0-40-17.909-40-40S34.037,16,56.128,16z M464.128,336h-80    c-30.928,0-56-25.072-56-56c0-30.928,25.072-56,56-56h80V336z M464.128,208h-80c-39.764,0-72,32.235-72,72    c0,39.764,32.236,72,72,72h80v104.272c0.003,4.311-3.411,7.849-7.72,8L24.128,464c-4.418,0-8-3.582-8-8V95.12    c10.508,10.795,24.935,16.883,40,16.88h400c4.418,0,8,3.582,8,8V208z" fill="#39bebc"/>
	</g>
</g>
<g>
	<g>
		<polygon points="48.128,432 48.128,408 32.128,408 32.128,448 128.128,448 128.128,432   " fill="#39bebc"/>
	</g>
</g>
<g>
	<g>
		<rect x="32.128" y="360" width="16" height="32" fill="#39bebc"/>
	</g>
</g>
<g>
	<g>
		<path d="M384.128,240c-22.08,0.026-39.974,17.92-40,40c0,22.091,17.909,40,40,40c22.091,0,40-17.909,40-40    C424.128,257.909,406.219,240,384.128,240z M384.128,304c-13.255,0-24-10.745-24-24s10.745-24,24-24s24,10.745,24,24    S397.383,304,384.128,304z" fill="#39bebc"/>
	</g>
</g>
<g>
	<g>
		<rect x="48.128" y="48" width="352" height="16" fill="#39bebc"/>
	</g>
</g>
<g>
</g>
<g>
</g>
<g>
</g>
<g>
</g>
<g>
</g>
<g>
</g>
<g>
</g>
<g>
</g>
<g>
</g>
<g>
</g>
<g>
</g>
<g>
</g>
<g>
</g>
<g>
</g>
<g>
</g>
</svg>
