<?xml version="1.0" encoding="iso-8859-1"?>
<!-- Generator: Adobe Illustrator 19.0.0, SVG Export Plug-In . SVG Version: 6.00 Build 0)  -->
<svg xmlns="http://www.w3.org/2000/svg" xmlns:xlink="http://www.w3.org/1999/xlink" version="1.1" id="Layer_1" x="0px" y="0px" viewBox="0 0 512.001 512.001" style="enable-background:new 0 0 512.001 512.001;" xml:space="preserve" width="512px" height="512px">
<g>
	<g>
		<g>
			<path d="M411.411,367.23c-13.471-12.722-27.04-17.938-29.354-18.767l-46.173-19.24c-0.369-0.154-0.747-0.28-1.134-0.377     l-31.94-8.051v-27.098c0.468-0.233,0.93-0.473,1.394-0.715c0.942,0.633,2.028,1.082,3.221,1.273     c20.168,3.219,38.62,8.436,53.36,15.086c1.079,0.486,2.208,0.717,3.319,0.717c2.826,0,5.522-1.504,6.992-4.058     c0.32-0.296,0.627-0.612,0.903-0.969c26.056-33.611,40.405-77.188,40.405-122.705c0-55.64-21.215-107.518-58.204-142.331     c-0.004-0.004-0.011-0.009-0.015-0.013C326.785,14.199,292.3,0,257.077,0c-85.646,0-155.325,81.792-155.325,182.326     c0,46.52,14.908,90.806,41.976,124.7c0.056,0.069,0.119,0.129,0.176,0.197c0.053,0.061,0.107,0.119,0.161,0.178     c0.208,0.23,0.426,0.445,0.653,0.646c0.041,0.036,0.081,0.073,0.123,0.11c0.87,0.734,1.864,1.258,2.917,1.567     c0.024,0.008,0.047,0.014,0.071,0.021c0.34,0.097,0.683,0.171,1.033,0.223c0.022,0.004,0.043,0.009,0.066,0.012     c0.373,0.052,0.747,0.087,1.123,0.087c0.082,0,0.164-0.018,0.247-0.021c0.274-0.009,0.548-0.03,0.821-0.068     c0.156-0.022,0.309-0.044,0.464-0.073c0.317-0.061,0.632-0.138,0.944-0.239c0.157-0.051,0.31-0.115,0.465-0.177     c0.126-0.05,0.254-0.091,0.379-0.148c14.917-6.729,33.612-11.985,54.063-15.198c1.026-0.161,1.973-0.515,2.818-1.009     c0.319,0.165,0.638,0.332,0.96,0.493v27.091l-33.868,8.106c-0.419,0.1-0.83,0.234-1.228,0.4l-46.173,19.24     c-2.312,0.829-15.881,6.045-29.354,18.767c-13.338,12.596-29.237,35.26-29.237,71.704v64.976c0,4.466,3.62,8.086,8.084,8.086     h97.226c4.465,0,8.084-3.618,8.084-8.084c0-4.465-3.62-8.084-8.084-8.084h-26.775V435.98c0-4.466-3.62-8.084-8.084-8.084     c-4.465,0-8.084,3.618-8.084,8.084v59.849H87.52v-56.894c0-58.095,45.969-74.594,47.898-75.258     c0.18-0.061,0.359-0.127,0.535-0.201l38.443-16.02l5.209,18.6c0.001,0.005,0.002,0.011,0.004,0.016l36.348,129.759h-16.001     c-4.465,0-8.084,3.62-8.084,8.084c0,4.466,3.62,8.084,8.084,8.084h26.632c0.009,0,0.017,0.002,0.026,0.002     c0.01,0,0.02-0.002,0.03-0.002h60.872c0.01,0,0.02,0.002,0.03,0.002c0.009,0,0.017-0.002,0.025-0.002h144.996     c4.466,0,8.084-3.636,8.084-8.1v-64.964C440.65,402.49,424.75,379.827,411.411,367.23z M152.644,292.078     c-22.428-30.37-34.722-69.083-34.722-109.751C117.92,90.706,180.347,16.168,257.077,16.168c31.545,0,61.297,12.311,86.041,35.601     c33.756,31.771,53.117,79.357,53.117,130.556c0,40.578-12.302,79.39-34.715,109.754c-11.67-4.721-25.046-8.65-39.425-11.588     c14.259-13.002,24.034-30.828,26.762-50.863c19.714-1.605,35.266-18.15,35.266-38.268c0-19.853-15.138-36.235-34.476-38.211     c-0.063-3.784-2.742-7.029-6.463-7.787c-55.071-11.226-79.296-44.036-79.518-44.342c-1.389-1.954-3.574-3.192-5.965-3.376     c-2.39-0.184-4.741,0.7-6.413,2.419c-31.428,32.257-80.245,45.268-80.729,45.394c-3.52,0.913-5.982,4.065-6.044,7.69     c-19.342,1.973-34.483,18.358-34.483,38.212c0,20.12,15.554,36.664,35.268,38.268c2.729,20.037,12.505,37.863,26.766,50.866     C177.685,283.433,164.314,287.357,152.644,292.078z M349.654,213.229v-43.741c10.388,1.868,18.302,10.954,18.302,21.873     C367.956,202.277,360.042,211.363,349.654,213.229z M164.503,169.487v43.743c-10.388-1.866-18.303-10.952-18.303-21.869     C146.2,180.44,154.115,171.354,164.503,169.487z M180.671,218.2v-58.867c13.846-4.373,48.471-17.076,75.834-41.857     c10.486,11.086,35.033,32.217,76.98,42.294V218.2c0,37.572-30.566,68.14-68.137,68.14h-16.537     C211.239,286.339,180.671,255.772,180.671,218.2z M189.789,342.467l31.388-7.51c3.637-0.871,6.202-4.122,6.202-7.862v-27.357     c6.847,1.801,14.028,2.769,21.433,2.769h16.537c7.353,0,14.488-0.952,21.293-2.729v27.317c0,3.705,2.517,6.934,6.108,7.838     l31.504,7.94l-4.423,15.79c-28.116,16.455-57.824,21.408-88.348,14.716c-18.511-4.058-31.974-11.441-37.117-14.574     L189.789,342.467z M281.41,495.828h-48.663l-32.42-115.739c7.171,3.185,16.3,6.528,26.975,8.925     c8.54,1.919,18.669,3.336,29.958,3.336c16.785,0,36.132-3.138,56.613-12.419L281.41,495.828z M424.482,495.829h-46.201v-59.849     c0-4.466-3.618-8.084-8.084-8.084s-8.084,3.618-8.084,8.084v59.849h-63.914l41.336-147.569l36.511,15.214     c0.156,0.066,0.345,0.136,0.507,0.192c1.956,0.674,47.928,17.173,47.928,75.268V495.829z" fill="#FFFFFF"/>
			<path d="M255.59,229.768h13.771c4.466,0,8.084-3.619,8.084-8.084s-3.618-8.084-8.084-8.084h-5.687v-18.186     c0-4.466-3.618-8.084-8.084-8.084c-4.465,0-8.084,3.618-8.084,8.084v26.27C247.506,226.149,251.125,229.768,255.59,229.768z" fill="#FFFFFF"/>
		</g>
	</g>
</g>
<g>
</g>
<g>
</g>
<g>
</g>
<g>
</g>
<g>
</g>
<g>
</g>
<g>
</g>
<g>
</g>
<g>
</g>
<g>
</g>
<g>
</g>
<g>
</g>
<g>
</g>
<g>
</g>
<g>
</g>
</svg>
