<?xml version="1.0" encoding="iso-8859-1"?>
<!-- Generator: Adobe Illustrator 16.0.0, SVG Export Plug-In . SVG Version: 6.00 Build 0)  -->
<!DOCTYPE svg PUBLIC "-//W3C//DTD SVG 1.1//EN" "http://www.w3.org/Graphics/SVG/1.1/DTD/svg11.dtd">
<svg version="1.1" id="Capa_1" xmlns="http://www.w3.org/2000/svg" xmlns:xlink="http://www.w3.org/1999/xlink" x="0px" y="0px"
	 width="79.537px" height="79.536px" viewBox="0 0 79.537 79.536" style="enable-background:new 0 0 79.537 79.536;"
	 xml:space="preserve">
<g>
	<path style="fill:#010002;" d="M17.256,50.212v19.387c0,0.762-0.251,1.394-0.723,1.85c-0.471,0.476-1.087,0.703-1.843,0.703
		c-0.764,0-1.416-0.228-1.921-0.703c-0.541-0.456-0.79-1.088-0.79-1.85V50.212H4.715l7.558-25.522h-1.3
		c-0.829,2.861-1.527,5.162-2.074,6.988c-0.492,1.817-1.038,3.542-1.512,5.202c-0.539,1.639-0.901,2.677-0.937,3.031
		c-0.329,1.083-1.046,1.608-2.17,1.608l-0.572-0.138c-1.048-0.388-1.559-1.066-1.559-2.032c0-0.264,0.037-0.481,0.143-0.699
		c0.075-0.187,0.292-0.828,0.546-1.916c0.292-1.079,0.684-2.421,1.157-3.981c0.471-1.585,0.981-3.301,1.515-5.142
		c0.546-1.851,1.046-3.632,1.66-5.349c0.362-1.315,1.157-2.514,2.387-3.55c1.225-1.074,2.499-1.563,3.829-1.563h8.891
		c1.375,0,2.711,0.489,3.904,1.563c1.16,1.041,1.994,2.234,2.459,3.55c0.498,1.717,1.007,3.498,1.51,5.349
		c0.515,1.841,1.056,3.557,1.491,5.142c0.461,1.561,0.865,2.902,1.149,3.981c0.288,1.088,0.474,1.729,0.575,1.916l0.142,0.572
		c0,1.168-0.546,1.851-1.592,2.151l-0.533,0.146c-1.152,0-1.877-0.526-2.165-1.608c-0.08-0.354-0.404-1.393-0.831-3.031
		c-0.505-1.66-1.02-3.384-1.597-5.202c-0.578-1.82-1.256-4.127-2.084-6.993H23.4l7.547,25.528h-7.148v19.387
		c0,0.762-0.217,1.394-0.795,1.85c-0.51,0.476-1.124,0.703-1.877,0.703c-0.795,0-1.38-0.228-1.877-0.703
		c-0.471-0.456-0.684-1.088-0.684-1.85V50.212H17.256z M17.971,15.553c1.522,0,2.827-0.5,3.839-1.543
		c1.043-1.067,1.589-2.393,1.589-3.993c0-1.522-0.546-2.827-1.589-3.904c-1.007-1.108-2.317-1.66-3.839-1.66
		c-1.621,0-2.965,0.552-4.083,1.66c-1.083,1.072-1.616,2.382-1.616,3.904c0,1.6,0.533,2.925,1.621,3.993
		C15.012,15.053,16.355,15.553,17.971,15.553z M57.876,16.984c-1.947,0-3.615,0.72-5.023,2.11c-1.413,1.453-2.139,3.143-2.139,5.025
		v17.399c0,0.652,0.223,1.242,0.726,1.719c0.466,0.471,1.046,0.684,1.703,0.684c0.756,0,1.336-0.213,1.802-0.684
		c0.404-0.477,0.617-1.066,0.617-1.719V25.96h1.258v43.074c0,0.829,0.362,1.596,1.051,2.186c0.647,0.652,1.403,0.932,2.273,0.932
		c0.942,0,1.698-0.279,2.314-0.932c0.652-0.59,0.948-1.356,0.948-2.186V44.065h1.408v24.969c0,0.829,0.326,1.596,0.938,2.186
		c0.616,0.652,1.413,0.932,2.387,0.932c0.828,0,1.554-0.279,2.206-0.932c0.611-0.59,0.891-1.356,0.891-2.186V25.96h1.315v15.558
		c0,0.652,0.207,1.242,0.642,1.719c0.518,0.471,1.118,0.684,1.771,0.684c0.766,0,1.346-0.213,1.781-0.684
		c0.393-0.477,0.642-1.066,0.642-1.719V24.12c0-1.877-0.684-3.573-2.097-5.02c-1.378-1.396-3.029-2.11-5.055-2.11H57.876V16.984z
		 M64.089,15.553c1.518,0,2.858-0.5,3.936-1.543c1.077-1.072,1.626-2.397,1.626-3.993c0-1.522-0.554-2.827-1.631-3.904
		c-1.082-1.108-2.418-1.66-3.931-1.66c-1.595,0-2.936,0.552-3.945,1.66c-1.077,1.077-1.584,2.382-1.584,3.904
		c0,1.6,0.507,2.925,1.584,3.993C61.159,15.053,62.5,15.553,64.089,15.553z M44.822,0h-5.486v79.536h5.486V0z"/>
</g>
<g>
</g>
<g>
</g>
<g>
</g>
<g>
</g>
<g>
</g>
<g>
</g>
<g>
</g>
<g>
</g>
<g>
</g>
<g>
</g>
<g>
</g>
<g>
</g>
<g>
</g>
<g>
</g>
<g>
</g>
</svg>
