<?xml version="1.0" encoding="iso-8859-1"?>
<!-- Generator: Adobe Illustrator 19.0.0, SVG Export Plug-In . SVG Version: 6.00 Build 0)  -->
<svg version="1.1" id="Capa_1" xmlns="http://www.w3.org/2000/svg" xmlns:xlink="http://www.w3.org/1999/xlink" x="0px" y="0px"
	 viewBox="0 0 356.528 356.528" style="enable-background:new 0 0 356.528 356.528;" xml:space="preserve">
<g>
	<path d="M253.023,219.409l-36.321-97.362V45.572h-77.624v77.173l-35.582,96.679c-5.632,8.94-6.07,20.173-1.092,29.554
		c5.132,9.669,15.12,15.675,26.066,15.675h99.588c10.946,0,20.935-6.006,26.066-15.675
		C259.105,239.593,258.665,228.352,253.023,219.409z M240.875,241.946c-2.562,4.826-7.353,7.708-12.816,7.708H128.47
		c-5.464,0-10.255-2.881-12.816-7.708s-2.263-10.409,0.8-14.934l0.511-0.756l37.113-100.838V60.572h47.624v64.182l37.871,101.516
		l0.502,0.742C243.137,231.537,243.436,237.12,240.875,241.946z"/>
	<path d="M152.421,172.583l-19.923,60.821h91.531l-19.923-60.821H152.421z M153.196,218.404l10.097-30.821h29.943l10.097,30.821
		H153.196z"/>
	<path d="M140.119,277.659l-5.399,5.73c-2.36,2.504-23.059,25.034-23.059,44.624c0,15.724,12.793,28.516,28.517,28.516
		s28.516-12.792,28.516-28.516c0-20.102-20.748-42.226-23.113-44.683L140.119,277.659z M140.177,341.528
		c-7.453,0-13.517-6.063-13.517-13.516c0-8.592,7.519-20.216,13.561-27.948c6.017,7.618,13.472,19.121,13.472,27.948
		C153.693,335.465,147.629,341.528,140.177,341.528z"/>
	<path d="M216.292,277.659l-5.398,5.73c-2.36,2.504-23.058,25.035-23.058,44.624c0,15.724,12.792,28.516,28.516,28.516
		s28.517-12.792,28.517-28.516c0-20.102-20.749-42.227-23.114-44.683L216.292,277.659z M216.351,341.528
		c-7.452,0-13.516-6.063-13.516-13.516c0-8.587,7.51-20.203,13.549-27.935c5.953,7.577,13.483,19.178,13.483,27.935
		C229.868,335.465,223.804,341.528,216.351,341.528z"/>
	<path d="M178.264,162.613c11.028,0,20-8.972,20-20s-8.972-20-20-20s-20,8.972-20,20S167.236,162.613,178.264,162.613z
		 M178.264,137.613c2.757,0,5,2.243,5,5s-2.243,5-5,5s-5-2.243-5-5S175.507,137.613,178.264,137.613z"/>
	<path d="M209.009,40c11.028,0,20-8.972,20-20s-8.972-20-20-20s-20,8.972-20,20S197.981,40,209.009,40z M209.009,15
		c2.757,0,5,2.243,5,5s-2.243,5-5,5s-5-2.243-5-5S206.253,15,209.009,15z"/>
</g>
<g>
</g>
<g>
</g>
<g>
</g>
<g>
</g>
<g>
</g>
<g>
</g>
<g>
</g>
<g>
</g>
<g>
</g>
<g>
</g>
<g>
</g>
<g>
</g>
<g>
</g>
<g>
</g>
<g>
</g>
</svg>
