<?xml version="1.0" encoding="iso-8859-1"?>
<!-- Generator: Adobe Illustrator 19.0.0, SVG Export Plug-In . SVG Version: 6.00 Build 0)  -->
<svg version="1.1" id="Capa_1" xmlns="http://www.w3.org/2000/svg" xmlns:xlink="http://www.w3.org/1999/xlink" x="0px" y="0px"
	 viewBox="0 0 512 512" style="enable-background:new 0 0 512 512;" xml:space="preserve">
<g>
	<g>
		<path d="M112,48C50.24,48,0,98.24,0,160c0,57.472,89.856,159.264,100.096,170.688c3.04,3.36,7.36,5.312,11.904,5.312
			s8.864-1.952,11.904-5.312C134.144,319.264,224,217.472,224,160C224,98.24,173.76,48,112,48z M112,295.584
			C77.056,254.144,32,190.528,32,160c0-44.096,35.872-80,80-80s80,35.904,80,80C192,190.496,146.944,254.144,112,295.584z"/>
	</g>
</g>
<g>
	<g>
		<path d="M112,112c-26.464,0-48,21.536-48,48s21.536,48,48,48s48-21.536,48-48S138.464,112,112,112z M112,176
			c-8.8,0-16-7.168-16-16c0-8.832,7.2-16,16-16s16,7.168,16,16C128,168.832,120.8,176,112,176z"/>
	</g>
</g>
<g>
	<g>
		<path d="M400,48c-61.76,0-112,50.24-112,112c0,57.472,89.856,159.264,100.096,170.688c3.04,3.36,7.36,5.312,11.904,5.312
			s8.864-1.952,11.904-5.312C422.144,319.264,512,217.472,512,160C512,98.24,461.76,48,400,48z M400,295.584
			c-34.944-41.44-80-105.056-80-135.584c0-44.096,35.872-80,80-80s80,35.904,80,80C480,190.496,434.944,254.144,400,295.584z"/>
	</g>
</g>
<g>
	<g>
		<path d="M400,112c-26.464,0-48,21.536-48,48s21.536,48,48,48s48-21.536,48-48S426.464,112,400,112z M400,176
			c-8.8,0-16-7.168-16-16c0-8.832,7.2-16,16-16s16,7.168,16,16C416,168.832,408.8,176,400,176z"/>
	</g>
</g>
<g>
	<g>
		<path d="M400,368c-20.832,0-38.432,13.408-45.056,32H157.056c-6.624-18.592-24.224-32-45.056-32c-26.464,0-48,21.536-48,48
			s21.536,48,48,48c20.832,0,38.432-13.408,45.056-32h197.888c6.624,18.592,24.224,32,45.056,32c26.464,0,48-21.536,48-48
			S426.464,368,400,368z M112,432c-8.8,0-16-7.168-16-16c0-8.832,7.2-16,16-16s16,7.168,16,16C128,424.832,120.8,432,112,432z
			 M400,432c-8.8,0-16-7.168-16-16c0-8.832,7.2-16,16-16s16,7.168,16,16C416,424.832,408.8,432,400,432z"/>
	</g>
</g>
<g>
</g>
<g>
</g>
<g>
</g>
<g>
</g>
<g>
</g>
<g>
</g>
<g>
</g>
<g>
</g>
<g>
</g>
<g>
</g>
<g>
</g>
<g>
</g>
<g>
</g>
<g>
</g>
<g>
</g>
</svg>
