<?xml version="1.0" encoding="iso-8859-1"?>
<!-- Generator: Adobe Illustrator 19.0.0, SVG Export Plug-In . SVG Version: 6.00 Build 0)  -->
<svg version="1.1" id="Layer_1" xmlns="http://www.w3.org/2000/svg" xmlns:xlink="http://www.w3.org/1999/xlink" x="0px" y="0px"
	 viewBox="0 0 512 512" style="enable-background:new 0 0 512 512;" xml:space="preserve">
<g>
	<g>
		<path d="M501.801,0.425H10.199C4.566,0.425,0,4.992,0,10.624v490.751c0,5.632,4.566,10.199,10.199,10.199h491.602
			c5.632,0,10.199-4.567,10.199-10.199V10.624C512,4.992,507.433,0.425,501.801,0.425z M491.602,491.176H20.398V20.824h471.203
			V491.176z"/>
	</g>
</g>
<g>
	<g>
		<path d="M436.211,65.611H75.385c-5.633,0-10.199,4.567-10.199,10.199v360.825c0,5.633,4.566,10.199,10.199,10.199h360.825
			c5.632,0,10.199-4.567,10.199-10.199V75.811C446.41,70.179,441.843,65.611,436.211,65.611z M426.012,86.01v69.692L356.319,86.01
			H426.012z M327.471,86.01l98.541,98.541v57.962L314.195,130.696c-3.984-3.982-10.44-3.982-14.425,0
			c-3.983,3.983-3.983,10.441,0,14.425l126.242,126.242v55.223L185.438,86.01H327.471z M85.585,426.437v-69.441l69.441,69.441
			H85.585z M183.874,426.437L183.874,426.437l-98.29-98.291v-58.921l157.213,157.212H183.874z M271.602,426.437
			c-0.135-0.151-0.262-0.306-0.407-0.45L85.68,240.473c-0.031-0.031-0.064-0.056-0.096-0.087V185.28l241.157,241.157H271.602z
			 M355.556,426.437c-0.108-0.119-0.208-0.243-0.323-0.358L85.585,156.431v-55.997l326.003,326.002H355.556z M426.013,412.013
			L100.008,86.01h56.581l269.423,269.422V412.013z"/>
	</g>
</g>
<g>
	<g>
		<path d="M292.792,109.293l-4.132-4.132c-3.984-3.982-10.44-3.982-14.425,0c-3.982,3.984-3.982,10.442,0.001,14.425l4.132,4.132
			c1.992,1.991,4.602,2.987,7.212,2.987c2.61,0,5.22-0.996,7.212-2.987C296.774,119.735,296.774,113.276,292.792,109.293z"/>
	</g>
</g>
<g>
</g>
<g>
</g>
<g>
</g>
<g>
</g>
<g>
</g>
<g>
</g>
<g>
</g>
<g>
</g>
<g>
</g>
<g>
</g>
<g>
</g>
<g>
</g>
<g>
</g>
<g>
</g>
<g>
</g>
</svg>
