<svg viewBox="0 0 512 512.133" xmlns="http://www.w3.org/2000/svg"><path d="m511.929688 63.804688c0-17.042969-6.636719-33.066407-18.6875-45.117188-12.050782-12.050781-28.074219-18.6875-45.117188-18.6875-17.039062 0-33.0625 6.636719-45.113281 18.6875l-141.011719 141.011719-1.933594-1.9375c-12.234375-12.234375-32.144531-12.234375-44.378906 0-12.234375 12.238281-12.234375 32.144531 0 44.382812l1.933594 1.933594-162.519532 162.519531c-11.996093 11.996094-18.351562 28.464844-17.441406 45.1875.34375 6.375-.632812 12.601563-2.917968 18.519532-2.253907 5.882812-5.660157 11.128906-10.121094 15.589843l-15.734375 15.734375c-11.53125 11.53125-11.789063 30.199219-.574219 41.613282 5.550781 5.648437 12.953125 8.757812 20.84375 8.757812h.042969c7.820312 0 15.171875-3.042969 20.703125-8.574219l16.125-16.125c8.941406-8.941406 21.324218-13.699219 33.960937-13.042969 8.433594.433594 16.6875-.886718 24.515625-3.90625 7.863282-3.011718 14.867188-7.5625 20.828125-13.519531l146.496094-146.503906c2.929687-2.925781 2.929687-7.675781 0-10.601563-2.925781-2.929687-7.675781-2.929687-10.601563 0l-24.53125 24.53125h-138.046874l109.578124-109.574218 81.550782 81.550781c6.117187 6.121094 14.15625 9.179687 22.191406 9.179687s16.074219-3.0625 22.191406-9.179687c12.234375-12.234375 12.234375-32.140625 0-44.378906l-1.929687-1.925781 141.011719-141.011719c12.050781-12.050781 18.6875-28.070313 18.6875-45.113281zm-270.230469 275.445312-106.972657 106.976562c-4.460937 4.460938-9.703124 7.867188-15.601562 10.128907-5.871094 2.261719-12.054688 3.242187-18.363281 2.925781-16.871094-.875-33.394531 5.476562-45.339844 17.417969l-16.125 16.125c-2.695313 2.695312-6.28125 4.179687-10.109375 4.179687-.007812 0-.015625 0-.019531 0-3.84375 0-7.453125-1.519531-10.160157-4.273437-5.46875-5.566407-5.25-14.761719.484376-20.5l15.734374-15.730469c5.957032-5.960938 10.507813-12.96875 13.515626-20.8125 3.042968-7.894531 4.355468-16.210938 3.890624-24.714844-.675781-12.476562 4.085938-24.785156 13.074219-33.769531l37.949219-37.953125zm101.855469-53.617188c-3.09375 3.09375-7.210938 4.796876-11.585938 4.796876-4.378906 0-8.492188-1.703126-11.585938-4.796876l-94.089843-94.09375c-6.390625-6.386718-6.390625-16.78125 0-23.171874 3.191406-3.191407 7.386719-4.789063 11.585937-4.789063 4.195313 0 8.390625 1.597656 11.585938 4.789063l10.003906 10.007812 74.089844 74.085938c0 .003906 0 .003906.003906.003906l9.992188 9.996094c6.386718 6.386718 6.386718 16.78125 0 23.171874zm-1.925782-46.308593-69.023437-69.023438 141.007812-141.007812c9.21875-9.21875 21.476563-14.296875 34.511719-14.296875 13.039062 0 25.292969 5.078125 34.511719 14.296875s14.296875 21.472656 14.296875 34.511719c0 13.035156-5.078125 25.292968-14.296875 34.511718zm0 0"/></svg>