<?xml version="1.0" encoding="iso-8859-1"?>
<!-- Generator: Adobe Illustrator 16.0.0, SVG Export Plug-In . SVG Version: 6.00 Build 0)  -->
<!DOCTYPE svg PUBLIC "-//W3C//DTD SVG 1.1//EN" "http://www.w3.org/Graphics/SVG/1.1/DTD/svg11.dtd">
<svg version="1.1" id="Capa_1" xmlns="http://www.w3.org/2000/svg" xmlns:xlink="http://www.w3.org/1999/xlink" x="0px" y="0px"
	 width="430px" height="430px" viewBox="0 0 430 430" style="enable-background:new 0 0 430 430;" xml:space="preserve">
<g>
	<g>
		<g>
			<path d="M86.025,119.753c0.729,68.174,29.705,109.538,76.947,108.818c0,0,76.915,3.129,76.915-108.818
				c0-49.793-25.982-75.624-76.915-75.624C113.12,44.129,85.52,69.961,86.025,119.753z"/>
			<path d="M224.484,250.609l-2.321-0.925l-17.994-15.162c-4.752-4.021-11.778-3.728-16.185,0.666l-25.015,24.875l-25.095-24.896
				c-4.409-4.373-11.422-4.645-16.176-0.646l-17.996,15.162l-76.85,30.648C2.101,290.178,2.124,377.832,0,385.869h307.738
				c-9.656-10.644-24.065-27.479-38.513-47.828C252.521,314.533,233.475,282.857,224.484,250.609z"/>
			<path d="M334.946,385.871c1.499,0,2.93-0.621,3.966-1.717c8.742-9.292,26.006-28.533,43.316-52.913
				C404.025,300.568,430,255.566,430,215.461c0-52.41-42.641-95.057-95.054-95.057c-52.417,0-95.062,42.646-95.062,95.057
				c0,40.139,26.014,85.158,47.839,115.863c17.3,24.354,34.523,43.549,43.257,52.83C332.009,385.25,333.442,385.871,334.946,385.871
				z M276.902,214.231c0-32.015,26.046-58.052,58.044-58.052c32,0,58.038,26.037,58.038,58.052
				c0,31.998-26.038,58.041-58.038,58.041C302.948,272.271,276.902,246.229,276.902,214.231z"/>
		</g>
	</g>
</g>
<g>
</g>
<g>
</g>
<g>
</g>
<g>
</g>
<g>
</g>
<g>
</g>
<g>
</g>
<g>
</g>
<g>
</g>
<g>
</g>
<g>
</g>
<g>
</g>
<g>
</g>
<g>
</g>
<g>
</g>
</svg>
