<?xml version="1.0" encoding="utf-8"?>
<!-- Generator: Adobe Illustrator 14.0.0, SVG Export Plug-In . SVG Version: 6.00 Build 43363)  -->
<!DOCTYPE svg PUBLIC "-//W3C//DTD SVG 1.1//EN" "http://www.w3.org/Graphics/SVG/1.1/DTD/svg11.dtd">
<svg version="1.1" id="Layer_1" xmlns="http://www.w3.org/2000/svg" xmlns:xlink="http://www.w3.org/1999/xlink" x="0px" y="0px"
	 width="56px" height="61.332px" viewBox="0 0 56 61.332" enable-background="new 0 0 56 61.332" xml:space="preserve">
<g>
	<path fill="#42CAC6" d="M45.22,22.791H10.78c0,0-0.126-3.363,0-6.378s0.72-2.108,5.553-2.108s9.333-0.393,9.833-2.059s3-2,3-2
		L30.5,13.08l12.26,1.225c0,0,2.38-1.226,3.24,2.941S45.272,22.002,45.22,22.791z"/>
	<g>
		<path fill="#474747" d="M46.86,23.232v-6.467c0-2.262-1.84-4.102-4.101-4.102H30.618v-2.178c0-0.453-0.367-0.82-0.819-0.82h-3.598
			c-0.452,0-0.819,0.367-0.819,0.82v2.178H13.24c-2.261,0-4.101,1.84-4.101,4.102v6.467c-0.979,0.568-1.64,1.627-1.64,2.84v4.922
			c0,1.211,0.661,2.271,1.64,2.84v17.012c0,0.453,0.367,0.82,0.82,0.82h36.08c0.452,0,0.82-0.367,0.82-0.82V33.834
			c0.979-0.568,1.64-1.629,1.64-2.84v-4.922C48.5,24.859,47.84,23.801,46.86,23.232z M24.023,14.305h2.178
			c0.453,0,0.82-0.367,0.82-0.82v-2.178h1.957v2.178c0,0.453,0.367,0.82,0.82,0.82h2.178v1.958h-2.178
			c-0.453,0-0.82,0.367-0.82,0.82v2.179h-1.957v-2.179c0-0.453-0.367-0.82-0.82-0.82h-2.178V14.305L24.023,14.305z M10.78,20.902
			h4.588c0.453,0,0.82-0.367,0.82-0.82s-0.367-0.82-0.82-0.82H10.78v-2.496c0-1.357,1.104-2.461,2.46-2.461h9.144v2.778
			c0,0.453,0.367,0.82,0.82,0.82h2.178v2.179c0,0.453,0.367,0.82,0.819,0.82h3.598c0.452,0,0.819-0.367,0.819-0.82v-2.179h2.178
			c0.453,0,0.82-0.367,0.82-0.82v-2.778h9.144c1.356,0,2.46,1.104,2.46,2.461v2.496h-4.588c-0.453,0-0.82,0.367-0.82,0.82
			s0.367,0.82,0.82,0.82h4.588v1.889H10.78V20.902L10.78,20.902z M41.94,24.432v6.563c0,0.904-0.736,1.641-1.641,1.641
			s-1.64-0.736-1.64-1.641v-6.563H41.94z M37.02,24.432v6.563c0,0.904-0.735,1.641-1.64,1.641s-1.64-0.736-1.64-1.641v-6.563l0,0
			H37.02z M32.1,24.432v6.563c0,0.904-0.735,1.641-1.64,1.641s-1.64-0.736-1.64-1.641v-6.563H32.1z M27.18,24.432v6.563
			c0,0.904-0.735,1.641-1.64,1.641s-1.64-0.736-1.64-1.641v-6.563H27.18z M22.26,24.432v6.563c0,0.904-0.735,1.641-1.64,1.641
			s-1.641-0.736-1.641-1.641v-6.563H22.26z M17.34,24.432v6.563c0,0.904-0.735,1.641-1.64,1.641s-1.641-0.736-1.641-1.641v-6.563
			H17.34z M9.14,30.994v-4.922c0-0.905,0.736-1.641,1.641-1.641h1.64v6.563c0,0.904-0.735,1.641-1.64,1.641S9.14,31.898,9.14,30.994
			z M22.26,50.025h-8.2V39.361c0-0.453,0.368-0.82,0.82-0.82h6.561c0.452,0,0.819,0.367,0.819,0.82V50.025z M45.22,50.025H23.9
			V39.361c0-1.357-1.104-2.461-2.46-2.461H14.88c-1.356,0-2.46,1.104-2.46,2.461v10.664h-1.64v-15.75
			c0.979,0,1.858-0.432,2.46-1.115c0.602,0.684,1.48,1.115,2.46,1.115c0.979,0,1.858-0.432,2.46-1.115
			c0.602,0.684,1.48,1.115,2.46,1.115c0.979,0,1.858-0.432,2.46-1.115c0.602,0.684,1.481,1.115,2.46,1.115s1.858-0.432,2.46-1.115
			c0.602,0.684,1.481,1.115,2.46,1.115c0.979,0,1.858-0.432,2.46-1.115c0.602,0.684,1.481,1.115,2.46,1.115
			c0.979,0,1.858-0.432,2.46-1.115c0.602,0.684,1.481,1.115,2.46,1.115c0.979,0,1.858-0.432,2.46-1.115
			c0.602,0.684,1.481,1.115,2.46,1.115V50.025z M46.86,30.994c0,0.904-0.736,1.641-1.641,1.641s-1.64-0.736-1.64-1.641v-6.563h1.64
			c0.904,0,1.641,0.735,1.641,1.641V30.994z"/>
		<path fill="#474747" d="M41.12,36.9H29.64c-1.356,0-2.46,1.104-2.46,2.461v3.281c0,1.357,1.104,2.461,2.46,2.461h11.48
			c1.356,0,2.46-1.104,2.46-2.461v-3.281C43.58,38.004,42.477,36.9,41.12,36.9z M41.94,42.643c0,0.451-0.368,0.82-0.82,0.82H29.64
			c-0.452,0-0.819-0.369-0.819-0.82v-3.281c0-0.453,0.367-0.82,0.819-0.82h11.48c0.452,0,0.82,0.367,0.82,0.82V42.643z"/>
		<path fill="#474747" d="M17.832,19.262h-0.026c-0.453,0-0.82,0.367-0.82,0.82s0.367,0.82,0.82,0.82h0.026
			c0.453,0,0.82-0.367,0.82-0.82S18.285,19.262,17.832,19.262z"/>
		<path fill="#474747" d="M38.194,19.262h-0.026c-0.453,0-0.82,0.367-0.82,0.82s0.367,0.82,0.82,0.82h0.026
			c0.453,0,0.82-0.367,0.82-0.82S38.647,19.262,38.194,19.262z"/>
	</g>
</g>
</svg>
