<?xml version="1.0" encoding="utf-8"?>
<!-- Generator: Adobe Illustrator 14.0.0, SVG Export Plug-In . SVG Version: 6.00 Build 43363)  -->
<!DOCTYPE svg PUBLIC "-//W3C//DTD SVG 1.1//EN" "http://www.w3.org/Graphics/SVG/1.1/DTD/svg11.dtd">
<svg version="1.1" id="Layer_1" xmlns="http://www.w3.org/2000/svg" xmlns:xlink="http://www.w3.org/1999/xlink" x="0px" y="0px"
	 width="56px" height="61.332px" viewBox="0 0 56 61.332" enable-background="new 0 0 56 61.332" xml:space="preserve">
<g>
	<path fill="#42CAC6" d="M44.333,50.332c0,0,0.744-14.853-10.5-19.666c-11.089-1.326-14-1.109-20.5,8.695
		c-2.732,4.924-1.5,10.971-1.5,10.971H44.333z"/>
	<g>
		<path fill="#474747" d="M40.374,33.698c-2.018-2.034-4.443-3.509-7.09-4.35c0.465-0.321,0.902-0.686,1.311-1.093
			c1.783-1.785,2.766-4.162,2.766-6.695v-8.203c0-2.036-1.643-3.691-3.662-3.691H22.302c-2.02,0-3.662,1.655-3.662,3.691v8.1
			c0,3.266,1.629,6.161,4.104,7.883c-2.657,0.839-5.092,2.316-7.118,4.358C12.32,37.029,10.5,41.459,10.5,46.17v5.496h35V46.17
			C45.499,41.459,43.679,37.029,40.374,33.698z M21.082,13.357c0-0.68,0.547-1.23,1.221-1.23H28h5.699
			c0.672,0,1.221,0.551,1.221,1.23v1.23h-3.467c-0.504-1.433-1.861-2.461-3.453-2.461c-1.592,0-2.948,1.028-3.452,2.461h-3.466
			V13.357z M29.22,15.818c0,0.678-0.547,1.23-1.221,1.23c-0.673,0-1.221-0.553-1.221-1.23c0-0.679,0.548-1.23,1.221-1.23
			C28.673,14.588,29.22,15.14,29.22,15.818z M21.082,21.457v-4.408h3.466c0.504,1.432,1.86,2.461,3.452,2.461
			c1.591,0,2.949-1.029,3.453-2.461h3.467v4.512c0,1.871-0.727,3.629-2.045,4.948s-3.07,2.034-4.927,2.024
			C24.162,28.504,21.082,25.33,21.082,21.457z M26.779,49.205H12.942V46.17c0-6.051,3.532-11.285,8.627-13.721l5.21,5.252V49.205z
			 M24.093,31.513c1.246-0.338,2.556-0.519,3.906-0.519c1.349,0,2.656,0.18,3.902,0.518l-3.906,3.936L24.093,31.513z M43.058,49.205
			H29.22V37.693l5.207-5.246c5.098,2.434,8.631,7.67,8.631,13.723V49.205z"/>
		<path fill="#474747" d="M37.36,41.822v-2.461h-2.441v2.461h-2.443v2.461h2.443v2.461h2.441v-2.461h2.441v-2.461H37.36z"/>
	</g>
</g>
</svg>
