<?xml version="1.0" encoding="iso-8859-1"?>
<!-- Generator: Adobe Illustrator 19.0.0, SVG Export Plug-In . SVG Version: 6.00 Build 0)  -->
<svg xmlns="http://www.w3.org/2000/svg" xmlns:xlink="http://www.w3.org/1999/xlink" version="1.1" id="Layer_1" x="0px" y="0px" viewBox="0 0 511.999 511.999" style="enable-background:new 0 0 511.999 511.999;" xml:space="preserve" width="512px" height="512px">
<g>
	<g>
		<path d="M385.366,106.933c-11.861-8.816-25.629-13.477-39.817-13.477c-22.247,0-41.734,13.888-52.28,34.541    c-10.546-20.653-30.032-34.541-52.28-34.541c-24.77,0-47.735,14.25-61.433,38.119c-2.293,3.996-0.912,9.094,3.084,11.388    c3.999,2.293,9.098,0.914,11.39-3.084c10.685-18.621,28.241-29.737,46.96-29.737c24.226,0,43.936,23.873,43.936,53.216    c0,4.608,3.735,8.344,8.344,8.344c4.609,0,8.344-3.736,8.344-8.344c0-29.344,19.71-53.216,43.936-53.216    c10.575,0,20.9,3.521,29.861,10.181c3.698,2.749,8.925,1.98,11.674-1.719C389.834,114.909,389.064,109.682,385.366,106.933z" fill="#f15c23"/>
	</g>
</g>
<g>
	<g>
		<path d="M400.514,370.812c-1.774-4.253-6.659-6.261-10.913-4.488l-72.931,30.422c-14.684,6.135-31.098,6.767-46.227,1.78    L99.381,342.161c-10.77-3.554-22.425-3-32.805,1.556l-6.788,2.971c-4.222,1.849-6.144,6.768-4.296,10.989    c1.848,4.222,6.768,6.145,10.989,4.297L73.276,359c6.607-2.902,14.022-3.255,20.879-0.992l171.066,56.366    c8.443,2.783,17.206,4.17,25.955,4.17c10.877,0,21.733-2.141,31.923-6.398l72.927-30.421    C400.278,379.95,402.288,375.065,400.514,370.812z" fill="#f15c23"/>
	</g>
</g>
<g>
	<g>
		<path d="M508.866,291.723c-0.009-0.019-0.049-0.115-0.058-0.133l-0.063-0.147c-7.509-17.413-26.426-26.82-44.552-22.908    c2.297-7.431,1.925-15.353-1.124-22.612c-3.443-8.199-9.877-14.555-18.116-17.896c-0.019-0.008-0.219-0.087-0.237-0.095    c-16.123-6.407-34.641,0.824-42.161,16.458l-26.283,54.579l-42.608,14.908c-7.952,2.776-16.703,2.776-24.636,0.001l-1.219-0.426    c53.654-29.897,111.446-80.766,111.446-134.702c0-18.802-5.163-36.612-14.931-51.502c-2.526-3.853-7.702-4.927-11.553-2.4    c-3.854,2.528-4.928,7.699-2.401,11.553c7.98,12.164,12.197,26.808,12.197,42.349c0,45.765-54.277,94.562-109.3,123.61    c-14.757-7.786-29.418-17.031-42.636-26.899c-11.277-8.39-21.481-17.231-30.268-26.171l85.007,29.069    c16.827,5.769,35.576-2.484,42.686-18.779c3.8-8.677,3.821-18.663,0.056-27.397c-3.708-8.601-10.559-15.172-19.274-18.497    l-150.864-57.869c-1.086-0.431-2.273-0.866-3.73-1.364c-29.599-10.169-63.344-5.529-90.263,12.41L3.719,220.331    c-3.835,2.554-4.873,7.735-2.318,11.57c2.555,3.835,7.735,4.873,11.57,2.317l80.262-53.468    c22.619-15.074,50.877-19.003,75.599-10.512c1.205,0.413,2.153,0.758,3.072,1.122l150.97,57.91    c4.483,1.711,8.004,5.092,9.913,9.518c1.97,4.568,1.964,9.573-0.022,14.106c-3.663,8.397-13.322,12.647-21.99,9.675    l-95.771-32.749c-7.652-2.62-15.958-2.296-23.39,0.908c-9.235,3.983-16.003,11.831-18.567,21.533    c-4.313,16.294,4.784,33.43,20.715,39.011l109.758,38.355c11.48,4.014,24.137,4.015,35.646,0l125.838-44.032    c11.23-3.933,23.71,1.537,28.452,12.532l0.039,0.092c2.373,5.611,2.411,11.809,0.107,17.451    c-2.308,5.65-6.684,10.058-12.318,12.409l-67.196,28.029c-4.252,1.774-6.262,6.659-4.488,10.912    c1.336,3.203,4.437,5.134,7.704,5.134c1.07,0,2.158-0.208,3.209-0.645l67.196-28.029c9.763-4.074,17.342-11.708,21.342-21.499    C513.045,312.201,512.98,301.454,508.866,291.723z M199.272,275.525c-7.76-2.719-12.194-11.061-10.094-18.993    c1.034-3.908,3.487-7.181,6.851-9.298c11.732,14.309,26.714,28.28,44.63,41.608c0.991,0.74,2.009,1.466,3.015,2.199    L199.272,275.525z M447.73,265.068l-4.274,10.393l-44.911,15.714l19.046-39.547c3.74-7.776,12.948-11.375,20.961-8.189    c0.011,0.003,0.117,0.047,0.128,0.05c4.095,1.661,7.292,4.82,9.004,8.896C449.398,256.466,449.415,260.971,447.73,265.068z" fill="#f15c23"/>
	</g>
</g>
<g>
</g>
<g>
</g>
<g>
</g>
<g>
</g>
<g>
</g>
<g>
</g>
<g>
</g>
<g>
</g>
<g>
</g>
<g>
</g>
<g>
</g>
<g>
</g>
<g>
</g>
<g>
</g>
<g>
</g>
</svg>
