<?xml version="1.0" encoding="utf-8"?>
<!-- Generator: Adobe Illustrator 14.0.0, SVG Export Plug-In . SVG Version: 6.00 Build 43363)  -->
<!DOCTYPE svg PUBLIC "-//W3C//DTD SVG 1.1//EN" "http://www.w3.org/Graphics/SVG/1.1/DTD/svg11.dtd">
<svg version="1.1" id="Layer_1" xmlns="http://www.w3.org/2000/svg" xmlns:xlink="http://www.w3.org/1999/xlink" x="0px" y="0px"
	 width="56px" height="61.332px" viewBox="0 0 56 61.332" enable-background="new 0 0 56 61.332" xml:space="preserve">
<g>
	<rect x="21.485" y="15.333" fill="#42CAC6" width="13.668" height="35.5"/>
	<g>
		<path fill="#474747" d="M30.521,21.848h-1.26v-1.26c0-0.696-0.564-1.26-1.26-1.26s-1.26,0.563-1.26,1.26v1.26h-1.26
			c-0.695,0-1.26,0.563-1.26,1.26s0.564,1.26,1.26,1.26h1.26v1.26c0,0.696,0.564,1.26,1.26,1.26s1.26-0.563,1.26-1.26v-1.26h1.26
			c0.695,0,1.26-0.563,1.26-1.26S31.216,21.848,30.521,21.848z"/>
		<path fill="#474747" d="M48.241,24.367c-1.545,0-10.383,0-11.422,0v-7.643h1.26c0.695,0,1.26-0.563,1.26-1.26
			s-0.564-1.26-1.26-1.26c-1.18,0-2.596,0-3.779,0v-2.52h1.26c0.695,0,1.26-0.563,1.26-1.26s-0.564-1.26-1.26-1.26
			c-3.291,0-11.805,0-15.118,0c-0.695,0-1.26,0.563-1.26,1.26s0.564,1.26,1.26,1.26h1.26v2.52c-1.184,0-2.6,0-3.78,0
			c-0.695,0-1.26,0.563-1.26,1.26s0.564,1.26,1.26,1.26h1.26v7.643c-1.195,0-10.195,0-11.422,0c-0.695,0-1.26,0.563-1.26,1.26
			s0.564,1.26,1.26,1.26h1.26c0,3.834,0,23.415,0,24.02c0,0.695,0.564,1.26,1.26,1.26c7.562,0,27.743,0,35.442,0
			c0.695,0,1.26-0.564,1.26-1.26c0-0.605,0-20.186,0-24.02h1.26c0.695,0,1.26-0.563,1.26-1.26S48.937,24.367,48.241,24.367z
			 M11.539,31.926h2.52v2.52h-2.52V31.926z M11.539,36.965h2.52v2.52h-2.52V36.965z M19.182,49.646h-7.643v-7.643h3.779
			c0.695,0,1.26-0.564,1.26-1.26V30.666c0-0.695-0.564-1.26-1.26-1.26h-3.779v-2.52c0.915,0,6.703,0,7.643,0
			C19.182,29.242,19.182,47.358,19.182,49.646z M24.221,11.686h7.559v2.52h-7.559V11.686z M21.702,31.926h2.52v2.52h-2.52V31.926z
			 M21.702,36.965h2.52v2.52h-2.52V36.965z M29.26,49.646h-2.52v-1.26c0-0.695,0.564-1.26,1.26-1.26c0.693,0,1.26,0.564,1.26,1.26
			V49.646z M34.3,49.646h-2.52v-1.26c0-2.084-1.695-3.779-3.78-3.779c-2.084,0-3.779,1.695-3.779,3.779v1.26h-2.52v-7.643
			c3.916,0,8.678,0,12.598,0V49.646z M29.26,36.965v2.52h-2.52v-2.52H29.26z M26.741,34.445v-2.52h2.52v2.52H26.741z M34.3,39.484
			h-2.52v-2.52h2.52V39.484z M34.3,34.445h-2.52v-2.52h2.52V34.445z M34.3,29.406c-3.916,0-8.678,0-12.598,0
			c0-1.493,0-10.614,0-12.682c0.936,0,10.776,0,12.598,0C34.3,18.787,34.3,27.921,34.3,29.406z M44.462,39.484h-2.52v-2.52h2.52
			V39.484z M44.462,34.445h-2.52v-2.52h2.52V34.445z M44.462,29.406h-3.779c-0.695,0-1.26,0.564-1.26,1.26v10.078
			c0,0.695,0.564,1.26,1.26,1.26h3.779v7.643h-7.643c0-4.373,0-16.734,0-22.76c0.939,0,6.727,0,7.643,0V29.406z"/>
	</g>
</g>
</svg>
