<?xml version="1.0" encoding="iso-8859-1"?>
<!-- Generator: Adobe Illustrator 19.0.0, SVG Export Plug-In . SVG Version: 6.00 Build 0)  -->
<svg xmlns="http://www.w3.org/2000/svg" xmlns:xlink="http://www.w3.org/1999/xlink" version="1.1" id="Capa_1" x="0px" y="0px" viewBox="0 0 400 400" style="enable-background:new 0 0 400 400;" xml:space="preserve" width="512px" height="512px">
<g>
	<g>
		<path d="M307.68,148.64L307.68,148.64l-56,0v-56c-0.044-7.802-6.358-14.116-14.16-14.16H162.8    c-7.802,0.044-14.116,6.358-14.16,14.16v56h-56c-7.802,0.044-14.116,6.358-14.16,14.16v74.32    c0.044,7.802,6.358,14.116,14.16,14.16h56v56c0.044,7.802,6.358,14.116,14.16,14.16h74.32c7.802-0.044,14.116-6.358,14.16-14.16    v-56h56c7.802-0.044,14.116-6.358,14.16-14.16V162.8C321.401,155.15,315.326,148.898,307.68,148.64z M305.84,235.36h-62.48    c-4.418,0-8,3.582-8,8v62.48h-70.72v-62.48c0-4.418-3.582-8-8-8H94.16v-70.72h62.48c4.418,0,8-3.582,8-8V94.16h70.72v62.48    c0,4.418,3.582,8,8,8h62.48V235.36z" fill="#FFFFFF"/>
	</g>
</g>
<g>
	<g>
		<path d="M200,0C89.543,0,0,89.543,0,200s89.543,200,200,200s200-89.543,200-200S310.457,0,200,0z M200,384    C98.38,384,16,301.62,16,200S98.38,16,200,16s184,82.38,184,184S301.62,384,200,384z" fill="#FFFFFF"/>
	</g>
</g>
<g>
</g>
<g>
</g>
<g>
</g>
<g>
</g>
<g>
</g>
<g>
</g>
<g>
</g>
<g>
</g>
<g>
</g>
<g>
</g>
<g>
</g>
<g>
</g>
<g>
</g>
<g>
</g>
<g>
</g>
</svg>
