<?xml version="1.0"?>
<svg xmlns="http://www.w3.org/2000/svg" xmlns:xlink="http://www.w3.org/1999/xlink" version="1.1" id="Layer_1" x="0px" y="0px" viewBox="0 0 512 512" style="enable-background:new 0 0 512 512;" xml:space="preserve" width="512px" height="512px" class=""><g><path style="fill:#FFFFFF;" d="M256,508C116.824,508,4,395.176,4,256S116.824,4,256,4s252,112.824,252,252  C507.84,395.112,395.112,507.84,256,508z" data-original="#FFFFFF" class=""/><g>
	<path style="fill:#CCCCCC;" d="M256,8c136.968,0,248,111.032,248,248S392.968,504,256,504S8,392.968,8,256   C8.152,119.096,119.096,8.152,256,8 M256,0C114.616,0,0,114.616,0,256s114.616,256,256,256s256-114.616,256-256S397.384,0,256,0z" data-original="#CCCCCC" class=""/>
	<path style="fill:#CCCCCC;" d="M406.28,110.336v188c-0.016,13.352-10.84,24.176-24.192,24.192H105.72v-188   c0.016-13.352,10.84-24.176,24.192-24.192L406.28,110.336 M414.28,102.336H129.912c-17.776,0-32.192,14.416-32.192,32.192v196   h284.368c17.776,0,32.192-14.416,32.192-32.192C414.28,298.336,414.28,102.336,414.28,102.336z" data-original="#CCCCCC" class=""/>
</g><rect x="97.72" y="139.032" width="316.568" height="45.608" data-original="#000000" class=""/><rect x="138.824" y="220.08" style="fill:#999999;" width="104.32" height="14.472" data-original="#999999" class=""/><polygon style="fill:#F15C23" points="168,378.608 256,464.688 344,378.608 306.232,378.608 306.232,285.896 205.768,285.896   205.768,378.608 " data-original="#E21B1B" class="active-path" data-old_color="#f15c23"/></g> </svg>
