<?xml version="1.0"?>
<svg xmlns="http://www.w3.org/2000/svg" xmlns:xlink="http://www.w3.org/1999/xlink" version="1.1" id="Layer_1" x="0px" y="0px" viewBox="0 0 512 512" style="enable-background:new 0 0 512 512;" xml:space="preserve" width="512px" height="512px" class=""><g><path style="fill:#FFFFFF" d="M256,508C116.824,508,4,395.176,4,256S116.824,4,256,4s252,112.824,252,252  C507.84,395.112,395.112,507.84,256,508z" data-original="#FFFFFF" class="" data-old_color="#F15C23"/><g>
	<path style="fill:#E2E2E0" d="M256,8c136.968,0,248,111.032,248,248S392.968,504,256,504S8,392.968,8,256   C8.152,119.096,119.096,8.152,256,8 M256,0C114.616,0,0,114.616,0,256s114.616,256,256,256s256-114.616,256-256S397.384,0,256,0z" data-original="#CCCCCC" class="active-path" data-old_color="#E1E2DF"/>
	<path style="fill:#E2E2E0" d="M406.28,110.312v188c-0.016,13.352-10.84,24.176-24.192,24.192H105.712v-188   c0.016-13.352,10.84-24.176,24.192-24.192H406.28 M414.28,102.312H129.912c-17.776,0-32.192,14.416-32.192,32.192v196h284.368   c17.776,0,32.192-14.416,32.192-32.192C414.28,298.312,414.28,102.312,414.28,102.312z" data-original="#CCCCCC" class="active-path" data-old_color="#E1E2DF"/>
</g><rect x="97.72" y="139.008" width="316.568" height="45.608" data-original="#000000" class=""/><rect x="138.824" y="220.056" style="fill:#BDB9B9" width="104.32" height="14.472" data-original="#999999" class="" data-old_color="#BCB8B8"/><polygon style="fill:#39BEBC" points="168,363.16 256,277.08 344,363.16 306.232,363.16 306.232,455.872 205.768,455.872   205.768,363.16 " data-original="#E21B1B" class="" data-old_color="#39bebc"/></g> </svg>
