<?xml version="1.0"?>
<svg xmlns="http://www.w3.org/2000/svg" xmlns:xlink="http://www.w3.org/1999/xlink" version="1.1" id="Capa_1" x="0px" y="0px" viewBox="0 0 512 512" style="enable-background:new 0 0 512 512;" xml:space="preserve" width="512px" height="512px" class=""><g><g>
	<path style="fill:#A07651" d="M478.548,153.063H441.83c-8.283,0-14.997,6.715-14.997,14.997c0,0,0,274.673,0,282.955   s6.715,14.997,14.997,14.997h36.718c18.328,0,33.238-14.91,33.238-33.238V186.301C511.786,167.973,496.876,153.063,478.548,153.063   z" data-original="#B4D241" class="" data-old_color="#39BEBC"/>
	<path style="fill:#A07651" d="M421.069,79.746v57.32H214.515V40.133h166.581C403.133,40.133,421.069,57.9,421.069,79.746z" data-original="#B4D241" class="" data-old_color="#39BEBC"/>
</g><path style="fill:#39BEBC" d="M244.511,39.973v97.093H37.957V39.973C37.957,17.937,55.884,0,77.93,0h126.608  C226.574,0,244.511,17.937,244.511,39.973z" data-original="#FFB655" class="" data-old_color="#39bebc"/><path style="fill:#A07651" d="M456.834,146.704v325.663c0,21.856-17.787,39.633-39.643,39.633H41.367  c-22.696,0-41.153-18.457-41.153-41.153V148.234c0-22.696,18.457-41.163,41.153-41.163h375.824  C439.046,107.071,456.834,124.848,456.834,146.704z" data-original="#A07651" class="" data-old_color="#39BEBC"/><path style="fill:#F15C23" d="M456.834,146.704v325.663c0,21.856-17.787,39.633-39.643,39.633H255.909V107.071h161.282  C439.046,107.071,456.834,124.848,456.834,146.704z" data-original="#7E5D40" class="" data-old_color="#f15c23"/><path style="fill:#EDD7B0;" d="M511.783,254.735v109.611H296.331c-18.127,0-32.874-14.747-32.874-32.874v-43.872  c0-18.127,14.747-32.864,32.874-32.864H511.783z" data-original="#EDD7B0" class=""/><path style="fill:#F15C23" d="M320.148,324.533c-3.949,0-7.81-1.6-10.608-4.389c-0.35-0.351-0.68-0.721-0.99-1.101  c-0.31-0.38-0.6-0.77-0.88-1.18c-0.26-0.41-0.52-0.83-0.75-1.26c-0.229-0.431-0.439-0.88-0.62-1.33c-0.189-0.45-0.359-0.92-0.5-1.38  c-0.14-0.471-0.26-0.95-0.359-1.431c-0.101-0.479-0.17-0.97-0.221-1.449c-0.05-0.49-0.069-0.99-0.069-1.48s0.02-0.979,0.069-1.47  c0.051-0.49,0.12-0.98,0.221-1.46c0.1-0.48,0.22-0.96,0.359-1.42c0.141-0.471,0.311-0.931,0.5-1.391  c0.181-0.449,0.391-0.89,0.62-1.319c0.23-0.431,0.49-0.86,0.75-1.261c0.28-0.409,0.57-0.81,0.88-1.189  c0.311-0.38,0.641-0.75,0.99-1.101c3.14-3.129,7.64-4.769,12.078-4.309c0.49,0.05,0.98,0.12,1.46,0.22  c0.48,0.09,0.96,0.21,1.42,0.36c0.47,0.14,0.931,0.3,1.38,0.49c0.45,0.189,0.9,0.399,1.33,0.63c0.431,0.229,0.86,0.479,1.26,0.75  c0.41,0.27,0.811,0.56,1.19,0.87c0.38,0.319,0.75,0.649,1.09,0.989c0.351,0.351,0.681,0.721,0.99,1.101  c0.309,0.38,0.61,0.78,0.88,1.189c0.271,0.4,0.521,0.83,0.75,1.261c0.23,0.43,0.44,0.87,0.63,1.319  c0.181,0.46,0.351,0.92,0.49,1.391c0.14,0.46,0.27,0.939,0.36,1.42c0.1,0.479,0.17,0.97,0.22,1.46c0.05,0.49,0.08,0.979,0.08,1.47  c0,3.949-1.601,7.819-4.399,10.608c-0.34,0.34-0.71,0.68-1.09,0.99s-0.78,0.6-1.19,0.869c-0.399,0.271-0.829,0.53-1.26,0.75  c-0.43,0.23-0.88,0.45-1.33,0.631c-0.449,0.189-0.91,0.359-1.38,0.5c-0.47,0.14-0.939,0.26-1.42,0.359  c-0.479,0.101-0.97,0.17-1.46,0.22C321.127,324.513,320.638,324.533,320.148,324.533z" data-original="#7E5D40" class="" data-old_color="#f15c23"/><rect x="392.471" y="254.735" style="fill:#A07651" width="119.309" height="109.611" data-original="#E1BB78" class="active-path" data-old_color="#E1BB78"/></g> </svg>
