<?xml version="1.0" encoding="UTF-8"?>
<svg width="500px" height="331px" viewBox="0 0 500 331" version="1.1" xmlns="http://www.w3.org/2000/svg" xmlns:xlink="http://www.w3.org/1999/xlink">
    <!-- Generator: Sketch 47.1 (45422) - http://www.bohemiancoding.com/sketch -->
    <title>pic-blockchain</title>
    <desc>Created with Sketch.</desc>
    <defs></defs>
    <g id="Page-1" stroke="none" stroke-width="1" fill="none" fill-rule="evenodd">
        <g id="pic-blockchain">
            <path d="M345.228456,201.966455 L245.363409,170.965876" id="Shape" stroke="#98CCFD"></path>
            <path d="M243.242722,145.536919 L297.300945,132.292269" id="Shape" stroke="#98CCFD"></path>
            <polyline id="Shape" stroke="#98CCFD" points="244.630808 150.240987 321.939464 145.459803 306.516291 90.2255639 202.583382 26.9712743 95.7007904 103.238866 189.839985 90.4569115 197.937151 129.593214"></polyline>
            <polyline id="Shape" stroke="#98CCFD" points="239.811066 139.136302 306.516291 90.2255639 337.767496 60.092539 368.035473 167.630615 321.939464 145.459803 279.737806 181.415076 286.19626 253.344901 237.921727 185.135917"></polyline>
            <path d="M220.551378,195.450164 L229.786003,233.159823" id="Shape" stroke="#98CCFD"></path>
            <path d="M178.118373,171.235782 L119.741662,213.707345" id="Shape" stroke="#98CCFD"></path>
            <polyline id="Shape" stroke="#98CCFD" points="199.691537 194.58261 197.358782 288.143436 119.741662 213.707345 124.117987 158.858685 95.7007904 103.971467"></polyline>
            <polyline id="Shape" stroke="#98CCFD" points="249.932524 94.9103528 306.092153 90.5533063 306.092153 68.6331213"></polyline>
            <path d="M212.974745,127.453249 L225.081936,96.7996915" id="Shape" stroke="#98CCFD"></path>
            <path d="M180.508965,143.589744 L149.026412,124.754193" id="Shape" stroke="#98CCFD"></path>
            <path d="M187.256603,186.524002 L170.946597,226.277232" id="Shape" stroke="#98CCFD"></path>
            <polyline id="Shape" stroke="#98CCFD" points="209.427415 69.5006748 202.583382 26.9712743 209.427415 9.50453056"></polyline>
            <polyline id="Shape" stroke="#98CCFD" points="65.4135338 91.4015809 95.7007904 103.971467 51.7061885 136.302294 1.83150183 112.12647"></polyline>
            <path d="M202.583382,26.9712743 L170.946597,1.83150183" id="Shape" stroke="#98CCFD"></path>
            <polyline id="Shape" stroke="#98CCFD" points="327.530364 42.5872373 337.767496 60.092539 371.582803 66.8016194"></polyline>
            <polyline id="Shape" stroke="#98CCFD" points="95.7007904 103.971467 80.4511278 192.461924 119.741662 213.707345 109.061114 262.579526"></polyline>
            <polyline id="Shape" stroke="#98CCFD" points="281.819934 328.320802 286.19626 253.344901 197.358782 288.143436 184.962406 314.594178"></polyline>
            <polyline id="Shape" stroke="#98CCFD" points="365.606324 227.453249 439.17486 203.470214 368.035473 167.630615 379.641411 150.240987"></polyline>
            <polyline id="Shape" stroke="#98CCFD" points="324.195103 268.594563 286.19626 253.344901 382.070561 247.754"></polyline>
            <polyline id="Shape" stroke="#98CCFD" points="247.927511 307.730866 197.358782 288.143436 130.133025 284.171968 109.061114 262.579526 95.7007904 259.051475"></polyline>
            <polyline id="Shape" stroke="#98CCFD" points="321.939464 145.459803 434.220166 86.1769809 460.43956 109.562367"></polyline>
            <polyline id="Shape" stroke="#98CCFD" points="366.840177 102.062849 356.641604 127.144785 347.059958 123.597455"></polyline>
            <polyline id="Shape" stroke="#98CCFD" points="443.28128 66.8016194 434.220166 86.1769809 434.220166 97.6094081"></polyline>
            <polyline id="Shape" stroke="#98CCFD" points="455.581261 178.503952 439.17486 203.470214 447.3877 233.159823"></polyline>
            <path d="M439.17486,203.470214 L497.01176,213.707345" id="Shape" stroke="#98CCFD"></path>
            <polyline id="Shape" stroke="#98CCFD" points="430.210141 158.858685 368.035473 167.630615 345.228456 201.966455 382.070561 247.754 374.185464 276.556777"></polyline>
            <polyline id="Shape" stroke="#98CCFD" points="25.8723732 152.188163 51.7061885 136.302294 124.117987 158.858685"></polyline>
            <polyline id="Shape" stroke="#98CCFD" points="28.5714286 223.578176 80.4511278 192.461924 35.0106034 182.301909"></polyline>
            <path d="M119.741662,213.707345 L107.364565,218.083671" id="Shape" stroke="#98CCFD"></path>
            <path d="M80,192.461924 L80,218.083671" id="Shape" stroke="#98CCFD"></path>
            <path d="M130.133025,284.171968 L87.9892038,300.867553" id="Shape" stroke="#98CCFD"></path>
            <path d="M49.4698284,121.920185 L51.7061885,136.302294" id="Shape" stroke="#98CCFD"></path>
            <path d="M399.113168,249.450549 L382.070561,247.754" id="Shape" stroke="#98CCFD"></path>
            <polyline id="Shape" stroke="#98CCFD" points="87.9120879 147.58049 35.0106034 182.301909 9.13823019 173.452863"></polyline>
            <path d="M31.2704839,195.180258 L35.0106034,182.301909" id="Shape" stroke="#98CCFD"></path>
            <path d="M286.19626,253.344901 L300.269906,237.015616" id="Shape" stroke="#98CCFD"></path>
            <path d="M211.683054,195.373048 C193.007375,195.373048 177.867746,180.233419 177.867746,161.557741 C177.867746,142.882062 193.007375,127.742433 211.683054,127.742433 C230.358732,127.742433 245.498361,142.882062 245.498361,161.557741 C245.498361,180.233419 230.358732,195.373048 211.683054,195.373048 Z" id="Shape" stroke="#98CCFD"></path>
            <circle id="Oval" fill="#FFFFFF" fill-rule="nonzero" cx="321.939464" cy="145.305572" r="5.59090033"></circle>
            <circle id="Oval" fill="#FFFFFF" fill-rule="nonzero" cx="95.7007904" cy="103.971467" r="5.59090033"></circle>
            <circle id="Oval" fill="#98CCFD" fill-rule="nonzero" cx="345.228456" cy="201.966455" r="2.69905533"></circle>
            <circle id="Oval" fill="#98CCFD" fill-rule="nonzero" cx="382.070561" cy="247.754" r="2.69905533"></circle>
            <circle id="Oval" fill="#98CCFD" fill-rule="nonzero" cx="497.01176" cy="214.304993" r="2.69905533"></circle>
            <circle id="Oval" fill="#98CCFD" fill-rule="nonzero" cx="371.582803" cy="66.8016194" r="2.69905533"></circle>
            <circle id="Oval" fill="#98CCFD" fill-rule="nonzero" cx="443.28128" cy="66.8016194" r="2.69905533"></circle>
            <circle id="Oval" fill="#98CCFD" fill-rule="nonzero" cx="229.786003" cy="233.159823" r="2.69905533"></circle>
            <circle id="Oval" fill="#98CCFD" fill-rule="nonzero" cx="65.4135338" cy="91.4015809" r="2.69905533"></circle>
            <circle id="Oval" fill="#98CCFD" fill-rule="nonzero" cx="124.117987" cy="158.858685" r="2.69905533"></circle>
            <circle id="Oval" fill="#98CCFD" fill-rule="nonzero" cx="35.0106034" cy="182.301909" r="2.69905533"></circle>
            <circle id="Oval" fill="#98CCFD" fill-rule="nonzero" cx="297.300945" cy="132.292269" r="2.69905533"></circle>
            <circle id="Oval" fill="#FFFFFF" fill-rule="nonzero" cx="438.943513" cy="204.029304" r="4.95469443"></circle>
            <circle id="Oval" fill="#98CCFD" fill-rule="nonzero" cx="225.081936" cy="96.7996915" r="2.69905533"></circle>
            <circle id="Oval" fill="#98CCFD" fill-rule="nonzero" cx="209.427415" cy="69.5006748" r="2.69905533"></circle>
            <circle id="Oval" fill="#98CCFD" fill-rule="nonzero" cx="209.427415" cy="9.50453056" r="2.69905533"></circle>
            <circle id="Oval" fill="#98CCFD" fill-rule="nonzero" cx="149.026412" cy="124.754193" r="2.69905533"></circle>
            <circle id="Oval" fill="#98CCFD" fill-rule="nonzero" cx="51.455562" cy="136.302294" r="2.69905533"></circle>
            <circle id="Oval" fill="#98CCFD" fill-rule="nonzero" cx="80.4511278" cy="192.461924" r="2.69905533"></circle>
            <circle id="Oval" fill="#98CCFD" fill-rule="nonzero" cx="28.5714286" cy="223.578176" r="2.69905533"></circle>
            <circle id="Oval" fill="#98CCFD" fill-rule="nonzero" cx="87.9892038" cy="300.867553" r="2.313476"></circle>
            <circle id="Oval" fill="#98CCFD" fill-rule="nonzero" cx="109.061114" cy="262.579526" r="2.313476"></circle>
            <circle id="Oval" fill="#98CCFD" fill-rule="nonzero" cx="25.8723732" cy="152.188163" r="2.313476"></circle>
            <circle id="Oval" fill="#98CCFD" fill-rule="nonzero" cx="49.4698284" cy="121.920185" r="2.313476"></circle>
            <circle id="Oval" fill="#98CCFD" fill-rule="nonzero" cx="107.364565" cy="218.083671" r="1.3880856"></circle>
            <circle id="Oval" fill="#98CCFD" fill-rule="nonzero" cx="31.2704839" cy="194.96819" r="1.3880856"></circle>
            <circle id="Oval" fill="#98CCFD" fill-rule="nonzero" cx="184.962406" cy="314.594178" r="2.69905533"></circle>
            <circle id="Oval" fill="#98CCFD" fill-rule="nonzero" cx="248.448043" cy="307.865818" r="2.69905533"></circle>
            <circle id="Oval" fill="#98CCFD" fill-rule="nonzero" cx="281.72354" cy="328.320802" r="2.69905533"></circle>
            <circle id="Oval" fill="#98CCFD" fill-rule="nonzero" cx="324.195103" cy="268.594563" r="2.69905533"></circle>
            <circle id="Oval" fill="#98CCFD" fill-rule="nonzero" cx="170.946597" cy="226.277232" r="2.69905533"></circle>
            <circle id="Oval" fill="#98CCFD" fill-rule="nonzero" cx="129.901677" cy="284.171968" r="2.69905533"></circle>
            <circle id="Oval" fill="#98CCFD" fill-rule="nonzero" cx="249.932524" cy="94.9103528" r="2.69905533"></circle>
            <circle id="Oval" fill="#98CCFD" fill-rule="nonzero" cx="460.43956" cy="109.562367" r="2.69905533"></circle>
            <circle id="Oval" fill="#98CCFD" fill-rule="nonzero" cx="430.210141" cy="158.858685" r="2.69905533"></circle>
            <circle id="Oval" fill="#98CCFD" fill-rule="nonzero" cx="306.169269" cy="69.5006748" r="1.83150183"></circle>
            <circle id="Oval" fill="#98CCFD" fill-rule="nonzero" cx="80.5668016" cy="218.083671" r="1.83150183"></circle>
            <circle id="Oval" fill="#98CCFD" fill-rule="nonzero" cx="95.7007904" cy="259.051475" r="1.83150183"></circle>
            <circle id="Oval" fill="#98CCFD" fill-rule="nonzero" cx="9.13823019" cy="173.568537" r="1.83150183"></circle>
            <circle id="Oval" fill="#98CCFD" fill-rule="nonzero" cx="1.83150183" cy="112.12647" r="1.83150183"></circle>
            <circle id="Oval" fill="#98CCFD" fill-rule="nonzero" cx="327.530364" cy="42.5872373" r="1.83150183"></circle>
            <circle id="Oval" fill="#98CCFD" fill-rule="nonzero" cx="434.220166" cy="97.6094081" r="1.83150183"></circle>
            <circle id="Oval" fill="#98CCFD" fill-rule="nonzero" cx="455.581261" cy="178.503952" r="1.83150183"></circle>
            <circle id="Oval" fill="#98CCFD" fill-rule="nonzero" cx="399.113168" cy="249.450549" r="1.83150183"></circle>
            <circle id="Oval" fill="#98CCFD" fill-rule="nonzero" cx="300.269906" cy="237.015616" r="1.83150183"></circle>
            <circle id="Oval" fill="#98CCFD" fill-rule="nonzero" cx="447.3877" cy="233.159823" r="2.40987083"></circle>
            <circle id="Oval" fill="#98CCFD" fill-rule="nonzero" cx="374.224022" cy="276.556777" r="2.40987083"></circle>
            <circle id="Oval" fill="#98CCFD" fill-rule="nonzero" cx="366.840177" cy="102.062849" r="2.40987083"></circle>
            <circle id="Oval" fill="#98CCFD" fill-rule="nonzero" cx="347.059958" cy="123.751687" r="1.83150183"></circle>
            <circle id="Oval" fill="#98CCFD" fill-rule="nonzero" cx="378.966647" cy="150.896472" r="1.83150183"></circle>
            <circle id="Oval" fill="#98CCFD" fill-rule="nonzero" cx="170.946597" cy="1.83150183" r="1.83150183"></circle>
            <circle id="Oval" fill="#98CCFD" fill-rule="nonzero" cx="286.234818" cy="253.017158" r="3.56660883"></circle>
            <circle id="Oval" fill="#98CCFD" fill-rule="nonzero" cx="196.780413" cy="287.719298" r="3.56660883"></circle>
            <circle id="Oval" fill="#98CCFD" fill-rule="nonzero" cx="368.035473" cy="167.630615" r="3.56660883"></circle>
            <circle id="Oval" fill="#98CCFD" fill-rule="nonzero" cx="365.683439" cy="227.183343" r="3.56660883"></circle>
            <circle id="Oval" fill="#98CCFD" fill-rule="nonzero" cx="202.621939" cy="27.4339695" r="3.56660883"></circle>
            <circle id="Oval" fill="#98CCFD" fill-rule="nonzero" cx="189.994216" cy="90.5533063" r="3.56660883"></circle>
            <circle id="Oval" fill="#98CCFD" fill-rule="nonzero" cx="356.641604" cy="126.87488" r="3.56660883"></circle>
            <circle id="Oval" fill="#98CCFD" fill-rule="nonzero" cx="87.9892038" cy="148.178138" r="3.56660883"></circle>
            <circle id="Oval" fill="#98CCFD" fill-rule="nonzero" cx="337.786775" cy="60.092539" r="3.56660883"></circle>
            <circle id="Oval" fill="#98CCFD" fill-rule="nonzero" cx="434.220166" cy="86.9866975" r="3.56660883"></circle>
            <circle id="Oval" fill="#98CCFD" fill-rule="nonzero" cx="280.200501" cy="182.301909" r="4.35704646"></circle>
            <circle id="Oval" fill="#FFFFFF" fill-rule="nonzero" cx="119.741662" cy="213.707345" r="4.35704646"></circle>
            <circle id="Oval" fill="#FFFFFF" fill-rule="nonzero" cx="306.169269" cy="90.5533063" r="4.35704646"></circle>
            <g id="icon-blockchain" transform="translate(191.729323, 137.844612)" fill-rule="nonzero" fill="#FFFFFF">
                <path d="M32.5364236,0 C31.9502948,0.134082053 31.3679967,0.264332462 30.8201765,0.398414515 C30.7588819,0.41373815 30.6669401,0.494186989 30.6669401,0.551650866 C30.6554471,1.12628768 30.6669401,1.70858581 30.6669401,2.32919255 C31.2798855,2.19894214 31.8545223,2.08401438 32.4138345,1.9614253 C32.4598054,1.94993233 32.5057763,1.88097646 32.5057763,1.83883622 C32.5134386,1.22972148 32.5364236,0.620607715 32.5364236,0 Z M30.2072311,0.521003596 C29.7934929,0.60528408 29.410402,0.681902256 29.0119875,0.766181759 C28.3798878,0.900263812 28.3683948,0.911756783 28.3683948,1.56301079 L28.3683948,2.75825433 C29.0119875,2.63949591 29.6057786,2.53223047 30.2072311,2.42113436 L30.2072311,0.521003596 Z M27.9086858,0.980712651 C27.299571,1.0879781 26.7364282,1.17991991 26.1617914,1.28718535 C26.1234828,1.29484766 26.0698496,1.3944508 26.0698496,1.44042171 C26.0621882,1.99590324 26.0698496,2.53606211 26.0698496,3.12602158 C26.65981,3.0302491 27.2152915,2.94596862 27.7554494,2.85019614 C27.8205746,2.83870317 27.9086858,2.78124027 27.9086858,2.72760706 C27.9201788,2.16063256 27.9086858,1.57833442 27.9086858,0.980712651 Z M23.280948,1.74689441 C22.6565096,1.83117489 22.0435642,1.91162373 21.4421117,1.99207257 L21.4421117,3.76961425 C22.0665501,3.69682674 22.6756649,3.5972236 23.280948,3.52443609 L23.280948,1.74689441 Z M34.8043216,1.86948349 C34.2335164,1.99973488 33.6780349,2.10700033 33.1187217,2.23725074 C33.0727508,2.24874371 32.9961327,2.32153122 32.9961327,2.35983982 C32.9884713,2.89999771 32.9961327,3.42866362 32.9961327,3.98414515 C33.620571,3.85389474 34.2066998,3.74279765 34.8043216,3.6163779 C34.8043216,3.03791043 34.8043216,2.47859823 34.8043216,1.86948349 Z M20.9824027,2.05336711 C20.3311487,2.12232396 19.7220339,2.17212553 19.1129192,2.23725074 L19.1129192,3.98414515 C19.7067103,3.92668127 20.2813461,3.89220333 20.8598136,3.83090879 C20.9019538,3.82707813 20.9824027,3.74662929 20.9824027,3.70831971 C20.990065,3.16433115 20.9824027,2.62034161 20.9824027,2.05336711 Z M18.6225629,2.29854528 C17.9866325,2.35217849 17.3890107,2.3981494 16.7837266,2.45178163 L16.7837266,4.16802877 C17.4043344,4.12205786 18.0057868,4.09141059 18.6225629,4.04543969 L18.6225629,2.29854528 Z M16.2933703,2.4824289 C15.6727636,2.51690683 15.0483252,2.53989278 14.4238868,2.57437071 L14.4238868,4.32126512 C15.0559865,4.28678719 15.6880872,4.23315397 16.2933703,4.19867604 L16.2933703,2.4824289 Z M7.40566192,2.69695979 L7.40566192,4.38255966 L9.24449814,4.38255966 L9.24449814,2.69695979 L7.40566192,2.69695979 Z M9.76550174,2.72760706 L9.76550174,4.38255966 L11.604338,4.38255966 L11.604338,2.72760706 L9.76550174,2.72760706 Z M30.2072311,2.85019614 C29.6364259,2.95363093 29.0771127,3.0494034 28.5216312,3.15666885 C28.4641673,3.16816182 28.3683948,3.23328702 28.3683948,3.27925793 C28.3569019,3.78110722 28.3683948,4.27912488 28.3683948,4.81162144 C29.0081569,4.704356 29.601948,4.60858352 30.2072311,4.50514874 L30.2072311,2.85019614 Z M27.9086858,3.27925793 C25.7442226,3.58189997 23.58359,3.896034 21.4114645,4.19867604 L21.4114645,8.09087937 C20.0514916,8.15217391 18.7259977,8.21346845 17.3660248,8.27476299 L17.3660248,6.71175221 C17.9483229,6.67727427 18.5191281,6.65045767 19.0822719,6.6198104 L19.0822719,4.41320693 C16.7415864,4.54345832 14.4047325,4.68137104 12.064047,4.81162144 L12.064047,8.55058843 L7.40566192,8.55058843 L7.40566192,10.4813665 L9.21385087,10.4813665 L9.21385087,11.9524354 L7.40566192,11.9524354 L7.40566192,13.8525662 L9.76550174,13.8525662 L9.76550174,19.951373 L11.5430434,19.951373 L11.5430434,21.422442 L9.76550174,21.422442 L9.76550174,23.7209873 L11.5430434,23.7209873 L11.5430434,25.1920562 L9.73485447,25.1920562 L9.73485447,31.2602158 L7.40566192,31.2602158 L7.40566192,35.0911246 L9.21385087,35.0911246 L9.21385087,36.5621935 L12.0946943,36.5621935 L12.0946943,40.3318078 C13.6768594,40.4007646 15.2283782,40.4773828 16.8143739,40.5463387 L16.8143739,39.0752697 C17.4349816,39.1289029 18.0134481,39.1748738 18.6225629,39.228506 L18.6225629,36.838019 C19.5726283,36.9108065 20.4997087,36.9797623 21.4421117,37.0525499 L21.4421117,40.9141059 C23.6180679,41.216748 25.7672075,41.530882 27.9393331,41.833524 L27.9393331,37.7574371 C28.3262546,37.7842537 28.6672062,37.7957466 29.0119875,37.8187316 C30.2034004,37.9030121 31.3679967,37.8876885 32.5364236,37.5735534 C34.6893948,36.9989176 36.1757875,35.7193936 36.7657469,33.5281138 C37.1296835,32.1758032 37.1794851,30.808169 37.0415724,29.4213795 C36.9266456,28.2797692 36.6086799,27.2071147 36.0302124,26.2034161 C35.8501595,25.8892821 35.6547839,25.7053985 35.2640307,25.7437071 C34.9422343,25.7743544 34.6127767,25.6977362 34.283318,25.6824126 C33.8619185,25.6632583 33.4328568,25.6402723 32.9961327,25.621118 C32.9961327,24.9890183 32.980809,24.4143815 32.9961327,23.8129291 C32.9999633,23.6252148 32.9463311,23.5256107 32.7816018,23.4758091 C32.0537296,23.2612782 31.3411801,23.027593 30.6056456,22.8322164 C30.1804145,22.7211203 29.7321984,22.6674871 29.287813,22.5870382 L29.287813,21.9740928 C29.287813,21.2768679 29.2954753,21.2883599 29.9620529,21.0546747 C31.1228185,20.6524296 32.2567675,20.2271984 33.2413108,19.4610167 C34.3407819,18.6028931 35.1337803,17.5225773 35.6011506,16.212406 C36.0225511,15.0286554 36.057029,13.7721174 35.9689179,12.5347336 C35.899962,11.5846682 35.6815995,10.688236 35.2333834,9.83777378 C34.8809398,9.17119614 34.3752598,8.63486891 33.7316672,8.24411572 C32.3678636,7.41663942 30.881471,7.17529193 29.3184602,7.26340307 C28.8625818,7.29021968 28.4028728,7.32852828 27.9393331,7.35534488 C27.9316717,7.20210853 27.9163481,7.06036515 27.9086858,6.9262831 C27.299571,7.00290127 26.7249352,7.09867375 26.1311441,7.17146126 L26.1311441,5.5778032 C26.7325965,5.48969206 27.3148947,5.42073619 27.9086858,5.33262504 L27.9086858,3.27925793 Z M34.8043216,4.04543969 C34.1952069,4.17185943 33.5899238,4.29061785 32.9961327,4.41320693 L32.9961327,6.16010134 C33.6090781,6.04517457 34.2181928,5.93407748 34.8043216,5.82298137 L34.8043216,4.04543969 Z M32.5057763,4.50514874 C31.8736766,4.6200765 31.2837162,4.73500327 30.6975874,4.84226872 L30.6975874,6.52786858 C31.3220258,6.4244338 31.9043239,6.321 32.5057763,6.22139588 L32.5057763,4.50514874 Z M9.76550174,4.81162144 L9.76550174,6.28269042 L11.604338,6.28269042 L11.604338,4.81162144 L9.76550174,4.81162144 Z M30.2072311,4.93421053 C29.5866243,5.03381465 28.9736789,5.14108009 28.3683948,5.24068323 L28.3683948,6.89563583 C29.0004945,6.80369402 29.6096093,6.70792154 30.2072311,6.6198104 L30.2072311,4.93421053 Z M7.40566192,6.68110494 L7.40566192,8.18282118 L9.24449814,8.18282118 L9.24449814,6.68110494 L7.40566192,6.68110494 Z M9.76550174,6.68110494 L9.76550174,8.18282118 L11.604338,8.18282118 L11.604338,6.68110494 L9.76550174,6.68110494 Z M0.418084282,8.27476299 L0.418084282,9.80712651 C1.038692,9.84160445 1.6439751,9.89523766 2.2569205,9.92971559 L2.2569205,8.39735208 C1.63631377,8.36287414 1.03486035,8.30924093 0.418084282,8.27476299 Z M2.74727683,8.45864662 L2.74727683,9.96036286 L4.55546578,9.96036286 L4.55546578,8.45864662 L2.74727683,8.45864662 Z M5.07646938,8.55058843 L5.07646938,10.0523047 L6.9153056,10.0523047 L6.9153056,8.55058843 L5.07646938,8.55058843 Z M16.2933703,10.2361883 L16.2933703,11.7379045 C15.6842556,11.7647212 15.0713102,11.8030297 14.4545341,11.8298464 L14.4545341,10.3281301 C15.0713102,10.2974828 15.6804249,10.2668356 16.2933703,10.2361883 Z M2.74727683,10.3587774 L2.74727683,11.8604936 L4.55546578,11.8604936 L4.55546578,10.3587774 L2.74727683,10.3587774 Z M34.8043216,10.3587774 L34.8043216,12.1363191 C34.2220235,12.2091066 33.632064,12.2780624 33.0267799,12.35085 L33.0267799,10.6039555 C33.6014167,10.519676 34.1875455,10.4507192 34.8043216,10.3587774 Z M12.1253416,10.3894246 L13.9335305,10.3894246 L13.9335305,11.8604936 L12.1253416,11.8604936 L12.1253416,10.3894246 Z M0.387437012,12.1976136 C0.387437012,12.641999 0.37594404,13.1093704 0.387437012,13.5767408 C0.387437012,13.618881 0.490871794,13.6686826 0.540673363,13.6686826 C1.1038172,13.6763449 1.67845303,13.6993298 2.2569205,13.6993298 L2.2569205,12.1976136 L0.387437012,12.1976136 Z M5.07646938,12.35085 L5.07646938,13.8219189 L6.9153056,13.8219189 L6.9153056,12.35085 L5.07646938,12.35085 Z M23.5261261,12.6879699 C27.3570349,12.5921975 27.2689238,14.24715 27.2957404,15.4462243 C27.3455419,17.6451664 26.4146318,19.625746 21.809879,19.9820203 C21.652812,19.9935132 17.9406616,20.1352566 17.8870284,20.1352566 C17.8870284,17.7371082 17.8870284,15.3619448 17.8870284,12.9637954 C18.0402647,12.9523024 22.9361667,12.7032936 23.5261261,12.6879699 Z M0.418084282,14.0977444 L0.418084282,15.6301079 L2.2569205,15.6301079 L2.2569205,14.0977444 L0.418084282,14.0977444 Z M5.07646938,14.2203334 L5.07646938,15.7220497 L6.9153056,15.7220497 L6.9153056,14.2203334 L5.07646938,14.2203334 Z M7.40566192,14.2509807 L7.40566192,15.7220497 L9.24449814,15.7220497 L9.24449814,14.2509807 L7.40566192,14.2509807 Z M11.1446289,14.2509807 L12.9528179,14.2509807 L12.9528179,15.7220497 L11.1446289,15.7220497 L11.1446289,14.2509807 Z M34.7736743,14.8639261 L34.7736743,16.6414678 C34.1913762,16.6797774 33.632064,16.7257483 33.0267799,16.7640569 L33.0267799,15.0478097 C33.6167404,14.9941775 34.1722219,14.92139 34.7736743,14.8639261 Z M2.74727683,16.0898169 L2.74727683,17.5915332 L4.55546578,17.5915332 L4.55546578,16.0898169 L2.74727683,16.0898169 Z M7.40566192,16.1511115 L7.40566192,17.6221805 L9.24449814,17.6221805 L9.24449814,16.1511115 L7.40566192,16.1511115 Z M13.7496469,16.1511115 L15.5578358,16.1511115 L15.5578358,17.5915332 L13.7496469,17.5915332 L13.7496469,16.1511115 Z M0.418084282,17.9593004 L0.418084282,19.4610167 L2.2569205,19.4610167 L2.2569205,17.9593004 L0.418084282,17.9593004 Z M2.74727683,17.9899477 L2.74727683,19.4916639 L4.55546578,19.4916639 L4.55546578,17.9899477 L2.74727683,17.9899477 Z M5.07646938,18.020595 L5.07646938,19.4916639 L6.9153056,19.4916639 L6.9153056,18.020595 L5.07646938,18.020595 Z M5.07646938,19.9207257 L5.07646938,21.3917947 L6.9153056,21.3917947 L6.9153056,19.9207257 L5.07646938,19.9207257 Z M7.40566192,19.9207257 L7.40566192,21.3917947 L9.24449814,21.3917947 L9.24449814,19.9207257 L7.40566192,19.9207257 Z M2.74727683,21.8208565 L2.74727683,23.3225727 L4.55546578,23.3225727 L4.55546578,21.8208565 L2.74727683,21.8208565 Z M7.40566192,21.8208565 L7.40566192,23.2919255 L9.24449814,23.2919255 L9.24449814,21.8208565 L7.40566192,21.8208565 Z M13.535116,21.8208565 L15.3433049,21.8208565 L15.3433049,23.2919255 L13.535116,23.2919255 L13.535116,21.8208565 Z M5.07646938,23.7209873 L5.07646938,25.1920562 L6.9153056,25.1920562 L6.9153056,23.7209873 L5.07646938,23.7209873 Z M7.40566192,23.7209873 L7.40566192,25.1920562 L9.27514541,25.1920562 L9.27514541,23.7209873 L7.40566192,23.7209873 Z M17.8870284,25.0388199 C18.0019561,25.0388199 21.2658904,25.1001144 21.809879,25.1307617 C27.5715658,25.4372344 27.7209715,26.5558598 28.3071003,28.6245505 C28.4756603,29.2183416 28.3454099,29.831287 28.1845112,30.4327395 C28.0734151,30.8503083 27.7746037,32.4286427 24.077777,32.424812 C23.1736825,32.424812 18.0211104,32.2102811 17.8870284,32.2102811 L17.8870284,25.0388199 Z M2.74727683,25.621118 L2.74727683,27.1228343 L4.58611305,27.1228343 L4.58611305,25.621118 L2.74727683,25.621118 Z M5.07646938,25.621118 L5.07646938,27.092187 L6.9153056,27.092187 L6.9153056,25.621118 L5.07646938,25.621118 Z M0.418084282,25.6517653 L0.418084282,27.1534815 L2.2569205,27.1534815 L2.2569205,25.6517653 L0.418084282,25.6517653 Z M7.40566192,27.4906015 L7.40566192,28.9616705 L9.24449814,28.9616705 L9.24449814,27.4906015 L7.40566192,27.4906015 Z M11.6656325,27.5212488 L13.4738215,27.5212488 L13.4738215,28.9616705 L11.6656325,28.9616705 L11.6656325,27.5212488 Z M2.74727683,27.551896 L2.74727683,29.022965 L4.55546578,29.022965 L4.55546578,27.551896 L2.74727683,27.551896 Z M0.418084282,27.5825433 L0.418084282,29.0842596 L2.2569205,29.0842596 L2.2569205,27.5825433 L0.418084282,27.5825433 Z M5.07646938,29.3907323 L5.07646938,30.8924485 L6.9153056,30.8924485 L6.9153056,29.3907323 L5.07646938,29.3907323 Z M7.40566192,29.3907323 L7.40566192,30.8618012 L9.24449814,30.8618012 L9.24449814,29.3907323 L7.40566192,29.3907323 Z M11.6656325,29.3907323 L13.4738215,29.3907323 L13.4738215,30.8618012 L11.6656325,30.8618012 L11.6656325,29.3907323 Z M2.74727683,29.4213795 L2.74727683,30.9230958 L4.55546578,30.9230958 L4.55546578,29.4213795 L2.74727683,29.4213795 Z M33.0267799,30.5553285 C33.6090781,30.6127924 34.1990385,30.651101 34.8043216,30.7085649 L34.8043216,32.4861066 C34.2105305,32.4171507 33.6244017,32.3711798 33.0267799,32.3022229 L33.0267799,30.5553285 Z M2.74727683,31.3521576 L2.74727683,32.8232265 L4.55546578,32.8232265 L4.55546578,31.3521576 L2.74727683,31.3521576 Z M5.07646938,33.1909938 L5.07646938,34.6620628 L6.9153056,34.6620628 L6.9153056,33.1909938 L5.07646938,33.1909938 Z M9.79614901,33.1909938 L11.604338,33.1909938 L11.604338,34.6620628 L9.79614901,34.6620628 L9.79614901,33.1909938 Z M2.74727683,33.2522883 L2.74727683,34.7540046 L4.55546578,34.7540046 L4.55546578,33.2522883 L2.74727683,33.2522883 Z M19.204861,33.3442301 L21.01305,33.3442301 L21.01305,34.8765937 C20.7104079,34.86127 19.5113337,34.7999755 19.204861,34.7846518 L19.204861,33.3442301 Z M23.8632461,33.5281138 C24.3229552,33.558761 24.7635099,33.5894083 25.211726,33.6200556 C25.3611317,33.6315485 25.5220294,33.6392099 25.6714351,33.6507028 L25.6714351,35.2137136 C25.223219,35.1792357 24.0164825,35.0719703 23.8632461,35.0604773 L23.8632461,33.5281138 Z M5.07646938,35.0911246 L5.07646938,36.5621935 L6.9153056,36.5621935 L6.9153056,35.0911246 L5.07646938,35.0911246 Z M2.2569205,35.1830664 C1.6248208,35.2175443 1.02336836,35.2711775 0.418084282,35.3056554 L0.418084282,36.838019 C1.04252266,36.7997104 1.64014443,36.7537395 2.2569205,36.7154299 L2.2569205,35.1830664 Z M7.40566192,36.9299608 L7.40566192,38.431677 L9.27514541,38.431677 L9.27514541,36.9299608 L7.40566192,36.9299608 Z M9.76550174,36.9299608 L9.76550174,38.431677 L11.604338,38.431677 L11.604338,36.9299608 L9.76550174,36.9299608 Z M14.4545341,36.960608 L16.2933703,36.960608 L16.2933703,38.4010297 L14.4545341,38.4010297 L14.4545341,36.960608 Z M4.55546578,36.9912553 C3.93485905,37.0180719 3.35256091,37.0563805 2.74727683,37.0831971 L2.74727683,38.6155606 C3.36788454,38.588744 3.95018268,38.5504354 4.55546578,38.5236188 L4.55546578,36.9912553 Z M5.07646938,36.9912553 L5.07646938,38.4623243 L6.9153056,38.4623243 L6.9153056,36.9912553 L5.07646938,36.9912553 Z M2.2569205,37.1138444 C1.63631377,37.152154 1.03486035,37.1981249 0.418084282,37.2364335 L0.418084282,38.768797 C1.04635332,38.7266568 1.6439751,38.6883482 2.2569205,38.6462079 L2.2569205,37.1138444 Z M19.0822719,37.2670807 L19.0822719,38.7994443 C19.7182033,38.8530775 20.350303,38.902879 20.9517554,38.9526806 C20.9670791,38.902879 20.9824027,38.8760624 20.9824027,38.8607388 C20.9862334,38.5580968 20.9824027,38.27461 20.9824027,37.971968 C20.9824027,37.4203171 20.9670791,37.4088241 20.4307518,37.3590226 C20.3771196,37.3551919 20.3311487,37.3322059 20.2775155,37.3283753 C19.8867633,37.3015587 19.4845171,37.2938974 19.0822719,37.2670807 Z M28.3683948,38.2171461 L28.3683948,39.8720987 C28.9775096,39.9717028 29.5866243,40.0789683 30.2072311,40.1785714 L30.2072311,38.4929716 C29.590455,38.4010297 28.9813402,38.3090879 28.3683948,38.2171461 Z M30.6669401,38.5849134 C30.6669401,38.7496427 30.6669401,38.8990484 30.6669401,39.0446224 C30.6669401,39.1901975 30.6631095,39.3319408 30.6669401,39.4736842 C30.6707708,39.6652301 30.6362928,39.8835917 30.6669401,40.0559823 C30.6784331,40.1134462 30.6975874,40.1670785 30.7282347,40.2092187 C30.8431624,40.3586244 31.1917744,40.3471314 31.4331219,40.3931023 C31.7932278,40.4620592 32.1418398,40.5118607 32.5057763,40.5769859 L32.5057763,38.8913861 C31.8966616,38.7917829 31.3028715,38.6883482 30.6669401,38.5849134 Z M9.76550174,38.8300915 L9.76550174,40.3011605 L11.604338,40.3011605 L11.604338,38.8300915 L9.76550174,38.8300915 Z M5.07646938,38.8607388 L5.07646938,40.3624551 L6.9153056,40.3624551 L6.9153056,38.8607388 L5.07646938,38.8607388 Z M32.9961327,38.9833279 L32.9961327,40.699575 C33.5975851,40.8221641 34.1990385,40.9447532 34.8043216,41.0673423 L34.8043216,39.2898006 C34.1990385,39.1787045 33.6014167,39.094424 32.9961327,38.9833279 Z M19.1129192,39.1978588 L19.1129192,40.7302223 C19.7335269,40.7876862 20.3196557,40.8528114 20.9517554,40.9141059 L20.9517554,39.3510951 C20.3234864,39.2974629 19.7296953,39.251492 19.1129192,39.1978588 Z M28.3683948,40.3011605 L28.3683948,41.9254658 C28.9775096,42.0365619 29.5866243,42.1514897 30.2072311,42.2625858 L30.2072311,40.6076332 C29.5942857,40.5041984 28.9851709,40.4045953 28.3683948,40.3011605 Z M9.76550174,40.699575 L9.76550174,42.3851749 L11.604338,42.3851749 L11.604338,40.699575 L9.76550174,40.699575 Z M12.0946943,40.7608696 L12.0946943,42.4464694 L13.9335305,42.4464694 L13.9335305,40.7608696 L12.0946943,40.7608696 Z M14.4238868,40.8221641 C14.4238868,41.3699843 14.4085632,41.8756643 14.4238868,42.3851749 C14.4238868,42.4388081 14.5388146,42.5307499 14.6077705,42.5384112 C14.8797652,42.5690585 15.1594213,42.5537349 15.4352468,42.5690585 C15.7225652,42.5843822 16.0022213,42.6150294 16.2933703,42.6303531 L16.2933703,40.9141059 C15.65744,40.8834586 15.0559865,40.8528114 14.4238868,40.8221641 Z M16.7837266,40.9447532 L16.7837266,42.6610003 C17.4005027,42.7108019 17.9866325,42.7606044 18.6225629,42.8142367 L18.6225629,41.6802877 C18.6225629,41.0979895 18.6225629,41.0903282 18.0402647,41.036695 C17.6188653,40.9983864 17.2204507,40.9792311 16.7837266,40.9447532 Z M21.4421117,41.3431677 L21.4421117,43.1207094 C22.0627195,43.2011582 22.6641719,43.2854387 23.280948,43.3658875 L23.280948,41.5883459 C22.6641719,41.5155584 22.0627195,41.4159552 21.4421117,41.3431677 Z M23.7713043,41.6496404 L23.7713043,43.4271821 C24.391912,43.5229546 24.9933644,43.6378823 25.6101405,43.7336548 L25.6101405,41.8948186 C24.9895338,41.8067074 24.3842497,41.7377516 23.7713043,41.6496404 Z M28.3683948,42.3545276 C28.3683948,42.9713037 28.3607335,43.5421098 28.3683948,44.101422 C28.3683948,44.1512236 28.445013,44.2125181 28.4909839,44.2240111 C29.0617891,44.3466002 29.6172716,44.4730199 30.2072311,44.5917784 L30.2072311,42.6916476 C29.5981163,42.5805515 29.0043262,42.473286 28.3683948,42.3545276 Z M30.6669401,42.8142367 C30.6669401,43.4233514 30.6592788,43.9635093 30.6669401,44.5304838 C30.6669401,44.5917784 30.7397276,44.7028745 30.7895292,44.7143674 C31.3565037,44.8522802 31.9388018,44.9786999 32.5364236,45.112782 C32.5364236,44.4921752 32.5172693,43.9060454 32.5057763,43.304593 C32.5057763,43.2509608 32.4214968,43.1666803 32.35254,43.1513567 C32.0000964,43.0670771 31.6361598,42.978966 31.2798855,42.9061785 C31.0845089,42.8678699 30.8853017,42.8563769 30.6669401,42.8142367 Z" id="Shape"></path>
            </g>
        </g>
    </g>
</svg>