<?xml version="1.0" encoding="iso-8859-1"?>
<!-- Generator: Adobe Illustrator 19.0.0, SVG Export Plug-In . SVG Version: 6.00 Build 0)  -->
<svg xmlns="http://www.w3.org/2000/svg" xmlns:xlink="http://www.w3.org/1999/xlink" version="1.1" id="Capa_1" x="0px" y="0px" viewBox="0 0 480.016 480.016" style="enable-background:new 0 0 480.016 480.016;" xml:space="preserve" width="512px" height="512px">
<g>
	<g>
		<path d="M432.008,192.656v-64.64c0-4.418-3.582-8-8-8H369.52l-124-117.8c-3.15-3.01-8.129-2.945-11.2,0.144L116.696,120.016    H56.008c-30.913,0.035-55.965,25.087-56,56v248c0.035,30.913,25.087,55.965,56,56h368c4.418,0,8-3.582,8-8v-72.64    c27.527-3.973,47.967-27.547,48-55.36v-96C479.975,220.203,459.535,196.629,432.008,192.656z M240.152,19.216l148.392,140.952    l-23.848,23.848H342.48c-6.884-14.205-3.992-31.213,7.2-42.344l-11.312-11.312c-14.075,14.02-19.098,34.749-13,53.656H75.32    L240.152,19.216z M56.008,136.016h44.688l-16,16H48.008v16h20.688l-16,16h-4.688v16h352v-16H387.32l18.344-18.344    c3.125-3.124,3.126-8.189,0.002-11.314c-0.048-0.048-0.097-0.095-0.146-0.142l-19.16-18.2h29.648v80l-360,0.512v-0.512    c-22.091,0-40-17.909-40-40S33.917,136.016,56.008,136.016z M416.008,464.016h-360c-22.08-0.026-39.974-17.92-40-40v-208.88    c10.509,10.794,24.935,16.882,40,16.88v0.512l360-0.512v56h-112c-30.928,0-56,25.072-56,56c0,30.928,25.072,56,56,56h112V464.016z     M464.008,344.016c-0.026,22.08-17.92,39.974-40,40h-120c-22.091,0-40-17.909-40-40c0-22.091,17.909-40,40-40h120    c15.065,0.002,29.491-6.086,40-16.88V344.016z M432.008,287.216v-78.4c18.611,3.827,31.976,20.199,32,39.2    C463.984,267.017,450.619,283.388,432.008,287.216z" fill="#39bebc"/>
	</g>
</g>
<g>
	<g>
		<path d="M304.008,320.016c-13.255,0-24,10.745-24,24s10.745,24,24,24s24-10.745,24-24S317.263,320.016,304.008,320.016z     M304.008,352.016c-4.418,0-8-3.582-8-8s3.582-8,8-8s8,3.582,8,8S308.426,352.016,304.008,352.016z" fill="#39bebc"/>
	</g>
</g>
<g>
	<g>
		<rect x="368.008" y="248.016" width="24" height="16" fill="#39bebc"/>
	</g>
</g>
<g>
	<g>
		<rect x="328.008" y="248.016" width="24" height="16" fill="#39bebc"/>
	</g>
</g>
<g>
	<g>
		<rect x="288.008" y="248.016" width="24" height="16" fill="#39bebc"/>
	</g>
</g>
<g>
	<g>
		<rect x="248.008" y="248.016" width="24" height="16" fill="#39bebc"/>
	</g>
</g>
<g>
	<g>
		<rect x="208.008" y="248.016" width="24" height="16" fill="#39bebc"/>
	</g>
</g>
<g>
	<g>
		<rect x="168.008" y="248.016" width="24" height="16" fill="#39bebc"/>
	</g>
</g>
<g>
	<g>
		<rect x="128.008" y="248.016" width="24" height="16" fill="#39bebc"/>
	</g>
</g>
<g>
	<g>
		<rect x="88.008" y="248.016" width="24" height="16" fill="#39bebc"/>
	</g>
</g>
<g>
	<g>
		<rect x="48.008" y="248.016" width="24" height="16" fill="#39bebc"/>
	</g>
</g>
<g>
	<g>
		<rect x="368.008" y="432.016" width="24" height="16" fill="#39bebc"/>
	</g>
</g>
<g>
	<g>
		<rect x="328.008" y="432.016" width="24" height="16" fill="#39bebc"/>
	</g>
</g>
<g>
	<g>
		<rect x="288.008" y="432.016" width="24" height="16" fill="#39bebc"/>
	</g>
</g>
<g>
	<g>
		<rect x="248.008" y="432.016" width="24" height="16" fill="#39bebc"/>
	</g>
</g>
<g>
	<g>
		<rect x="208.008" y="432.016" width="24" height="16" fill="#39bebc"/>
	</g>
</g>
<g>
	<g>
		<rect x="168.008" y="432.016" width="24" height="16" fill="#39bebc"/>
	</g>
</g>
<g>
	<g>
		<rect x="128.008" y="432.016" width="24" height="16" fill="#39bebc"/>
	</g>
</g>
<g>
	<g>
		<rect x="88.008" y="432.016" width="24" height="16" fill="#39bebc"/>
	</g>
</g>
<g>
	<g>
		<rect x="48.008" y="432.016" width="24" height="16" fill="#39bebc"/>
	</g>
</g>
<g>
	<g>
		<path d="M266.352,66.36c-14.562,14.519-38.126,14.519-52.688,0l-11.312,11.312c9.98,9.995,23.532,15.601,37.656,15.576    c14.124,0.025,27.676-5.581,37.656-15.576L266.352,66.36z" fill="#39bebc"/>
	</g>
</g>
<g>
</g>
<g>
</g>
<g>
</g>
<g>
</g>
<g>
</g>
<g>
</g>
<g>
</g>
<g>
</g>
<g>
</g>
<g>
</g>
<g>
</g>
<g>
</g>
<g>
</g>
<g>
</g>
<g>
</g>
</svg>
