<?xml version="1.0" encoding="utf-8"?>
<!-- Generator: Adobe Illustrator 14.0.0, SVG Export Plug-In . SVG Version: 6.00 Build 43363)  -->
<!DOCTYPE svg PUBLIC "-//W3C//DTD SVG 1.1//EN" "http://www.w3.org/Graphics/SVG/1.1/DTD/svg11.dtd">
<svg version="1.1" id="Layer_1" xmlns="http://www.w3.org/2000/svg" xmlns:xlink="http://www.w3.org/1999/xlink" x="0px" y="0px"
	 width="41.177px" height="40.336px" viewBox="0 0 41.177 40.336" enable-background="new 0 0 41.177 40.336" xml:space="preserve">
<g>
	<path fill="#FFFFFF" d="M22.887,20.168L33.108,9.937c0.635-0.635,0.635-1.666,0-2.3C32.474,7,31.445,7,30.811,7.636L20.589,17.867
		L10.367,7.636C9.732,7,8.704,7,8.068,7.636c-0.635,0.635-0.635,1.665,0,2.3L18.29,20.168L8.068,30.399
		c-0.635,0.635-0.635,1.666,0,2.301c0.317,0.318,0.734,0.477,1.149,0.477c0.416,0,0.832-0.158,1.149-0.477l10.222-10.231
		L30.811,32.7c0.316,0.318,0.732,0.477,1.148,0.477s0.832-0.158,1.149-0.477c0.635-0.635,0.635-1.666,0-2.301L22.887,20.168z"/>
</g>
</svg>
