<?xml version="1.0" encoding="utf-8"?>
<!-- Generator: Adobe Illustrator 14.0.0, SVG Export Plug-In . SVG Version: 6.00 Build 43363)  -->
<!DOCTYPE svg PUBLIC "-//W3C//DTD SVG 1.1//EN" "http://www.w3.org/Graphics/SVG/1.1/DTD/svg11.dtd">
<svg version="1.1" id="Layer_1" xmlns="http://www.w3.org/2000/svg" xmlns:xlink="http://www.w3.org/1999/xlink" x="0px" y="0px"
	 width="41.176px" height="46.467px" viewBox="0 0 41.176 46.467" enable-background="new 0 0 41.176 46.467" xml:space="preserve">
<g>
	<path fill="#C2C2C2" d="M20.587,17.415c-3.199,0-5.817,2.618-5.817,5.818s2.618,5.818,5.817,5.818c3.201,0,5.818-2.618,5.818-5.818
		S23.789,17.415,20.587,17.415z M33.533,21.779c-0.727-6.109-5.527-10.909-11.49-11.491V7.233h-2.91v3.055
		C13.025,10.87,8.224,15.67,7.643,21.779H4.588v2.91h3.055c0.727,6.108,5.527,10.908,11.489,11.49v3.055h2.91v-3.055
		c6.109-0.727,10.908-5.527,11.49-11.49h3.055v-2.91H33.533z M20.587,33.415c-5.672,0-10.182-4.509-10.182-10.182
		s4.51-10.182,10.182-10.182c5.674,0,10.182,4.509,10.182,10.182S26.261,33.415,20.587,33.415z"/>
</g>
</svg>
