<?xml version="1.0" encoding="iso-8859-1"?>
<!-- Generator: Adobe Illustrator 19.0.0, SVG Export Plug-In . SVG Version: 6.00 Build 0)  -->
<svg version="1.1" id="Layer_1" xmlns="http://www.w3.org/2000/svg" xmlns:xlink="http://www.w3.org/1999/xlink" x="0px" y="0px"
	 viewBox="0 0 512.003 512.003" style="enable-background:new 0 0 512.003 512.003;" xml:space="preserve">
<path style="fill:#E6AF78;" d="M357.519,432.552v-27.771c0-10.031-5.668-19.201-14.64-23.687l-76.652-38.327
	c-8.971-4.485-14.639-13.656-14.639-23.686v-27.77h-88.276v27.77c0,10.031-5.668,19.202-14.64,23.688L72.02,381.095
	c-8.972,4.486-14.64,13.656-14.64,23.687v36.599c0,4.875,3.952,8.828,8.828,8.828v52.966c0,4.875,3.952,8.828,8.828,8.828H278.07
	L357.519,432.552z"/>
<path style="fill:#D29B6E;" d="M357.519,432.552v-27.771c0-10.031-5.668-19.201-14.639-23.687l-76.653-38.327
	c-8.23-4.115-13.622-12.184-14.466-21.231l-29.306,29.306c-26.234,26.234-40.454,62.824-36.315,99.693
	c3.477,30.978,18.31,48.856,36.209,61.464h55.723L357.519,432.552z"/>
<path style="fill:#785546;" d="M259.317,47.796c0.718-2.607,1.099-5.305,1.099-8.072C260.416,17.785,236.702,0,207.45,0
	s-52.966,17.785-52.966,39.724c0,2.766,0.381,5.465,1.099,8.072c-37.288,18.95-62.892,57.58-62.892,102.273v8.828
	c0,43.878,35.57,79.448,79.448,79.448h70.621c43.878,0,79.448-35.57,79.448-79.448v-8.828
	C322.209,105.376,296.605,66.746,259.317,47.796z"/>
<path style="fill:#553732;" d="M154.485,167.724v-17.655c0-52.659,35.512-96.924,83.862-110.429
	c-9.843-2.749-20.176-4.329-30.897-4.329c-5.961,0-11.769,0.594-17.485,1.47c-0.06-0.05-0.086-0.072-0.145-0.122
	c-0.536-14.935,7.872-28.219,21.05-36.528c-0.012-0.045-0.001-0.005-0.013-0.05c-30.795-1.445-56.371,16.859-56.371,39.644
	c0,2.76,0.501,5.416,1.224,8.011c-37.357,18.927-63.018,57.591-63.018,102.333v8.828c0,43.878,35.57,79.448,79.448,79.448h52.966
	C186.103,238.345,154.485,206.727,154.485,167.724z"/>
<path style="fill:#D29B6E;" d="M66.209,441.379v26.483h17.655c4.875,0,8.828,3.952,8.828,8.828V512h26.483v-70.621H66.209z"/>
<path style="fill:#00AAF0;" d="M278.071,512l79.448-79.448v-27.771c0-10.031-5.668-19.201-14.64-23.687l-60.581-30.291
	c-34.428,47.831-74.848,64.094-74.848,64.094s-40.419-16.262-74.848-64.094L72.02,381.094c-8.972,4.486-14.64,13.656-14.64,23.687
	v36.599c0,4.875,3.952,8.828,8.828,8.828h44.138V512H278.071z"/>
<path style="fill:#D29B6E;" d="M163.312,317.388c12.993,5.636,27.147,8.941,41.996,9.212l2.142,0.02
	c15.636,0,30.541-3.165,44.138-8.853V291.31h-88.276V317.388z"/>
<path style="fill:#F0C087;" d="M170.237,135.712c-3.928-1.781-8.534-0.647-10.989,2.899c-8.416,12.153-28.658,37.941-48.901,37.941
	c-9.751,0-17.655,7.904-17.655,17.655c0,9.751,7.905,17.655,17.655,17.655c0,60.307,54.977,107.774,117.547,95.016
	c44.579-9.09,76.788-49.749,76.659-95.245C304.385,152.127,238.388,166.615,170.237,135.712z"/>
<path style="fill:#553732;" d="M251.588,211.862c-4.879,0-8.828-3.953-8.828-8.828v-8.828c0-4.875,3.948-8.828,8.828-8.828
	c4.879,0,8.828,3.953,8.828,8.828v8.828C260.416,207.909,256.468,211.862,251.588,211.862z"/>
<path style="fill:#0096DC;" d="M57.381,404.781v36.599c0,4.875,3.952,8.828,8.828,8.828h44.138v-10.342
	c0-4.682-1.86-9.173-5.171-12.484l-40.627-40.627C60.049,391.576,57.381,397.959,57.381,404.781z"/>
<path style="fill:#E6AF78;" d="M163.312,211.862v-76.299c-1.58,0.601-3.033,1.559-4.065,3.048
	c-8.416,12.153-28.658,37.941-48.901,37.941c-9.751,0-17.655,7.904-17.655,17.655c0,9.751,7.905,17.655,17.655,17.655
	c0,60.307,54.977,107.774,117.547,95.016c2.144-0.438,4.233-1.011,6.318-1.592C193.332,293.839,163.312,256.398,163.312,211.862z"/>
<path style="fill:#D29B6E;" d="M207.45,264.828c-12.19,0-23.586-3.849-32.086-10.836c-3.767-3.095-4.31-8.659-1.216-12.427
	c3.086-3.75,8.655-4.315,12.422-1.211c10.552,8.664,31.207,8.664,41.759,0c3.767-3.103,9.336-2.539,12.422,1.211
	c3.095,3.767,2.552,9.332-1.216,12.427C231.036,260.978,219.64,264.828,207.45,264.828z"/>
<path style="fill:#553732;" d="M163.312,211.862c-4.879,0-8.828-3.953-8.828-8.828v-8.828c0-4.875,3.948-8.828,8.828-8.828
	c4.879,0,8.828,3.953,8.828,8.828v8.828C172.14,207.909,168.192,211.862,163.312,211.862z"/>
<path style="fill:#0096DC;" d="M357.519,432.552v-27.771c0-10.031-5.668-19.201-14.64-23.687l-44.743-22.372l-15.838-7.919
	c-34.428,47.831-74.848,64.094-74.848,64.094s-40.419-16.262-74.848-64.094l-15.866,7.933l0.946,1.497l0.595,0.884
	c22.377,31.098,47.177,49.916,63.73,60.143c-3.36,28.49,5.586,58.14,27.401,79.955c4.023,4.023,8.382,7.575,12.94,10.786h55.723
	L357.519,432.552z"/>
<path style="fill:#B4F0FF;" d="M221.893,488.73L221.893,488.73c-31.027-31.027-31.027-81.33,0-112.357l97.103-97.103
	c31.026-31.026,81.33-31.026,112.357,0l0,0c31.026,31.026,31.026,81.33,0,112.357l-97.104,97.103
	C303.223,519.757,252.919,519.757,221.893,488.73z"/>
<circle style="fill:#F0C087;" cx="375.172" cy="335.45" r="44.14"/>
<path style="fill:#91E1F5;" d="M382.73,440.249l16.566-16.566c-51.629-0.279-100.197-36.974-127.376-62.027l91.213-91.213
	c5.781-5.781,12.234-10.479,19.105-14.106c-22.618-2.008-45.931,5.621-63.242,22.933l-97.103,97.103
	c-31.026,31.026-31.026,81.33,0,112.357c25.245,25.245,63.251,29.943,93.252,14.105c-17.918-1.59-35.4-9.218-49.114-22.933
	c-28.771-28.771-30.813-74.093-6.225-105.274C286.131,399,331.532,433.619,382.73,440.249z"/>
<path style="fill:#E6AF78;" d="M357.206,317.48c14.961-14.961,37.971-16.893,55.063-5.884c-1.675-2.6-3.607-5.081-5.884-7.358
	c-17.237-17.237-45.183-17.237-62.42,0s-17.237,45.183,0,62.42c2.276,2.276,4.757,4.208,7.358,5.884
	C340.313,355.45,342.245,332.44,357.206,317.48z"/>
<g>
	<circle style="fill:#64463C;" cx="362.692" cy="322.96" r="8.828"/>
	<circle style="fill:#64463C;" cx="387.652" cy="347.93" r="8.828"/>
</g>
<path style="fill:#E6AF78;" d="M370.018,420.453c-7.698-14.296-22.624-23.212-38.861-23.212h-16.256
	c-18.442,0-34.911,13.482-36.663,31.84c-2.01,21.06,14.497,38.78,35.144,38.78h12.657c3.101,0,5.974,1.627,7.57,4.286l18.768,31.28
	c3.191,5.318,8.938,8.572,15.139,8.572h41.451c4.676,0,7.657-4.992,5.441-9.109L370.018,420.453z"/>
<path style="fill:#D29B6E;" d="M333.323,450.207h-11.115c-14.626,0-26.483-11.857-26.483-26.483v-21.281
	c-9.515,5.558-16.392,15.138-17.489,26.639c-2.01,21.06,14.498,38.78,35.144,38.78h12.658c3.101,0,5.974,1.627,7.569,4.286
	l18.768,31.281c3.191,5.318,8.937,8.572,15.139,8.572h16.488l-27.685-48.449C351.602,455.299,342.827,450.207,333.323,450.207z"/>
<g>
</g>
<g>
</g>
<g>
</g>
<g>
</g>
<g>
</g>
<g>
</g>
<g>
</g>
<g>
</g>
<g>
</g>
<g>
</g>
<g>
</g>
<g>
</g>
<g>
</g>
<g>
</g>
<g>
</g>
</svg>
