<?xml version="1.0" encoding="iso-8859-1"?>
<!-- Generator: Adobe Illustrator 19.0.0, SVG Export Plug-In . SVG Version: 6.00 Build 0)  -->
<svg version="1.1" id="Capa_1" xmlns="http://www.w3.org/2000/svg" xmlns:xlink="http://www.w3.org/1999/xlink" x="0px" y="0px"
	 viewBox="0 0 512 512" style="enable-background:new 0 0 512 512;" xml:space="preserve">
<path style="fill:#CADDEA;" d="M162.845,278.437c-44.073,0-82.099-31.357-90.507-74.6L38.28,70.268
	c-0.038-0.15-0.071-0.301-0.101-0.453C34.044,48.266,47.507,27.32,68.826,22.13l37.669-9.171c4.152-1.01,8.325,1.534,9.335,5.68
	c1.009,4.146-1.533,8.325-5.679,9.335l-37.669,9.171c-13.235,3.222-21.618,16.173-19.167,29.546l34.052,133.55
	c0.038,0.15,0.072,0.301,0.101,0.453c6.924,36.094,38.624,62.291,75.376,62.291s68.453-26.197,75.376-62.291
	c0.028-0.152,0.062-0.303,0.101-0.453l34.052-133.55c2.451-13.373-5.932-26.324-19.167-29.546l-37.669-9.171
	c-4.146-1.009-6.688-5.189-5.679-9.335s5.179-6.691,9.335-5.68l37.669,9.171c21.319,5.19,34.782,26.136,30.647,47.685
	c-0.029,0.152-0.062,0.303-0.101,0.453l-34.057,133.569C244.943,247.079,206.918,278.437,162.845,278.437z"/>
<g>
	<path style="fill:#65DB57;" d="M86.625,26.122c1.437,12.366,21.024,20.25,33.39,18.813s21.226-12.627,19.789-24.993
		S127.177-1.284,114.811,0.153S85.187,13.756,86.625,26.122z"/>
	<path style="fill:#65DB57;" d="M239.064,26.122c-1.437,12.366-21.024,20.25-33.39,18.813s-21.226-12.627-19.789-24.993
		s12.627-21.226,24.993-19.789S240.502,13.756,239.064,26.122z"/>
</g>
<path style="fill:#2C5871;" d="M273.572,512c-68.575,0-124.366-55.79-124.366-124.365l0.006-101.636c0-1.492-1.078-2.766-2.55-3.012
	l0,0c-30.907-5.174-57.698-25.035-71.667-53.128c-2.067-4.154-1.856-9.014,0.562-13.001c2.45-4.039,6.718-6.503,11.419-6.592
	l0.247-0.002c5.112,0,9.957,3.062,12.343,7.8c12.124,24.065,36.371,39.015,63.278,39.015c26.705,0,51.629-15.484,63.495-39.447
	c2.216-4.476,6.966-7.368,12.101-7.368c4.764,0,9.109,2.423,11.624,6.482c2.484,4.01,2.721,8.912,0.631,13.114
	c-13.968,28.092-40.759,47.952-71.668,53.127l-0.488,0.05c-1.559,0.159-2.744,1.473-2.744,3.04l0.041,101.54
	c0,53.911,43.844,97.754,97.736,97.754h35.789c53.978,0,97.735-43.757,97.735-97.735V158.018h26.63v229.616
	C433.726,456.319,378.045,512,309.36,512H273.572z"/>
<circle style="fill:#5D6D7D;" cx="418.808" cy="155.55" r="55.759"/>
<path style="fill:#35495D;" d="M423.95,100.034V211.06c28.38-2.599,50.611-26.455,50.611-55.513
	C474.562,126.488,452.33,102.633,423.95,100.034z"/>
<circle style="fill:#E1EFFB;" cx="418.808" cy="155.55" r="21.723"/>
<g>
</g>
<g>
</g>
<g>
</g>
<g>
</g>
<g>
</g>
<g>
</g>
<g>
</g>
<g>
</g>
<g>
</g>
<g>
</g>
<g>
</g>
<g>
</g>
<g>
</g>
<g>
</g>
<g>
</g>
</svg>
