<?xml version="1.0" encoding="utf-8"?>
<!-- Generator: Adobe Illustrator 16.0.0, SVG Export Plug-In . SVG Version: 6.00 Build 0)  -->
<!DOCTYPE svg PUBLIC "-//W3C//DTD SVG 1.1//EN" "http://www.w3.org/Graphics/SVG/1.1/DTD/svg11.dtd">
<svg version="1.1" id="Layer_1" xmlns="http://www.w3.org/2000/svg" xmlns:xlink="http://www.w3.org/1999/xlink" x="0px" y="0px"
	 width="71.405px" height="68.588px" viewBox="0 0 71.405 68.588" enable-background="new 0 0 71.405 68.588" xml:space="preserve">
<g>
	<g>
		<g>
			<path fill="#484748" d="M55.544,19.43H44.675v-7.833c0-2.592-2.09-4.7-4.658-4.7H11.861c-2.568,0-4.658,2.108-4.658,4.7v18.8
				c0,2.592,2.09,4.7,4.658,4.7h1.553v4.7c0,1.255,1.389,1.993,2.414,1.304l6.902-4.644v6.473c0,2.592,2.09,4.7,4.658,4.7h15.264
				l8.926,6.004c1.026,0.69,2.414-0.049,2.414-1.304v-4.7h1.553c2.568,0,4.658-2.108,4.658-4.7v-18.8
				C60.203,21.538,58.113,19.43,55.544,19.43z M23.417,32.229c-0.001,0.001-0.003,0.002-0.004,0.003l-6.894,4.637V33.53
				c0-0.865-0.695-1.567-1.553-1.567h-3.105c-0.856,0-1.553-0.702-1.553-1.566v-18.8c0-0.864,0.696-1.567,1.553-1.567h28.156
				c0.855,0,1.553,0.703,1.553,1.567v18.8c0,0.864-0.697,1.566-1.553,1.566H24.283C23.982,31.963,23.671,32.057,23.417,32.229z
				 M57.097,42.93c0,0.864-0.697,1.567-1.553,1.567h-3.105c-0.857,0-1.553,0.701-1.553,1.566v3.339l-6.902-4.643
				c-0.256-0.172-0.555-0.263-0.861-0.263H27.388c-0.856,0-1.553-0.703-1.553-1.567v-7.833h14.182c2.568,0,4.658-2.108,4.658-4.7
				v-7.833h10.869c0.855,0,1.553,0.702,1.553,1.566V42.93z M27.388,22.563H14.966c-0.857,0-1.553,0.701-1.553,1.566
				s0.695,1.566,1.553,1.566h12.422c0.857,0,1.553-0.701,1.553-1.566S28.246,22.563,27.388,22.563z M36.912,16.297H14.966
				c-0.857,0-1.553,0.701-1.553,1.566s0.695,1.566,1.553,1.566h21.945c0.857,0,1.553-0.701,1.553-1.566S37.769,16.297,36.912,16.297
				z"/>
		</g>
	</g>
	<path fill-rule="evenodd" clip-rule="evenodd" fill="#F15C22" d="M48.703,29.69c8.561,0,15.5,6.939,15.5,15.5
		s-6.939,15.5-15.5,15.5s-15.5-6.939-15.5-15.5S40.142,29.69,48.703,29.69z"/>
	<g>
		<g>
			<path fill="#FFFFFF" d="M48.703,51.69c-1.102,0-1.999,0.897-1.999,2s0.897,2.001,1.999,2.001s1.998-0.898,1.998-2.001
				S49.804,51.69,48.703,51.69z M48.703,34.689c-3.033,0-5.5,2.469-5.5,5.503c0,0.829,0.671,1.5,1.499,1.5s1.5-0.671,1.5-1.5
				c0-1.38,1.121-2.502,2.501-2.502c1.379,0,2.501,1.122,2.501,2.502s-1.122,2.503-2.501,2.503c-0.828,0-1.499,0.672-1.499,1.5
				v2.995c0,0.828,0.671,1.5,1.499,1.5s1.499-0.672,1.499-1.5v-1.704c2.306-0.655,4-2.779,4-5.294
				C54.202,37.158,51.735,34.689,48.703,34.689z"/>
		</g>
	</g>
</g>
</svg>
