<?xml version="1.0" encoding="utf-8"?>
<!-- Generator: Adobe Illustrator 16.0.0, SVG Export Plug-In . SVG Version: 6.00 Build 0)  -->
<!DOCTYPE svg PUBLIC "-//W3C//DTD SVG 1.1//EN" "http://www.w3.org/Graphics/SVG/1.1/DTD/svg11.dtd">
<svg version="1.1" id="Layer_1" xmlns="http://www.w3.org/2000/svg" xmlns:xlink="http://www.w3.org/1999/xlink" x="0px" y="0px"
	 width="63.379px" height="68.881px" viewBox="0 0 63.379 68.881" enable-background="new 0 0 63.379 68.881" xml:space="preserve">
<g>
	<path fill="#4EC2C1" d="M42.69,34.94c5.799,0,10.5,4.702,10.5,10.5s-4.701,10.5-10.5,10.5s-10.5-4.701-10.5-10.5
		S36.892,34.94,42.69,34.94z"/>
	<g>
		<g>
			<path fill="#474747" d="M47.599,43.757h-3.955v-3.955c0-0.729-0.591-1.318-1.317-1.318c-0.729,0-1.318,0.591-1.318,1.318v5.273
				c0,0.729,0.59,1.318,1.318,1.318h5.272c0.728,0,1.317-0.591,1.317-1.318C48.917,44.347,48.327,43.757,47.599,43.757z
				 M15.782,38.483h5.273c0.728,0,1.318-0.59,1.318-1.318s-0.591-1.318-1.318-1.318h-5.273c-0.729,0-1.318,0.59-1.318,1.318
				S15.054,38.483,15.782,38.483z M15.782,46.394h5.273c0.728,0,1.318-0.59,1.318-1.317s-0.591-1.318-1.318-1.318h-5.273
				c-0.729,0-1.318,0.591-1.318,1.318S15.054,46.394,15.782,46.394z M50.235,17.214h-1.318v-1.318c0-2.181-1.773-3.955-3.955-3.955
				c-2.181,0-3.955,1.774-3.955,3.955v1.318h-5.272v-1.318c0-2.181-1.774-3.955-3.955-3.955s-3.955,1.774-3.955,3.955v1.318h-5.449
				v-1.318c0-2.181-1.774-3.955-3.955-3.955s-3.955,1.774-3.955,3.955v1.318h-1.318c-2.181,0-3.955,1.774-3.955,3.955v29.18
				c0,2.182,1.774,3.955,3.955,3.955h21.73c2.037,1.648,4.629,2.637,7.449,2.637c6.541,0,11.864-5.321,11.864-11.864V21.169
				C54.19,18.988,52.417,17.214,50.235,17.214z M43.644,15.896c0-0.727,0.591-1.318,1.317-1.318c0.728,0,1.318,0.592,1.318,1.318
				v5.273c0,0.727-0.592,1.318-1.318,1.318c-0.728,0-1.317-0.592-1.317-1.318V15.896z M30.46,18.533
				C30.46,18.532,30.46,18.532,30.46,18.533c0-0.001,0-0.001,0-0.002v-2.636c0-0.727,0.591-1.318,1.318-1.318
				c0.727,0,1.318,0.592,1.318,1.318v5.273c0,0.727-0.592,1.318-1.318,1.318c-0.728,0-1.318-0.592-1.318-1.318V18.533z
				 M17.101,15.896c0-0.727,0.591-1.318,1.318-1.318s1.318,0.592,1.318,1.318v5.273c0,0.727-0.592,1.318-1.318,1.318
				c-0.728,0-1.318-0.592-1.318-1.318V15.896z M42.325,54.304c-5.089,0-9.229-4.141-9.229-9.229c0-5.09,4.14-9.229,9.229-9.229
				c5.088,0,9.229,4.139,9.229,9.229C51.554,50.163,47.413,54.304,42.325,54.304z M51.554,37.626
				c-2.177-2.691-5.505-4.416-9.229-4.416c-2.853,0-5.473,1.012-7.521,2.695c-0.123-0.038-0.255-0.059-0.39-0.059h-5.272
				c-0.729,0-1.318,0.59-1.318,1.317s0.59,1.31,1.318,1.31h3.321c-1.032,1.543-1.715,3.348-1.93,5.282h-1.392
				c-0.729,0-1.318,0.591-1.318,1.318s0.59,1.317,1.318,1.317h1.392c0.215,1.937,0.897,3.731,1.93,5.273H13.146
				c-0.728,0-1.318-0.592-1.318-1.318V30.573h39.727L51.554,37.626L51.554,37.626z M51.554,27.937H11.827v-6.768
				c0-0.727,0.591-1.318,1.318-1.318h1.318v1.318c0,2.181,1.774,3.955,3.955,3.955s3.955-1.774,3.955-3.955v-1.318h5.449v1.318
				c0,2.181,1.774,3.955,3.955,3.955s3.955-1.774,3.955-3.955v-1.318h5.272v1.318c0,2.181,1.774,3.955,3.955,3.955
				c2.182,0,3.955-1.774,3.955-3.955v-1.318h1.318c0.727,0,1.318,0.592,1.318,1.318v6.768H51.554z"/>
		</g>
	</g>
</g>
</svg>
