<?xml version="1.0" encoding="utf-8"?>
<!-- Generator: Adobe Illustrator 16.0.0, SVG Export Plug-In . SVG Version: 6.00 Build 0)  -->
<!DOCTYPE svg PUBLIC "-//W3C//DTD SVG 1.1//EN" "http://www.w3.org/Graphics/SVG/1.1/DTD/svg11.dtd">
<svg version="1.1" id="Layer_1" xmlns="http://www.w3.org/2000/svg" xmlns:xlink="http://www.w3.org/1999/xlink" x="0px" y="0px"
	 width="51.773px" height="55.602px" viewBox="0 0 51.773 55.602" enable-background="new 0 0 51.773 55.602" xml:space="preserve">
<g>
	<g>
		<g>
			<polygon fill="#4EC2C1" points="32.387,12.709 20.387,12.709 20.387,8.427 11.387,8.427 11.387,30.909 12.387,30.909 
				12.387,36.263 19.387,36.263 19.387,30.909 20.387,30.909 20.387,19.133 32.387,19.133 			"/>
		</g>
	</g>
	<g>
		<g>
			<path fill="#474747" d="M42.887,30.796c0-6.301-3.806-11.729-9.24-14.117c-0.007-2.532-2.071-4.591-4.609-4.591h-7.649V8.917
				c0-0.65-0.528-1.177-1.181-1.177H18.96c-0.301-1.67-1.766-2.939-3.521-2.939c-1.757,0-3.221,1.271-3.521,2.939h-1.247
				c-0.651,0-1.181,0.525-1.181,1.177v21.421c0,0.649,0.528,1.178,1.181,1.178h0.046v3.74c0,0.65,0.528,1.178,1.181,1.178h7.082
				c0.651,0,1.182-0.526,1.182-1.178v-3.74h0.045c0.651,0,1.181-0.526,1.181-1.178v-9.043h4.885v1.55
				c0,0.65,0.529,1.177,1.183,1.177c3.713,0,6.732,3.021,6.732,6.73s-2.958,6.619-6.732,6.619c-0.652,0-1.183,0.525-1.183,1.176
				v1.338H10.434c-0.65,0-1.18,0.526-1.18,1.177c0,0.649,0.528,1.178,1.18,1.178h15.838v1.419H10.068
				c-0.651,0-1.181,0.525-1.181,1.177v4.79c0,0.648,0.528,1.177,1.181,1.177h24.576c0.652,0,1.182-0.527,1.182-1.177v-4.79
				c0-0.384-0.187-0.725-0.472-0.938c1.083-0.632,2.092-1.396,3.006-2.292C41.28,38.744,42.887,34.906,42.887,30.796z M15.44,7.154
				c0.439,0,0.823,0.235,1.038,0.587h-2.076C14.616,7.39,15,7.154,15.44,7.154z M17.8,34.079h-4.72v-2.563h4.72V34.079z
				 M20.207,18.941c-0.652,0-1.182,0.527-1.182,1.178v9.043h-7.173V10.094h7.173v3.171c0,0.649,0.528,1.177,1.182,1.177h8.83
				c1.239,0,2.249,1.011,2.249,2.25c0,1.24-1.01,2.25-2.249,2.25L20.207,18.941L20.207,18.941z M33.463,48.446H11.249v-2.435h22.215
				L33.463,48.446L33.463,48.446z M28.633,43.607V39.65c1.984-0.248,3.813-1.123,5.244-2.523c1.723-1.688,2.671-3.951,2.671-6.375
				c0-4.608-3.455-8.427-7.915-9.007v-0.449h0.403c1.704,0,3.193-0.929,3.992-2.306c4.427,2.095,7.496,6.597,7.496,11.807
				c0,3.473-1.356,6.714-3.82,9.128C34.525,42.06,31.694,43.344,28.633,43.607z M29.932,16.753c0-0.311-0.126-0.613-0.346-0.833
				c-0.221-0.219-0.525-0.344-0.835-0.344c-0.311,0-0.615,0.125-0.834,0.344c-0.222,0.22-0.348,0.521-0.348,0.833
				c0,0.31,0.126,0.614,0.348,0.832c0.219,0.22,0.523,0.345,0.834,0.345c0.31,0,0.616-0.125,0.835-0.345
				C29.806,17.365,29.932,17.063,29.932,16.753z"/>
		</g>
	</g>
</g>
</svg>
