<?xml version="1.0" encoding="utf-8"?>
<!-- Generator: Adobe Illustrator 16.0.0, SVG Export Plug-In . SVG Version: 6.00 Build 0)  -->
<!DOCTYPE svg PUBLIC "-//W3C//DTD SVG 1.1//EN" "http://www.w3.org/Graphics/SVG/1.1/DTD/svg11.dtd">
<svg version="1.1" id="Layer_1" xmlns="http://www.w3.org/2000/svg" xmlns:xlink="http://www.w3.org/1999/xlink" x="0px" y="0px"
	 width="72.901px" height="73.183px" viewBox="0 0 72.901 73.183" enable-background="new 0 0 72.901 73.183" xml:space="preserve">
<g>
	<g>
		<path fill="#FFFFFF" d="M48.397,46.108c-0.149-0.447-0.565-0.749-1.036-0.749H45.18v-9.864c0-4.834-3.916-8.768-8.729-8.768
			c-4.813,0-8.729,3.934-8.729,8.768v9.864H25.54c-0.471,0-0.887,0.302-1.035,0.749l-2.183,6.576
			c-0.11,0.334-0.055,0.702,0.15,0.987c0.205,0.286,0.534,0.455,0.885,0.455h26.187c0.351,0,0.68-0.169,0.885-0.455
			s0.262-0.654,0.15-0.988L48.397,46.108z M29.904,35.495c0-3.626,2.937-6.576,6.547-6.576c3.609,0,6.546,2.95,6.546,6.576v9.864
			H29.904V35.495z M24.871,51.935l1.455-4.384h20.249l1.455,4.384H24.871z M36.451,24.535c0.603,0,1.091-0.49,1.091-1.096v-3.288
			c0-0.605-0.488-1.096-1.091-1.096s-1.092,0.49-1.092,1.096v3.288C35.359,24.045,35.849,24.535,36.451,24.535z M51.727,34.399
			h-3.273c-0.603,0-1.092,0.49-1.092,1.096s0.489,1.096,1.092,1.096h3.273c0.603,0,1.091-0.49,1.091-1.096
			S52.329,34.399,51.727,34.399z M25.54,35.495c0-0.605-0.489-1.096-1.092-1.096h-3.272c-0.604,0-1.092,0.49-1.092,1.096
			s0.488,1.096,1.092,1.096h3.272C25.051,36.591,25.54,36.101,25.54,35.495z M44.938,28.066c0.279,0,0.559-0.107,0.771-0.321
			l2.314-2.324c0.427-0.429,0.427-1.122,0-1.55c-0.426-0.429-1.116-0.429-1.543,0l-2.314,2.324c-0.426,0.429-0.426,1.122,0,1.55
			C44.38,27.959,44.658,28.066,44.938,28.066z M27.192,27.745c0.213,0.214,0.492,0.321,0.771,0.321s0.559-0.107,0.771-0.321
			c0.426-0.428,0.426-1.121,0-1.55l-2.314-2.324c-0.426-0.429-1.116-0.429-1.543,0c-0.426,0.428-0.426,1.121,0,1.55L27.192,27.745z
			 M32.086,35.495v8.768h4.365V31.111C34.04,31.111,32.086,33.074,32.086,35.495z"/>
	</g>
</g>
</svg>
