<?xml version="1.0" encoding="utf-8"?>
<!-- Generator: Adobe Illustrator 16.0.0, SVG Export Plug-In . SVG Version: 6.00 Build 0)  -->
<!DOCTYPE svg PUBLIC "-//W3C//DTD SVG 1.1//EN" "http://www.w3.org/Graphics/SVG/1.1/DTD/svg11.dtd">
<svg version="1.1" id="Layer_1" xmlns="http://www.w3.org/2000/svg" xmlns:xlink="http://www.w3.org/1999/xlink" x="0px" y="0px"
	 width="72.901px" height="73.183px" viewBox="0 0 72.901 73.183" enable-background="new 0 0 72.901 73.183" xml:space="preserve">
<path fill="none" d="M19.12,39.769h3.033v12.156c0,0.717,0.585,1.303,1.3,1.303h8.882c0.715,0,1.3-0.586,1.3-1.303v-8.9h5.416v8.9
	c0,0.717,0.585,1.303,1.3,1.303h8.449c0.715,0,1.3-0.586,1.3-1.303V39.769h3.683c0.52,0,0.997-0.326,1.192-0.804
	c0.195-0.478,0.086-1.042-0.282-1.411L37.75,20.34c-0.498-0.499-1.321-0.521-1.82-0.021L18.231,37.533
	c-0.39,0.369-0.499,0.934-0.303,1.433C18.123,39.465,18.6,39.769,19.12,39.769z M36.797,23.097l13.865,14.066h-1.863
	c-0.715,0-1.3,0.586-1.3,1.303v12.156h-5.849v-8.9c0-0.716-0.585-1.302-1.3-1.302h-8.015c-0.715,0-1.3,0.586-1.3,1.302v8.9h-6.283
	V38.466c0-0.717-0.585-1.303-1.3-1.303h-1.126L36.797,23.097z"/>
</svg>
