<?xml version="1.0" encoding="utf-8"?>
<!-- Generator: Adobe Illustrator 16.0.0, SVG Export Plug-In . SVG Version: 6.00 Build 0)  -->
<!DOCTYPE svg PUBLIC "-//W3C//DTD SVG 1.1//EN" "http://www.w3.org/Graphics/SVG/1.1/DTD/svg11.dtd">
<svg version="1.1" id="Layer_1" xmlns="http://www.w3.org/2000/svg" xmlns:xlink="http://www.w3.org/1999/xlink" x="0px" y="0px"
	 width="72.901px" height="73.183px" viewBox="0 0 72.901 73.183" enable-background="new 0 0 72.901 73.183" xml:space="preserve">
<g>
	<g>
		<path fill="#FFFFFF" d="M35.174,34.933v2.552h2.553v-2.552H35.174z M48.957,22.81h-1.531v-2.552h-2.553v2.552H28.027v-2.552
			h-2.551v2.552h-1.531c-2.111,0-3.828,1.718-3.828,3.828v22.46c0,2.109,1.717,3.828,3.828,3.828h13.127
			c-0.881-0.729-1.65-1.59-2.275-2.553H23.945c-0.705,0-1.277-0.572-1.277-1.275V32.253h27.564v2.686
			c0.963,0.625,1.824,1.394,2.553,2.275V26.638C52.785,24.527,51.066,22.81,48.957,22.81z M50.232,29.7H22.668v-3.063
			c0-0.703,0.572-1.275,1.277-1.275h1.531v2.552h2.551v-2.552h16.846v2.552h2.553v-2.552h1.531c0.703,0,1.275,0.572,1.275,1.275
			V29.7z M44.172,35.698c-4.75,0-8.615,3.864-8.615,8.614c0,4.748,3.865,8.613,8.615,8.613c4.748,0,8.613-3.865,8.613-8.613
			C52.785,39.563,48.92,35.698,44.172,35.698z M44.172,50.373c-3.344,0-6.063-2.719-6.063-6.061c0-3.344,2.719-6.063,6.063-6.063
			c3.342,0,6.061,2.719,6.061,6.063C50.232,47.654,47.514,50.373,44.172,50.373z M45.383,40.037h-2.551v5.551h4.721v-2.553h-2.17
			V40.037z M32.621,40.037H30.07v2.553h2.551V40.037z M27.518,40.037h-2.553v2.553h2.553V40.037z M27.518,34.933h-2.553v2.552h2.553
			V34.933z M24.965,47.693h2.553v-2.553h-2.553V47.693z M32.621,34.933H30.07v2.552h2.551V34.933z M30.07,47.693h2.551v-2.553H30.07
			V47.693z"/>
	</g>
</g>
<g>
	<g>
		<path fill="#FFFFFF" d="M30.886,28.244h11.13c0.384,0,0.695-0.312,0.695-0.696v-4.175c0-0.384-0.312-0.695-0.695-0.695h-2.156
			c-0.278-1.369-1.348-2.439-2.717-2.718c-1.882-0.382-3.718,0.834-4.101,2.718h-2.156c-0.384,0-0.695,0.312-0.695,0.695v4.175
			C30.19,27.933,30.502,28.244,30.886,28.244z M31.581,24.069h2.087c0.385,0,0.696-0.312,0.696-0.696
			c0-1.152,0.934-2.087,2.086-2.087c1.153,0,2.088,0.935,2.088,2.087c0,0.385,0.311,0.696,0.695,0.696h2.087v2.783h-9.739V24.069z
			 M35.755,24.069h1.392v-1.392h-1.392V24.069z M49.667,22.678h-5.564v1.392h5.564c1.152,0,2.087,0.935,2.087,2.087v23.658
			c0,1.152-0.935,2.087-2.087,2.087H23.234c-1.152,0-2.087-0.935-2.087-2.087V26.156c0-1.152,0.935-2.087,2.087-2.087h5.564v-1.392
			h-5.564c-1.92,0.002-3.476,1.559-3.479,3.479v23.658c0.003,1.92,1.559,3.477,3.479,3.479h26.433
			c1.92-0.002,3.476-1.559,3.479-3.479V26.156C53.144,24.236,51.587,22.68,49.667,22.678z M48.276,28.244v15.308h-2.783
			c-1.152,0-2.086,0.935-2.086,2.087v2.784H25.321c-0.385,0-0.696-0.312-0.696-0.696V28.244c0-0.385,0.312-0.696,0.696-0.696h3.478
			v-1.392h-3.478c-1.153,0-2.087,0.935-2.087,2.088v19.482c0,1.153,0.934,2.088,2.087,2.088h18.781
			c0.185-0.001,0.361-0.074,0.491-0.204l4.87-4.871c0.13-0.13,0.203-0.308,0.203-0.492V28.244c0-1.153-0.934-2.088-2.087-2.088
			h-3.478v1.392h3.478C47.965,27.548,48.276,27.859,48.276,28.244z M44.798,47.438v-1.8c0-0.384,0.312-0.695,0.696-0.695h1.798
			L44.798,47.438z M26.017,38.681v1.392h5.142l4.806,4.674c0.13,0.127,0.305,0.198,0.487,0.197c0.182,0.001,0.356-0.07,0.486-0.197
			l5.185-5.044c0.038-0.037,0.076-0.074,0.113-0.113c0.453-0.471,0.774-1.021,0.965-1.604h3.685v-1.392h-3.479
			c-0.022-1.07-0.451-2.132-1.283-2.933c-1.546-1.482-3.929-1.654-5.671-0.407c-1.743-1.248-4.127-1.077-5.674,0.407
			c-0.038,0.037-0.076,0.074-0.113,0.113c-1.299,1.35-1.513,3.344-0.664,4.906H26.017z M41.152,38.701l-4.702,4.572l-3.314-3.221
			c0.123-0.03,0.237-0.093,0.329-0.184l2.29-2.292l1.943,1.943c0.271,0.272,0.712,0.272,0.983,0l1.535-1.535h1.476
			C41.555,38.245,41.376,38.487,41.152,38.701z M31.749,34.658c0.565-0.547,1.322-0.851,2.108-0.848
			c0.786-0.004,1.542,0.299,2.108,0.844c0.271,0.263,0.7,0.263,0.97,0c1.179-1.131,3.038-1.131,4.217,0
			c0.028,0.027,0.057,0.056,0.084,0.084c0.5,0.521,0.758,1.187,0.777,1.855h-2.085c-0.185,0-0.361,0.073-0.492,0.204l-1.247,1.247
			l-1.942-1.943c-0.271-0.271-0.712-0.271-0.983,0l-2.579,2.579h-0.959c-0.021-0.02-0.041-0.039-0.061-0.06
			C30.594,37.503,30.632,35.729,31.749,34.658z"/>
	</g>
</g>
</svg>
