<?xml version="1.0" encoding="utf-8"?>
<!-- Generator: Adobe Illustrator 16.0.0, SVG Export Plug-In . SVG Version: 6.00 Build 0)  -->
<!DOCTYPE svg PUBLIC "-//W3C//DTD SVG 1.1//EN" "http://www.w3.org/Graphics/SVG/1.1/DTD/svg11.dtd">
<svg version="1.1" id="Layer_1" xmlns="http://www.w3.org/2000/svg" xmlns:xlink="http://www.w3.org/1999/xlink" x="0px" y="0px"
	 width="71.405px" height="68.588px" viewBox="0 0 71.405 68.588" enable-background="new 0 0 71.405 68.588" xml:space="preserve">
<g>
	<g>
		<g>
			<path fill="#484748" d="M51.698,20.483c0.545,0.537,1.417,0.537,1.947,0l1.947-1.92c0.545-0.537,0.545-1.397,0-1.919
				l-4.408-4.346c-0.545-0.537-1.417-0.537-1.946,0l-1.947,1.919c-0.545,0.538-0.545,1.397,0,1.92l0.187,0.185l-1.371,1.351
				c-3.458-2.702-7.647-4.499-12.241-5.021v-2.457h1.511c0.763,0,1.37-0.614,1.37-1.352V4.852c0-0.753-0.623-1.352-1.37-1.352
				h-8.752c-0.764,0-1.371,0.614-1.371,1.352v3.992c0,0.752,0.623,1.352,1.371,1.352h1.51v2.457
				c-4.594,0.537-8.799,2.334-12.241,5.021l-1.37-1.351l0.187-0.185c0.545-0.537,0.545-1.397,0-1.92l-1.946-1.919
				c-0.545-0.537-1.417-0.537-1.947,0l-4.408,4.346c-0.545,0.537-0.545,1.397,0,1.919l1.947,1.92c0.545,0.537,1.417,0.537,1.947,0
				l0.187-0.185l1.371,1.352c-3.271,4.085-5.217,9.244-5.217,14.833C6.643,49.721,17.575,60.5,31,60.5s24.358-10.779,24.358-24.017
				c0-5.589-1.962-10.748-5.217-14.833l1.37-1.352L51.698,20.483z M31,54.941c-10.31,0-18.704-8.276-18.704-18.442
				c0-10.165,8.394-18.442,18.704-18.442s18.704,8.277,18.704,18.442C49.704,46.665,41.31,54.941,31,54.941z M42.758,29.636
				c-0.405-0.661-1.246-0.922-1.947-0.568l-8.425,4.069c-1.043-0.415-2.258-0.369-3.302,0.23c-1.76,1.028-2.352,3.271-1.308,5.006
				c1.043,1.734,3.317,2.318,5.077,1.289c1.043-0.614,1.666-1.643,1.791-2.732l7.678-5.329
				C42.977,31.155,43.163,30.311,42.758,29.636z M32.558,36.898c-0.234,0.859-1.122,1.366-1.978,1.151
				c-0.872-0.229-1.386-1.105-1.168-1.95c0.233-0.859,1.121-1.366,1.978-1.151C32.262,35.163,32.775,36.054,32.558,36.898z
				 M36.264,27.348c0.732,0.414,1.666,0.153,2.071-0.568c0.42-0.722,0.156-1.644-0.576-2.043c-0.732-0.414-1.651-0.153-2.071,0.568
				c-0.28,0.491-0.25,1.06,0.016,1.505C35.844,27.01,36.03,27.209,36.264,27.348z M30.907,25.965c0.841,0,1.511-0.675,1.511-1.505
				c0-0.829-0.686-1.489-1.526-1.489c-0.841,0-1.511,0.676-1.511,1.505c0,0.276,0.078,0.538,0.203,0.753
				C29.848,25.674,30.346,25.98,30.907,25.965z M31.109,47.064c-0.841,0.015-1.511,0.69-1.511,1.52c0,0.276,0.078,0.522,0.203,0.737
				c0.265,0.445,0.763,0.752,1.324,0.737c0.841-0.016,1.511-0.691,1.495-1.521C32.635,47.739,31.95,47.064,31.109,47.064z
				 M36.435,45.605c-0.716,0.414-0.965,1.336-0.529,2.042c0.42,0.722,1.355,0.952,2.087,0.522c0.716-0.415,0.966-1.336,0.53-2.043
				C38.086,45.421,37.152,45.19,36.435,45.605z M42.385,41.152c-0.732-0.399-1.667-0.153-2.072,0.568
				c-0.28,0.491-0.249,1.044,0.016,1.504c0.125,0.216,0.327,0.415,0.561,0.538c0.732,0.414,1.666,0.153,2.071-0.568
				C43.366,42.473,43.117,41.552,42.385,41.152z M20.285,36.638c0-0.829-0.701-1.489-1.526-1.489c-0.841,0.015-1.51,0.69-1.51,1.52
				c0,0.276,0.078,0.522,0.202,0.737c0.265,0.445,0.763,0.753,1.324,0.737C19.631,38.143,20.301,37.467,20.285,36.638z
				 M19.709,41.367c-0.716,0.414-0.966,1.336-0.53,2.042c0.421,0.706,1.355,0.952,2.087,0.522c0.717-0.415,0.95-1.336,0.53-2.058
				C21.36,41.183,20.425,40.938,19.709,41.367z M41.699,36.423c0,0.276,0.078,0.521,0.218,0.752
				c0.265,0.445,0.763,0.737,1.324,0.737c0.841,0,1.511-0.691,1.511-1.505c0-0.829-0.686-1.489-1.526-1.489
				C42.369,34.918,41.684,35.608,41.699,36.423z M19.6,31.923c0.732,0.415,1.666,0.154,2.071-0.567
				c0.405-0.723,0.156-1.628-0.592-2.043c-0.732-0.399-1.651-0.153-2.071,0.568c-0.265,0.476-0.25,1.044,0.015,1.505
				C19.164,31.601,19.351,31.785,19.6,31.923z M25.534,27.455c0,0,0.016,0,0.016-0.016c0.015,0,0.015,0,0.015-0.016c0,0,0,0,0.016,0
				c0.717-0.414,0.95-1.336,0.53-2.042c-0.42-0.722-1.355-0.952-2.087-0.537c0,0-0.016,0-0.016,0.015
				c-0.016,0-0.016,0.016-0.031,0.016c-0.716,0.415-0.965,1.336-0.529,2.042C23.883,27.639,24.817,27.869,25.534,27.455z
				 M25.736,45.713c-0.732-0.415-1.666-0.154-2.071,0.567c-0.28,0.492-0.249,1.06,0.016,1.505c0.125,0.216,0.327,0.415,0.561,0.553
				c0.731,0.399,1.666,0.139,2.071-0.567C26.733,47.033,26.468,46.127,25.736,45.713z"/>
		</g>
	</g>
	<g>
		<rect x="39.405" y="36.633" fill="#FFFFFF" width="22.106" height="19.161"/>
		<path fill="#F15C22" d="M49.905,32.633c-8.506,0-15.5,6.994-15.5,15.5s6.994,15.5,15.5,15.5s15.5-6.994,15.5-15.5
			S58.411,32.633,49.905,32.633z M57.163,49.569h-5.822v5.822c0,0.831-0.643,1.437-1.437,1.437s-1.437-0.643-1.437-1.437v-5.822
			h-5.822c-0.832,0-1.437-0.643-1.437-1.437s0.605-1.437,1.437-1.437h5.822v-5.822c0-0.831,0.643-1.437,1.437-1.437
			s1.437,0.643,1.437,1.437v5.822h5.822c0.832,0,1.437,0.643,1.437,1.437S57.957,49.569,57.163,49.569z"/>
	</g>
</g>
</svg>
