<?xml version="1.0" encoding="utf-8"?>
<!-- Generator: Adobe Illustrator 16.0.0, SVG Export Plug-In . SVG Version: 6.00 Build 0)  -->
<!DOCTYPE svg PUBLIC "-//W3C//DTD SVG 1.1//EN" "http://www.w3.org/Graphics/SVG/1.1/DTD/svg11.dtd">
<svg version="1.1" id="Layer_1" xmlns="http://www.w3.org/2000/svg" xmlns:xlink="http://www.w3.org/1999/xlink" x="0px" y="0px"
	 width="72.9px" height="73.184px" viewBox="0 0 72.9 73.184" enable-background="new 0 0 72.9 73.184" xml:space="preserve">
<g>
	<g>
		<path fill="#8C8A8A" d="M30.886,28.244h11.13c0.384,0,0.695-0.312,0.695-0.696v-4.175c0-0.384-0.313-0.695-0.695-0.695H39.86
			c-0.277-1.368-1.348-2.438-2.717-2.718c-1.882-0.382-3.718,0.834-4.101,2.718h-2.156c-0.384,0-0.695,0.313-0.695,0.695v4.175
			C30.19,27.934,30.502,28.244,30.886,28.244z M31.581,24.07h2.087c0.385,0,0.695-0.313,0.695-0.696
			c0-1.151,0.935-2.087,2.087-2.087s2.088,0.936,2.088,2.087c0,0.385,0.311,0.696,0.694,0.696h2.087v2.783h-9.738V24.07z
			 M35.755,24.07h1.392v-1.393h-1.392V24.07z M49.667,22.678h-5.564v1.393h5.564c1.151,0,2.087,0.935,2.087,2.087v23.658
			c0,1.151-0.936,2.087-2.087,2.087H23.234c-1.151,0-2.087-0.936-2.087-2.087V26.156c0-1.152,0.936-2.087,2.087-2.087h5.564v-1.393
			h-5.564c-1.92,0.003-3.476,1.56-3.479,3.479v23.658c0.003,1.92,1.559,3.477,3.479,3.479h26.434
			c1.92-0.002,3.476-1.559,3.479-3.479V26.156C53.144,24.237,51.587,22.681,49.667,22.678z M48.276,28.244v15.307h-2.782
			c-1.152,0-2.086,0.936-2.086,2.088v2.783H25.321c-0.385,0-0.695-0.312-0.695-0.695V28.244c0-0.385,0.312-0.696,0.695-0.696h3.479
			v-1.392h-3.479c-1.152,0-2.087,0.935-2.087,2.088v19.482c0,1.152,0.935,2.088,2.087,2.088h18.781
			c0.186-0.001,0.361-0.074,0.491-0.204l4.87-4.871c0.13-0.13,0.203-0.308,0.203-0.492V28.244c0-1.153-0.935-2.088-2.087-2.088
			h-3.479v1.392h3.479C47.965,27.548,48.276,27.86,48.276,28.244z M44.798,47.438v-1.8c0-0.385,0.312-0.695,0.696-0.695h1.798
			L44.798,47.438z M26.017,38.681v1.392h5.143l4.806,4.674c0.13,0.127,0.305,0.198,0.487,0.197c0.182,0.001,0.355-0.07,0.485-0.197
			l5.186-5.044c0.038-0.037,0.076-0.074,0.112-0.113c0.453-0.471,0.774-1.021,0.966-1.604h3.685v-1.393h-3.479
			c-0.022-1.068-0.451-2.131-1.283-2.932c-1.546-1.482-3.93-1.654-5.671-0.408c-1.743-1.248-4.127-1.076-5.675,0.408
			c-0.037,0.037-0.075,0.074-0.112,0.113c-1.299,1.35-1.514,3.343-0.664,4.905L26.017,38.681L26.017,38.681z M41.152,38.701
			l-4.701,4.572l-3.314-3.222c0.123-0.029,0.237-0.093,0.329-0.184l2.29-2.292l1.943,1.943c0.271,0.271,0.712,0.271,0.982,0
			l1.535-1.535h1.476C41.555,38.245,41.376,38.487,41.152,38.701z M31.749,34.658c0.564-0.547,1.321-0.85,2.107-0.848
			c0.786-0.004,1.542,0.299,2.108,0.844c0.271,0.264,0.7,0.264,0.97,0c1.179-1.131,3.038-1.131,4.217,0
			c0.028,0.027,0.058,0.057,0.084,0.084c0.5,0.521,0.759,1.188,0.777,1.855h-2.085c-0.185,0-0.361,0.072-0.492,0.203l-1.247,1.247
			l-1.941-1.942c-0.271-0.271-0.712-0.271-0.983,0l-2.579,2.579h-0.959c-0.021-0.021-0.041-0.039-0.061-0.061
			C30.594,37.503,30.632,35.73,31.749,34.658z"/>
	</g>
</g>
</svg>
