<?xml version="1.0" encoding="utf-8"?>
<!-- Generator: Adobe Illustrator 16.0.0, SVG Export Plug-In . SVG Version: 6.00 Build 0)  -->
<!DOCTYPE svg PUBLIC "-//W3C//DTD SVG 1.1//EN" "http://www.w3.org/Graphics/SVG/1.1/DTD/svg11.dtd">
<svg version="1.1" id="Layer_1" xmlns="http://www.w3.org/2000/svg" xmlns:xlink="http://www.w3.org/1999/xlink" x="0px" y="0px"
	 width="50.366px" height="52.056px" viewBox="0 0 50.366 52.056" enable-background="new 0 0 50.366 52.056" xml:space="preserve">
<g>
	<g>
		<path fill="#FFFFFF" d="M37.95,32.491v-6.854c0-6.033-4.111-11.112-9.648-12.523c0.231-0.472,0.363-1.002,0.363-1.564
			c0-1.941-1.563-3.521-3.482-3.521s-3.481,1.58-3.481,3.521c0,0.563,0.131,1.093,0.363,1.564c-5.537,1.411-9.648,6.49-9.648,12.522
			v6.854c-1.352,0.484-2.321,1.789-2.321,3.319c0,1.942,1.562,3.522,3.481,3.522h5.92c0.539,2.676,2.884,4.695,5.687,4.695
			s5.147-2.02,5.687-4.695h5.921c1.92,0,3.481-1.58,3.481-3.522C40.271,34.28,39.302,32.976,37.95,32.491z M25.183,10.376
			c0.641,0,1.161,0.527,1.161,1.174c0,0.647-0.521,1.174-1.161,1.174c-0.64,0-1.16-0.526-1.16-1.174
			C24.022,10.903,24.543,10.376,25.183,10.376z M25.183,41.681c-1.513,0-2.803-0.989-3.282-2.355h6.565
			C27.986,40.691,26.696,41.681,25.183,41.681z M36.79,36.985H13.576c-0.64,0-1.16-0.527-1.16-1.175s0.521-1.174,1.16-1.174h2.321
			c0.642,0,1.161-0.525,1.161-1.174s-0.52-1.174-1.161-1.174h-1.16v-6.652c0-5.825,4.686-10.565,10.445-10.565
			c5.761,0,10.446,4.74,10.446,10.565v6.652h-1.161c-0.642,0-1.161,0.525-1.161,1.174s0.52,1.174,1.161,1.174h2.322
			c0.64,0,1.16,0.526,1.16,1.174S37.43,36.985,36.79,36.985z M25.183,17.419c-4.479,0-8.124,3.688-8.124,8.219
			c0,0.647,0.52,1.174,1.16,1.174c0.642,0,1.161-0.526,1.161-1.174c0-3.237,2.604-5.87,5.803-5.87c0.642,0,1.161-0.525,1.161-1.174
			S25.824,17.419,25.183,17.419z"/>
	</g>
</g>
</svg>
