<?xml version="1.0" encoding="utf-8"?>
<!-- Generator: Adobe Illustrator 16.0.0, SVG Export Plug-In . SVG Version: 6.00 Build 0)  -->
<!DOCTYPE svg PUBLIC "-//W3C//DTD SVG 1.1//EN" "http://www.w3.org/Graphics/SVG/1.1/DTD/svg11.dtd">
<svg version="1.1" id="Layer_1" xmlns="http://www.w3.org/2000/svg" xmlns:xlink="http://www.w3.org/1999/xlink" x="0px" y="0px"
	 width="71.405px" height="68.588px" viewBox="0 0 71.405 68.588" enable-background="new 0 0 71.405 68.588" xml:space="preserve">
<g>
	<g>
		<g>
			<path fill="#484748" d="M44.071,12.895h-6.964v-2.778c0-0.767-0.624-1.389-1.393-1.389H21.786c-0.77,0-1.393,0.622-1.393,1.389
				v2.778h-6.964c-2.308,0-4.178,1.865-4.178,4.166v37.5c0,2.302,1.871,4.167,4.178,4.167h30.643c2.308,0,4.179-1.865,4.179-4.167
				v-37.5C48.25,14.76,46.379,12.895,44.071,12.895z M23.179,11.505h11.143v2.778H23.179V11.505z M44.071,54.561H13.428v-6.944
				h15.272l3.704,5.54l4.179-8.334l1.868,2.794h5.621V54.561z M44.071,44.839h-4.129l-3.703-5.54l-4.179,8.334l-1.868-2.794H13.428
				v-8.334h9.005l3.703,5.54l4.179-8.333l1.868,2.793h11.888V44.839z M44.071,33.728H33.674l-3.703-5.539l-4.179,8.333l-1.868-2.794
				H13.428V17.061h8.357h13.929h8.357V33.728z M23.179,19.839h-2.786v4.166h-4.178v2.778h4.178v4.167h2.786v-4.167h4.178v-2.778
				h-4.178V19.839z"/>
		</g>
	</g>
	<g>
		<rect x="40.155" y="32.86" fill="#FFFFFF" width="22.106" height="19.161"/>
		<path fill="#F15C22" d="M50.655,28.86c-8.506,0-15.5,6.994-15.5,15.5s6.994,15.5,15.5,15.5s15.5-6.994,15.5-15.5
			S59.161,28.86,50.655,28.86z M57.913,45.797h-5.822v5.822c0,0.831-0.643,1.437-1.437,1.437s-1.437-0.643-1.437-1.437v-5.822
			h-5.822c-0.832,0-1.437-0.643-1.437-1.437s0.605-1.437,1.437-1.437h5.822v-5.822c0-0.831,0.643-1.437,1.437-1.437
			s1.437,0.643,1.437,1.437v5.822h5.822c0.832,0,1.437,0.643,1.437,1.437S58.707,45.797,57.913,45.797z"/>
	</g>
</g>
</svg>
