<?xml version="1.0" encoding="utf-8"?>
<!-- Generator: Adobe Illustrator 16.0.0, SVG Export Plug-In . SVG Version: 6.00 Build 0)  -->
<!DOCTYPE svg PUBLIC "-//W3C//DTD SVG 1.1//EN" "http://www.w3.org/Graphics/SVG/1.1/DTD/svg11.dtd">
<svg version="1.1" id="Layer_1" xmlns="http://www.w3.org/2000/svg" xmlns:xlink="http://www.w3.org/1999/xlink" x="0px" y="0px"
	 width="72.901px" height="73.183px" viewBox="0 0 72.901 73.183" enable-background="new 0 0 72.901 73.183" xml:space="preserve">
<g>
	<g>
		<path fill="#FFFFFF" d="M35.174,34.933v2.552h2.553v-2.552H35.174z M48.957,22.81h-1.531v-2.552h-2.553v2.552H28.027v-2.552
			h-2.551v2.552h-1.531c-2.111,0-3.828,1.718-3.828,3.828v22.46c0,2.109,1.717,3.828,3.828,3.828h13.127
			c-0.881-0.729-1.65-1.59-2.275-2.553H23.945c-0.705,0-1.277-0.572-1.277-1.275V32.253h27.564v2.686
			c0.963,0.625,1.824,1.394,2.553,2.275V26.638C52.785,24.527,51.066,22.81,48.957,22.81z M50.232,29.7H22.668v-3.063
			c0-0.703,0.572-1.275,1.277-1.275h1.531v2.552h2.551v-2.552h16.846v2.552h2.553v-2.552h1.531c0.703,0,1.275,0.572,1.275,1.275
			V29.7z M44.172,35.698c-4.75,0-8.615,3.864-8.615,8.614c0,4.748,3.865,8.613,8.615,8.613c4.748,0,8.613-3.865,8.613-8.613
			C52.785,39.563,48.92,35.698,44.172,35.698z M44.172,50.373c-3.344,0-6.063-2.719-6.063-6.061c0-3.344,2.719-6.063,6.063-6.063
			c3.342,0,6.061,2.719,6.061,6.063C50.232,47.654,47.514,50.373,44.172,50.373z M45.383,40.037h-2.551v5.551h4.721v-2.553h-2.17
			V40.037z M32.621,40.037H30.07v2.553h2.551V40.037z M27.518,40.037h-2.553v2.553h2.553V40.037z M27.518,34.933h-2.553v2.552h2.553
			V34.933z M24.965,47.693h2.553v-2.553h-2.553V47.693z M32.621,34.933H30.07v2.552h2.551V34.933z M30.07,47.693h2.551v-2.553H30.07
			V47.693z"/>
	</g>
</g>
</svg>
