<?xml version="1.0" encoding="utf-8"?>
<!-- Generator: Adobe Illustrator 16.0.0, SVG Export Plug-In . SVG Version: 6.00 Build 0)  -->
<!DOCTYPE svg PUBLIC "-//W3C//DTD SVG 1.1//EN" "http://www.w3.org/Graphics/SVG/1.1/DTD/svg11.dtd">
<svg version="1.1" id="Layer_1" xmlns="http://www.w3.org/2000/svg" xmlns:xlink="http://www.w3.org/1999/xlink" x="0px" y="0px"
	 width="53.183px" height="53.329px" viewBox="0 0 53.183 53.329" enable-background="new 0 0 53.183 53.329" xml:space="preserve">
<g>
	<g>
		<path fill="#FFFFFF" d="M43.489,41.425l-8.246-8.157c2.17-2.591,3.352-5.818,3.352-9.226c0-3.873-1.524-7.514-4.293-10.252
			c-2.768-2.739-6.448-4.248-10.363-4.248c-3.914,0-7.595,1.509-10.362,4.248c-2.769,2.738-4.293,6.379-4.293,10.252
			s1.524,7.514,4.293,10.252c2.768,2.738,6.448,4.246,10.362,4.246c3.445,0,6.707-1.17,9.326-3.315l8.246,8.157
			c0.272,0.27,0.631,0.404,0.988,0.404s0.716-0.135,0.989-0.404C44.035,42.841,44.035,41.966,43.489,41.425z M12.081,24.042
			c0-6.47,5.319-11.732,11.858-11.732s11.859,5.263,11.859,11.732c0,3.229-1.326,6.158-3.468,8.281
			c-0.003,0.003-0.008,0.004-0.012,0.008s-0.004,0.008-0.008,0.012c-2.147,2.119-5.107,3.432-8.372,3.432
			C17.4,35.775,12.081,30.511,12.081,24.042z"/>
	</g>
</g>
</svg>
