<?xml version="1.0" encoding="utf-8"?>
<!-- Generator: Adobe Illustrator 16.0.0, SVG Export Plug-In . SVG Version: 6.00 Build 0)  -->
<!DOCTYPE svg PUBLIC "-//W3C//DTD SVG 1.1//EN" "http://www.w3.org/Graphics/SVG/1.1/DTD/svg11.dtd">
<svg version="1.1" id="Layer_1" xmlns="http://www.w3.org/2000/svg" xmlns:xlink="http://www.w3.org/1999/xlink" x="0px" y="0px"
	 width="41px" height="42.03px" viewBox="0 0 41 42.03" enable-background="new 0 0 41 42.03" xml:space="preserve">
<g>
	<g>
		<path fill="#373636" d="M34.76,15.351v-4.926c0-1.724-1.391-3.125-3.1-3.125h-9.18V5.64c0-0.346-0.278-0.625-0.621-0.625h-2.719
			c-0.343,0-0.621,0.279-0.621,0.625V7.3H9.34c-1.709,0-3.1,1.401-3.1,3.125v4.926C5.5,15.785,5,16.591,5,17.515v3.749
			c0,0.924,0.5,1.73,1.24,2.164V36.39c0,0.346,0.277,0.625,0.619,0.625h27.281c0.342,0,0.619-0.279,0.619-0.625V23.428
			c0.74-0.434,1.24-1.24,1.24-2.164v-3.749C36,16.591,35.5,15.785,34.76,15.351z M17.494,8.55h1.646c0.342,0,0.619-0.28,0.619-0.625
			v-1.66h1.48v1.66c0,0.345,0.277,0.625,0.619,0.625h1.646v1.491h-1.646c-0.342,0-0.619,0.28-0.619,0.625v1.66h-1.48v-1.66
			c0-0.345-0.277-0.625-0.619-0.625h-1.646V8.55z M7.48,13.576h3.469c0.342,0,0.62-0.279,0.62-0.625c0-0.345-0.278-0.625-0.62-0.625
			H7.48v-1.9c0-1.034,0.834-1.875,1.859-1.875h6.914v2.116c0,0.345,0.277,0.625,0.619,0.625h1.646v1.659
			c0,0.346,0.278,0.625,0.621,0.625h2.719c0.343,0,0.621-0.279,0.621-0.625v-1.659h1.646c0.342,0,0.619-0.28,0.619-0.625V8.55h6.914
			c1.025,0,1.859,0.841,1.859,1.875v1.9h-3.469c-0.342,0-0.619,0.28-0.619,0.625c0,0.346,0.277,0.625,0.619,0.625h3.469v1.439H7.48
			V13.576z M31.04,16.265v4.999c0,0.689-0.556,1.25-1.24,1.25c-0.684,0-1.239-0.561-1.239-1.25v-4.999H31.04z M27.32,16.265v4.999
			c0,0.689-0.557,1.25-1.24,1.25s-1.24-0.561-1.24-1.25v-4.999H27.32z M23.6,16.265v4.999c0,0.689-0.557,1.25-1.24,1.25
			s-1.239-0.561-1.239-1.25v-4.999H23.6z M19.88,16.265v4.999c0,0.689-0.556,1.25-1.239,1.25c-0.685,0-1.24-0.561-1.24-1.25v-4.999
			H19.88z M16.16,16.265v4.999c0,0.689-0.557,1.25-1.24,1.25s-1.24-0.561-1.24-1.25v-4.999H16.16z M12.439,16.265v4.999
			c0,0.689-0.556,1.25-1.239,1.25c-0.685,0-1.24-0.561-1.24-1.25v-4.999H12.439z M6.24,21.264v-3.749c0-0.689,0.557-1.25,1.24-1.25
			h1.24v4.999c0,0.689-0.557,1.25-1.24,1.25S6.24,21.954,6.24,21.264z M16.16,35.765h-6.2V27.64c0-0.344,0.278-0.625,0.62-0.625
			h4.96c0.342,0,0.62,0.281,0.62,0.625V35.765z M33.52,35.765H17.4V27.64c0-1.033-0.835-1.876-1.86-1.876h-4.96
			c-1.025,0-1.859,0.843-1.859,1.876v8.125H7.48V23.764c0.74,0,1.404-0.328,1.859-0.85c0.455,0.521,1.12,0.85,1.86,0.85
			s1.405-0.328,1.86-0.85c0.454,0.521,1.119,0.85,1.859,0.85s1.405-0.328,1.859-0.85c0.455,0.521,1.121,0.85,1.861,0.85
			s1.404-0.328,1.859-0.85c0.455,0.521,1.12,0.85,1.859,0.85c0.74,0,1.406-0.328,1.86-0.85c0.455,0.521,1.12,0.85,1.86,0.85
			s1.405-0.328,1.859-0.85c0.455,0.521,1.12,0.85,1.86,0.85s1.405-0.328,1.86-0.85c0.455,0.521,1.119,0.85,1.859,0.85V35.765z
			 M34.76,21.264c0,0.689-0.557,1.25-1.24,1.25s-1.24-0.561-1.24-1.25v-4.999h1.24c0.684,0,1.24,0.561,1.24,1.25V21.264z
			 M21.74,25.764c-1.025,0-1.86,0.843-1.86,1.876v2.5c0,1.035,0.835,1.875,1.86,1.875h8.68c1.025,0,1.859-0.84,1.859-1.875v-2.5
			c0-1.033-0.834-1.876-1.859-1.876H21.74z M31.04,27.64v2.5c0,0.346-0.278,0.625-0.62,0.625h-8.68c-0.342,0-0.62-0.279-0.62-0.625
			v-2.5c0-0.344,0.278-0.625,0.62-0.625h8.68C30.762,27.015,31.04,27.296,31.04,27.64z M12.813,12.326h-0.021
			c-0.343,0-0.62,0.28-0.62,0.625c0,0.346,0.277,0.625,0.62,0.625h0.021c0.342,0,0.619-0.279,0.619-0.625
			C13.432,12.606,13.154,12.326,12.813,12.326z M28.208,12.326h-0.021c-0.342,0-0.619,0.28-0.619,0.625
			c0,0.346,0.277,0.625,0.619,0.625h0.021c0.343,0,0.62-0.279,0.62-0.625C28.828,12.606,28.551,12.326,28.208,12.326z"/>
	</g>
</g>
</svg>
