<?xml version="1.0" encoding="utf-8"?>
<!-- Generator: Adobe Illustrator 16.0.0, SVG Export Plug-In . SVG Version: 6.00 Build 0)  -->
<!DOCTYPE svg PUBLIC "-//W3C//DTD SVG 1.1//EN" "http://www.w3.org/Graphics/SVG/1.1/DTD/svg11.dtd">
<svg version="1.1" id="Layer_1" xmlns="http://www.w3.org/2000/svg" xmlns:xlink="http://www.w3.org/1999/xlink" x="0px" y="0px"
	 width="41px" height="42.03px" viewBox="0 0 41 42.03" enable-background="new 0 0 41 42.03" xml:space="preserve">
<g>
	<path fill="#373636" d="M23.932,20.987c1.159,0,2.112-0.867,2.265-1.986l2.099-1.572c0.254-0.19,0.305-0.55,0.114-0.805
		c-0.189-0.253-0.55-0.306-0.804-0.114l-1.464,1.098c-0.218-0.7-0.864-1.213-1.636-1.213h-2.297c-0.949,0-1.722,0.773-1.722,1.723
		c0-0.949-0.772-1.723-1.723-1.723h-2.296c-0.772,0-1.419,0.513-1.638,1.213l-1.463-1.098c-0.253-0.19-0.613-0.139-0.804,0.114
		c-0.19,0.255-0.139,0.614,0.115,0.805L14.777,19c0.153,1.119,1.105,1.986,2.266,1.986h1.147c1.267,0,2.297-1.029,2.297-2.296
		c0,1.267,1.029,2.296,2.296,2.296H23.932z M19.339,18.691c0,0.633-0.516,1.148-1.148,1.148h-1.147
		c-0.633,0-1.148-0.516-1.148-1.148v-0.574c0-0.316,0.257-0.574,0.574-0.574h2.296c0.317,0,0.574,0.258,0.574,0.574V18.691z
		 M21.635,18.691v-0.574c0-0.316,0.258-0.574,0.574-0.574h2.297c0.316,0,0.573,0.258,0.573,0.574v0.574
		c0,0.633-0.515,1.148-1.147,1.148h-1.148C22.15,19.839,21.635,19.324,21.635,18.691L21.635,18.691z M21.635,18.691"/>
	<path fill="#373636" d="M37.692,37.498l-0.586-2.338c-0.295-0.887-2.038-3.734-12.026-3.811v-0.602
		c0-0.316-0.257-0.574-0.574-0.574s-0.574,0.258-0.574,0.574v1.148c0,0.004,0.002,0.008,0.002,0.012s-0.002,0.006-0.002,0.01
		c-0.002,0.35-0.118,3.424-3.444,3.424c-3.327,0-3.442-3.094-3.444-3.445v-1.148c0-0.316-0.257-0.574-0.574-0.574
		s-0.574,0.258-0.574,0.574v0.58c-7.439,0.059-11.165,1.246-12.039,3.873l-0.574,2.297c-0.078,0.307,0.109,0.619,0.418,0.695
		c0.307,0.078,0.619-0.109,0.695-0.416l0.563-2.256c0.666-2,4.26-3,10.976-3.049c0.208,1.643,1.325,4.016,4.555,4.016
		c3.227,0,4.345-2.357,4.554-3.992c7.869,0.057,10.604,1.914,10.964,2.984l0.574,2.297c0.065,0.26,0.299,0.434,0.556,0.434
		c0.047,0,0.094-0.004,0.141-0.018C37.582,38.117,37.77,37.804,37.692,37.498L37.692,37.498z M37.692,37.498"/>
	<rect x="3.264" y="3.738" fill="none" width="34.473" height="34.555"/>
	<path fill="#373636" d="M7.209,6.629l13.204,1.723c0.024,0.003,0.05,0.005,0.074,0.005s0.049-0.002,0.074-0.005l12.556-1.638v1.993
		c-0.36,0.405-1.148,1.415-1.148,2.52c0,1.264,1.03,1.723,1.723,1.723s1.722-0.459,1.722-1.723c0-1.104-0.788-2.114-1.148-2.52V6.06
		c0-0.075-0.016-0.147-0.043-0.214c-0.009-0.023-0.026-0.042-0.038-0.063c-0.022-0.041-0.045-0.08-0.076-0.113
		c-0.021-0.021-0.044-0.035-0.067-0.053c-0.032-0.026-0.064-0.052-0.103-0.07c-0.028-0.014-0.058-0.02-0.088-0.028
		c-0.028-0.008-0.054-0.023-0.084-0.027L20.562,3.769c-0.05-0.006-0.099-0.006-0.148,0L7.209,5.491
		c-0.287,0.038-0.5,0.281-0.5,0.569C6.709,6.349,6.922,6.593,7.209,6.629L7.209,6.629z M34.266,11.227
		c0,0.458-0.311,0.565-0.574,0.574c-0.264-0.009-0.574-0.116-0.574-0.574c0-0.477,0.293-1.008,0.574-1.4
		C33.973,10.219,34.266,10.75,34.266,11.227L34.266,11.227z M20.487,4.917l8.766,1.144l-8.766,1.145L11.721,6.06L20.487,4.917z
		 M20.487,4.917"/>
	<path fill="#373636" d="M21.81,24.595c-0.018,0.016-0.45,0.412-1.322,0.412c-0.859,0-1.292-0.385-1.322-0.412
		c-0.224-0.219-0.583-0.217-0.806,0.006c-0.225,0.225-0.225,0.586,0,0.811c0.075,0.076,0.78,0.744,2.128,0.744
		c1.347,0,2.052-0.668,2.128-0.744c0.222-0.221,0.221-0.576,0.003-0.801C22.399,24.386,22.039,24.38,21.81,24.595L21.81,24.595z
		 M21.81,24.595"/>
	<path fill="#373636" d="M11.302,15.344c-0.669,0.237-1.148,0.876-1.148,1.624v2.296c0,0.802,0.549,1.477,1.292,1.668
		c0.307,0.907,1.155,3.364,1.639,4.331c0.912,1.824,3.497,4.91,7.403,4.91c3.904,0,6.49-3.086,7.402-4.91
		c0.483-0.967,1.332-3.424,1.639-4.331c0.743-0.191,1.292-0.866,1.292-1.668v-2.296c0-0.748-0.479-1.387-1.148-1.624v-0.672
		c0-0.317-0.256-0.574-0.573-0.574s-0.574,0.257-0.574,0.574v1.147c0,0.317,0.257,0.574,0.574,0.574
		c0.316,0,0.573,0.258,0.573,0.574v2.296c0,0.317-0.257,0.575-0.573,0.575c-0.248,0-0.467,0.157-0.545,0.393
		c-0.012,0.033-1.143,3.418-1.691,4.518c-0.087,0.174-2.187,4.275-6.375,4.275c-4.189,0-6.288-4.102-6.376-4.275
		c-0.55-1.1-1.68-4.484-1.691-4.518c-0.078-0.235-0.297-0.393-0.545-0.393c-0.316,0-0.573-0.258-0.573-0.575v-2.296
		c0-0.316,0.257-0.574,0.573-0.574c0.317,0,0.574-0.257,0.574-0.574v-1.147c0-0.317-0.257-0.574-0.574-0.574
		s-0.573,0.257-0.573,0.574V15.344z M11.302,15.344"/>
	<path fill="#373636" d="M11.875,7.783c-0.316,0-0.573,0.257-0.573,0.574v4.019c0,0.218,0.123,0.416,0.317,0.514
		c0.146,0.072,3.626,1.783,8.868,1.783c5.241,0,8.722-1.711,8.867-1.783c0.195-0.098,0.318-0.296,0.318-0.514V8.357
		c0-0.316-0.257-0.574-0.574-0.574s-0.574,0.258-0.574,0.574v3.647c-0.949,0.402-3.954,1.52-8.037,1.52s-7.088-1.117-8.038-1.52
		V8.357C12.449,8.04,12.193,7.783,11.875,7.783L11.875,7.783z M11.875,7.783"/>
</g>
</svg>
