<?xml version="1.0" encoding="utf-8"?>
<!-- Generator: Adobe Illustrator 16.0.0, SVG Export Plug-In . SVG Version: 6.00 Build 0)  -->
<!DOCTYPE svg PUBLIC "-//W3C//DTD SVG 1.1//EN" "http://www.w3.org/Graphics/SVG/1.1/DTD/svg11.dtd">
<svg version="1.1" id="Layer_1" xmlns="http://www.w3.org/2000/svg" xmlns:xlink="http://www.w3.org/1999/xlink" x="0px" y="0px"
	 width="35px" height="33.175px" viewBox="0 0 35 33.175" enable-background="new 0 0 35 33.175" xml:space="preserve">
<path fill="#FFFFFF" d="M4.024,28.588h26.952c0.575,0,1.024-0.443,1.024-1.01V9.638c0-0.566-0.449-1.01-1.024-1.01h-7.817V5.597
	c0-0.566-0.45-1.01-1.025-1.01h-9.241c-0.575,0-1.024,0.443-1.024,1.01v3.056H4.024C3.45,8.653,3,9.097,3,9.664v17.938
	C3.025,28.145,3.475,28.588,4.024,28.588z M13.916,6.608h7.193v2.045h-7.193V6.608z M5.049,10.649h7.593
	c0.075,0.024,0.149,0.024,0.226,0.024c0.074,0,0.148,0,0.225-0.024h8.792c0.075,0.024,0.149,0.024,0.225,0.024s0.149,0,0.226-0.024
	h7.593v6.949h-6.769V16.39c0-0.566-0.45-1.01-1.025-1.01c-0.574,0-1.023,0.443-1.023,1.01v1.208h-7.193V16.39
	c0-0.566-0.45-1.01-1.024-1.01c-0.575,0-1.024,0.443-1.024,1.01v1.208H5.049V10.649z M5.049,19.619h6.818v1.133
	c0,0.566,0.449,1.01,1.024,1.01c0.574,0,1.024-0.443,1.024-1.01v-1.133h7.193v1.133c0,0.566,0.449,1.01,1.023,1.01
	c0.575,0,1.025-0.443,1.025-1.01v-1.133h6.818v6.947H5.049V19.619z"/>
</svg>
