<?xml version="1.0" encoding="utf-8"?>
<!-- Generator: Adobe Illustrator 16.0.0, SVG Export Plug-In . SVG Version: 6.00 Build 0)  -->
<!DOCTYPE svg PUBLIC "-//W3C//DTD SVG 1.1//EN" "http://www.w3.org/Graphics/SVG/1.1/DTD/svg11.dtd">
<svg version="1.1" id="Layer_1" xmlns="http://www.w3.org/2000/svg" xmlns:xlink="http://www.w3.org/1999/xlink" x="0px" y="0px"
	 width="42.75px" height="43.824px" viewBox="0 0 42.75 43.824" enable-background="new 0 0 42.75 43.824" xml:space="preserve">
<path fill="#FFFFFF" d="M38.563,6.848c-2.146-2.204-4.988-3.408-8.022-3.408c-3.033,0-5.884,1.213-8.03,3.417l-1.122,1.15
	l-1.139-1.169c-2.146-2.203-5.006-3.426-8.039-3.426c-3.025,0-5.876,1.213-8.014,3.408c-2.147,2.204-3.329,5.131-3.32,8.244
	c0,3.113,1.19,6.031,3.337,8.234l16.323,16.756c0.226,0.232,0.53,0.357,0.826,0.357c0.295,0,0.6-0.115,0.825-0.348l16.357-16.73
	c2.147-2.202,3.329-5.129,3.329-8.242C41.883,11.978,40.71,9.051,38.563,6.848z M36.894,21.631L21.362,37.512L5.864,21.604
	c-1.703-1.749-2.642-4.068-2.642-6.54s0.93-4.791,2.634-6.531C7.551,6.794,9.811,5.83,12.21,5.83c2.407,0,4.676,0.964,6.379,2.713
	l1.965,2.016c0.461,0.473,1.199,0.473,1.66,0l1.947-1.998c1.703-1.749,3.972-2.713,6.37-2.713c2.399,0,4.659,0.964,6.362,2.703
	c1.704,1.749,2.634,4.069,2.634,6.541C39.536,17.563,38.598,19.883,36.894,21.631z"/>
</svg>
