<?xml version="1.0" encoding="utf-8"?>
<!-- Generator: Adobe Illustrator 16.0.0, SVG Export Plug-In . SVG Version: 6.00 Build 0)  -->
<!DOCTYPE svg PUBLIC "-//W3C//DTD SVG 1.1//EN" "http://www.w3.org/Graphics/SVG/1.1/DTD/svg11.dtd">
<svg version="1.1" id="Layer_1" xmlns="http://www.w3.org/2000/svg" xmlns:xlink="http://www.w3.org/1999/xlink" x="0px" y="0px"
	 width="41px" height="42.03px" viewBox="0 0 41 42.03" enable-background="new 0 0 41 42.03" xml:space="preserve">
<g>
	<g>
		<path fill="#373636" d="M33.688,6.015H7.313C5.762,6.015,4.5,7.277,4.5,8.828v18.75c0,1.551,1.262,2.813,2.813,2.813h2.875v4.687
			c0,0.379,0.229,0.721,0.578,0.867c0.117,0.047,0.238,0.07,0.359,0.07c0.244,0,0.483-0.096,0.663-0.273l5.351-5.351h16.549
			c1.551,0,2.813-1.262,2.813-2.813V8.828C36.5,7.277,35.238,6.015,33.688,6.015z M34.625,27.578c0,0.518-0.42,0.938-0.938,0.938
			H16.75c-0.248,0-0.487,0.1-0.663,0.275l-4.024,4.022v-3.36c0-0.518-0.42-0.938-0.938-0.938H7.313c-0.518,0-0.938-0.42-0.938-0.938
			V8.828c0-0.517,0.42-0.938,0.938-0.938h26.375c0.518,0,0.938,0.421,0.938,0.938V27.578z M28,15.39h-1.875
			c-0.714,0-1.367,0.268-1.863,0.708l-0.6-0.388c-0.807-0.521-1.287-1.403-1.287-2.362V11.64c0-1.034-0.842-1.875-1.875-1.875
			c-2.068,0-3.75,1.682-3.75,3.75v1.875h-1.932c-1.776,0-3.105,1.625-2.758,3.364l1.125,5.626c0.262,1.309,1.422,2.26,2.758,2.26
			h4.322c0.934,0,1.854-0.152,2.736-0.455l1.121-0.385c0.51,0.518,1.219,0.84,2.002,0.84H28c0.518,0,0.938-0.42,0.938-0.938v-9.375
			C28.938,15.81,28.518,15.39,28,15.39z M23.325,24.091l-0.932,0.32c-0.687,0.234-1.402,0.354-2.128,0.354h-4.322
			c-0.445,0-0.832-0.316-0.92-0.754l-1.125-5.625c-0.115-0.58,0.329-1.121,0.92-1.121h2.869c0.518,0,0.938-0.42,0.938-0.938v-2.813
			c0-1.034,0.842-1.875,1.875-1.875v1.708c0,1.598,0.802,3.07,2.145,3.938l0.707,0.456c-0.025,0.15-0.039,0.304-0.039,0.461v5.625
			C23.313,23.917,23.317,24.005,23.325,24.091z M27.063,24.765h-0.938c-0.518,0-0.938-0.42-0.938-0.938v-5.625
			c0-0.517,0.42-0.938,0.938-0.938h0.938V24.765z"/>
	</g>
</g>
</svg>
