<?xml version="1.0" encoding="utf-8"?>
<!-- Generator: Adobe Illustrator 16.0.0, SVG Export Plug-In . SVG Version: 6.00 Build 0)  -->
<!DOCTYPE svg PUBLIC "-//W3C//DTD SVG 1.1//EN" "http://www.w3.org/Graphics/SVG/1.1/DTD/svg11.dtd">
<svg version="1.1" id="Layer_1" xmlns="http://www.w3.org/2000/svg" xmlns:xlink="http://www.w3.org/1999/xlink" x="0px" y="0px"
	 width="58.75px" height="55.75px" viewBox="0 0 58.75 55.75" enable-background="new 0 0 58.75 55.75" xml:space="preserve">
<g>
	<polygon fill="#4FC2C1" points="6.125,6.625 52.625,6.625 34.875,29.042 34.375,49.125 24.125,44.125 24.125,29.042 	"/>
	<path fill="#484748" d="M55.18,5.586c-0.344-0.739-1.087-1.211-1.905-1.211H5.476c-0.817,0-1.562,0.472-1.905,1.211
		c-0.345,0.738-0.227,1.608,0.301,2.23l18.623,21.919v14.792c0,0.792,0.45,1.516,1.162,1.87l9.56,4.758
		c0.296,0.147,0.618,0.221,0.939,0.221c0.384,0,0.767-0.104,1.104-0.313c0.619-0.381,0.996-1.054,0.996-1.778V29.735L54.879,7.816
		C55.406,7.194,55.524,6.324,55.18,5.586z M32.551,27.619c-0.32,0.377-0.496,0.856-0.496,1.35v16.932l-5.359-2.667V28.97
		c0-0.495-0.176-0.973-0.496-1.351L10.003,8.557h38.744L32.551,27.619z"/>
</g>
</svg>
