<?xml version="1.0" encoding="utf-8"?>
<!-- Generator: Adobe Illustrator 16.0.0, SVG Export Plug-In . SVG Version: 6.00 Build 0)  -->
<!DOCTYPE svg PUBLIC "-//W3C//DTD SVG 1.1//EN" "http://www.w3.org/Graphics/SVG/1.1/DTD/svg11.dtd">
<svg version="1.1" id="Layer_1" xmlns="http://www.w3.org/2000/svg" xmlns:xlink="http://www.w3.org/1999/xlink" x="0px" y="0px"
	 width="41px" height="42.03px" viewBox="0 0 41 42.03" enable-background="new 0 0 41 42.03" xml:space="preserve">
<g>
	<g>
		<path fill="#373636" d="M14.5,11.873c0-2.101-1.684-3.81-3.75-3.81S7,9.772,7,11.873c0,2.1,1.684,3.809,3.75,3.809
			S14.5,13.972,14.5,11.873z M8.5,11.873c0-1.261,1.01-2.286,2.25-2.286S13,10.612,13,11.873c0,1.26-1.01,2.285-2.25,2.285
			S8.5,13.132,8.5,11.873z M38.167,17.333l-8.666-5.868V5.777c0-0.421-0.336-0.762-0.75-0.762H3.25c-0.414,0-0.75,0.341-0.75,0.762
			v22.857c0,0.025,0.012,0.047,0.015,0.072c0.005,0.057,0.015,0.108,0.032,0.162c0.014,0.042,0.03,0.081,0.05,0.119
			c0.024,0.047,0.053,0.09,0.087,0.132c0.029,0.035,0.061,0.065,0.096,0.095c0.023,0.02,0.038,0.046,0.063,0.063
			c0.021,0.014,0.045,0.016,0.067,0.026c0.038,0.021,0.077,0.034,0.119,0.048c0.057,0.018,0.111,0.03,0.17,0.034
			c0.018,0.002,0.033,0.011,0.051,0.011h10.306l13.33,7.523c0.114,0.066,0.24,0.096,0.363,0.096c0.26,0,0.51-0.135,0.649-0.377
			l10.501-18.287C38.599,18.002,38.497,17.556,38.167,17.333z M4,6.539h24.001v18.869l-6.83-13.877
			c-0.125-0.251-0.374-0.413-0.651-0.42c-0.285-0.015-0.534,0.14-0.672,0.384l-5.513,9.802l-3.806-3.867
			c-0.16-0.163-0.389-0.243-0.61-0.219c-0.226,0.025-0.428,0.152-0.551,0.346L4,26.039V6.539z M4.623,27.873l5.503-8.698
			l3.843,3.905c0.165,0.166,0.4,0.246,0.63,0.215c0.232-0.031,0.437-0.172,0.553-0.377l5.306-9.432l7.079,14.387H4.623z
			 M26.973,35.224l-10.328-5.828h12.106c0.113,0,0.218-0.029,0.314-0.075c0.006-0.003,0.014-0.002,0.02-0.005
			c0.032-0.017,0.052-0.044,0.081-0.064c0.047-0.032,0.095-0.063,0.133-0.105c0.031-0.034,0.051-0.073,0.074-0.111
			c0.027-0.045,0.057-0.086,0.075-0.136c0.018-0.048,0.022-0.099,0.03-0.15c0.006-0.039,0.022-0.073,0.022-0.114V13.296l7.246,4.908
			L26.973,35.224z"/>
	</g>
</g>
</svg>
