<?xml version="1.0" encoding="utf-8"?>
<!-- Generator: Adobe Illustrator 16.0.0, SVG Export Plug-In . SVG Version: 6.00 Build 0)  -->
<!DOCTYPE svg PUBLIC "-//W3C//DTD SVG 1.1//EN" "http://www.w3.org/Graphics/SVG/1.1/DTD/svg11.dtd">
<svg version="1.1" id="Layer_1" xmlns="http://www.w3.org/2000/svg" xmlns:xlink="http://www.w3.org/1999/xlink" x="0px" y="0px"
	 width="41px" height="42.03px" viewBox="0 0 41 42.03" enable-background="new 0 0 41 42.03" xml:space="preserve">
<path fill="#F15C22" d="M31.309,25.152c0.486-0.602,0.719-1.246,0.688-1.91c-0.03-0.73-0.366-1.303-0.644-1.654
	c0.322-0.78,0.445-2.006-0.628-2.958c-0.786-0.697-2.122-1.01-3.974-0.923c-1.301,0.058-2.389,0.293-2.434,0.303h-0.006
	c-0.246,0.043-0.509,0.096-0.775,0.153c-0.021-0.308,0.034-1.072,0.617-2.794c0.693-2.049,0.654-3.617-0.128-4.666
	c-0.821-1.102-2.133-1.188-2.519-1.188c-0.371,0-0.713,0.149-0.955,0.423c-0.549,0.621-0.484,1.766-0.416,2.295
	c-0.652,1.702-2.482,5.877-4.031,7.036c-0.03,0.02-0.055,0.043-0.08,0.067c-0.455,0.467-0.762,0.971-0.969,1.415
	c-0.292-0.154-0.624-0.24-0.98-0.24h-3.018c-1.138,0-2.059,0.899-2.059,2v7.816c0,1.105,0.925,2,2.059,2h3.018
	c0.44,0,0.852-0.135,1.188-0.365l1.162,0.135c0.179,0.023,3.346,0.414,6.596,0.352c0.589,0.043,1.144,0.066,1.658,0.066
	c0.885,0,1.657-0.066,2.301-0.201c1.514-0.313,2.548-0.938,3.072-1.857c0.4-0.701,0.4-1.398,0.336-1.842
	c0.984-0.865,1.158-1.822,1.123-2.496C31.492,25.73,31.403,25.398,31.309,25.152z M11.059,31.029c-0.4,0-0.723-0.316-0.723-0.701
	v-7.82c0-0.391,0.327-0.703,0.723-0.703h3.018c0.401,0,0.723,0.318,0.723,0.703v7.814c0,0.391-0.326,0.703-0.723,0.703h-3.018
	V31.029z M30.043,24.589c-0.208,0.211-0.248,0.533-0.09,0.783c0,0.006,0.203,0.342,0.229,0.805c0.034,0.629-0.277,1.188-0.931,1.664
	c-0.232,0.172-0.326,0.471-0.228,0.74c0,0.004,0.213,0.639-0.133,1.24c-0.332,0.578-1.069,0.992-2.188,1.223
	c-0.896,0.188-2.113,0.221-3.607,0.105c-0.02,0-0.044,0-0.068,0c-3.182,0.066-6.398-0.336-6.433-0.342H16.59l-0.5-0.059
	c0.029-0.133,0.045-0.277,0.045-0.422v-7.82c0-0.207-0.035-0.41-0.094-0.598c0.089-0.322,0.336-1.04,0.92-1.649
	c2.222-1.713,4.394-7.489,4.488-7.739c0.039-0.101,0.049-0.211,0.029-0.322c-0.084-0.539-0.055-1.197,0.064-1.395
	c0.262,0.005,0.969,0.077,1.395,0.649c0.505,0.678,0.485,1.89-0.059,3.496c-0.832,2.448-0.9,3.737-0.242,4.305
	c0.326,0.284,0.762,0.299,1.078,0.188c0.302-0.067,0.588-0.125,0.861-0.168c0.02-0.005,0.044-0.01,0.063-0.015
	c1.519-0.322,4.24-0.52,5.186,0.317c0.802,0.711,0.232,1.655,0.168,1.757c-0.183,0.27-0.128,0.619,0.118,0.836
	c0.006,0.006,0.525,0.48,0.55,1.121C30.682,23.718,30.473,24.156,30.043,24.589z"/>
</svg>
