<?xml version="1.0" encoding="utf-8"?>
<!-- Generator: Adobe Illustrator 16.0.0, SVG Export Plug-In . SVG Version: 6.00 Build 0)  -->
<!DOCTYPE svg PUBLIC "-//W3C//DTD SVG 1.1//EN" "http://www.w3.org/Graphics/SVG/1.1/DTD/svg11.dtd">
<svg version="1.1" id="Layer_1" xmlns="http://www.w3.org/2000/svg" xmlns:xlink="http://www.w3.org/1999/xlink" x="0px" y="0px"
	 width="41px" height="42.03px" viewBox="0 0 41 42.03" enable-background="new 0 0 41 42.03" xml:space="preserve">
<path fill="#373636" d="M31.69,17.7c-0.663-0.568-1.501-0.881-2.353-0.881h-5.003v-3.531c0-1.689-0.502-2.922-1.5-3.656
	c-1.573-1.151-3.707-0.502-3.802-0.474c-0.364,0.117-0.611,0.453-0.611,0.832v4.26c0,1.295-0.62,2.396-1.851,3.277
	c-0.932,0.668-1.886,0.975-2.01,1.012l-0.087,0.021c-0.328-0.371-0.809-0.604-1.348-0.604h-3.32c-0.99,0-1.799,0.807-1.799,1.797
	v10.895c0,0.99,0.809,1.799,1.799,1.799h3.335c0.437,0,0.845-0.16,1.15-0.422c0.671,0.654,1.581,1.055,2.563,1.055h10.437
	c1.048,0,1.973-0.254,2.68-0.729c0.903-0.611,1.463-1.58,1.624-2.818l1.348-8.374C33.154,19.862,32.673,18.538,31.69,17.7
	L31.69,17.7z M13.192,30.648c0,0.029-0.021,0.051-0.051,0.051H9.807c-0.029,0-0.051-0.021-0.051-0.051V19.753
	c0-0.027,0.021-0.051,0.051-0.051h3.335c0.029,0,0.051,0.023,0.051,0.051V30.648z M31.217,20.89l-1.348,8.389
	c0,0.008,0,0.021-0.007,0.037c-0.059,0.502-0.248,2.023-2.57,2.023H16.855c-0.932,0-1.747-0.699-1.893-1.623
	c-0.008-0.037-0.015-0.072-0.022-0.104v-9.364l0.051-0.014c0.015,0,0.022-0.008,0.036-0.008c0.051-0.016,1.289-0.365,2.52-1.246
	c1.712-1.215,2.622-2.854,2.622-4.732V10.71c0.48-0.053,1.144-0.029,1.632,0.326c0.524,0.387,0.786,1.145,0.786,2.244v4.404
	c0,0.482,0.394,0.875,0.874,0.875h5.877c0.438,0,0.866,0.168,1.216,0.459C31.078,19.47,31.326,20.183,31.217,20.89L31.217,20.89z
	 M31.217,20.89"/>
</svg>
