<?xml version="1.0" encoding="utf-8"?>
<!-- Generator: Adobe Illustrator 16.0.0, SVG Export Plug-In . SVG Version: 6.00 Build 0)  -->
<!DOCTYPE svg PUBLIC "-//W3C//DTD SVG 1.1//EN" "http://www.w3.org/Graphics/SVG/1.1/DTD/svg11.dtd">
<svg version="1.1" id="Layer_1" xmlns="http://www.w3.org/2000/svg" xmlns:xlink="http://www.w3.org/1999/xlink" x="0px" y="0px"
	 width="18.25px" height="21.25px" viewBox="0 0 18.25 21.25" enable-background="new 0 0 18.25 21.25" xml:space="preserve">
<g>
	<g>
		<path fill="#4FC2C1" d="M9.787,10.942c0.357-0.046,0.607-0.361,0.559-0.703C10.298,9.897,9.97,9.657,9.613,9.704
			c-0.078,0.01-0.158,0.015-0.238,0.015c-0.97,0-1.758-0.757-1.758-1.688s0.788-1.688,1.758-1.688c0.969,0,1.758,0.757,1.758,1.688
			c0,0.092-0.008,0.185-0.023,0.274c-0.057,0.341,0.184,0.662,0.539,0.718c0.355,0.055,0.689-0.176,0.747-0.517
			c0.026-0.156,0.04-0.316,0.04-0.476c0-1.62-1.373-2.938-3.061-2.938S6.314,6.412,6.314,8.031s1.373,2.938,3.061,2.938
			C9.513,10.969,9.651,10.96,9.787,10.942z M15.325,15.019c-0.501-0.252-1.188-0.465-2.044-0.631
			c-0.353-0.069-0.695,0.149-0.768,0.488s0.156,0.668,0.508,0.737c1.32,0.258,1.861,0.566,2.018,0.716
			c-0.115,0.11-0.5,0.388-1.629,0.649c-1.109,0.256-2.543,0.397-4.035,0.397s-2.926-0.141-4.035-0.397
			c-1.129-0.261-1.514-0.539-1.629-0.649c0.156-0.15,0.697-0.458,2.018-0.716c0.352-0.068,0.58-0.398,0.508-0.737
			c-0.071-0.338-0.416-0.557-0.768-0.488c-0.855,0.167-1.543,0.379-2.045,0.631c-0.695,0.351-1.049,0.792-1.049,1.311
			c0,0.775,0.787,1.375,2.338,1.784c1.254,0.33,2.91,0.512,4.662,0.512s3.408-0.182,4.661-0.512
			c1.552-0.408,2.339-1.008,2.339-1.784C16.375,15.811,16.021,15.37,15.325,15.019z M8.824,15.834
			c0.119,0.181,0.327,0.291,0.551,0.291c0.223,0,0.432-0.11,0.551-0.291c0.597-0.907,1.373-1.702,2.125-2.471
			c1.469-1.503,2.987-3.057,2.989-5.364c-0.002-1.446-0.594-2.801-1.667-3.813c-1.068-1.006-2.487-1.561-3.998-1.561
			c-1.51,0-2.924,0.555-3.983,1.563C4.33,5.198,3.744,6.552,3.742,8c0.002,2.31,1.514,3.867,2.975,5.372
			C7.461,14.139,8.23,14.931,8.824,15.834z M9.375,3.875c2.402,0,4.359,1.851,4.363,4.125c-0.002,1.813-1.223,3.062-2.637,4.508
			c-0.586,0.599-1.186,1.213-1.727,1.898c-0.535-0.68-1.127-1.291-1.705-1.886C6.262,11.07,5.047,9.818,5.045,8
			C5.047,5.688,6.949,3.875,9.375,3.875z"/>
	</g>
</g>
</svg>
