<?xml version="1.0" encoding="utf-8"?>
<!-- Generator: Adobe Illustrator 16.0.0, SVG Export Plug-In . SVG Version: 6.00 Build 0)  -->
<!DOCTYPE svg PUBLIC "-//W3C//DTD SVG 1.1//EN" "http://www.w3.org/Graphics/SVG/1.1/DTD/svg11.dtd">
<svg version="1.1" id="Layer_1" xmlns="http://www.w3.org/2000/svg" xmlns:xlink="http://www.w3.org/1999/xlink" x="0px" y="0px"
	 width="42px" height="39.855px" viewBox="0 0 42 39.855" enable-background="new 0 0 42 39.855" xml:space="preserve">
<g>
	<g>
		<path fill="#4FC2C1" d="M17.513,21.885l0.012-0.004c-0.713-0.296-1.644-0.881-1.872-1.618c0.396-0.082,0.809-0.26,1.198-0.541
			c1.12-0.808,1.617-2.134,1.109-2.964c-0.553-0.902-2.063-0.842-3.226,0.186c-1.11,0.956-1.347,1.954-1.347,3.003
			c0,0.742,0.237,2.065,1.691,3.215C15.766,22.634,16.584,22.199,17.513,21.885z M16.026,17.151c0.306,0,0.554,0.25,0.554,0.561
			s-0.248,0.559-0.554,0.559s-0.553-0.25-0.553-0.561S15.721,17.151,16.026,17.151z M27.282,16.944
			c-1.161-1.026-2.673-1.089-3.226-0.186c-0.507,0.83-0.011,2.156,1.109,2.964c0.39,0.28,0.803,0.459,1.198,0.541
			c-0.138,0.442-0.555,0.893-1.191,1.272c-0.875,0.521-1.349,0.585-6.948,2.439c-2.073,0.702-3.307,2.096-3.307,3.73
			c0,1.164,0.597,2.062,1.427,2.72c0.521-0.536,1.172-1,1.933-1.372c-0.876-0.441-1.146-0.775-1.146-1.348
			c0-0.945,1.896-1.486,2.77-1.773v2.392l2.215-0.984v-1.407c0.876,0.289,2.767,0.829,2.767,1.772c0,1.569-4.509,2.495-6.427,3.813
			c-0.932,0.643-1.432,1.461-1.432,2.422c0,0.552,0.063,1.236,1.036,1.916c0.275,0.219,0.658-0.101,0.479-0.41
			c-0.643-1.281,0.04-1.921,1.364-2.475v1.851c0,0.609,0.496,1.104,1.106,1.104c0.611,0,1.107-0.494,1.107-1.104v-1.85
			c1.272,0.532,2.072,1.283,1.36,2.474c-0.176,0.302,0.199,0.631,0.479,0.41c0.941-0.711,1.016-1.32,1.016-1.901
			c0-0.895-0.492-1.763-1.424-2.429c1.884-0.678,3.552-1.82,3.552-3.818c0-1.381-0.88-2.59-2.401-3.355
			c0.711-0.255,1.068-0.426,1.543-0.708c2.08-1.239,2.391-2.847,2.391-3.694C28.629,18.898,28.394,17.899,27.282,16.944z
			 M25.991,18.271c-0.306,0-0.554-0.25-0.554-0.561s0.248-0.561,0.554-0.561s0.554,0.25,0.554,0.561S26.297,18.271,25.991,18.271z
			 M36.5,6.137h-7.582c-1.487,0-2.604,0.655-3.564,1.612c-1.043,1.04-1.585,3.351-3.246,3.351V8.036
			c0.659-0.382,1.106-1.086,1.106-1.9c0-1.219-0.991-2.207-2.214-2.207s-2.214,0.988-2.214,2.207c0,0.814,0.447,1.518,1.106,1.9
			v13.15c0.684-0.218,1.434-0.457,2.215-0.707v-5.527c0.48-0.24,0.867-0.628,1.105-1.109c0.385,0.656,1.117,1.121,1.933,1.121
			c0.828,0,1.541-0.458,1.921-1.128c1.297,1.293,3.708,1.318,5.005,0.025l-1.881-1.875l0.862,0.356
			c1.695,0.7,3.638-0.103,4.34-1.792L32.72,9.447C35.31,9.447,36.5,7.828,36.5,6.137z M16.854,14.964h0.025
			c1.081-0.013,1.908-0.986,1.908-2.064v-2.22c-0.872-0.714-1.372-2.165-2.141-2.931c-0.961-0.957-2.077-1.612-3.564-1.612H5.5
			c0,1.691,1.19,3.31,3.78,3.31l-2.673,1.104c0.702,1.689,2.645,2.491,4.34,1.792l0.862-0.356l-1.881,1.875
			c1.297,1.293,3.708,1.268,5.005-0.025C15.313,14.506,16.026,14.964,16.854,14.964z"/>
	</g>
</g>
</svg>
