<?xml version="1.0" encoding="utf-8"?>
<!-- Generator: Adobe Illustrator 16.0.0, SVG Export Plug-In . SVG Version: 6.00 Build 0)  -->
<!DOCTYPE svg PUBLIC "-//W3C//DTD SVG 1.1//EN" "http://www.w3.org/Graphics/SVG/1.1/DTD/svg11.dtd">
<svg version="1.1" id="Layer_1" xmlns="http://www.w3.org/2000/svg" xmlns:xlink="http://www.w3.org/1999/xlink" x="0px" y="0px"
	 width="41px" height="42.03px" viewBox="0 0 41 42.03" enable-background="new 0 0 41 42.03" xml:space="preserve">
<path fill="#373636" d="M33.846,10.533H11.974c-1.122,0-2.037,0.915-2.037,2.036v2.952H6.621c-0.827,0-1.504,0.678-1.504,1.505
	v12.968c0,0.828,0.677,1.504,1.504,1.504H29.56c0.827,0,1.505-0.676,1.505-1.504v-3.484h2.781c1.123,0,2.037-0.916,2.037-2.039
	V12.563C35.877,11.442,34.969,10.533,33.846,10.533L33.846,10.533z M25.348,17.026c0.17,2.257,1.962,4.061,4.212,4.257v4.5
	c-2.257,0.168-4.062,1.961-4.256,4.211H10.833c-0.17-2.256-1.961-4.063-4.212-4.256v-4.5c2.257-0.17,4.062-1.961,4.256-4.211H25.348
	z M26.852,17.026h2.702v2.745C28.137,19.583,27.016,18.45,26.852,17.026L26.852,17.026z M9.36,17.026
	c-0.182,1.417-1.317,2.545-2.745,2.701v-2.701H9.36z M6.621,27.248c1.416,0.182,2.545,1.316,2.701,2.746H6.621V27.248z
	 M26.814,29.988c0.182-1.416,1.316-2.545,2.745-2.701v2.701H26.814z M34.373,24.47c0,0.297-0.238,0.535-0.533,0.535h-2.782v-7.979
	c0-0.827-0.677-1.505-1.504-1.505H11.435v-2.952c0-0.294,0.238-0.532,0.533-0.532H33.84c0.295,0,0.533,0.238,0.533,0.532V24.47z
	 M34.373,24.47"/>
</svg>
