<?xml version="1.0" encoding="utf-8"?>
<!-- Generator: Adobe Illustrator 16.0.0, SVG Export Plug-In . SVG Version: 6.00 Build 0)  -->
<!DOCTYPE svg PUBLIC "-//W3C//DTD SVG 1.1//EN" "http://www.w3.org/Graphics/SVG/1.1/DTD/svg11.dtd">
<svg version="1.1" id="Layer_1" xmlns="http://www.w3.org/2000/svg" xmlns:xlink="http://www.w3.org/1999/xlink" x="0px" y="0px"
	 width="10.5px" height="38px" viewBox="0 0 10.5 38" enable-background="new 0 0 10.5 38" xml:space="preserve">
<g>
	<g>
		<g>
			<path fill-rule="evenodd" clip-rule="evenodd" fill="#FFFFFF" d="M5.25,9.5c1.933,0,3.5-1.567,3.5-3.5s-1.567-3.5-3.5-3.5
				S1.75,4.067,1.75,6S3.317,9.5,5.25,9.5z M5.25,15.5c-1.933,0-3.5,1.567-3.5,3.5s1.567,3.5,3.5,3.5s3.5-1.567,3.5-3.5
				S7.183,15.5,5.25,15.5z M5.25,28.5c-1.933,0-3.5,1.567-3.5,3.5s1.567,3.5,3.5,3.5s3.5-1.567,3.5-3.5S7.183,28.5,5.25,28.5z"/>
		</g>
	</g>
</g>
</svg>
