<?xml version="1.0" encoding="utf-8"?>
<!-- Generator: Adobe Illustrator 16.0.0, SVG Export Plug-In . SVG Version: 6.00 Build 0)  -->
<!DOCTYPE svg PUBLIC "-//W3C//DTD SVG 1.1//EN" "http://www.w3.org/Graphics/SVG/1.1/DTD/svg11.dtd">
<svg version="1.1" id="Layer_1" xmlns="http://www.w3.org/2000/svg" xmlns:xlink="http://www.w3.org/1999/xlink" x="0px" y="0px"
	 width="22.941px" height="26.316px" viewBox="0 0 22.941 26.316" enable-background="new 0 0 22.941 26.316" xml:space="preserve">
<path fill="#4FC2C1" d="M19.308,6.867c-0.107-0.098-0.244-0.146-0.41-0.146h-3.045c-0.202-0.904-0.582-1.688-1.141-2.354h4.15
	c0.166,0,0.303-0.049,0.409-0.146s0.16-0.224,0.16-0.376V2.178c0-0.152-0.054-0.277-0.16-0.376
	c-0.106-0.098-0.243-0.146-0.409-0.146H4.043c-0.166,0-0.303,0.049-0.41,0.146C3.526,1.9,3.473,2.025,3.473,2.178v2.173
	c0,0.142,0.057,0.265,0.17,0.368c0.112,0.104,0.246,0.155,0.4,0.155h2.583c2.505,0,4.096,0.615,4.773,1.846H4.043
	c-0.166,0-0.303,0.05-0.41,0.147c-0.106,0.098-0.16,0.223-0.16,0.376v1.666c0,0.153,0.054,0.278,0.16,0.376
	c0.107,0.098,0.244,0.147,0.41,0.147h7.605c-0.261,0.893-0.87,1.574-1.826,2.042c-0.956,0.469-2.217,0.703-3.784,0.703H4.043
	c-0.154,0-0.288,0.052-0.4,0.155c-0.113,0.104-0.17,0.226-0.17,0.367v2.075c0,0.142,0.054,0.262,0.16,0.359
	c2.28,2.223,5.237,5.332,8.87,9.33c0.107,0.131,0.256,0.196,0.445,0.196h3.474c0.249,0,0.422-0.099,0.517-0.294
	c0.118-0.196,0.096-0.382-0.071-0.557c-3.467-3.899-6.192-6.818-8.176-8.757c2.02-0.219,3.658-0.817,4.916-1.798
	c1.259-0.98,2.024-2.255,2.298-3.823h2.992c0.166,0,0.303-0.049,0.41-0.146c0.106-0.099,0.16-0.224,0.16-0.376V7.243
	C19.468,7.091,19.414,6.966,19.308,6.867z"/>
</svg>
