<?xml version="1.0" encoding="utf-8"?>
<!-- Generator: Adobe Illustrator 16.0.0, SVG Export Plug-In . SVG Version: 6.00 Build 0)  -->
<!DOCTYPE svg PUBLIC "-//W3C//DTD SVG 1.1//EN" "http://www.w3.org/Graphics/SVG/1.1/DTD/svg11.dtd">
<svg version="1.1" id="Layer_1" xmlns="http://www.w3.org/2000/svg" xmlns:xlink="http://www.w3.org/1999/xlink" x="0px" y="0px"
	 width="41px" height="42.03px" viewBox="0 0 41 42.03" enable-background="new 0 0 41 42.03" xml:space="preserve">
<g>
	<path fill="#373636" d="M20.502,11.589c-5.197,0-9.428,4.23-9.428,9.427c0,5.198,4.23,9.424,9.428,9.424
		c5.196,0,9.424-4.226,9.424-9.424C29.926,15.82,25.698,11.589,20.502,11.589L20.502,11.589z M20.502,29.092
		c-4.457,0-8.08-3.62-8.08-8.076c0-4.457,3.623-8.079,8.08-8.079c4.453,0,8.076,3.622,8.076,8.079
		C28.578,25.472,24.955,29.092,20.502,29.092L20.502,29.092z M20.502,29.092"/>
	<path fill="#373636" d="M36.805,16.977h-1.356c-0.349-1.288-0.858-2.521-1.522-3.675l0.96-0.96
		c0.352-0.353,0.546-0.825,0.546-1.321c0-0.504-0.194-0.973-0.546-1.324l-3.067-3.068c-0.706-0.706-1.939-0.706-2.646,0l-0.96,0.961
		c-1.157-0.665-2.387-1.174-3.675-1.519V4.709c0-1.032-0.838-1.87-1.87-1.87h-4.336c-1.031,0-1.87,0.838-1.87,1.87v1.361
		c-1.288,0.345-2.518,0.854-3.674,1.519l-0.961-0.961c-0.706-0.706-1.939-0.706-2.646,0L6.114,9.697
		c-0.352,0.352-0.546,0.824-0.546,1.324c0,0.499,0.194,0.969,0.546,1.321l0.96,0.96c-0.665,1.153-1.173,2.387-1.519,3.675h-1.36
		c-1.032,0-1.871,0.838-1.871,1.87v4.336c0,1.033,0.839,1.871,1.871,1.871h1.36c0.346,1.286,0.854,2.517,1.519,3.673l-0.96,0.959
		c-0.352,0.355-0.546,0.826-0.546,1.326c0,0.498,0.194,0.969,0.546,1.324l3.066,3.064c0.707,0.705,1.94,0.705,2.646,0l0.961-0.961
		c1.156,0.664,2.388,1.174,3.674,1.521v1.359c0,1.031,0.839,1.869,1.87,1.869h4.336c1.032,0,1.87-0.838,1.87-1.869v-1.359
		c1.288-0.348,2.518-0.857,3.675-1.521l0.96,0.961c0.706,0.705,1.939,0.705,2.649,0l3.063-3.064
		c0.352-0.355,0.549-0.826,0.549-1.324c0-0.5-0.197-0.971-0.549-1.326l-0.96-0.959c0.664-1.156,1.174-2.387,1.522-3.673h1.356
		c1.033,0,1.871-0.838,1.871-1.871v-4.336C38.676,17.815,37.838,16.977,36.805,16.977L36.805,16.977z M37.331,23.183
		c0,0.289-0.236,0.525-0.526,0.525h-2.419l-0.121,0.52c-0.349,1.506-0.94,2.935-1.759,4.249l-0.283,0.453l1.709,1.709
		c0.208,0.205,0.208,0.537,0,0.744l-3.063,3.064c-0.207,0.203-0.538,0.207-0.742,0l-1.709-1.711l-0.454,0.283
		c-1.314,0.818-2.744,1.41-4.25,1.758l-0.519,0.123v2.42c0,0.289-0.237,0.525-0.526,0.525h-4.336c-0.289,0-0.526-0.236-0.526-0.525
		v-2.42l-0.519-0.123c-1.506-0.348-2.936-0.939-4.247-1.758l-0.454-0.283l-1.709,1.711c-0.207,0.207-0.539,0.203-0.746,0
		l-3.063-3.064c-0.204-0.207-0.204-0.539,0-0.744l1.709-1.709l-0.283-0.453c-0.818-1.314-1.41-2.743-1.759-4.249l-0.121-0.52H4.195
		c-0.29,0-0.522-0.236-0.522-0.525v-4.336c0-0.289,0.232-0.526,0.522-0.526h2.419l0.121-0.519c0.353-1.507,0.94-2.937,1.759-4.247
		l0.283-0.453l-1.709-1.711c-0.204-0.207-0.204-0.538,0-0.745l3.063-3.063c0.207-0.204,0.539-0.207,0.746,0l1.709,1.709l0.454-0.283
		c1.312-0.817,2.741-1.409,4.247-1.759l0.519-0.12v-2.42c0-0.289,0.237-0.522,0.526-0.522h4.336c0.289,0,0.526,0.233,0.526,0.522
		v2.42l0.519,0.12c1.506,0.352,2.936,0.941,4.25,1.759l0.454,0.283l1.709-1.709c0.204-0.207,0.539-0.204,0.742,0l3.063,3.063
		c0.208,0.207,0.208,0.538,0,0.745l-1.709,1.711l0.283,0.453c0.818,1.311,1.41,2.74,1.759,4.247l0.121,0.519h2.419
		c0.29,0,0.526,0.237,0.526,0.526V23.183z M37.331,23.183"/>
	<path fill="#373636" d="M20.502,14.285c-3.714,0-6.731,3.018-6.731,6.731c0,3.712,3.018,6.732,6.731,6.732
		c3.711,0,6.731-3.021,6.731-6.732C27.233,17.302,24.213,14.285,20.502,14.285L20.502,14.285z M20.502,26.401
		c-2.972,0-5.388-2.415-5.388-5.385c0-2.971,2.416-5.388,5.388-5.388c2.968,0,5.384,2.417,5.384,5.388
		C25.886,23.986,23.47,26.401,20.502,26.401L20.502,26.401z M20.502,26.401"/>
</g>
</svg>
