<?xml version="1.0" encoding="utf-8"?>
<!-- Generator: Adobe Illustrator 16.0.0, SVG Export Plug-In . SVG Version: 6.00 Build 0)  -->
<!DOCTYPE svg PUBLIC "-//W3C//DTD SVG 1.1//EN" "http://www.w3.org/Graphics/SVG/1.1/DTD/svg11.dtd">
<svg version="1.1" id="Layer_1" xmlns="http://www.w3.org/2000/svg" xmlns:xlink="http://www.w3.org/1999/xlink" x="0px" y="0px"
	 width="37.75px" height="38.698px" viewBox="0 0 37.75 38.698" enable-background="new 0 0 37.75 38.698" xml:space="preserve">
<path fill="#FFFFFF" d="M28.424,23.809c-1.952,0-3.693,0.932-4.807,2.371l-9.325-5.217c0.219-0.629,0.339-1.306,0.339-2.004
	c0-0.707-0.12-1.377-0.346-2.013l9.318-5.21c1.106,1.447,2.854,2.387,4.813,2.387c3.341,0,6.069-2.727,6.069-6.08
	c0-3.353-2.721-6.078-6.069-6.078c-3.348,0-6.068,2.726-6.068,6.078c0,0.707,0.12,1.385,0.345,2.014l-9.311,5.209
	c-1.106-1.453-2.854-2.386-4.814-2.386c-3.341,0-6.068,2.726-6.068,6.079s2.728,6.078,6.076,6.078c1.959,0,3.707-0.939,4.82-2.394
	l9.318,5.218c-0.226,0.635-0.353,1.32-0.353,2.025c0,3.346,2.721,6.078,6.069,6.078c3.348,0,6.068-2.725,6.068-6.078
	S31.772,23.809,28.424,23.809z M28.424,3.879c2.298,0,4.166,1.871,4.166,4.172s-1.868,4.172-4.166,4.172s-4.165-1.871-4.165-4.172
	S26.134,3.879,28.424,3.879z M8.576,23.131c-2.298,0-4.166-1.871-4.166-4.172c0-2.303,1.868-4.174,4.166-4.174
	s4.165,1.871,4.165,4.174C12.741,21.26,10.866,23.131,8.576,23.131z M28.424,34.053c-2.298,0-4.165-1.871-4.165-4.173
	s1.867-4.173,4.165-4.173s4.166,1.871,4.166,4.173S30.722,34.053,28.424,34.053z"/>
</svg>
