<?xml version="1.0" encoding="utf-8"?>
<!-- Generator: Adobe Illustrator 16.0.0, SVG Export Plug-In . SVG Version: 6.00 Build 0)  -->
<!DOCTYPE svg PUBLIC "-//W3C//DTD SVG 1.1//EN" "http://www.w3.org/Graphics/SVG/1.1/DTD/svg11.dtd">
<svg version="1.1" id="Layer_1" xmlns="http://www.w3.org/2000/svg" xmlns:xlink="http://www.w3.org/1999/xlink" x="0px" y="0px"
	 width="41px" height="42.03px" viewBox="0 0 41 42.03" enable-background="new 0 0 41 42.03" xml:space="preserve">
<g>
	<path fill="#373636" d="M20.496,10.531c-5.781,0-10.48,4.699-10.48,10.48c0,5.775,4.699,10.48,10.48,10.48
		s10.481-4.705,10.481-10.48C30.978,15.23,26.277,10.531,20.496,10.531L20.496,10.531z M20.496,29.712
		c-4.794,0-8.701-3.898-8.701-8.701c0-4.793,3.9-8.701,8.701-8.701c4.802,0,8.702,3.908,8.702,8.701
		C29.198,25.806,25.29,29.712,20.496,29.712L20.496,29.712z M20.496,29.712"/>
	<path fill="#373636" d="M36.688,21.578c-0.298-0.406-0.306-0.966-0.008-1.379l0.617-0.879c0.487-0.69,0.661-1.562,0.465-2.39
		s-0.733-1.532-1.481-1.933l-0.944-0.509c-0.45-0.238-0.69-0.732-0.61-1.233l0.182-1.062c0.139-0.835-0.087-1.692-0.617-2.354
		c-0.538-0.66-1.329-1.061-2.172-1.097L31.043,8.7c-0.508-0.021-0.944-0.362-1.082-0.849l-0.313-1.025
		c-0.363-1.257-1.532-2.136-2.847-2.136c-0.4,0-0.8,0.08-1.17,0.24l-0.987,0.422c-0.458,0.196-1.018,0.072-1.345-0.298l-0.719-0.8
		c-0.56-0.624-1.365-0.987-2.201-0.987c-0.856,0-1.67,0.37-2.236,1.018l-0.698,0.813c-0.327,0.378-0.879,0.51-1.344,0.32
		L15.107,5.01c-0.363-0.145-0.741-0.225-1.126-0.225c-1.33,0-2.507,0.894-2.855,2.179l-0.283,1.038
		c-0.13,0.487-0.566,0.836-1.075,0.864L8.7,8.933C7.857,8.976,7.066,9.39,6.543,10.059C6.02,10.726,5.81,11.59,5.961,12.418
		l0.197,1.054c0.094,0.502-0.146,1.003-0.588,1.249l-0.938,0.523c-0.741,0.414-1.271,1.126-1.453,1.954s0,1.7,0.502,2.382
		l0.631,0.864c0.299,0.407,0.305,0.967,0.008,1.379l-0.617,0.879c-0.487,0.691-0.661,1.563-0.465,2.391
		c0.195,0.828,0.733,1.533,1.481,1.932l0.944,0.51c0.45,0.238,0.69,0.732,0.609,1.234L6.092,29.83
		c-0.138,0.836,0.088,1.693,0.618,2.354c0.537,0.66,1.329,1.061,2.172,1.098l1.075,0.043c0.509,0.021,0.944,0.363,1.082,0.85
		l0.298,1.031c0.363,1.258,1.532,2.137,2.848,2.137c0.399,0,0.799-0.082,1.169-0.24l0.988-0.422
		c0.458-0.197,1.017-0.072,1.344,0.299l0.719,0.797c0.56,0.625,1.365,0.988,2.201,0.988c0.856,0,1.671-0.371,2.237-1.018
		l0.704-0.813c0.327-0.377,0.879-0.51,1.345-0.32l0.994,0.408c0.363,0.145,0.741,0.225,1.126,0.225c1.33,0,2.506-0.893,2.854-2.18
		l0.283-1.037c0.132-0.488,0.567-0.836,1.075-0.865l1.075-0.066c0.85-0.051,1.634-0.457,2.157-1.125s0.733-1.525,0.581-2.359
		l-0.196-1.055c-0.095-0.502,0.146-1.002,0.589-1.248l0.937-0.523c0.741-0.414,1.271-1.127,1.452-1.955
		c0.183-0.828,0-1.699-0.501-2.381L36.688,21.578z M36.084,24.447c-0.072,0.334-0.283,0.611-0.581,0.777l-0.938,0.523
		c-1.11,0.617-1.706,1.873-1.474,3.123l0.196,1.053c0.065,0.342-0.022,0.676-0.233,0.945c-0.21,0.27-0.516,0.428-0.863,0.451
		l-1.068,0.064c-1.271,0.072-2.354,0.943-2.688,2.172l-0.283,1.031c-0.138,0.516-0.61,0.871-1.141,0.871
		c-0.152,0-0.305-0.029-0.45-0.086l-0.995-0.406c-0.363-0.146-0.741-0.227-1.126-0.227c-0.857,0-1.671,0.369-2.237,1.018
		l-0.704,0.805c-0.226,0.264-0.545,0.408-0.894,0.408c-0.342,0-0.654-0.139-0.879-0.393l-0.72-0.799
		c-0.559-0.625-1.364-0.988-2.207-0.988c-0.407,0-0.8,0.08-1.17,0.24l-0.988,0.42c-0.152,0.066-0.305,0.094-0.465,0.094
		c-0.522,0-0.987-0.348-1.133-0.848l-0.298-1.031c-0.356-1.221-1.445-2.078-2.717-2.137l-1.074-0.043
		C8.613,31.47,8.301,31.32,8.09,31.05c-0.219-0.27-0.305-0.604-0.247-0.938l0.182-1.061c0.212-1.256-0.399-2.498-1.525-3.102
		l-0.944-0.51c-0.305-0.158-0.516-0.436-0.596-0.768c-0.079-0.336-0.014-0.676,0.189-0.953l0.617-0.879
		c0.733-1.037,0.727-2.424-0.029-3.456l-0.632-0.864c-0.203-0.276-0.276-0.617-0.196-0.952c0.073-0.335,0.283-0.61,0.582-0.777
		l0.937-0.522c1.111-0.617,1.706-1.874,1.474-3.123l-0.188-1.047c-0.065-0.341,0.022-0.675,0.233-0.944
		c0.211-0.268,0.516-0.429,0.863-0.45l1.068-0.065c1.271-0.072,2.346-0.943,2.688-2.172l0.283-1.038
		c0.138-0.516,0.61-0.872,1.141-0.872c0.152,0,0.305,0.029,0.45,0.088l0.995,0.406c0.363,0.146,0.741,0.225,1.126,0.225
		c0.857,0,1.671-0.369,2.237-1.017l0.704-0.807c0.226-0.262,0.545-0.405,0.894-0.405c0.342,0,0.654,0.137,0.879,0.392l0.72,0.799
		c0.559,0.625,1.365,0.988,2.208,0.988c0.406,0,0.799-0.08,1.169-0.239l0.988-0.423c0.152-0.065,0.305-0.094,0.464-0.094
		c0.523,0,0.988,0.349,1.134,0.85l0.298,1.032c0.355,1.219,1.445,2.077,2.717,2.135l1.074,0.044
		c0.342,0.015,0.654,0.168,0.872,0.436c0.218,0.27,0.305,0.604,0.247,0.938l-0.182,1.06c-0.211,1.257,0.399,2.5,1.525,3.103
		l0.944,0.508c0.305,0.159,0.516,0.436,0.596,0.771c0.08,0.334,0.014,0.676-0.182,0.951l-0.618,0.879
		c-0.732,1.039-0.726,2.427,0.029,3.456l0.632,0.865C36.084,23.771,36.156,24.113,36.084,24.447L36.084,24.447z M36.084,24.447"/>
	<path fill="#373636" d="M23.075,18.128L19.182,22l-1.264-1.271c-0.349-0.349-0.908-0.349-1.257,0s-0.349,0.907-0.008,1.257
		l1.896,1.902c0.167,0.168,0.393,0.262,0.632,0.262c0.232,0,0.458-0.094,0.625-0.262l4.524-4.495c0.35-0.35,0.35-0.909,0.008-1.257
		C23.99,17.788,23.424,17.788,23.075,18.128L23.075,18.128z M23.075,18.128"/>
</g>
</svg>
