<?xml version="1.0" encoding="utf-8"?>
<!-- Generator: Adobe Illustrator 16.0.0, SVG Export Plug-In . SVG Version: 6.00 Build 0)  -->
<!DOCTYPE svg PUBLIC "-//W3C//DTD SVG 1.1//EN" "http://www.w3.org/Graphics/SVG/1.1/DTD/svg11.dtd">
<svg version="1.1" id="Layer_1" xmlns="http://www.w3.org/2000/svg" xmlns:xlink="http://www.w3.org/1999/xlink" x="0px" y="0px"
	 width="18.25px" height="20px" viewBox="0 0 18.25 20" enable-background="new 0 0 18.25 20" xml:space="preserve">
<path fill="#F6EC2E" d="M16.882,9.031l-3.254,3.102l0.768,4.381c0.056,0.315-0.078,0.634-0.343,0.823
	c-0.149,0.106-0.327,0.161-0.505,0.161c-0.137,0-0.274-0.032-0.4-0.097l-4.022-2.068L5.103,17.4
	c-0.29,0.149-0.641,0.124-0.906-0.063C3.933,17.148,3.8,16.83,3.854,16.514l0.769-4.38L1.369,9.031
	C1.134,8.808,1.051,8.474,1.15,8.169c0.102-0.305,0.37-0.526,0.694-0.572l4.497-0.64l2.013-3.985
	c0.144-0.288,0.443-0.469,0.771-0.469c0.328,0,0.626,0.181,0.771,0.469l2.013,3.986l4.497,0.64c0.324,0.045,0.594,0.268,0.693,0.572
	C17.2,8.473,17.115,8.808,16.882,9.031z"/>
</svg>
