<?xml version="1.0" encoding="utf-8"?>
<!-- Generator: Adobe Illustrator 16.0.0, SVG Export Plug-In . SVG Version: 6.00 Build 0)  -->
<!DOCTYPE svg PUBLIC "-//W3C//DTD SVG 1.1//EN" "http://www.w3.org/Graphics/SVG/1.1/DTD/svg11.dtd">
<svg version="1.1" id="Layer_1" xmlns="http://www.w3.org/2000/svg" xmlns:xlink="http://www.w3.org/1999/xlink" x="0px" y="0px"
	 width="41px" height="42.03px" viewBox="0 0 41 42.03" enable-background="new 0 0 41 42.03" xml:space="preserve">
<g>
	<path fill="#373636" d="M21.284,6.835c0,0.871-0.706,1.578-1.578,1.578c-0.871,0-1.578-0.707-1.578-1.578s0.707-1.578,1.578-1.578
		C20.578,5.257,21.284,5.964,21.284,6.835L21.284,6.835z M21.284,6.835"/>
	<path fill="#373636" d="M29.647,6.835c0,0.871-0.706,1.578-1.578,1.578c-0.871,0-1.578-0.707-1.578-1.578s0.707-1.578,1.578-1.578
		C28.941,5.257,29.647,5.964,29.647,6.835L29.647,6.835z M29.647,6.835"/>
	<path fill="#373636" d="M32.772,8.271c-0.803-1.389-2.239-2.217-3.843-2.217v1.564c1.038,0,1.968,0.537,2.486,1.436
		c0.52,0.898,0.52,1.973,0,2.871l-5.027,8.709c-0.52,0.899-1.448,1.437-2.486,1.437s-1.968-0.537-2.488-1.437l-5.027-8.709
		c-0.519-0.898-0.519-1.973,0-2.871c0.52-0.898,1.448-1.436,2.486-1.436V6.054c-1.604,0-3.039,0.828-3.842,2.217
		c-0.802,1.389-0.802,3.047,0,4.436l5.028,8.71c0.669,1.158,1.779,1.926,3.061,2.148v4.201c0,4.102-2.423,7.439-5.4,7.439
		c-2.977,0-5.399-3.338-5.399-7.439v-5.002c1.783-0.363,3.129-1.944,3.129-3.831c0-2.158-1.754-3.914-3.911-3.914
		s-3.911,1.756-3.911,3.914c0,1.887,1.346,3.468,3.129,3.831v5.002c0,4.965,3.123,9.006,6.964,9.006s6.965-4.041,6.965-9.006v-4.201
		c1.279-0.223,2.391-0.99,3.06-2.148l5.028-8.71C33.574,11.318,33.574,9.66,32.772,8.271L32.772,8.271z M32.772,8.271"/>
</g>
</svg>
