<?xml version="1.0" encoding="utf-8"?>
<!-- Generator: Adobe Illustrator 16.0.0, SVG Export Plug-In . SVG Version: 6.00 Build 0)  -->
<!DOCTYPE svg PUBLIC "-//W3C//DTD SVG 1.1//EN" "http://www.w3.org/Graphics/SVG/1.1/DTD/svg11.dtd">
<svg version="1.1" id="Layer_1" xmlns="http://www.w3.org/2000/svg" xmlns:xlink="http://www.w3.org/1999/xlink" x="0px" y="0px"
	 width="41px" height="42.03px" viewBox="0 0 41 42.03" enable-background="new 0 0 41 42.03" xml:space="preserve">
<g>
	<g>
		<path fill="#373636" d="M36.143,14.394c-1.793-4.182-4.838-7.223-9.053-9.021c-2.105-0.898-4.313-1.357-6.617-1.357
			c-2.306,0-4.496,0.455-6.6,1.357c-4.18,1.794-7.238,4.833-9.035,9.021C3.938,16.492,3.5,18.69,3.5,20.997s0.438,4.521,1.338,6.622
			c1.797,4.188,4.856,7.246,9.035,9.039c2.104,0.902,4.294,1.357,6.6,1.357c2.305,0,4.512-0.459,6.617-1.357
			c4.214-1.799,7.26-4.857,9.053-9.039c0.902-2.106,1.357-4.315,1.357-6.622S37.046,16.5,36.143,14.394z M33.43,28.511
			c-1.335,2.291-3.164,4.107-5.466,5.449c-2.288,1.336-4.796,2.01-7.491,2.01c-2.026,0-3.959-0.391-5.801-1.191
			c-1.84-0.799-3.43-1.85-4.758-3.18c-1.33-1.33-2.389-2.936-3.18-4.781c-0.788-1.839-1.17-3.794-1.17-5.821
			c0-2.697,0.662-5.193,1.988-7.478C8.885,11.228,10.713,9.41,13,8.07c2.285-1.339,4.777-2.009,7.473-2.009s5.202,0.674,7.49,2.009
			c2.303,1.344,4.127,3.162,5.466,5.449c1.339,2.288,2.007,4.78,2.007,7.478C35.436,23.692,34.771,26.207,33.43,28.511z
			 M21.551,20.847v-9.635c0-0.576-0.502-1.041-1.078-1.041c-0.539,0-1.023,0.465-1.023,1.041v9.784c0,0.019,0.037,0.092,0.037,0.148
			c-0.037,0.334,0.057,0.613,0.279,0.836l5.559,5.563c0.372,0.371,1.06,0.371,1.432,0c0.428-0.428,0.398-1.049,0-1.451
			L21.551,20.847z"/>
	</g>
</g>
</svg>
