<?xml version="1.0" encoding="utf-8"?>
<!-- Generator: Adobe Illustrator 16.0.0, SVG Export Plug-In . SVG Version: 6.00 Build 0)  -->
<!DOCTYPE svg PUBLIC "-//W3C//DTD SVG 1.1//EN" "http://www.w3.org/Graphics/SVG/1.1/DTD/svg11.dtd">
<svg version="1.1" id="Layer_1" xmlns="http://www.w3.org/2000/svg" xmlns:xlink="http://www.w3.org/1999/xlink" x="0px" y="0px"
	 width="41px" height="42.03px" viewBox="0 0 41 42.03" enable-background="new 0 0 41 42.03" xml:space="preserve">
<path fill="#06B2AD" d="M20.5,3.515c-9.665,0-17.5,7.835-17.5,17.5s7.835,17.499,17.5,17.499S38,30.68,38,21.015
	S30.165,3.515,20.5,3.515z M29.064,18.546l-8.947,8.101c-0.22,0.199-0.475,0.332-0.743,0.402c-0.231,0.104-0.479,0.156-0.728,0.156
	c-0.442,0-0.886-0.162-1.232-0.492l-5.51-5.228c-0.717-0.682-0.746-1.815-0.065-2.532c0.681-0.718,1.813-0.747,2.531-0.066
	l4.386,4.163l7.905-7.158c0.733-0.664,1.865-0.607,2.528,0.125C29.854,16.75,29.797,17.883,29.064,18.546z"/>
</svg>
