<?xml version="1.0" encoding="utf-8"?>
<!-- Generator: Adobe Illustrator 14.0.0, SVG Export Plug-In . SVG Version: 6.00 Build 43363)  -->
<!DOCTYPE svg PUBLIC "-//W3C//DTD SVG 1.1//EN" "http://www.w3.org/Graphics/SVG/1.1/DTD/svg11.dtd">
<svg version="1.1" id="Layer_1" xmlns="http://www.w3.org/2000/svg" xmlns:xlink="http://www.w3.org/1999/xlink" x="0px" y="0px"
	 width="24.555px" height="26.018px" viewBox="0 0 24.555 26.018" enable-background="new 0 0 24.555 26.018" xml:space="preserve">
<g>
	<path fill="#474747" d="M11.535,12.044h1.484v1.484h-1.484V12.044z"/>
	<path fill="#474747" d="M19.551,4.993H18.66V3.509h-1.484v1.484H7.379V3.509H5.895v1.484H5.004c-1.228,0-2.227,0.999-2.227,2.227
		v13.063c0,1.228,0.999,2.227,2.227,2.227h4.936h0.111h2.589c-0.513-0.424-0.96-0.924-1.324-1.484h-1.265H9.939H5.004
		c-0.409,0-0.742-0.333-0.742-0.742v-9.797h16.031v1.484v0.074v0.004c0.56,0.363,1.061,0.811,1.484,1.323v-1.327V11.97V7.22
		C21.777,5.992,20.778,4.993,19.551,4.993z M20.293,9.001H4.262V7.22c0-0.409,0.333-0.742,0.742-0.742h0.891v1.484h1.484V6.478
		h9.797v1.484h1.484V6.478h0.891c0.409,0,0.742,0.333,0.742,0.742V9.001z"/>
	<path fill="#474747" d="M16.768,12.489c-2.762,0-5.01,2.248-5.01,5.01s2.248,5.01,5.01,5.01s5.01-2.248,5.01-5.01
		S19.53,12.489,16.768,12.489z M16.768,21.024c-1.944,0-3.525-1.582-3.525-3.525s1.582-3.525,3.525-3.525s3.525,1.582,3.525,3.525
		S18.711,21.024,16.768,21.024z"/>
	<path fill="#474747" d="M17.473,15.013h-1.484v3.229h2.746v-1.484h-1.262V15.013z"/>
	<path fill="#474747" d="M8.566,15.013h1.484v1.484H8.566V15.013z"/>
	<path fill="#474747" d="M5.598,15.013h1.484v1.484H5.598V15.013z"/>
	<path fill="#474747" d="M5.598,12.044h1.484v1.484H5.598V12.044z"/>
	<path fill="#474747" d="M5.598,17.981h1.484v1.484H5.598V17.981z"/>
	<path fill="#474747" d="M8.566,12.044h1.484v1.484H8.566V12.044z"/>
	<path fill="#474747" d="M8.566,17.981h1.484v1.484H8.566V17.981z"/>
</g>
</svg>
