<?xml version="1.0" encoding="utf-8"?>
<!-- Generator: Adobe Illustrator 14.0.0, SVG Export Plug-In . SVG Version: 6.00 Build 43363)  -->
<!DOCTYPE svg PUBLIC "-//W3C//DTD SVG 1.1//EN" "http://www.w3.org/Graphics/SVG/1.1/DTD/svg11.dtd">
<svg version="1.1" id="Layer_1" xmlns="http://www.w3.org/2000/svg" xmlns:xlink="http://www.w3.org/1999/xlink" x="0px" y="0px"
	 width="24.555px" height="26.018px" viewBox="0 0 24.555 26.018" enable-background="new 0 0 24.555 26.018" xml:space="preserve">
<g>
	<path fill="#474747" d="M20.558,23.768l-2.929-6.456c-0.059-0.128-0.16-0.228-0.281-0.281l-1.457-0.675l2.525-4.409
		c0.006-0.011,0.012-0.021,0.017-0.033c0.502-1.02,0.756-2.123,0.756-3.278c0-1.942-0.73-3.762-2.058-5.127
		c-1.328-1.363-3.086-2.101-4.951-2.073C10.368,1.462,8.662,2.22,7.376,3.571c-1.286,1.35-2,3.133-2.01,5.021
		c-0.007,1.154,0.255,2.302,0.756,3.322c0.005,0.011,0.011,0.022,0.017,0.033l2.525,4.409l-1.466,0.679
		c-0.12,0.055-0.217,0.154-0.272,0.277l-2.929,6.456C3.899,23.983,3.94,24.24,4.101,24.41c0.16,0.172,0.406,0.221,0.615,0.123
		l3.669-1.702l3.669,1.702c0.142,0.066,0.304,0.066,0.445,0l3.669-1.702l3.669,1.702c0.072,0.034,0.148,0.049,0.223,0.049
		c0.145,0,0.287-0.059,0.392-0.172C20.614,24.24,20.656,23.983,20.558,23.768z M7.091,11.376c-0.422-0.864-0.634-1.799-0.628-2.778
		c0.018-3.274,2.59-5.975,5.732-6.02c1.569-0.022,3.049,0.597,4.166,1.743c1.117,1.148,1.731,2.68,1.731,4.314
		c0,0.966-0.211,1.887-0.628,2.741l-4.716,8.236c-0.144,0.251-0.377,0.279-0.471,0.279s-0.327-0.027-0.471-0.279L7.091,11.376z
		 M16.393,21.685c-0.142-0.067-0.304-0.067-0.446,0l-3.669,1.702l-3.669-1.702c-0.142-0.067-0.304-0.067-0.446,0L5.62,22.864
		l2.21-4.872l1.4-0.649l1.635,2.854c0.299,0.524,0.828,0.836,1.413,0.836c0.584,0,1.113-0.312,1.413-0.836l1.634-2.854l1.4,0.649
		l2.21,4.872L16.393,21.685z"/>
	<path fill="#474747" d="M12.277,6.029c-1.379,0-2.502,1.169-2.502,2.606c0,1.438,1.123,2.608,2.502,2.608
		c1.38,0,2.502-1.17,2.502-2.608C14.779,7.198,13.657,6.029,12.277,6.029z M12.277,10.1c-0.775,0-1.406-0.656-1.406-1.465
		c0-0.806,0.631-1.464,1.406-1.464c0.775,0,1.406,0.658,1.406,1.464C13.683,9.443,13.053,10.1,12.277,10.1z"/>
</g>
</svg>
