<?xml version="1.0" encoding="iso-8859-1"?>
<!-- Generator: Adobe Illustrator 19.0.0, SVG Export Plug-In . SVG Version: 6.00 Build 0)  -->
<svg version="1.1" id="Capa_1" xmlns="http://www.w3.org/2000/svg" xmlns:xlink="http://www.w3.org/1999/xlink" x="0px" y="0px"
	 viewBox="0 0 509.867 509.867" style="enable-background:new 0 0 509.867 509.867;" xml:space="preserve">
<g>
	<g>
		<path d="M272,6.4c-8.533-8.533-23.467-8.533-32,0C220.8,27.733,62.933,219.733,62.933,317.867c0,106.667,85.333,192,192,192
			s192-85.333,192-192C446.933,219.733,289.067,27.733,272,6.4z M254.933,467.2c-83.2,0-149.333-66.133-149.333-149.333
			c0-64,96-198.4,149.333-264.533c53.333,66.133,149.333,200.533,149.333,264.533C404.267,401.067,338.133,467.2,254.933,467.2z"/>
	</g>
</g>
<g>
	<g>
		<path fill="#39bebc" d="M254.933,275.2c-36.267,0-64,27.733-64,64c0,36.267,27.733,64,64,64s64-27.733,64-64
			C318.933,302.933,291.2,275.2,254.933,275.2z M254.933,360.533c-12.8,0-21.333-8.533-21.333-21.333
			c0-12.8,8.533-21.333,21.333-21.333c12.8,0,21.333,8.533,21.333,21.333C276.267,352,267.733,360.533,254.933,360.533z"/>
	</g>
</g>
<g>
	<g>
		<circle fill="#39bebc" cx="169.6" cy="296.533" r="21.333"/>
	</g>
</g>
<g>
	<g>
		<circle fill="#39bebc" cx="212.267" cy="253.867" r="21.333"/>
	</g>
</g>
<g>
	<g>
		<circle fill="#39bebc" cx="297.6" cy="253.867" r="21.333"/>
	</g>
</g>
<g>
	<g>
		<circle fill="#39bebc" cx="340.267" cy="296.533" r="21.333"/>
	</g>
</g>
<g>
</g>
<g>
</g>
<g>
</g>
<g>
</g>
<g>
</g>
<g>
</g>
<g>
</g>
<g>
</g>
<g>
</g>
<g>
</g>
<g>
</g>
<g>
</g>
<g>
</g>
<g>
</g>
<g>
</g>
</svg>
