<?xml version="1.0" encoding="iso-8859-1"?>
<!-- Generator: Adobe Illustrator 19.0.0, SVG Export Plug-In . SVG Version: 6.00 Build 0)  -->
<svg version="1.1" id="Layer_1" xmlns="http://www.w3.org/2000/svg" xmlns:xlink="http://www.w3.org/1999/xlink" x="0px" y="0px"
	 viewBox="0 0 512.002 512.002" style="enable-background:new 0 0 512.002 512.002;" xml:space="preserve">
<path d="M231.448,318.626c-7.428,0-13.45-6.023-13.45-13.45v-83.15c0-20.612-16.769-37.381-37.381-37.381
	c-7.428,0-13.45-6.023-13.45-13.45s6.021-13.45,13.45-13.45c35.444,0,64.28,28.835,64.28,64.28v83.15
	C244.897,312.604,238.876,318.626,231.448,318.626z"/>
<path style="fill:#ffffff;" d="M13.45,171.196c0,61.504,48.393,111.362,108.09,111.362s11.973-78.628,11.973-111.362
	c0-28.684,47.724-111.362-11.973-111.362S13.45,109.692,13.45,171.196z"/>
<g>
	<path style="fill:#39bebc;" d="M121.539,296.007C54.522,296.007,0,240.018,0,171.196S54.522,46.384,121.539,46.384
		c16.201,0,28.201,5.096,35.665,15.147c14.998,20.199,5.342,52.157-3.175,80.354c-3.474,11.497-7.065,23.385-7.065,29.311
		c0,7.469,3.874,20.407,7.619,32.919c8.077,26.979,17.23,57.557,2.839,76.886C150.007,290.958,137.935,296.007,121.539,296.007z
		 M121.539,73.283c-52.185,0-94.64,43.924-94.64,97.912s42.455,97.912,94.64,97.912c5.108,0,11.738-0.724,14.304-4.171
		c6.324-8.493-1.714-35.342-7.033-53.109c-4.499-15.029-8.748-29.225-8.748-40.633c0-9.9,3.806-22.5,8.214-37.09
		c5.678-18.797,14.261-47.203,7.33-56.538C132.978,74.027,126.506,73.283,121.539,73.283z"/>
	<path d="M280.551,318.626c-7.428,0-13.45-6.023-13.45-13.45v-83.15c0-35.445,28.836-64.28,64.28-64.28
		c7.428,0,13.45,6.023,13.45,13.45s-6.021,13.45-13.45,13.45c-20.612,0-37.381,16.769-37.381,37.381v83.15
		C294.001,312.604,287.979,318.626,280.551,318.626z"/>
</g>
<path style="fill:#ffffff;" d="M498.55,171.196c0,61.504-48.393,111.362-108.09,111.362s-11.973-78.628-11.973-111.362
	c0-28.684-47.724-111.362,11.973-111.362S498.55,109.692,498.55,171.196z"/>
<g>
	<path style="fill:#39bebc;" d="M390.461,296.007c-16.395,0-28.468-5.049-35.881-15.006c-14.391-19.33-5.237-49.908,2.839-76.886
		c3.746-12.512,7.619-25.451,7.619-32.919c0-5.926-3.591-17.814-7.065-29.311c-8.518-28.197-18.175-60.156-3.175-80.354
		c7.462-10.051,19.462-15.147,35.665-15.147c67.017,0,121.539,55.99,121.539,124.812S457.478,296.007,390.461,296.007z
		 M390.461,73.283c-4.967,0-11.439,0.744-14.067,4.284c-6.931,9.335,1.652,37.743,7.33,56.538c4.407,14.59,8.214,27.19,8.214,37.09
		c0,11.408-4.25,25.604-8.748,40.633c-5.319,17.767-13.356,44.615-7.033,53.109c2.566,3.447,9.196,4.171,14.304,4.171
		c52.185,0,94.64-43.923,94.64-97.912S442.645,73.283,390.461,73.283z"/>
	<path d="M274.914,465.617h-37.83c-12.809,0-23.397-9.697-24.808-22.134
		c-35.543-13.031-56.434-42.107-56.434-79.455c0-27.308,10.824-47.34,32.173-59.539c16.154-9.229,38.391-13.716,67.983-13.716
		s51.83,4.487,67.983,13.716c21.349,12.198,32.173,32.231,32.173,59.539c0,37.35-20.89,66.424-56.434,79.455
		C298.311,455.921,287.724,465.617,274.914,465.617z M239.017,438.718h33.966v-5.14c0-6.099,4.105-11.435,10-12.999
		c17.281-4.586,46.274-18.032,46.274-56.551c0-22.922-8.703-46.356-73.256-46.356s-73.256,23.433-73.256,46.356
		c0,38.519,28.992,51.964,46.274,56.551c5.895,1.564,10,6.9,10,12.999v5.14H239.017z"/>
</g>
<g>
</g>
<g>
</g>
<g>
</g>
<g>
</g>
<g>
</g>
<g>
</g>
<g>
</g>
<g>
</g>
<g>
</g>
<g>
</g>
<g>
</g>
<g>
</g>
<g>
</g>
<g>
</g>
<g>
</g>
</svg>
