<?xml version="1.0" encoding="iso-8859-1"?>
<!-- Generator: Adobe Illustrator 19.0.0, SVG Export Plug-In . SVG Version: 6.00 Build 0)  -->
<svg version="1.1" id="Capa_1" xmlns="http://www.w3.org/2000/svg" xmlns:xlink="http://www.w3.org/1999/xlink" x="0px" y="0px"
	 viewBox="0 0 512 512" style="enable-background:new 0 0 512 512;" xml:space="preserve">
<g>
	<g>
		<path d="M361.256,88.5V57.82H327.95c-3.011-13.796-9.944-26.448-20.216-36.588C293.864,7.54,275.491,0,256,0
			c-19.492,0-37.864,7.54-51.734,21.232c-10.271,10.14-17.205,22.792-20.216,36.588h-33.307V88.5H81V512h350V88.5H361.256z
			 M180.743,87.821h31.4l0.21-14.787C212.69,49.305,232.27,30,256,30s43.31,19.305,43.647,43.034l0.21,14.787h31.4v29.513H180.743
			V87.821z M401,482H111V118.5h39.743v28.833h210.513V118.5H401V482z"/>
	</g>
</g>
<g>
	<g>
		<polygon fill="#39bebc" points="336.632,212.85 242.158,297.877 211,256.333 156.333,297.333 174.333,321.333 205,298.333 237.842,342.122 
			356.701,235.149 		"/>
	</g>
</g>
<g>
	<g>
		<rect fill="#39bebc" x="241" y="390.33" width="30" height="30"/>
	</g>
</g>
<g>
	<g>
		<rect fill="#39bebc" x="300.67" y="390.33" width="30" height="30"/>
	</g>
</g>
<g>
	<g>
		<rect fill="#39bebc" x="181.33" y="390.33" width="30" height="30"/>
	</g>
</g>
<g>
</g>
<g>
</g>
<g>
</g>
<g>
</g>
<g>
</g>
<g>
</g>
<g>
</g>
<g>
</g>
<g>
</g>
<g>
</g>
<g>
</g>
<g>
</g>
<g>
</g>
<g>
</g>
<g>
</g>
</svg>
