<?xml version="1.0" encoding="iso-8859-1"?>
<!-- Generator: Adobe Illustrator 19.0.0, SVG Export Plug-In . SVG Version: 6.00 Build 0)  -->
<svg version="1.1" id="Capa_1" xmlns="http://www.w3.org/2000/svg" xmlns:xlink="http://www.w3.org/1999/xlink" x="0px" y="0px"
	 viewBox="0 0 191.147 191.147" style="enable-background:new 0 0 191.147 191.147;" xml:space="preserve">
<g>
	<g>
		<path d="M172.306,40.958H18.841c-6.625,0-12.015,5.39-12.015,12.015v98.852c0,6.625,5.39,12.015,12.015,12.015h5.052v23.893
			c0,1.456,0.923,2.751,2.299,3.227c0.365,0.125,0.742,0.186,1.114,0.186c1.027,0,2.024-0.464,2.685-1.306l20.431-26.001h121.885
			c6.625,0,12.015-5.39,12.015-12.015V52.973C184.321,46.348,178.931,40.958,172.306,40.958z M177.494,151.827
			c0,2.862-2.328,5.188-5.188,5.188H48.762c-1.048,0-2.038,0.483-2.685,1.306l-15.358,19.546v-17.439
			c0-1.884-1.529-3.413-3.413-3.413h-8.465c-2.86,0-5.188-2.326-5.188-5.188V52.975c0-2.86,2.328-5.188,5.188-5.188h153.465
			c2.86,0,5.188,2.328,5.188,5.188V151.827z"/>
	</g>
</g>
<g>
	<g>
		<path fill="#39bebc" d="M98.986,0c-1.884,0-3.413,1.529-3.413,3.413v23.893c0,1.884,1.529,3.413,3.413,3.413s3.413-1.529,3.413-3.413V3.413
			C102.399,1.529,100.87,0,98.986,0z"/>
	</g>
</g>
<g>
	<g>
		<path fill="#39bebc" d="M142.166,0.823c-1.432-1.227-3.586-1.06-4.813,0.37l-20.48,23.893c-1.227,1.432-1.06,3.586,0.37,4.813
			c0.645,0.551,1.435,0.821,2.22,0.821c0.961,0,1.918-0.404,2.592-1.191l20.48-23.893C143.764,4.203,143.596,2.05,142.166,0.823z"/>
	</g>
</g>
<g>
	<g>
		<path  fill="#39bebc" d="M81.097,25.086L60.617,1.193c-1.225-1.432-3.381-1.597-4.813-0.37c-1.432,1.225-1.597,3.381-0.37,4.813l20.48,23.893
			c0.676,0.787,1.633,1.191,2.594,1.191c0.785,0,1.575-0.27,2.219-0.821C82.158,28.674,82.324,26.518,81.097,25.086z"/>
	</g>
</g>
<g>
	<g>
		<polygon points="89.495,59.506 89.495,74.58 90.15,78.961 89.946,78.961 87.776,74.58 76.922,59.302 72.828,59.302 72.828,88.178 
			78.151,88.178 78.151,73.228 77.495,68.721 77.7,68.721 79.953,73.228 90.724,88.383 94.82,88.383 94.82,59.506 		"/>
	</g>
</g>
<g>
	<g>
		<path fill="#39bebc" d="M122.427,67.739c-0.492-1.831-1.242-3.4-2.253-4.712c-1.009-1.309-2.28-2.319-3.809-3.029
			c-1.529-0.71-3.318-1.065-5.366-1.065c-3.905,0-6.907,1.29-9.011,3.871c-2.104,2.581-3.154,6.26-3.154,11.039
			c0,2.239,0.246,4.273,0.736,6.103c0.492,1.83,1.236,3.4,2.234,4.71c0.997,1.311,2.26,2.321,3.789,3.031s3.331,1.065,5.407,1.065
			c3.878,0,6.876-1.29,8.991-3.871c2.116-2.582,3.174-6.26,3.174-11.04C123.164,71.603,122.918,69.567,122.427,67.739z
			 M115.628,81.422c-1.092,1.557-2.635,2.335-4.629,2.335c-1.092,0-2.034-0.247-2.826-0.739c-0.792-0.49-1.44-1.173-1.946-2.046
			c-0.507-0.876-0.881-1.918-1.126-3.133c-0.246-1.215-0.369-2.546-0.369-3.995c0-3.413,0.546-5.919,1.638-7.513
			c1.092-1.597,2.635-2.396,4.628-2.396c1.147,0,2.115,0.253,2.908,0.758c0.792,0.505,1.434,1.208,1.925,2.108
			c0.492,0.903,0.853,1.954,1.085,3.156c0.232,1.202,0.348,2.499,0.348,3.89C117.266,77.339,116.72,79.865,115.628,81.422z"/>
	</g>
</g>
<g>
	<g>
		<polygon points="84.727,113.655 84.727,108.658 67.728,108.658 67.728,137.33 73.338,137.33 73.338,125.739 83.826,125.739 
			83.826,120.742 73.338,120.742 73.338,113.655 		"/>
	</g>
</g>
<g>
	<g>
		<path fill="#39bebc" d="M100.536,108.453h-4.137L86.077,137.33h5.612l2.169-6.349h8.806l2.295,6.349h5.898L100.536,108.453z M95.293,126.474
			l2.089-6.349l0.86-4.547h0.205l0.86,4.507l2.13,6.388H95.293z"/>
	</g>
</g>
<g>
	<g>
		<polygon points="108.113,108.658 108.113,113.655 116.51,113.655 116.51,137.33 122.121,137.33 122.121,113.655 130.477,113.655 
			130.477,113.655 130.477,108.658 		"/>
	</g>
</g>
<g>
</g>
<g>
</g>
<g>
</g>
<g>
</g>
<g>
</g>
<g>
</g>
<g>
</g>
<g>
</g>
<g>
</g>
<g>
</g>
<g>
</g>
<g>
</g>
<g>
</g>
<g>
</g>
<g>
</g>
</svg>
