<?xml version="1.0" encoding="iso-8859-1"?>
<!-- Generator: Adobe Illustrator 19.0.0, SVG Export Plug-In . SVG Version: 6.00 Build 0)  -->
<svg version="1.1" id="Capa_1" xmlns="http://www.w3.org/2000/svg" xmlns:xlink="http://www.w3.org/1999/xlink" x="0px" y="0px"
	 viewBox="0 0 512 512" style="enable-background:new 0 0 512 512;" xml:space="preserve">
<g>
	<g>
		<rect fill="#39bebc" x="211" width="90" height="30"/>
	</g>
</g>
<g>
	<g>
		<rect x="151" y="271" width="210" height="70"/>
	</g>
</g>
<g>
	<g>
		<path fill="#39bebc" d="M301,121.507V90h15V60H196v30h15v31.507c-34.191,6.97-60,37.274-60,73.493v46h210v-46
			C361,158.781,335.19,128.477,301,121.507z"/>
	</g>
</g>
<g>
	<g>
		<path d="M151,371v101c0,22.056,17.944,40,40,40h10c22.056,0,40-17.944,40-40c0-5.514,4.486-10,10-10h10c5.514,0,10,4.486,10,10
			c0,22.056,17.944,40,40,40h10c22.056,0,40-17.944,40-40V371H151z"/>
	</g>
</g>
<g>
</g>
<g>
</g>
<g>
</g>
<g>
</g>
<g>
</g>
<g>
</g>
<g>
</g>
<g>
</g>
<g>
</g>
<g>
</g>
<g>
</g>
<g>
</g>
<g>
</g>
<g>
</g>
<g>
</g>
</svg>
