<?xml version="1.0" encoding="utf-8"?>
<!-- Generator: Adobe Illustrator 16.0.0, SVG Export Plug-In . SVG Version: 6.00 Build 0)  -->
<!DOCTYPE svg PUBLIC "-//W3C//DTD SVG 1.1//EN" "http://www.w3.org/Graphics/SVG/1.1/DTD/svg11.dtd">
<svg version="1.1" id="Layer_1" xmlns="http://www.w3.org/2000/svg" xmlns:xlink="http://www.w3.org/1999/xlink" x="0px" y="0px"
	 width="52px" height="46px" viewBox="0 0 52 46" enable-background="new 0 0 52 46" xml:space="preserve">
<g>
	<g>
		<path fill="#FFFFFF" d="M22.281,26.2h8.959c-1.337,4.327-5.312,7.466-10.008,7.466c-5.793,0-10.488-4.775-10.488-10.666
			s4.696-10.666,10.488-10.666c2.917,0,5.556,1.211,7.457,3.166l3.553-3.928C29.404,8.744,25.519,7,21.232,7
			C12.544,7,5.5,14.164,5.5,23s7.044,16,15.732,16c7.611,0,14.274-5.497,15.732-12.8v-4.979H22.281V26.2z M43.496,21.213v-3.055
			h-2.574v3.055h-3.003v2.618h3.003v3.054h2.574v-3.054H46.5v-2.618H43.496z"/>
	</g>
</g>
</svg>
