<?xml version="1.0" encoding="utf-8"?>
<!-- Generator: Adobe Illustrator 14.0.0, SVG Export Plug-In . SVG Version: 6.00 Build 43363)  -->
<!DOCTYPE svg PUBLIC "-//W3C//DTD SVG 1.1//EN" "http://www.w3.org/Graphics/SVG/1.1/DTD/svg11.dtd">
<svg version="1.1" id="Layer_1" xmlns="http://www.w3.org/2000/svg" xmlns:xlink="http://www.w3.org/1999/xlink" x="0px" y="0px"
	 width="34.668px" height="34.5px" viewBox="0 0 34.668 34.5" enable-background="new 0 0 34.668 34.5" xml:space="preserve">
<g>
	<g>
		<path fill="#393939" d="M23.811,2.158H11.189c-1.217,0-2.207,0.995-2.207,2.216v25.752c0,1.221,0.99,2.217,2.207,2.217h12.621
			c1.217,0,2.207-0.996,2.207-2.217V4.374C26.018,3.153,25.027,2.158,23.811,2.158z M25.016,30.126c0,0.666-0.541,1.209-1.205,1.209
			H11.189c-0.664,0-1.205-0.543-1.205-1.209v-3.82h15.031V30.126z M25.016,25.298H9.984V6.182h15.031V25.298z M25.016,5.176H9.984
			V4.374c0-0.667,0.541-1.21,1.205-1.21h12.621c0.664,0,1.205,0.543,1.205,1.21V5.176z M17.5,30.833
			c1.105,0,2.004-0.902,2.004-2.012c0-1.111-0.898-2.014-2.004-2.014s-2.004,0.902-2.004,2.014
			C15.496,29.931,16.395,30.833,17.5,30.833z M17.5,27.813c0.553,0,1.002,0.451,1.002,1.008c0,0.555-0.449,1.006-1.002,1.006
			s-1.002-0.451-1.002-1.006C16.498,28.265,16.947,27.813,17.5,27.813z M17.5,3.667h-2.004c-0.277,0-0.502,0.225-0.502,0.503
			s0.225,0.503,0.502,0.503H17.5c0.277,0,0.502-0.225,0.502-0.503S17.777,3.667,17.5,3.667z M19.504,3.667h-0.5
			c-0.277,0-0.502,0.225-0.502,0.503s0.225,0.503,0.502,0.503h0.5c0.277,0,0.502-0.225,0.502-0.503S19.781,3.667,19.504,3.667z
			 M30.834,4.457c-0.195-0.197-0.512-0.197-0.709,0c-0.195,0.196-0.195,0.515,0,0.711c1.873,1.88,1.873,4.938,0,6.818
			c-0.195,0.196-0.195,0.513,0,0.71c0.1,0.098,0.227,0.148,0.355,0.148s0.256-0.051,0.354-0.148
			C33.098,10.425,33.098,6.728,30.834,4.457z M28.725,5.601c-0.195-0.196-0.514-0.196-0.709,0c-0.195,0.197-0.195,0.515,0,0.712
			c0.621,0.622,0.961,1.451,0.961,2.333c0,0.883-0.34,1.711-0.961,2.334c-0.195,0.196-0.195,0.514,0,0.711
			c0.098,0.098,0.227,0.147,0.355,0.147c0.127,0,0.256-0.05,0.354-0.147c0.809-0.813,1.254-1.894,1.254-3.045
			C29.979,7.496,29.533,6.414,28.725,5.601z M4.875,5.167c0.195-0.196,0.195-0.515,0-0.711c-0.197-0.197-0.513-0.197-0.709,0
			c-2.263,2.271-2.263,5.969,0,8.24c0.098,0.098,0.226,0.148,0.354,0.148c0.129,0,0.256-0.051,0.355-0.148
			c0.195-0.197,0.195-0.514,0-0.71C3.002,10.106,3.002,7.047,4.875,5.167z M6.984,5.462c-0.195-0.196-0.514-0.196-0.709,0
			C5.467,6.275,5.021,7.356,5.021,8.507c0,1.15,0.445,2.232,1.254,3.045c0.098,0.098,0.227,0.146,0.354,0.146
			c0.129,0,0.258-0.049,0.355-0.146c0.195-0.197,0.195-0.515,0-0.711c-0.621-0.623-0.961-1.452-0.961-2.334
			c0-0.883,0.34-1.711,0.961-2.333C7.18,5.978,7.18,5.66,6.984,5.462z"/>
	</g>
</g>
</svg>
