<?xml version="1.0" encoding="utf-8"?>
<!-- Generator: Adobe Illustrator 16.0.0, SVG Export Plug-In . SVG Version: 6.00 Build 0)  -->
<!DOCTYPE svg PUBLIC "-//W3C//DTD SVG 1.1//EN" "http://www.w3.org/Graphics/SVG/1.1/DTD/svg11.dtd">
<svg version="1.1" id="Layer_1" xmlns="http://www.w3.org/2000/svg" xmlns:xlink="http://www.w3.org/1999/xlink" x="0px" y="0px"
	 width="88px" height="83.297px" viewBox="0 0 88 83.297" enable-background="new 0 0 88 83.297" xml:space="preserve">
<path fill-rule="evenodd" clip-rule="evenodd" fill="#4FC2C1" d="M44,2.648c21.539,0,39,17.461,39,39s-17.461,39-39,39
	s-39-17.461-39-39S22.461,2.648,44,2.648z"/>
<path fill="#FFFFFF" d="M62.487,27.889c-0.265-1.49-0.93-2.877-1.922-4.009c-0.002-0.002-0.004-0.005-0.006-0.007
	c-0.508-0.588-1.351-1.396-2.476-1.908l-0.025-0.012c-1.087-0.534-2.252-0.805-3.465-0.805c-1.794,0-3.49,0.593-4.906,1.716
	c-0.001,0.001-0.008,0.006-0.01,0.008c-1.217,0.974-2.021,2.365-2.12,2.543l0,0c-0.004,0.008-0.009,0.016-0.013,0.023
	c-0.639,1.2-0.977,2.56-0.977,3.933c0,0.285,0.015,0.574,0.043,0.858c0.027,0.266,0.182,0.499,0.413,0.622
	c0.146,0.079,0.299,0.145,0.456,0.195c0.625,1.961,1.991,3.529,3.727,4.411c-0.744,0.39-1.413,0.904-1.99,1.534
	c-0.294,0.32-0.279,0.824,0.033,1.125s0.804,0.286,1.098-0.034c0.278-0.303,0.582-0.572,0.91-0.805
	c0.47,1.365,1.682,2.365,3.061,2.365h0.116c1.381,0,2.592-1.072,3.035-2.522c1.641,1.054,2.69,2.931,2.69,4.939v8.269l-7.066,4.698
	c-0.36,0.239-0.462,0.731-0.229,1.101c0.149,0.234,0.398,0.362,0.652,0.362c0.145,0,0.292-0.041,0.422-0.128l7.42-4.934
	c0.221-0.146,0.354-0.397,0.354-0.667v-8.701c0-2.819-1.536-5.346-3.963-6.606c2.298-1.176,3.924-3.548,4.083-6.312
	c0.219-0.204,0.41-0.443,0.563-0.712C62.488,28.267,62.521,28.074,62.487,27.889z M54.434,38.052h-0.116
	c-0.93,0-1.715-0.924-1.715-2.017c0-0.014,0-0.027-0.001-0.041c0.603,0.162,1.232,0.248,1.878,0.248
	c0.552,0,1.091-0.063,1.609-0.183C56.029,37.136,55.281,38.052,54.434,38.052z M54.48,34.65c-2.342,0-4.419-1.43-5.33-3.573
	c1.079-0.313,1.904-1.25,2.078-2.405c0.463,0.062,0.933,0.092,1.404,0.092c1.58,0,3.103-0.339,4.466-0.989
	c0.352,1.236,1.467,2.143,2.786,2.143c0.096,0,0.191-0.005,0.286-0.015C59.623,32.606,57.272,34.65,54.48,34.65z M59.885,28.325
	c-0.743,0-1.347-0.619-1.347-1.38v-0.443c0-0.29-0.154-0.557-0.401-0.696c-0.248-0.141-0.55-0.132-0.789,0.022
	c-1.367,0.879-2.998,1.344-4.715,1.344c-0.671,0-1.339-0.072-1.983-0.216c-0.229-0.051-0.469,0.008-0.652,0.158
	c-0.183,0.151-0.289,0.379-0.289,0.62v0.482c0,0.761-0.604,1.38-1.347,1.38c-0.051,0-0.101-0.003-0.151-0.008
	c-0.011-0.002-0.023-0.004-0.035-0.005c-0.017-0.002-0.035-0.005-0.052-0.008c-0.002-0.068-0.003-0.137-0.003-0.205
	c0-1.104,0.271-2.197,0.782-3.162c0.002-0.004,0.004-0.008,0.006-0.011c0.006-0.012,0.708-1.259,1.723-2.07
	c0.002-0.002,0.005-0.004,0.005-0.005c1.141-0.904,2.509-1.383,3.956-1.383c0.979,0,1.918,0.219,2.793,0.648
	c0.015,0.007,0.038,0.018,0.067,0.031c0.864,0.393,1.527,1.029,1.934,1.498c0.004,0.006,0.009,0.011,0.014,0.016
	c0.733,0.834,1.246,1.838,1.493,2.921C60.64,28.149,60.272,28.325,59.885,28.325z M47.863,48.691
	c1.761-1.062,2.945-3.023,2.945-5.264c0-1.008-0.24-1.959-0.664-2.798c-0.015-0.035-0.033-0.069-0.052-0.101
	c-1.008-1.906-2.979-3.203-5.239-3.203c-2.261,0-4.232,1.297-5.24,3.204c-0.019,0.031-0.036,0.063-0.051,0.098
	c-0.425,0.839-0.665,1.792-0.665,2.8c0,2.24,1.184,4.201,2.943,5.263c-2.178,1.154-3.558,3.444-3.558,5.979v2.903
	c0,0.272,0.136,0.525,0.359,0.672l5.793,3.779c0.127,0.083,0.272,0.124,0.417,0.124c0.144,0,0.288-0.041,0.415-0.123l5.807-3.76
	c0.227-0.146,0.363-0.402,0.362-0.676l-0.014-2.924C51.411,52.125,50.033,49.843,47.863,48.691z M44.853,38.918
	c1.352,0,2.563,0.628,3.372,1.614C47.178,40.84,46.029,41,44.853,41c-1.177,0-2.325-0.16-3.372-0.468
	C42.289,39.546,43.5,38.918,44.853,38.918z M40.451,43.428c0-0.517,0.085-1.014,0.242-1.478c1.282,0.421,2.705,0.642,4.16,0.642
	c1.455,0,2.877-0.221,4.159-0.642c0.157,0.464,0.243,0.961,0.243,1.478c0,2.487-1.975,4.511-4.402,4.511
	S40.451,45.915,40.451,43.428z M46.231,49.365c-0.097,0.753-0.742,1.262-1.325,1.262h-0.094c-0.618,0-1.304-0.535-1.393-1.275
	c0.459,0.116,0.939,0.179,1.433,0.179C45.327,49.53,45.789,49.473,46.231,49.365z M44.854,60.41l-5.018-3.273V54.67
	c0-1.75,0.863-3.349,2.26-4.29c0.485,1.135,1.629,1.839,2.716,1.839h0.094c1.172,0,2.209-0.781,2.657-1.867
	c1.417,0.936,2.298,2.547,2.306,4.322l0.012,2.482L44.854,60.41z M39.274,39.043c0.227-0.373,0.114-0.864-0.25-1.097
	c-0.236-0.15-0.482-0.287-0.733-0.408c0.96-0.503,1.809-1.224,2.483-2.124c0.277,0.099,0.576,0.152,0.886,0.152
	c1.493,0,2.708-1.245,2.708-2.774v-1.979c0-2.515-0.938-4.896-2.64-6.705c-1.697-1.805-3.976-2.853-6.417-2.952h0
	c-0.212-0.008-0.41-0.01-0.604-0.005c-2.429,0.06-4.721,1.067-6.453,2.837c-1.775,1.813-2.753,4.238-2.753,6.826v1.978
	c0,1.53,1.214,2.774,2.708,2.774c0.31,0,0.608-0.054,0.885-0.152c0.743,0.992,1.698,1.766,2.78,2.271
	c-2.397,1.292-3.88,3.792-3.88,6.562v6.516c0,0.27,0.133,0.521,0.354,0.667l7.048,4.687c0.13,0.086,0.277,0.128,0.422,0.128
	c0.254,0,0.504-0.128,0.653-0.363c0.233-0.368,0.131-0.861-0.229-1.101l-6.694-4.45v-6.083c0-1.842,0.837-3.533,2.239-4.625
	c0.481,1.431,1.716,2.505,3.081,2.505h0.116c1.483,0,2.667-1.376,3.083-2.912c0.046,0.027,0.092,0.056,0.138,0.085
	C38.568,39.531,39.047,39.416,39.274,39.043z M30.129,27.921c-0.502,0.874-0.768,1.874-0.768,2.894v1.978
	c0,0.377-0.173,0.714-0.443,0.931c-0.023,0.015-0.045,0.031-0.066,0.049c-0.184,0.128-0.406,0.203-0.645,0.203
	c-0.636,0-1.154-0.53-1.154-1.183v-1.979c0-4.419,3.378-7.964,7.69-8.071c0.161-0.004,0.327-0.002,0.506,0.005
	c4.241,0.173,7.563,3.716,7.563,8.066v1.979c0,0.651-0.518,1.183-1.154,1.183c-0.239,0-0.461-0.075-0.645-0.203
	c-0.021-0.018-0.043-0.034-0.066-0.049c-0.27-0.217-0.443-0.554-0.443-0.931v-1.979c0-2.81-2.042-5.237-4.751-5.647
	c-0.213-0.032-0.43,0.027-0.598,0.165c-0.168,0.138-0.273,0.34-0.29,0.561c-0.042,0.556-0.141,1.104-0.293,1.637h-3.774
	C30.523,27.528,30.269,27.678,30.129,27.921z M34.983,40.534h-0.116c-0.878,0-1.74-1.093-1.74-2.206
	c0-0.068-0.009-0.136-0.025-0.201c0.59,0.154,1.205,0.234,1.833,0.234c0.594,0,1.177-0.072,1.738-0.21
	C36.619,39.309,35.764,40.534,34.983,40.534z M34.934,36.769c-1.811,0-3.482-0.845-4.58-2.287c0.352-0.468,0.562-1.055,0.562-1.689
	v-1.979c0-0.586,0.122-1.163,0.354-1.692h3.863c0.325,0,0.616-0.208,0.729-0.521c0.194-0.538,0.341-1.094,0.438-1.659
	c1.556,0.58,2.652,2.124,2.652,3.872v1.979c0,0.635,0.209,1.222,0.562,1.689C38.416,35.925,36.744,36.769,34.934,36.769z"/>
</svg>
