<?xml version="1.0" encoding="utf-8"?>
<!-- Generator: Adobe Illustrator 16.0.0, SVG Export Plug-In . SVG Version: 6.00 Build 0)  -->
<!DOCTYPE svg PUBLIC "-//W3C//DTD SVG 1.1//EN" "http://www.w3.org/Graphics/SVG/1.1/DTD/svg11.dtd">
<svg version="1.1" id="Layer_1" xmlns="http://www.w3.org/2000/svg" xmlns:xlink="http://www.w3.org/1999/xlink" x="0px" y="0px"
	 width="36.455px" height="41.392px" viewBox="0 0 36.455 41.392" enable-background="new 0 0 36.455 41.392" xml:space="preserve">
<g>
	<path fill-rule="evenodd" clip-rule="evenodd" fill="#FFFFFF" d="M18.228,4.196c9.113,0,16.5,7.388,16.5,16.5
		c0,9.113-7.387,16.5-16.5,16.5s-16.5-7.387-16.5-16.5C1.728,11.583,9.115,4.196,18.228,4.196z"/>
	<g>
		<g>
			<path fill="#62C8D0" d="M23.465,22.848c-0.369-0.384-0.815-0.589-1.287-0.589c-0.469,0-0.918,0.201-1.302,0.585l-1.203,1.197
				c-0.099-0.053-0.198-0.103-0.293-0.152c-0.137-0.068-0.267-0.133-0.377-0.202c-1.127-0.715-2.151-1.646-3.133-2.852
				c-0.476-0.601-0.796-1.106-1.028-1.619c0.313-0.285,0.602-0.582,0.884-0.867c0.106-0.106,0.213-0.216,0.32-0.323
				c0.799-0.798,0.799-1.833,0-2.631l-1.04-1.038c-0.118-0.118-0.24-0.24-0.354-0.361c-0.228-0.235-0.468-0.479-0.716-0.707
				c-0.369-0.365-0.811-0.559-1.275-0.559c-0.464,0-0.914,0.194-1.294,0.559c-0.004,0.004-0.004,0.004-0.007,0.008l-1.295,1.304
				c-0.487,0.487-0.765,1.08-0.826,1.768c-0.091,1.11,0.236,2.144,0.487,2.821c0.617,1.662,1.539,3.201,2.913,4.851
				c1.667,1.988,3.674,3.559,5.966,4.665c0.875,0.415,2.044,0.905,3.35,0.988c0.08,0.004,0.164,0.008,0.24,0.008
				c0.879,0,1.618-0.315,2.197-0.943c0.004-0.008,0.011-0.011,0.015-0.019c0.198-0.239,0.426-0.456,0.667-0.688
				c0.164-0.156,0.331-0.319,0.495-0.491c0.377-0.392,0.575-0.848,0.575-1.315c0-0.471-0.202-0.924-0.586-1.304L23.465,22.848z
				 M24.828,26.851c-0.148,0.16-0.301,0.304-0.465,0.464c-0.247,0.236-0.499,0.483-0.735,0.761c-0.384,0.41-0.837,0.604-1.432,0.604
				c-0.057,0-0.118,0-0.175-0.004c-1.131-0.072-2.182-0.514-2.97-0.89c-2.155-1.042-4.047-2.521-5.62-4.395
				c-1.298-1.563-2.167-3.007-2.741-4.559c-0.354-0.946-0.483-1.684-0.426-2.38c0.038-0.445,0.209-0.813,0.525-1.129l1.298-1.296
				c0.187-0.175,0.384-0.27,0.579-0.27c0.24,0,0.434,0.145,0.556,0.266c0.004,0.004,0.008,0.007,0.012,0.011
				c0.232,0.217,0.453,0.441,0.685,0.681c0.118,0.122,0.24,0.243,0.362,0.369l1.04,1.038c0.404,0.403,0.404,0.775,0,1.179
				c-0.11,0.11-0.217,0.22-0.328,0.327c-0.32,0.327-0.625,0.631-0.956,0.928c-0.008,0.007-0.015,0.011-0.019,0.019
				c-0.327,0.327-0.267,0.646-0.198,0.863c0.003,0.012,0.007,0.023,0.011,0.034c0.271,0.654,0.651,1.27,1.23,2.004l0.004,0.003
				c1.051,1.293,2.159,2.3,3.381,3.072c0.156,0.099,0.316,0.179,0.468,0.254c0.137,0.069,0.267,0.133,0.377,0.202
				c0.015,0.008,0.03,0.019,0.045,0.026c0.13,0.065,0.251,0.095,0.377,0.095c0.316,0,0.514-0.198,0.579-0.262l1.302-1.3
				c0.13-0.129,0.335-0.285,0.575-0.285c0.236,0,0.43,0.148,0.548,0.278c0.004,0.003,0.004,0.003,0.007,0.007l2.098,2.095
				C25.216,26.049,25.216,26.448,24.828,26.851z M21.584,17.335c0.724,0.722,1.192,1.627,1.363,2.623
				c0.042,0.251,0.259,0.426,0.506,0.426c0.03,0,0.057-0.004,0.087-0.007c0.282-0.046,0.468-0.312,0.423-0.593
				c-0.206-1.205-0.777-2.304-1.649-3.175c-0.872-0.871-1.972-1.44-3.179-1.646c-0.282-0.045-0.544,0.141-0.594,0.418
				c-0.05,0.278,0.133,0.548,0.415,0.593C19.955,16.142,20.86,16.613,21.584,17.335z M24.512,14.408
				c-1.439-1.437-3.248-2.372-5.235-2.71c-0.278-0.049-0.541,0.141-0.59,0.418c-0.045,0.281,0.141,0.543,0.423,0.593
				c1.774,0.3,3.392,1.141,4.679,2.422c1.287,1.285,2.125,2.9,2.425,4.672c0.042,0.251,0.259,0.426,0.506,0.426
				c0.03,0,0.057-0.004,0.087-0.008c0.278-0.042,0.469-0.308,0.419-0.585C26.888,17.651,25.951,15.845,24.512,14.408z"/>
		</g>
	</g>
</g>
</svg>
