<?xml version="1.0" encoding="utf-8"?>
<!-- Generator: Adobe Illustrator 16.0.0, SVG Export Plug-In . SVG Version: 6.00 Build 0)  -->
<!DOCTYPE svg PUBLIC "-//W3C//DTD SVG 1.1//EN" "http://www.w3.org/Graphics/SVG/1.1/DTD/svg11.dtd">
<svg version="1.1" id="Layer_1" xmlns="http://www.w3.org/2000/svg" xmlns:xlink="http://www.w3.org/1999/xlink" x="0px" y="0px"
	 width="50.298px" height="57.784px" viewBox="0 0 50.298 57.784" enable-background="new 0 0 50.298 57.784" xml:space="preserve">
<path fill="#FFFFFF" d="M39.947,14.092c-2.927-2.935-7.687-2.935-10.613,0L9.875,33.546c-0.152,0.152-0.246,0.348-0.275,0.558
	l-1.441,10.68c-0.043,0.304,0.065,0.608,0.275,0.818c0.181,0.181,0.435,0.29,0.688,0.29c0.043,0,0.087,0,0.13-0.007l6.434-0.869
	c0.536-0.073,0.912-0.565,0.84-1.102s-0.564-0.913-1.101-0.84l-5.158,0.695l1.007-7.448l7.839,7.84
	c0.181,0.181,0.435,0.29,0.688,0.29c0.254,0,0.508-0.102,0.688-0.29l19.459-19.454c1.42-1.42,2.202-3.304,2.202-5.311
	C42.149,17.389,41.367,15.505,39.947,14.092z M29.711,16.483l3.267,3.268L15.222,37.51l-3.268-3.268L29.711,16.483z M19.808,42.089
	l-3.195-3.195l17.757-17.759l3.194,3.195L19.808,42.089z M38.926,22.932l-7.817-7.818c0.993-0.819,2.231-1.268,3.536-1.268
	c1.484,0,2.876,0.58,3.926,1.623c1.051,1.043,1.623,2.442,1.623,3.927C40.193,20.708,39.744,21.939,38.926,22.932z"/>
</svg>
