<?xml version="1.0" encoding="utf-8"?>
<!-- Generator: Adobe Illustrator 16.0.0, SVG Export Plug-In . SVG Version: 6.00 Build 0)  -->
<!DOCTYPE svg PUBLIC "-//W3C//DTD SVG 1.1//EN" "http://www.w3.org/Graphics/SVG/1.1/DTD/svg11.dtd">
<svg version="1.1" id="Layer_1" xmlns="http://www.w3.org/2000/svg" xmlns:xlink="http://www.w3.org/1999/xlink" x="0px" y="0px"
	 width="53px" height="52.797px" viewBox="0 0 53 52.797" enable-background="new 0 0 53 52.797" xml:space="preserve">
<path fill="#62C8D0" d="M47.682,14.445h-7.91c-4.93,0-9.284,2.464-11.953,6.257v-3.753c3.005-0.612,5.273-3.275,5.273-6.459
	c0-3.635-2.957-6.592-6.592-6.592s-6.592,2.957-6.592,6.592c0,3.184,2.268,5.847,5.273,6.459v3.753
	c-2.67-3.794-7.025-6.257-11.953-6.257h-7.91C4.59,14.445,4,15.036,4,15.764c0,2.152,1.037,4.066,2.637,5.27
	c0,0.001,0,0.002,0,0.003c0,2.152,1.037,4.066,2.637,5.271c0,0.001,0,0.002,0,0.003c0,3.644,2.947,6.671,6.592,6.671h1.799
	c-0.257,0.572-0.393,1.203-0.393,1.843c0,1.89,1.204,3.561,2.997,4.158l2.063,0.688l-2.063,0.688
	c-1.792,0.598-2.997,2.269-2.997,4.158c0,2.417,1.966,4.383,4.383,4.383c0.728,0,1.318-0.59,1.318-1.318s-0.59-1.318-1.318-1.318
	c-0.963,0-1.746-0.783-1.746-1.746c0-0.753,0.48-1.419,1.194-1.657l4.08-1.36v6.081c0,0.728,0.59,1.318,1.318,1.318
	c0.729,0,1.318-0.59,1.318-1.318v-6.081l4.079,1.36c0.715,0.238,1.194,0.904,1.194,1.657c0,0.963-0.783,1.746-1.746,1.746
	c-0.729,0-1.318,0.59-1.318,1.318s0.59,1.318,1.318,1.318c2.417,0,4.383-1.966,4.383-4.383c0-1.89-1.204-3.561-2.997-4.158
	l-2.063-0.688l2.063-0.688c1.793-0.598,2.997-2.269,2.997-4.158c0-0.64-0.136-1.262-0.393-1.834h1.799
	c1.761,0,3.42-0.705,4.672-1.985c1.238-1.267,1.92-2.934,1.92-4.694c0-0.001,0-0.002,0-0.003c1.601-1.204,2.637-3.119,2.637-5.271
	c0-0.001,0-0.002,0-0.003C47.964,19.83,49,17.916,49,15.764C49,15.036,48.41,14.445,47.682,14.445z M25.182,37.841l-4.08-1.36
	c-0.714-0.238-1.194-0.904-1.194-1.657c0-0.994,0.8-1.834,1.746-1.834c1.228,0,2.262,0,3.527,0V37.841L25.182,37.841z
	 M25.182,30.354c-2.911,0-6.418,0-9.316,0c-1.695,0-3.182-1.157-3.73-2.725c1.482,0,5.138,0,6.455,0c0.728,0,1.318-0.59,1.318-1.318
	s-0.59-1.318-1.318-1.318h-5.361c-1.719,0-3.185-1.102-3.729-2.637c0.96,0,5.459,0,6.366,0c0.728,0,1.318-0.59,1.318-1.318
	s-0.59-1.318-1.318-1.318h-5.273c-1.719,0-3.185-1.102-3.729-2.637h6.366c6.591,0,11.953,5.362,11.953,11.953V30.354z M26.5,14.445
	c-2.181,0-3.955-1.774-3.955-3.955s1.774-3.955,3.955-3.955s3.955,1.774,3.955,3.955S28.681,14.445,26.5,14.445z M31.897,36.481
	l-4.079,1.36V32.99c1.264,0,2.297,0,3.527,0c0.946,0,1.746,0.84,1.746,1.834C33.092,35.577,32.612,36.243,31.897,36.481z
	 M42.408,19.719h-5.273c-0.729,0-1.318,0.59-1.318,1.318s0.59,1.31,1.318,1.31c0.906,0,5.402,0,6.366,0
	c-0.545,1.535-2.011,2.646-3.729,2.646H34.41c-0.729,0-1.318,0.59-1.318,1.318s0.59,1.31,1.318,1.31c1.315,0,4.972,0,6.455,0
	c-0.549,1.567-2.035,2.733-3.73,2.733c-2.912,0-6.41,0-9.316,0v-1.318c0-6.591,5.362-11.962,11.953-11.962h6.366
	C45.593,18.608,44.127,19.719,42.408,19.719z"/>
</svg>
