<?xml version="1.0" encoding="utf-8"?>
<!-- Generator: Adobe Illustrator 16.0.0, SVG Export Plug-In . SVG Version: 6.00 Build 0)  -->
<!DOCTYPE svg PUBLIC "-//W3C//DTD SVG 1.1//EN" "http://www.w3.org/Graphics/SVG/1.1/DTD/svg11.dtd">
<svg version="1.1" id="Layer_1" xmlns="http://www.w3.org/2000/svg" xmlns:xlink="http://www.w3.org/1999/xlink" x="0px" y="0px"
	 width="36.455px" height="41.392px" viewBox="0 0 36.455 41.392" enable-background="new 0 0 36.455 41.392" xml:space="preserve">
<g>
	<path fill-rule="evenodd" clip-rule="evenodd" fill="#FFFFFF" d="M18.224,4.192c9.113,0,16.5,7.388,16.5,16.5
		c0,9.113-7.387,16.5-16.5,16.5s-16.5-7.387-16.5-16.5C1.724,11.58,9.111,4.192,18.224,4.192z"/>
</g>
<g>
	<g>
		<path fill="#62C8D0" d="M25.408,13.696H11.051c-1.281,0-2.323,1.009-2.323,2.25v9.501c0,1.241,1.042,2.25,2.323,2.25h14.353
			c1.282,0,2.324-1.009,2.324-2.25v-9.497C27.731,14.708,26.689,13.696,25.408,13.696z M25.408,26.668H11.051
			c-0.696,0-1.262-0.548-1.262-1.222v-9.497c0-0.674,0.566-1.222,1.262-1.222h14.353c0.696,0,1.262,0.548,1.262,1.222v9.497h0.004
			C26.67,26.12,26.104,26.668,25.408,26.668z M20.707,20.575l4.647-4.035c0.216-0.19,0.236-0.514,0.039-0.727
			c-0.197-0.209-0.531-0.229-0.751-0.038l-6.408,5.569l-1.25-1.081c-0.004-0.004-0.008-0.008-0.008-0.011
			c-0.027-0.027-0.055-0.05-0.086-0.072l-5.087-4.408c-0.22-0.19-0.554-0.171-0.751,0.042c-0.196,0.213-0.177,0.537,0.043,0.727
			l4.702,4.069l-4.682,4.244c-0.212,0.194-0.224,0.518-0.023,0.727c0.106,0.107,0.248,0.164,0.389,0.164
			c0.13,0,0.259-0.046,0.362-0.137l4.753-4.305l1.289,1.115c0.103,0.088,0.228,0.129,0.354,0.129s0.255-0.045,0.354-0.133
			l1.325-1.149l4.725,4.347c0.103,0.095,0.236,0.141,0.366,0.141c0.142,0,0.279-0.053,0.385-0.16
			c0.201-0.206,0.193-0.533-0.02-0.727L20.707,20.575z"/>
	</g>
</g>
</svg>
