<?xml version="1.0" encoding="utf-8"?>
<!-- Generator: Adobe Illustrator 16.0.0, SVG Export Plug-In . SVG Version: 6.00 Build 0)  -->
<!DOCTYPE svg PUBLIC "-//W3C//DTD SVG 1.1//EN" "http://www.w3.org/Graphics/SVG/1.1/DTD/svg11.dtd">
<svg version="1.1" id="Layer_1" xmlns="http://www.w3.org/2000/svg" xmlns:xlink="http://www.w3.org/1999/xlink" x="0px" y="0px"
	 width="88px" height="83.297px" viewBox="0 0 88 83.297" enable-background="new 0 0 88 83.297" xml:space="preserve">
<path fill-rule="evenodd" clip-rule="evenodd" fill="#4FC2C1" d="M44,2.648c21.539,0,39,17.461,39,39s-17.461,39-39,39
	s-39-17.461-39-39S22.461,2.648,44,2.648z"/>
<g>
	<g>
		<path fill="#FFFFFF" d="M60.075,49.084v-1.342c0-3.36-2.762-6.094-6.156-6.094s-6.156,2.733-6.156,6.094v6.094
			c0,2.688-2.208,4.875-4.924,4.875c-2.716,0-5.007-2.187-5.007-4.875v-0.213c1.181-0.417,2.168-1.411,2.448-2.641
			c-1.171,0.268-2.457,0.416-3.679,0.416c-1.233,0-2.432-0.138-3.589-0.389c0.287,1.216,1.186,2.2,2.357,2.614v0.212
			c0,4.032,3.396,7.313,7.469,7.313s7.387-3.28,7.387-7.313v-6.094c0-2.017,1.657-3.656,3.693-3.656s3.694,1.64,3.694,3.656v1.342
			c-2.807,0.566-4.925,3.028-4.925,5.971c0,3.36,2.762,6.094,6.156,6.094S65,58.415,65,55.055C65,52.112,62.881,49.65,60.075,49.084
			z M58.844,56.273c-0.68,0-1.231-0.546-1.231-1.219s0.551-1.219,1.231-1.219c0.68,0,1.231,0.546,1.231,1.219
			S59.523,56.273,58.844,56.273z M50.103,33.653c-0.116-0.986-1.026-1.856-2.158-1.96c-0.85-2.026-2.186-3.757-3.875-5.007v-3.319
			c0-0.674-0.551-1.219-1.231-1.219c-0.681,0-1.231,0.545-1.231,1.219v7.313c0,0.674,0.551,1.219,1.231,1.219
			c0.68,0,1.231-0.545,1.231-1.219v-0.678c0.676,0.786,1.227,1.69,1.637,2.688c-0.207,0.316-0.367,0.682-0.406,1.158
			c-0.074,0.73,0.074,1.413,0,1.706c0,4.704-3.948,8.531-8.7,8.531c-4.432,0-8.306-3.364-8.675-7.8
			c-0.024-0.488-0.024-2.268-0.024-2.755c-0.076-0.317-0.223-0.594-0.406-0.842c0.411-0.997,0.961-1.902,1.637-2.688v0.678
			c0,0.674,0.551,1.219,1.231,1.219c0.681,0,1.231-0.545,1.231-1.219v-7.313c0-0.674-0.551-1.219-1.231-1.219
			c-0.68,0-1.231,0.545-1.231,1.219v3.319c-1.688,1.249-3.023,2.979-3.873,5.003c-1.122,0.092-2.043,0.971-2.16,1.964
			c-0.936,8.044,4.908,15.308,13.501,15.308C44.283,48.961,51.137,42.526,50.103,33.653z"/>
	</g>
</g>
</svg>
