<?xml version="1.0" encoding="utf-8"?>
<!-- Generator: Adobe Illustrator 16.0.0, SVG Export Plug-In . SVG Version: 6.00 Build 0)  -->
<!DOCTYPE svg PUBLIC "-//W3C//DTD SVG 1.1//EN" "http://www.w3.org/Graphics/SVG/1.1/DTD/svg11.dtd">
<svg version="1.1" id="Layer_1" xmlns="http://www.w3.org/2000/svg" xmlns:xlink="http://www.w3.org/1999/xlink" x="0px" y="0px"
	 width="53px" height="52.797px" viewBox="0 0 53 52.797" enable-background="new 0 0 53 52.797" xml:space="preserve">
<g>
	<g>
		<path fill="#62C8D0" d="M39.582,10.117c-3.61-3.479-8.347-5.217-13.082-5.217c-4.733,0-9.473,1.738-13.082,5.217
			c-7.225,6.956-7.225,18.232,0,25.189L26.5,47.897l13.082-12.596C46.807,28.349,46.807,17.07,39.582,10.117z M36.34,32.077
			l-9.84,9.471l-9.837-9.475c-2.602-2.504-4.036-5.829-4.036-9.366c0-3.538,1.435-6.863,4.036-9.372
			c2.624-2.519,6.121-3.909,9.837-3.909c3.722,0,7.215,1.39,9.837,3.915c2.604,2.505,4.038,5.837,4.038,9.37
			C40.375,26.244,38.941,29.569,36.34,32.077z M26.5,15.082c-2.072,0-4.145,0.773-5.724,2.317c-3.16,3.094-3.16,8.111,0,11.206
			c1.582,1.547,3.649,2.316,5.724,2.316c2.073,0,4.144-0.773,5.723-2.316c3.159-3.095,3.159-8.112,0-11.206
			C30.644,15.853,28.573,15.082,26.5,15.082z M30.588,27.005c-1.094,1.068-2.543,1.653-4.088,1.653s-2.994-0.588-4.089-1.653
			c-2.257-2.21-2.257-5.799,0-8.006c1.095-1.066,2.546-1.654,4.089-1.654c1.545,0,2.997,0.588,4.088,1.654
			C32.846,21.208,32.846,24.797,30.588,27.005z"/>
	</g>
</g>
</svg>
