<?xml version="1.0" encoding="utf-8"?>
<!-- Generator: Adobe Illustrator 16.0.0, SVG Export Plug-In . SVG Version: 6.00 Build 0)  -->
<!DOCTYPE svg PUBLIC "-//W3C//DTD SVG 1.1//EN" "http://www.w3.org/Graphics/SVG/1.1/DTD/svg11.dtd">
<svg version="1.1" id="Layer_1" xmlns="http://www.w3.org/2000/svg" xmlns:xlink="http://www.w3.org/1999/xlink" x="0px" y="0px"
	 width="53px" height="52.797px" viewBox="0 0 53 52.797" enable-background="new 0 0 53 52.797" xml:space="preserve">
<g>
	<g>
		<path fill="#62C8D0" d="M26.278,31.801c0.187,0.268,0.483,0.411,0.783,0.411c0.191,0,0.384-0.059,0.552-0.179
			c0.433-0.31,0.535-0.917,0.229-1.355c-0.949-1.362-2.473-2.195-4.107-2.258c-0.035-0.004-0.069-0.006-0.105-0.006
			c-2.079,0-3.796-1.595-4.03-3.641c0.598-0.442,1.15-1.004,1.64-1.677c0.99-1.359,1.632-3.059,1.871-4.896
			c0.073-0.081,0.134-0.175,0.178-0.281c0.419-1.013,0.632-2.094,0.632-3.213c0-4.306-3.208-7.809-7.15-7.809
			c-1.02,0-2.009,0.235-2.944,0.699c-0.35,0.029-0.692,0.094-1.021,0.19c-3.296,0.966-5.159,5.011-4.153,9.016
			c0.101,0.402,0.23,0.799,0.383,1.178c0.042,0.104,0.1,0.194,0.169,0.273c0.38,2.828,1.699,5.182,3.503,6.513
			c-0.232,2.05-1.951,3.646-4.031,3.646c-0.032,0-0.064,0.002-0.095,0.005C5.763,28.52,3.5,30.877,3.5,33.762v5.758
			c0,0.537,0.429,0.973,0.958,0.973h16.931c0.529,0,0.958-0.436,0.958-0.973s-0.429-0.973-0.958-0.973H5.417v-4.785
			c0-1.877,1.504-3.403,3.354-3.403c0.032,0,0.063-0.002,0.095-0.005c0.69-0.021,1.351-0.163,1.964-0.403l4.537,6.645
			c0.179,0.263,0.473,0.419,0.788,0.419s0.609-0.156,0.788-0.419l4.537-6.645c0.613,0.24,1.273,0.382,1.964,0.403
			c0.031,0.003,0.063,0.005,0.095,0.005C24.625,30.358,25.649,30.897,26.278,31.801z M13.337,9.656
			c0.251-0.074,0.517-0.118,0.79-0.13c0.141-0.007,0.278-0.045,0.403-0.111c0.712-0.38,1.465-0.572,2.24-0.572
			c2.828,0,5.137,2.525,5.229,5.668c-0.576-0.442-1.293-0.705-2.07-0.705h-5.011c-0.25,0-0.486-0.079-0.685-0.229
			c-0.17-0.129-0.301-0.302-0.379-0.5c-0.181-0.457-0.629-0.743-1.113-0.712c-0.486,0.032-0.896,0.375-1.019,0.854
			c-0.244,0.953-0.701,1.841-1.321,2.595C9.904,12.992,11.156,10.296,13.337,9.656z M11.09,17.892
			c0.837-0.778,1.514-1.722,1.987-2.765c0.003,0.003,0.006,0.005,0.01,0.008c0.533,0.403,1.166,0.616,1.832,0.616h5.011
			c0.602,0,1.122,0.357,1.369,0.873c-0.006,2.021-0.573,3.907-1.6,5.317c-0.968,1.329-2.227,2.062-3.545,2.062
			c-1.22,0-2.408-0.64-3.345-1.802C11.899,21.074,11.297,19.558,11.09,17.892z M16.153,34.334l-3.667-5.372
			c0.984-0.828,1.701-1.971,2.004-3.273c0.534,0.169,1.091,0.26,1.663,0.26c0.569,0,1.126-0.088,1.664-0.257
			c0.303,1.302,1.02,2.442,2.003,3.271L16.153,34.334z M44.418,33.825c-0.031-0.003-0.063-0.005-0.095-0.005
			c-2.082,0-3.801-1.599-4.031-3.649c1.173-0.867,2.141-2.167,2.779-3.749c0.091,0.304,0.325,0.548,0.632,0.645
			c0.093,0.029,0.189,0.044,0.284,0.044c0.291,0,0.571-0.135,0.756-0.375c1.337-1.743,2.032-4.011,1.957-6.387
			c-0.074-2.33-0.881-4.519-2.273-6.16c-1.426-1.681-3.308-2.616-5.302-2.636c-0.106-0.005-0.369,0.005-0.411,0.008
			c-1.024-0.472-2.107-0.692-3.222-0.656c-2.302,0.074-4.42,1.239-5.963,3.279c-1.5,1.981-2.278,4.567-2.192,7.28
			c0.014,0.46,0.05,0.883,0.108,1.286c0.156,1.155,0.47,2.263,0.933,3.29c0.147,0.327,0.46,0.545,0.814,0.566
			c0.353,0.022,0.69-0.156,0.875-0.463c0.077-0.128,0.176-0.287,0.286-0.444c0.427,1.317,1.08,2.501,1.909,3.436
			c0.354,0.398,0.736,0.745,1.138,1.04c-0.232,2.049-1.951,3.646-4.031,3.646c-0.032,0-0.064,0.002-0.095,0.005
			c-2.819,0.102-5.082,2.459-5.082,5.344v5.757c0,0.537,0.429,0.973,0.958,0.973h23.391c0.529,0,0.958-0.436,0.958-0.973v-5.757
			C49.5,36.284,47.237,33.927,44.418,33.825z M29.565,23.629c-0.095-0.375-0.169-0.759-0.222-1.151
			c-0.049-0.338-0.078-0.69-0.09-1.076c-0.071-2.265,0.567-4.407,1.797-6.034c1.187-1.568,2.786-2.463,4.503-2.52
			c0.058-0.001,1.293-0.072,2.554,0.573c0.141,0.071,0.303,0.105,0.461,0.101c0.018-0.001,0.51-0.024,0.524-0.024
			c1.439,0.01,2.818,0.706,3.881,1.961c1.108,1.306,1.751,3.065,1.811,4.953c0.032,1.025-0.11,2.022-0.41,2.939
			c-0.091-0.245-0.192-0.486-0.303-0.724c-0.925-1.997-2.483-3.545-4.386-4.356c-0.241-0.104-0.513-0.102-0.752,0.004
			c-0.24,0.105-0.427,0.306-0.518,0.555c-0.127,0.35-0.282,0.69-0.459,1.013c-0.502,0.91-1.513,1.452-2.638,1.412
			c-0.169-0.006-0.34-0.006-0.509,0c-0.829,0.026-1.637,0.187-2.406,0.478C31.644,22.022,30.367,22.753,29.565,23.629z
			 M31.922,24.158c0.364-0.247,0.75-0.45,1.155-0.605c0.57-0.216,1.174-0.335,1.794-0.355c0.126-0.004,0.255-0.004,0.381,0.001
			c1.851,0.063,3.523-0.857,4.377-2.407c0.053-0.095,0.104-0.191,0.153-0.29c0.874,0.547,1.621,1.317,2.183,2.252
			c-0.005,0.028-0.009,0.058-0.012,0.087c-0.146,1.846-0.774,3.539-1.766,4.769c-0.937,1.162-2.125,1.802-3.345,1.802
			C34.586,29.41,32.579,27.233,31.922,24.158z M35.184,31.094c0.54,0.171,1.096,0.261,1.659,0.261c0.574,0,1.132-0.091,1.667-0.261
			c0.385,1.656,1.44,3.051,2.858,3.874c-0.553,2.029-2.392,3.488-4.521,3.488c-2.129,0-3.968-1.459-4.521-3.488
			C33.744,34.145,34.799,32.749,35.184,31.094z M47.583,43.954H26.109v-4.785c0-1.877,1.504-3.403,3.354-3.403
			c0.032,0,0.063-0.002,0.095-0.005c0.33-0.011,0.654-0.048,0.968-0.11c0.833,2.773,3.379,4.751,6.32,4.751s5.488-1.978,6.32-4.751
			c0.314,0.063,0.638,0.1,0.968,0.11c0.031,0.003,0.063,0.005,0.095,0.005c1.85,0,3.354,1.526,3.354,3.403V43.954z"/>
	</g>
</g>
</svg>
