<?xml version="1.0" encoding="utf-8"?>
<!-- Generator: Adobe Illustrator 16.0.0, SVG Export Plug-In . SVG Version: 6.00 Build 0)  -->
<!DOCTYPE svg PUBLIC "-//W3C//DTD SVG 1.1//EN" "http://www.w3.org/Graphics/SVG/1.1/DTD/svg11.dtd">
<svg version="1.1" id="Layer_1" xmlns="http://www.w3.org/2000/svg" xmlns:xlink="http://www.w3.org/1999/xlink" x="0px" y="0px"
	 width="88px" height="83.297px" viewBox="0 0 88 83.297" enable-background="new 0 0 88 83.297" xml:space="preserve">
<path fill-rule="evenodd" clip-rule="evenodd" fill="#4FC2C1" d="M44,2.648c21.539,0,39,17.461,39,39s-17.461,39-39,39
	s-39-17.461-39-39S22.461,2.648,44,2.648z"/>
<g>
	<path fill="#FFFFFF" d="M50.225,47.921c-0.033-0.004-4.872,0.139-5.592-5.042c0.799-0.558,1.536-1.281,2.185-2.159
		c1.263-1.707,2.077-3.85,2.366-6.167c0.1-0.091,0.182-0.202,0.238-0.334c0.524-1.249,0.791-2.581,0.791-3.962
		c0-5.298-4-9.608-8.917-9.608c-1.286,0-2.534,0.296-3.712,0.881c-0.45,0.034-0.89,0.113-1.313,0.234
		c-2.02,0.583-3.663,2.079-4.628,4.213c-0.936,2.071-1.121,4.511-0.519,6.867c0.127,0.498,0.289,0.987,0.48,1.454
		c0.052,0.127,0.129,0.234,0.222,0.323c0.47,3.617,2.192,6.614,4.541,8.251c-0.722,5.189-5.559,5.045-5.592,5.049
		c-3.48,0.118-6.275,2.981-6.275,6.486v7.296c0,0.521,0.424,0.945,0.946,0.945h8.312h13.484h8.312c0.523,0,0.947-0.424,0.947-0.945
		v-7.296C56.5,50.901,53.705,48.038,50.225,47.921z M36.796,23.581c0.345-0.1,0.71-0.159,1.084-0.176
		c0.139-0.006,0.274-0.043,0.397-0.107c0.958-0.503,1.973-0.758,3.017-0.758c3.873,0,7.024,3.462,7.024,7.717
		c0,0.128-0.004,0.255-0.009,0.382c-0.751-0.763-1.795-1.236-2.948-1.236h-6.451c-0.384,0-0.748-0.12-1.053-0.348
		c-0.261-0.195-0.463-0.456-0.583-0.757c-0.187-0.464-0.646-0.754-1.147-0.723c-0.502,0.032-0.925,0.381-1.052,0.868
		c-0.374,1.435-1.119,2.757-2.142,3.829C31.982,28.359,33.7,24.475,36.796,23.581z M35.973,39.938
		c-1.231-1.504-2.038-3.533-2.293-5.756c1.194-1.063,2.138-2.388,2.753-3.855c0.093,0.086,0.191,0.167,0.293,0.244
		c0.635,0.474,1.391,0.724,2.187,0.724h6.451c0.913,0,1.7,0.547,2.051,1.33c0,0.007-0.001,0.013-0.001,0.02
		c0,5.339-3.101,9.682-6.911,9.682C38.843,42.325,37.234,41.478,35.973,39.938z M38.148,43.8c0.75,0.271,1.54,0.417,2.354,0.417
		c0.808,0,1.596-0.141,2.352-0.411c0.347,1.804,1.351,3.376,2.753,4.458l-4.97,7.072c-0.033,0.046-0.078,0.069-0.134,0.069
		c-0.056,0-0.102-0.023-0.134-0.069l-4.971-7.073C36.799,47.179,37.802,45.605,38.148,43.8z M54.607,60.757h-7.365H33.758h-7.365
		v-6.351c0-2.536,2.065-4.6,4.604-4.6c0.035,0,1.558-0.037,2.761-0.584l5.06,7.2c0.385,0.547,1.014,0.874,1.683,0.874l0,0
		c0.669,0,1.299-0.327,1.683-0.874l5.06-7.198c1.372,0.582,2.724,0.582,2.758,0.582c2.539,0,4.604,2.063,4.604,4.6V60.757
		L54.607,60.757z"/>
	<path fill="#FFFFFF" d="M51.683,32.648l4.53,4.53l-5.711,5.711l2.757,2.758l5.712-5.712l4.53,4.53V32.648H51.683z"/>
</g>
</svg>
