<?xml version="1.0" encoding="utf-8"?>
<!-- Generator: Adobe Illustrator 16.0.0, SVG Export Plug-In . SVG Version: 6.00 Build 0)  -->
<!DOCTYPE svg PUBLIC "-//W3C//DTD SVG 1.1//EN" "http://www.w3.org/Graphics/SVG/1.1/DTD/svg11.dtd">
<svg version="1.1" id="Layer_1" xmlns="http://www.w3.org/2000/svg" xmlns:xlink="http://www.w3.org/1999/xlink" x="0px" y="0px"
	 width="50.298px" height="57.784px" viewBox="0 0 50.298 57.784" enable-background="new 0 0 50.298 57.784" xml:space="preserve">
<g>
	<path fill="none" d="M41.307,25.113l-2.527-0.429c-0.263-0.851-0.602-1.67-1.016-2.452l1.489-2.083
		c0.632-0.888,0.534-2.099-0.24-2.865l-2.241-2.241c-0.421-0.421-0.978-0.654-1.572-0.654c-0.466,0-0.909,0.143-1.285,0.414
		l-2.091,1.488c-0.813-0.429-1.662-0.781-2.542-1.045l-0.421-2.497c-0.181-1.075-1.106-1.857-2.196-1.857h-3.166
		c-1.091,0-2.016,0.782-2.196,1.857l-0.437,2.558c-0.842,0.263-1.661,0.608-2.443,1.03l-2.068-1.489
		c-0.376-0.271-0.827-0.414-1.294-0.414c-0.594,0-1.158,0.233-1.571,0.654l-2.249,2.241c-0.767,0.768-0.872,1.979-0.24,2.865
		l1.504,2.113c-0.414,0.79-0.744,1.609-1,2.459l-2.497,0.422c-1.075,0.18-1.857,1.105-1.857,2.195v3.166
		c0,1.091,0.782,2.016,1.857,2.196l2.557,0.437c0.264,0.842,0.609,1.661,1.03,2.443l-1.481,2.061
		c-0.632,0.888-0.533,2.099,0.241,2.865l2.241,2.241c0.421,0.421,0.978,0.654,1.571,0.654c0.467,0,0.91-0.143,1.286-0.413
		l2.113-1.505c0.76,0.399,1.557,0.723,2.377,0.979l0.421,2.526c0.181,1.075,1.105,1.857,2.195,1.857h3.174
		c1.091,0,2.016-0.782,2.196-1.857l0.429-2.526c0.85-0.264,1.67-0.602,2.451-1.016l2.084,1.489c0.376,0.271,0.827,0.413,1.293,0.413
		c0.594,0,1.15-0.232,1.572-0.654l2.24-2.241c0.768-0.767,0.873-1.978,0.241-2.865l-1.489-2.09c0.414-0.79,0.76-1.609,1.016-2.452
		l2.526-0.421c1.076-0.181,1.857-1.105,1.857-2.196v-3.166C43.165,26.219,42.382,25.293,41.307,25.113z M41.141,30.475h-0.008
		c0,0.098-0.067,0.181-0.165,0.195l-3.158,0.527c-0.398,0.067-0.715,0.36-0.813,0.744c-0.286,1.105-0.722,2.166-1.309,3.151
		c-0.203,0.346-0.188,0.774,0.045,1.105l1.857,2.616c0.053,0.076,0.046,0.188-0.022,0.256l-2.24,2.241
		c-0.053,0.053-0.105,0.061-0.144,0.061c-0.045,0-0.083-0.016-0.112-0.038l-2.61-1.857c-0.323-0.233-0.759-0.248-1.105-0.045
		c-0.984,0.587-2.045,1.022-3.15,1.309c-0.392,0.098-0.685,0.421-0.745,0.813l-0.533,3.158c-0.016,0.098-0.099,0.165-0.196,0.165
		h-3.166c-0.098,0-0.181-0.067-0.195-0.165l-0.526-3.158c-0.067-0.399-0.361-0.715-0.745-0.813
		c-1.075-0.278-2.112-0.707-3.083-1.264c-0.158-0.09-0.338-0.135-0.512-0.135c-0.203,0-0.413,0.06-0.586,0.188l-2.633,1.873
		c-0.037,0.022-0.075,0.037-0.112,0.037c-0.03,0-0.091-0.008-0.143-0.061l-2.241-2.24c-0.068-0.068-0.075-0.173-0.022-0.256
		l1.85-2.595c0.233-0.331,0.248-0.767,0.045-1.113c-0.587-0.978-1.038-2.038-1.323-3.144c-0.105-0.383-0.422-0.677-0.813-0.744
		l-3.181-0.542c-0.098-0.015-0.166-0.098-0.166-0.195v-3.166c0-0.098,0.068-0.181,0.166-0.195l3.136-0.526
		c0.398-0.067,0.722-0.361,0.819-0.752c0.278-1.105,0.707-2.174,1.286-3.159c0.203-0.346,0.181-0.774-0.053-1.098l-1.872-2.632
		c-0.053-0.075-0.046-0.188,0.022-0.256l2.241-2.241c0.053-0.053,0.105-0.06,0.143-0.06c0.045,0,0.083,0.015,0.113,0.037l2.594,1.85
		c0.331,0.233,0.768,0.249,1.113,0.046c0.978-0.587,2.038-1.038,3.144-1.324c0.384-0.105,0.677-0.421,0.745-0.812l0.541-3.182
		c0.015-0.098,0.098-0.165,0.195-0.165h3.166c0.098,0,0.181,0.067,0.196,0.165l0.526,3.136c0.067,0.398,0.36,0.723,0.752,0.82
		c1.136,0.285,2.219,0.729,3.226,1.323c0.347,0.203,0.775,0.188,1.105-0.045l2.595-1.865c0.038-0.022,0.075-0.037,0.113-0.037
		c0.03,0,0.09,0.007,0.143,0.06l2.241,2.241c0.067,0.067,0.075,0.173,0.022,0.256l-1.857,2.609c-0.233,0.323-0.248,0.76-0.045,1.105
		c0.586,0.985,1.022,2.046,1.309,3.151c0.098,0.391,0.421,0.685,0.812,0.744l3.159,0.534c0.098,0.015,0.165,0.098,0.165,0.195
		V30.475z M25.153,21.119c-4.287,0-7.769,3.482-7.769,7.769c0,4.287,3.481,7.769,7.769,7.769s7.769-3.481,7.769-7.769
		C32.921,24.602,29.44,21.119,25.153,21.119z M25.153,34.626c-3.166,0-5.738-2.572-5.738-5.738s2.572-5.737,5.738-5.737
		s5.738,2.571,5.738,5.737S28.319,34.626,25.153,34.626z"/>
</g>
</svg>
