<?xml version="1.0" encoding="iso-8859-1"?>
<!-- Generator: Adobe Illustrator 19.0.0, SVG Export Plug-In . SVG Version: 6.00 Build 0)  -->
<svg version="1.1" id="Layer_1" xmlns="http://www.w3.org/2000/svg" xmlns:xlink="http://www.w3.org/1999/xlink" x="0px" y="0px"
	 viewBox="0 0 491.52 491.52" style="enable-background:new 0 0 491.52 491.52;" xml:space="preserve">
<g>
	<g>
		<path fill="#39bebc" d="M227.264,473.672c0,9.856,7.992,17.848,17.848,17.848c9.856,0,17.848-7.992,17.848-17.848s-17.848-33.864-17.848-33.864
			S227.264,463.816,227.264,473.672z"/>
		<path d="M284.454,74.614h-2.033V37.309C282.422,16.701,265.715,0,245.112,0c-20.603,0-37.309,16.701-37.309,37.309v37.309h-0.737
			c-53.125,0-96.189,43.064-96.189,96.189v133.35c0,53.125,43.064,96.189,96.189,96.189h15.314v10.563
			c0,12.303,9.974,22.277,22.277,22.277c12.303,0,22.277-9.974,22.277-22.277v-10.563h17.521c53.125,0,96.189-43.064,96.189-96.189
			V170.803C380.644,117.678,337.579,74.614,284.454,74.614z M245.112,22.6c8.12,0,14.705,6.584,14.705,14.705
			s-6.584,14.705-14.705,14.705c-8.12,0-14.705-6.584-14.705-14.705S236.992,22.6,245.112,22.6z M364.613,304.154
			c0,44.201-35.958,80.159-80.159,80.159h-77.389c-44.201,0-80.159-35.958-80.159-80.159v-133.35
			c0-44.201,35.958-80.159,80.159-80.159h77.389c44.201,0,80.159,35.958,80.159,80.159V304.154z"/>
		<path fill="#39bebc" d="M142.943,304.154c0,35.359,28.769,64.128,64.128,64.128h77.389c35.359,0,64.128-28.769,64.128-64.128V170.25H142.943
			V304.154z M240.576,186.634h31.34v8.622h-31.34V186.634z M240.576,204.36h15.672v8.622h-15.672V204.36z M240.576,223.524h31.34
			v8.622h-31.34V223.524z M240.576,241.249h15.672v8.622h-15.672V241.249z M240.576,260.413h31.34v8.622h-31.34V260.413z
			 M240.576,278.139h15.672v8.622h-15.672V278.139z M240.576,297.303h31.34v8.622h-31.34V297.303z M240.576,315.034h15.672v8.622
			h-15.672V315.034z M240.576,334.198h31.34v8.622h-31.34V334.198z"/>
	</g>
</g>
<g>
</g>
<g>
</g>
<g>
</g>
<g>
</g>
<g>
</g>
<g>
</g>
<g>
</g>
<g>
</g>
<g>
</g>
<g>
</g>
<g>
</g>
<g>
</g>
<g>
</g>
<g>
</g>
<g>
</g>
</svg>
