<?xml version="1.0" encoding="iso-8859-1"?>
<!-- Generator: Adobe Illustrator 19.0.0, SVG Export Plug-In . SVG Version: 6.00 Build 0)  -->
<svg version="1.1" id="Layer_1" xmlns="http://www.w3.org/2000/svg" xmlns:xlink="http://www.w3.org/1999/xlink" x="0px" y="0px"
	 viewBox="0 0 511.998 511.998" style="enable-background:new 0 0 511.998 511.998;" xml:space="preserve">
<g>
	<g>
		<path d="M297.779,248.49v-47.271c38.583-16.768,63.813-55.642,63.147-97.931c-0.442-28.027-11.77-54.205-31.9-73.711
			C308.897,10.072,282.42-0.423,254.347,0.013c-28.026,0.441-54.205,11.77-73.711,31.9c-19.506,20.13-30.006,46.651-29.564,74.679
			c0.655,41.597,25.616,78.372,63.147,94.622v16.691h-14.012c-5.632,0-10.199,4.566-10.199,10.199
			c0,5.633,4.567,10.199,10.199,10.199h14.012v12.912c-24.38,7.7-42.106,30.526-42.106,57.418v111.582
			c0,50.608,41.173,91.782,91.782,91.782s91.782-41.173,91.782-91.782V308.633C355.676,276.21,329.908,249.707,297.779,248.49z
			 M171.468,106.269c-0.356-22.579,8.102-43.945,23.818-60.162c15.714-16.217,36.804-25.344,59.383-25.7
			c0.456-0.007,0.912-0.01,1.367-0.01c22.073,0,42.906,8.432,58.795,23.828c16.218,15.715,25.345,36.804,25.699,59.384
			c0.553,35.093-21.027,67.272-53.699,80.071c-9.4,3.683-19.324,5.631-29.501,5.791c-9.162,0.144-18.185-1.17-26.838-3.907
			C195.761,174.582,172.042,142.715,171.468,106.269z M234.495,207.653c7.038,1.469,14.22,2.227,21.473,2.227
			c0.56,0,1.122-0.004,1.682-0.013c6.679-0.105,13.27-0.851,19.73-2.19v40.755h-42.763V208.01L234.495,207.653z M335.277,420.216
			c0,39.361-32.022,71.383-71.383,71.383c-39.361,0-71.383-32.022-71.383-71.383V308.633c0-21.948,17.856-39.802,39.802-39.802
			h63.161c21.949,0,39.803,17.856,39.803,39.802V420.216z"/>
	</g>
</g>
<g>
	<g>
		<path fill="#39bebc" d="M277.073,83.19c-5.808-5.63-13.422-8.69-21.551-8.532c-16.697,0.263-30.066,14.061-29.805,30.757
			c0.2,12.676,8.229,23.783,20.082,28.019V168.1c0,5.633,4.567,10.199,10.199,10.199c5.632,0,10.199-4.566,10.199-10.199v-34.649
			c0.283-0.101,0.566-0.2,0.846-0.31c11.704-4.585,19.434-16.11,19.236-28.679C286.152,96.374,282.883,88.82,277.073,83.19z
			 M259.602,114.149c-1.094,0.428-2.255,0.656-3.448,0.675c-1.064,0.017-2.132-0.137-3.14-0.456c-4.059-1.284-6.832-5.011-6.9-9.274
			c-0.085-5.45,4.28-9.954,9.73-10.041c2.653-0.022,5.139,0.949,7.034,2.785c1.896,1.838,2.964,4.304,3.005,6.945
			C265.947,108.889,263.424,112.652,259.602,114.149z"/>
	</g>
</g>
<g>
	<g>
		<path fill="#39bebc" d="M280.842,468.391c-0.755-5.582-5.909-9.49-11.474-8.739c-1.802,0.244-3.643,0.367-5.474,0.367
			c-5.632,0-10.199,4.566-10.199,10.199c0,5.633,4.567,10.199,10.199,10.199c2.742,0,5.503-0.186,8.209-0.552
			C277.686,479.11,281.599,473.973,280.842,468.391z"/>
	</g>
</g>
<g>
	<g>
		<path fill="#39bebc" d="M314.397,409.516c-5.632,0-10.199,4.566-10.199,10.199c0,11.228-4.739,22.035-13.003,29.65
			c-4.143,3.817-4.406,10.27-0.59,14.411c2.011,2.183,4.753,3.288,7.504,3.288c2.47,0,4.949-0.892,6.908-2.699
			c12.442-11.465,19.578-27.74,19.578-44.651C324.596,414.082,320.029,409.516,314.397,409.516z"/>
	</g>
</g>
<g>
</g>
<g>
</g>
<g>
</g>
<g>
</g>
<g>
</g>
<g>
</g>
<g>
</g>
<g>
</g>
<g>
</g>
<g>
</g>
<g>
</g>
<g>
</g>
<g>
</g>
<g>
</g>
<g>
</g>
</svg>
