<?xml version="1.0" encoding="iso-8859-1"?>
<!-- Generator: Adobe Illustrator 19.0.0, SVG Export Plug-In . SVG Version: 6.00 Build 0)  -->
<svg version="1.1" id="Capa_1" xmlns="http://www.w3.org/2000/svg" xmlns:xlink="http://www.w3.org/1999/xlink" x="0px" y="0px"
	 viewBox="0 0 504.449 504.449" style="enable-background:new 0 0 504.449 504.449;" xml:space="preserve">
<g>
	<g>
		<g>
			<path d="M498.475,157.855c-0.182-0.188-0.367-0.374-0.555-0.555L347.093,6.473c-8.321-8.271-21.759-8.271-30.08,0l-211.2,211.2
				c-3.509,3.489-5.696,8.089-6.187,13.013l-14.08,98.56l-40.32,39.253c-8.271,8.321-8.271,21.759,0,30.08l15.147,15.147L0,474.099
				l30.08,30.08l60.587-60.16l15.147,15.147c8.321,8.271,21.759,8.271,30.08,0l40.32-40.32l98.56-14.08
				c4.595-0.617,8.863-2.714,12.16-5.973L497.92,188.019C506.403,179.843,506.652,166.338,498.475,157.855z M120.96,413.726
				l-30.293-30.08l15.147-15.147l30.08,30.293L120.96,413.726z M261.76,363.379l-87.893,12.587l-45.653-45.013l12.587-87.893
				l192-192l120.747,120.747L261.76,363.379z"/>
			<path fill="#39bebc" d="M301.777,111.949c-0.041,0.041-0.083,0.082-0.124,0.124l-60.16,60.373c-8.271,8.321-8.271,21.759,0,30.08l60.373,60.373
				c8.321,8.271,21.759,8.271,30.08,0l60.373-60.373c8.271-8.321,8.271-21.759,0-30.08l-60.373-60.373
				C323.65,103.707,310.142,103.652,301.777,111.949z M316.8,217.673l-30.08-29.653l30.08-30.08l30.293,30.08L316.8,217.673z"/>
			
				<rect fill="#39bebc" x="220.027" y="241.526" transform="matrix(-0.7071 -0.7071 0.7071 -0.7071 226.1588 619.3964)" width="42.667" height="42.667"/>
			
				<rect fill="#39bebc" x="174.784" y="286.777" transform="matrix(-0.707 -0.7072 0.7072 -0.707 116.864 664.6392)" width="42.667" height="42.667"/>
		</g>
	</g>
</g>
<g>
</g>
<g>
</g>
<g>
</g>
<g>
</g>
<g>
</g>
<g>
</g>
<g>
</g>
<g>
</g>
<g>
</g>
<g>
</g>
<g>
</g>
<g>
</g>
<g>
</g>
<g>
</g>
<g>
</g>
</svg>
