<?xml version="1.0" encoding="iso-8859-1"?>
<!-- Generator: Adobe Illustrator 19.0.0, SVG Export Plug-In . SVG Version: 6.00 Build 0)  -->
<svg version="1.1" id="Capa_1" xmlns="http://www.w3.org/2000/svg" xmlns:xlink="http://www.w3.org/1999/xlink" x="0px" y="0px"
	 viewBox="0 0 480 480" style="enable-background:new 0 0 480 480;" xml:space="preserve">
<g>
	<g>
		<path fill="#39bebc" d="M335.6,119.288c-5.024-52.781-51.884-91.495-104.665-86.471c-45.828,4.362-82.109,40.643-86.471,86.471
			c-0.393,4.401,2.855,8.287,7.256,8.68c0.247,0.022,0.495,0.033,0.744,0.032h32.176c3.985-0.001,7.362-2.934,7.92-6.88
			c3.768-26.2,28.062-44.386,54.262-40.618c21.052,3.027,37.591,19.566,40.618,40.618c0.558,3.946,3.935,6.879,7.92,6.88h32.24
			c4.418,0.018,8.014-3.55,8.032-7.968C335.633,119.784,335.622,119.535,335.6,119.288z M224.072,66.016
			C201.51,71.82,183.892,89.438,178.088,112H161.6c2.913-14.619,9.889-28.119,20.128-38.952l4.616,4.608
			c3.178,3.069,8.243,2.981,11.312-0.197c2.994-3.1,2.994-8.015,0-11.115l-3.832-3.832C205.116,54.59,218.269,49.733,232,48.416V56
			c0,4.353,3.479,7.887,7.808,7.99C234.612,64.01,229.334,64.662,224.072,66.016z M301.912,112
			c-7.407-28.79-33.285-47.931-61.689-48.011C244.537,63.869,248,60.343,248,56v-7.584c13.731,1.317,26.884,6.174,38.176,14.096
			l-3.832,3.832c-3.178,3.07-3.266,8.134-0.196,11.312c3.07,3.178,8.134,3.266,11.312,0.196c0.067-0.064,0.132-0.13,0.196-0.196
			l4.616-4.608C308.511,83.881,315.487,97.381,318.4,112H301.912z"/>
	</g>
</g>
<g>
	<g>
		<path d="M408,0H72C32.254,0.044,0.044,32.254,0,72v336c0.044,39.746,32.254,71.956,72,72h336c39.746-0.044,71.956-32.254,72-72V72
			C479.956,32.254,447.746,0.044,408,0z M464,408c-0.035,30.913-25.087,55.965-56,56H72c-30.913-0.035-55.965-25.087-56-56V160h448
			V408z M464,144H16V72c0.035-30.913,25.087-55.965,56-56h336c30.913,0.035,55.965,25.087,56,56V144z"/>
	</g>
</g>
<g>
	<g>
		<path fill="#39bebc" d="M240,232c-4.418,0-8,3.582-8,8v192c0,4.418,3.582,8,8,8s8-3.582,8-8V240C248,235.582,244.418,232,240,232z"/>
	</g>
</g>
<g>
	<g>
		<path fill="#39bebc" d="M296,192h-16c-4.418,0-8,3.582-8,8s3.582,8,8,8h16c4.418,0,8-3.582,8-8S300.418,192,296,192z"/>
	</g>
</g>
<g>
	<g>
		<path fill="#39bebc" d="M248,192h-16c-4.418,0-8,3.582-8,8s3.582,8,8,8h16c4.418,0,8-3.582,8-8S252.418,192,248,192z"/>
	</g>
</g>
<g>
	<g>
		<path fill="#39bebc" d="M200,192h-16c-4.418,0-8,3.582-8,8s3.582,8,8,8h16c4.418,0,8-3.582,8-8S204.418,192,200,192z"/>
	</g>
</g>
<g>
</g>
<g>
</g>
<g>
</g>
<g>
</g>
<g>
</g>
<g>
</g>
<g>
</g>
<g>
</g>
<g>
</g>
<g>
</g>
<g>
</g>
<g>
</g>
<g>
</g>
<g>
</g>
<g>
</g>
</svg>
