<?xml version="1.0" encoding="iso-8859-1"?>
<!-- Generator: Adobe Illustrator 18.1.1, SVG Export Plug-In . SVG Version: 6.00 Build 0)  -->
<svg version="1.1" id="Capa_1" xmlns="http://www.w3.org/2000/svg" xmlns:xlink="http://www.w3.org/1999/xlink" x="0px" y="0px"
	 viewBox="0 0 63.456 63.456" style="enable-background:new 0 0 63.456 63.456;" xml:space="preserve">
<g>
	<g>
		<circle style="fill:#39bebc;" cx="28.165" cy="6.073" r="6.073"/>
		<path style="fill:#010002;" d="M37.333,19.493c-4.453-6.264-14.473-6.645-14.473-0.074l0.043,12.737
			c-1.264,1.69-2.063,4.142-2.063,6.874c0,2.771,0.819,5.248,2.11,6.94l0.048,14.089c0,1.875,1.522,3.397,3.399,3.397h0.813
			c1.876,0,2.911-1.276,3.398-3.397c0.702-3.061,2.85-12.231,2.85-12.231c3.763-0.915,9.157-6.08,9.157-13.583
			C42.619,26.742,38.365,20.942,37.333,19.493z"/>
	</g>
</g>
<g>
</g>
<g>
</g>
<g>
</g>
<g>
</g>
<g>
</g>
<g>
</g>
<g>
</g>
<g>
</g>
<g>
</g>
<g>
</g>
<g>
</g>
<g>
</g>
<g>
</g>
<g>
</g>
<g>
</g>
</svg>
