<?xml version="1.0" encoding="iso-8859-1"?>
<!-- Generator: Adobe Illustrator 19.0.0, SVG Export Plug-In . SVG Version: 6.00 Build 0)  -->
<svg version="1.1" id="Capa_1" xmlns="http://www.w3.org/2000/svg" xmlns:xlink="http://www.w3.org/1999/xlink" x="0px" y="0px"
	 viewBox="0 0 490.052 490.052" style="enable-background:new 0 0 490.052 490.052;" xml:space="preserve">
<g>
	<g>
		<g>
			<path d="M142.426,128.3c-82,19.8-142.3,85.9-142.3,164.8v161.7c0,25.3,28.8,42,54.8,32.6l113.1-81.2
				c15.2-5.4,24.9-18.3,24.9-32.6V162.1C192.926,138.8,167.726,122,142.426,128.3z"/>
			<path fill="#39bebc" d="M347.626,128.3c-25.7-6.2-50.5,10.5-50.5,33.8v211c0,14.4,9.7,27.2,24.9,32.6l113.1,81.3c26,9.3,54.8-7.4,54.8-32.6
				V293.1C489.926,214.2,429.626,148.1,347.626,128.3z"/>
			<path d="M260.926,160.5V0h-31.5v160.5c0,12.8-6.6,24.1-16.3,30.7v35c12.8-3.9,23.7-11.7,32.3-21.8c8.2,10.1,19.4,17.5,32.3,21.8
				v-35C267.226,184.2,260.926,173,260.926,160.5z"/>
		</g>
	</g>
</g>
<g>
</g>
<g>
</g>
<g>
</g>
<g>
</g>
<g>
</g>
<g>
</g>
<g>
</g>
<g>
</g>
<g>
</g>
<g>
</g>
<g>
</g>
<g>
</g>
<g>
</g>
<g>
</g>
<g>
</g>
</svg>
