<?xml version="1.0" encoding="iso-8859-1"?>
<!-- Generator: Adobe Illustrator 19.0.0, SVG Export Plug-In . SVG Version: 6.00 Build 0)  -->
<svg version="1.1" id="Capa_1" xmlns="http://www.w3.org/2000/svg" xmlns:xlink="http://www.w3.org/1999/xlink" x="0px" y="0px"
	 viewBox="0 0 512 512" style="enable-background:new 0 0 512 512;" xml:space="preserve">
<g>
	<g>
		<path d="M0,391v15c0,57.891,48.109,106,106,106h300c57.891,0,106-48.109,106-106v-15H0z"/>
	</g>
</g>
<g>
	<g>
		<path d="M256,0C132.631,0,0,13.744,0,166v15h512v-15C512,13.744,379.369,0,256,0z M151,150h-30v-30h30V150z M211,90h-30V60h30V90z
			 M271,150h-30v-30h30V150z M331,90h-30V60h30V90z M391,150h-30v-30h30V150z"/>
	</g>
</g>
<g>
	<g>
		<path fill="#39bebc" d="M485.911,211H25.898L0,262.797l13.55,6.665c23.617,11.605,30.741,31.802,60.41,31.802c16.49,0,33.52-7.837,43.451-22.734
			c7.939-11.924,27.1-11.924,35.039,0c9.492,14.224,25.356,22.72,42.466,22.734c0,0,0,0,0.015,0c17.095,0,32.974-8.496,42.48-22.734
			c7.939-11.924,27.1-11.924,35.039,0c9.492,14.224,25.356,22.72,42.466,22.734c0,0,0,0,0.015,0c17.095,0,32.974-8.496,42.48-22.734
			c7.939-11.924,27.1-11.924,35.039,0c16.567,24.88,50.891,29.562,73.598,12.935c11.484-8.408,18.984-15.952,31.831-21.826
			l14.121-6.46L485.911,211z"/>
	</g>
</g>
<g>
	<g>
		<path fill="#39bebc" d="M434.814,331.249c-22.321,0-44.259-9.164-59.898-26.528c-15.264,16.802-36.929,26.543-59.985,26.543h-0.029
			c-23.071-0.015-44.736-9.771-59.971-26.558c-15.264,16.816-36.929,26.558-60,26.558c-23.086-0.015-44.751-9.756-59.985-26.543
			c-15.78,17.509-38.767,26.543-60.985,26.543c-15.643,0-30.936-4.808-43.96-13.206V361h452v-44.247
			C468.583,326.035,451.31,331.249,434.814,331.249z"/>
	</g>
</g>
<g>
</g>
<g>
</g>
<g>
</g>
<g>
</g>
<g>
</g>
<g>
</g>
<g>
</g>
<g>
</g>
<g>
</g>
<g>
</g>
<g>
</g>
<g>
</g>
<g>
</g>
<g>
</g>
<g>
</g>
</svg>
