<?xml version="1.0" encoding="iso-8859-1"?>
<!-- Generator: Adobe Illustrator 19.0.0, SVG Export Plug-In . SVG Version: 6.00 Build 0)  -->
<svg version="1.1" id="Capa_1" xmlns="http://www.w3.org/2000/svg" xmlns:xlink="http://www.w3.org/1999/xlink" x="0px" y="0px"
	 viewBox="0 0 298 298" style="enable-background:new 0 0 298 298;" xml:space="preserve">
<g>
	<path fill="#39bebc" d="M167,77.997h-44.636c-2.565,0-4.455-2.416-3.908-4.921c1.166-5.342,1.275-13.952-7.432-19.774
		c-1.47-0.983-2.188-2.798-1.673-4.49c1.52-4.99,3-15.339-7.675-21.893c-1.153-0.708-1.918-1.921-1.943-3.274
		C99.633,18.313,97.524,4.693,78.979,1.58c-2.949-0.495-5.893-0.755-8.877-0.755c-14.049,0-29.046,5.746-50.253,19.721
		c-0.412,0.272-0.877,0.47-1.359,0.573L3.414,24.308C1.568,24.705,0,26.336,0,28.224v53.938c0,0.913,0.562,1.793,1.13,2.508
		c5.856,7.356,16.53,18.527,30.555,19.991c1.485,0.155,2.828,1.098,3.379,2.484c1.662,4.186,4.765,13.971,4.765,29.114
		c0,8.413,6.221,12.735,12.758,12.735c6.422,0,12.413-4.171,12.413-12.735v-28.435c0-2.066,1.967-3.792,4.024-3.988
		c0.006-0.001,0.206,0.088,0.212,0.087c0.126-0.012,0.445,0.072,0.571,0.072H167C184,103.997,184,77.997,167,77.997z"/>
	<path d="M266.689,193.331c-1.484-0.155-2.765-1.098-3.315-2.484c-1.662-4.187-4.734-13.971-4.734-29.114
		c0-8.413-6.955-12.736-13.492-12.736c-6.422,0-13.148,4.172-13.148,12.736v28.435c0,2.066-1.217,3.792-3.274,3.989
		c0,0,0.168,0.411,0.162,0.412c-0.126,0.013-0.069,0.429-0.195,0.429H131c-18,0-18,26,0,26h45.136c2.564,0,4.454,1.915,3.908,4.42
		c-1.166,5.343-1.275,13.702,7.432,19.524c1.47,0.983,2.188,2.674,1.673,4.366c-1.52,4.989-3,15.275,7.675,21.829
		c1.153,0.708,1.918,1.89,1.943,3.242c0.101,5.332,2.209,18.937,20.754,22.05c2.949,0.495,5.892,0.747,8.877,0.747
		c14.049,0,29.046-5.75,50.253-19.725c0.412-0.273,0.877-0.472,1.359-0.575l14.827-3.189c1.846-0.397,3.164-2.03,3.164-3.918V215.83
		c0-0.913-0.312-1.793-0.88-2.508C291.263,205.965,280.715,194.794,266.689,193.331z"/>
</g>
<g>
</g>
<g>
</g>
<g>
</g>
<g>
</g>
<g>
</g>
<g>
</g>
<g>
</g>
<g>
</g>
<g>
</g>
<g>
</g>
<g>
</g>
<g>
</g>
<g>
</g>
<g>
</g>
<g>
</g>
</svg>
