<?xml version="1.0" encoding="iso-8859-1"?>
<!-- Generator: Adobe Illustrator 16.0.0, SVG Export Plug-In . SVG Version: 6.00 Build 0)  -->
<!DOCTYPE svg PUBLIC "-//W3C//DTD SVG 1.1//EN" "http://www.w3.org/Graphics/SVG/1.1/DTD/svg11.dtd">
<svg version="1.1" id="Capa_1" xmlns="http://www.w3.org/2000/svg" xmlns:xlink="http://www.w3.org/1999/xlink" x="0px" y="0px"
	 width="31.886px" height="31.886px" viewBox="0 0 31.886 31.886" style="enable-background:new 0 0 31.886 31.886;"
	 xml:space="preserve">
<g>
	<g>
		<path d="M23.928,6.517c0.039,0.346,0.038,0.334,0,0.031C23.461,2.861,20.306,0,16.494,0C12.682,0,9.524,2.861,9.06,6.548
			c-0.039,0.303-0.039,0.315,0-0.031H5.12c-1.009,0-1.827,0.818-1.827,1.828v21.713c0,1.011,0.819,1.828,1.828,1.828h21.645
			c1.01,0,1.828-0.817,1.828-1.828V8.345c0-1.009-0.818-1.828-1.828-1.828H23.928z M16.495,1.758c2.831,0,5.187,2.061,5.649,4.76
			h-3.459c0.125,0.346,0.195,0.608,0.195,0.943c0,0.352-0.079,0.711-0.217,0.987c-0.378,0.827-1.208,1.395-2.169,1.395
			c-0.963,0-1.793-0.568-2.169-1.395c-0.14-0.276-0.216-0.635-0.216-0.987c0-0.335,0.07-0.598,0.194-0.943h-3.464
			C11.303,3.815,13.661,1.758,16.495,1.758z M26.385,28.523c0,0.639-0.519,1.155-1.155,1.155H6.655
			c-0.639,0-1.155-0.519-1.155-1.155V9.88c0-0.639,0.517-1.156,1.155-1.156h2.448c0.001,0.009,0.001,0.018,0.004,0.027
			c0.601,3.534,3.685,6.233,7.387,6.233s6.784-2.7,7.387-6.233c0.002-0.009,0.003-0.018,0.003-0.027h1.346
			c0.64,0,1.156,0.517,1.156,1.156L26.385,28.523L26.385,28.523z"/>
		<circle fill="#39bebc" cx="19.786" cy="4.171" r="0.466"/>
		<circle fill="#39bebc" cx="13.203" cy="4.172" r="0.468"/>
		<circle fill="#39bebc" cx="16.495" cy="2.809" r="0.467"/>
		<path d="M16.495,8.776c0.707,0,1.278-0.575,1.278-1.284c0-0.493-0.279-0.921-0.692-1.136V5.182V4.644
			c0-0.327-0.26-0.591-0.586-0.591c-0.327,0-0.585,0.264-0.585,0.591V5.18v1.17c-0.415,0.213-0.7,0.645-0.7,1.142
			C15.209,8.201,15.784,8.776,16.495,8.776z"/>
		<path fill="#39bebc" d="M7.221,25.841c0,0.788,0.638,1.426,1.426,1.426h4.801c0.788,0,1.427-0.639,1.427-1.426v-8.246
			c0-0.788-0.639-1.426-1.427-1.426H8.647c-0.788,0-1.426,0.638-1.426,1.426V25.841z"/>
		<path fill="#39bebc" d="M17.081,25.841c0,0.788,0.638,1.426,1.426,1.426h4.8c0.788,0,1.428-0.639,1.428-1.426v-8.246
			c0-0.788-0.64-1.426-1.428-1.426h-4.8c-0.788,0-1.426,0.638-1.426,1.426V25.841z"/>
	</g>
</g>
<g>
</g>
<g>
</g>
<g>
</g>
<g>
</g>
<g>
</g>
<g>
</g>
<g>
</g>
<g>
</g>
<g>
</g>
<g>
</g>
<g>
</g>
<g>
</g>
<g>
</g>
<g>
</g>
<g>
</g>
</svg>
