<?xml version="1.0" encoding="iso-8859-1"?>
<!-- Generator: Adobe Illustrator 19.0.0, SVG Export Plug-In . SVG Version: 6.00 Build 0)  -->
<svg version="1.1" id="Capa_1" xmlns="http://www.w3.org/2000/svg" xmlns:xlink="http://www.w3.org/1999/xlink" x="0px" y="0px"
	 viewBox="0 0 512 512" style="enable-background:new 0 0 512 512;" xml:space="preserve">
<g>
	<g>
		<path d="M300.087,224.452c-79.277,0-143.774,64.497-143.774,143.774S220.81,512,300.087,512s143.774-64.497,143.774-143.774
			S379.364,224.452,300.087,224.452z M300.087,497c-71.006,0-128.774-57.768-128.774-128.774s57.768-128.774,128.774-128.774
			s128.774,57.768,128.774,128.774S371.093,497,300.087,497z"/>
	</g>
</g>
<g>
	<g>
		<path d="M211.077,67.733c-1.821-11.194-12.17-19.636-24.074-19.636h-9.282c1.034-2.647,1.608-5.523,1.608-8.532V23.532
			C179.329,10.557,168.772,0,155.796,0h-32.064C110.756,0,100.2,10.557,100.2,23.532v16.032c0,3.009,0.574,5.885,1.608,8.532h-9.282
			c-11.903,0-22.253,8.441-24.074,19.636c-1.121,6.894,0.805,13.869,5.285,19.136c2.808,3.302,6.422,5.722,10.431,7.068V360.21
			c0,30.656,24.94,55.597,55.597,55.597c4.142,0,7.5-3.358,7.5-7.5c0-4.142-3.358-7.5-7.5-7.5
			c-22.385,0-40.597-18.211-40.597-40.597V200.352c1.817,0.565,3.37,1.339,5.158,2.234c4.273,2.139,9.592,4.801,19.372,4.801
			c9.79,0,15.115-2.661,19.394-4.799c3.737-1.867,6.438-3.217,12.688-3.217s8.951,1.35,12.688,3.217
			c3.031,1.515,6.596,3.287,11.893,4.195v41.201c0,4.142,3.358,7.5,7.5,7.5c4.142,0,7.5-3.358,7.5-7.5V93.937
			c4.009-1.347,7.623-3.766,10.431-7.068C210.272,81.602,212.198,74.627,211.077,67.733z M115.2,23.532
			c0-4.705,3.828-8.532,8.532-8.532h32.064c4.705,0,8.532,3.828,8.532,8.532v16.032c0,4.705-3.828,8.532-8.532,8.532h-32.064
			c-4.705,0.001-8.532-3.827-8.532-8.532V23.532z M194.366,77.151c-1.627,1.913-3.998,3.01-6.505,3.01h-16.032
			c-4.142,0-7.5,3.358-7.5,7.5c0,4.142,3.358,7.5,7.5,7.5h8.532v96.25c-1.829-0.566-3.39-1.342-5.188-2.241
			c-4.278-2.138-9.604-4.799-19.394-4.799s-15.115,2.661-19.394,4.799c-3.737,1.867-6.438,3.217-12.688,3.217
			c-6.235,0-8.929-1.349-12.658-3.215c-3.026-1.515-6.585-3.287-11.872-4.195V95.161h40.597c4.142,0,7.5-3.358,7.5-7.5
			c0-4.142-3.358-7.5-7.5-7.5H91.667c-2.507,0-4.878-1.097-6.505-3.01c-1.648-1.939-2.325-4.428-1.905-7.01
			c0.643-3.95,4.713-7.044,9.268-7.044h94.478c4.555,0,8.625,3.094,9.268,7.044C196.691,72.723,196.015,75.213,194.366,77.151z"/>
	</g>
</g>
<g>
	<g>
		<path fill="#39bebc" d="M300.087,280.564c-48.337,0-87.662,39.325-87.662,87.661c0,48.337,39.325,87.662,87.662,87.662
			c48.336,0,87.661-39.325,87.661-87.662C387.748,319.889,348.423,280.564,300.087,280.564z M300.087,440.887
			c-40.066,0-72.662-32.596-72.662-72.662c0-40.065,32.596-72.661,72.662-72.661c40.065,0,72.661,32.596,72.661,72.661
			C372.748,408.292,340.152,440.887,300.087,440.887z"/>
	</g>
</g>
<g>
	<g>
		<path fill="#39bebc" d="M323.767,317.973c-21.165-9.968-46.48-5.573-62.993,10.94c-16.514,16.513-20.91,41.828-10.94,62.993
			c1.278,2.714,3.976,4.306,6.79,4.306c1.071,0,2.159-0.23,3.191-0.717c3.747-1.765,5.354-6.233,3.588-9.981
			c-7.281-15.458-4.076-33.941,7.977-45.994c12.054-12.052,30.538-15.259,45.995-7.977c3.747,1.765,8.215,0.158,9.981-3.589
			C329.121,324.207,327.514,319.738,323.767,317.973z"/>
	</g>
</g>
<g>
	<g>
		<path fill="#39bebc" d="M350.109,344.057c-1.8-3.732-6.284-5.294-10.014-3.493c-3.73,1.802-5.293,6.286-3.491,10.016
			c7.509,15.544,4.37,34.171-7.811,46.353c-12.181,12.182-30.807,15.321-46.353,7.811c-3.729-1.801-8.214-0.238-10.016,3.491
			s-0.239,8.214,3.491,10.016c7.712,3.726,15.979,5.536,24.181,5.536c14.432,0,28.661-5.606,39.302-16.247
			C356.086,390.852,360.391,365.34,350.109,344.057z"/>
	</g>
</g>
<g>
	<g>
		<path fill="#39bebc" d="M299.867,344.693c-12.976,0-23.532,10.557-23.532,23.532c0,12.976,10.557,23.533,23.532,23.533
			c12.975,0,23.532-10.557,23.532-23.533C323.399,355.25,312.843,344.693,299.867,344.693z M299.867,376.758
			c-4.705,0-8.532-3.828-8.532-8.533c0-4.705,3.828-8.532,8.532-8.532c4.704,0,8.532,3.828,8.532,8.532
			C308.399,372.931,304.572,376.758,299.867,376.758z"/>
	</g>
</g>
<g>
</g>
<g>
</g>
<g>
</g>
<g>
</g>
<g>
</g>
<g>
</g>
<g>
</g>
<g>
</g>
<g>
</g>
<g>
</g>
<g>
</g>
<g>
</g>
<g>
</g>
<g>
</g>
<g>
</g>
</svg>
