<?xml version="1.0" encoding="iso-8859-1"?>
<!-- Generator: Adobe Illustrator 18.0.0, SVG Export Plug-In . SVG Version: 6.00 Build 0)  -->
<!DOCTYPE svg PUBLIC "-//W3C//DTD SVG 1.1//EN" "http://www.w3.org/Graphics/SVG/1.1/DTD/svg11.dtd">
<svg version="1.1" id="Capa_1" xmlns="http://www.w3.org/2000/svg" xmlns:xlink="http://www.w3.org/1999/xlink" x="0px" y="0px"
	 viewBox="0 0 313.725 313.725" style="enable-background:new 0 0 313.725 313.725;" xml:space="preserve">
<g>
	<g>
		<g>
			<path fill="#39bebc" d="M235.469,68.574c-4.679,5.328-6.204,13.161-2.186,19.269c3.079,4.679,8.408,7.246,10.905,12.398
				c3.438,7.099-0.361,16.396-8.444,17.923c-1.551,0.294-0.145-1.525,0.14-2.021c1-1.741,1.881-3.605,2.271-5.587
				c0.76-3.855-1.115-8.062-3.232-11.215c-0.819-1.221-1.753-2.328-2.674-3.473c-2.601-3.256-4.655-7.004-5.12-11.202
				c-0.447-4.053,0.669-8.114,2.933-11.486c0.951-1.417,2.066-2.716,3.327-3.866c0.47-0.43,0.955-0.848,1.47-1.223
				C235.214,67.833,235.864,68.146,235.469,68.574z"/>
		</g>
	</g>
	<g>
		<path fill="#39bebc" d="M208.689,113.292c1.737,3.672,3.355,7.585,3.49,11.699c0.139,4.244-1.389,8.376-3.278,12.109
			c-0.835,1.649-1.764,3.244-2.729,4.82c-0.538,0.879-0.402,1.746,0.84,1.564c3.266-0.475,6.501-2.09,9.134-4.025
			c6.396-4.697,9.986-12.316,9.557-20.242c-0.447-8.277-5.15-14.85-10.929-20.399c-2.333-2.241-4.917-4.198-7.19-6.507
			c-5.913-6.001-9.999-13.627-9.448-22.244c0.462-7.244,3.879-14.682,8.623-20.135c0.418-0.467,0.045-1.237-0.589-1.186
			c-0.277,0.022-0.522,0.248-0.731,0.405c-0.903,0.68-1.768,1.412-2.602,2.174c-1.928,1.763-3.671,3.703-5.223,5.805
			c-3.303,4.471-5.636,9.686-6.455,15.205c-1.655,11.151,3.277,21.555,10.257,29.941
			C204.27,105.707,206.764,109.226,208.689,113.292z"/>
		<path d="M156.862,0C70.368,0,0,70.368,0,156.862s70.368,156.862,156.862,156.862s156.862-70.368,156.862-156.862
			S243.356,0,156.862,0z M290,156.862c0,32.443-11.671,62.209-31.027,85.333l-51.03-51.028h10.869c3.913,0,7.086-3.173,7.086-7.086
			v-23.615c0-3.913-3.173-7.086-7.086-7.086h-22.622v26.034l-10.271-10.27V153.38h-15.764L71.526,54.755
			c23.124-19.358,52.891-31.03,85.336-31.03C230.274,23.725,290,83.45,290,156.862z M23.725,156.862
			c0-32.443,11.671-62.209,31.026-85.332l81.851,81.85h-64.74c-3.913,0-7.086,3.173-7.086,7.086v23.615
			c0,3.913,3.173,7.086,7.086,7.086h102.529l67.806,67.804C219.073,278.328,189.308,290,156.862,290
			C83.45,290,23.725,230.274,23.725,156.862z"/>
	</g>
</g>
<g>
</g>
<g>
</g>
<g>
</g>
<g>
</g>
<g>
</g>
<g>
</g>
<g>
</g>
<g>
</g>
<g>
</g>
<g>
</g>
<g>
</g>
<g>
</g>
<g>
</g>
<g>
</g>
<g>
</g>
</svg>
