<?xml version="1.0" encoding="iso-8859-1"?>
<!-- Generator: Adobe Illustrator 18.1.1, SVG Export Plug-In . SVG Version: 6.00 Build 0)  -->
<svg version="1.1" id="Capa_1" xmlns="http://www.w3.org/2000/svg" xmlns:xlink="http://www.w3.org/1999/xlink" x="0px" y="0px"
	 viewBox="0 0 46 46" style="enable-background:new 0 0 46 46;" xml:space="preserve">
<g>
	<g>
		<path style="fill:#030104;" d="M12.407,7.447c0.212,0.304,0.429,0.595,0.566,0.942c0.26,0.657,0.348,1.382,0.392,2.082
			c0.116,1.828-0.114,3.686-0.429,5.483c-0.346,1.977-0.768,4.094-1.633,5.921c-0.096,0.202-0.228,0.439-0.321,0.537
			c-0.522,0.547-0.956,1.009-1.251,1.721c-0.301,0.729-0.362,1.664-0.147,2.435c0,0.119,0.053,0.235,0.199,0.305
			c1.243,0.596,2.61,0.909,3.958,1.161c1.816,0.34,3.661,0.53,5.504,0.647c3.849,0.243,7.798,0.186,11.599-0.525
			c1.388-0.26,2.814-0.622,4.048-1.328c0.336-0.191,1.084-0.596,1.077-1.038c-0.009-0.588-0.104-1.183-0.237-1.754
			c-0.226-0.962-0.648-1.876-1.304-2.619c-0.179-0.203-0.493-0.423-0.592-0.578c-0.127-0.2-0.207-0.427-0.283-0.65
			c-0.567-1.667-0.735-3.502-0.819-5.249c-0.102-2.119,0-4.312,0.639-6.348c0.35-1.113,0.958-2.114,1.207-3.264
			c0.146-0.672,0.188-1.599-0.246-2.18c-0.477-0.633-1.234-0.815-1.961-0.815c-0.859,0-1.721,0-2.581,0c-5.561,0-11.121,0-16.682,0
			c-0.412,0-0.712,0.097-1.083,0.309c-1.15,0.656-0.993,2.155-0.534,3.198C11.74,6.4,12.058,6.945,12.407,7.447z M11.943,4.161
			c0.065-0.379,0.282-0.61,0.573-0.759c0.047-0.024,0.011-0.031,0.137-0.066c-0.153,0.04-0.092-0.003-0.007-0.003
			c2.053,0,4.105,0,6.158,0c3.192,0,6.385,0,9.577,0c1.11,0,2.221,0,3.331,0c0.494,0,1.062-0.047,1.54,0.091
			c0.562,0.163,0.645,0.74,0.615,1.25c-0.066,1.16-0.715,2.206-1.119,3.266c-0.744,1.951-0.872,4.151-0.842,6.218
			c0.027,1.884,0.221,3.81,0.693,5.638c0.133,0.512,0.289,1.074,0.59,1.516c0.179,0.263,0.453,0.439,0.67,0.669
			c0.373,0.396,0.638,0.902,0.834,1.404c0.274,0.703,0.438,1.487,0.464,2.249c-0.839,0.776-2.038,1.148-3.114,1.434
			c-1.702,0.449-3.466,0.658-5.218,0.789c-3.902,0.293-7.89,0.175-11.76-0.408c-1.586-0.239-3.264-0.536-4.736-1.212
			c-0.102-0.468-0.076-0.974,0.028-1.433c0.125-0.551,0.415-1.037,0.792-1.452c0.207-0.227,0.438-0.389,0.61-0.645
			c0.683-1.012,0.986-2.379,1.293-3.54c0.476-1.799,0.812-3.64,1.007-5.49c0.172-1.634,0.257-3.368-0.152-4.975
			c-0.206-0.809-0.656-1.379-1.106-2.068C12.358,5.957,11.796,5.015,11.943,4.161z"/>
		<path style="fill:#39bebc;" d="M33.585,29.954c-1.903,0.297-3.746,1.025-5.308,2.156c-1.385,1.002-2.596,2.352-3.389,3.889
			c-0.076-0.008-0.154,0-0.238,0.051c-1.06,0.645-2.439,0.752-3.482-0.002c-0.118-0.085-0.232-0.086-0.33-0.044
			c-0.901-1.746-2.334-3.231-3.971-4.288c-1.701-1.096-3.673-1.671-5.672-1.885c-1.466-0.157-2.995-0.25-3.763,1.232
			c-0.645,1.244-0.576,2.818-0.427,4.17c0.18,1.633,0.58,3.25,1.16,4.785c0.367,0.974,0.828,2.215,1.677,2.883
			c0.995,0.783,2.61,0.746,3.805,0.763c2.597,0.035,5.225-0.246,7.791-0.636c0.026-0.004,0.042-0.018,0.063-0.023
			c0.003-0.001,0.006-0.002,0.009-0.003c0.099-0.035,0.162-0.099,0.191-0.178c0.006-0.015,0.008-0.029,0.012-0.044
			c0.006-0.027,0.01-0.053,0.01-0.081c0.001-0.021,0.008-0.034,0.007-0.056c-0.093-1.185-0.186-2.367-0.278-3.552
			c-0.047-0.603-0.095-1.207-0.142-1.81c-0.007-0.086-0.016-0.164-0.031-0.242c0.987,0.467,2.157,0.416,3.163,0.003
			c-0.02,0.104-0.029,0.212-0.038,0.319c-0.048,0.607-0.095,1.216-0.143,1.822c-0.09,1.151-0.181,2.305-0.271,3.455
			c-0.002,0.025,0.006,0.043,0.008,0.066c0,0.021,0.004,0.039,0.008,0.061c0.005,0.021,0.008,0.041,0.017,0.06
			c0.029,0.079,0.093,0.14,0.19,0.175c0.002,0.001,0.005,0.001,0.007,0.002c0.022,0.008,0.039,0.021,0.065,0.023
			c2.668,0.404,5.402,0.689,8.104,0.63c1.163-0.026,2.766-0.029,3.66-0.905c0.878-0.857,1.344-2.216,1.729-3.348
			c0.533-1.562,0.887-3.202,1-4.85c0.092-1.263,0.062-2.806-0.721-3.873C37.045,29.302,35.035,29.728,33.585,29.954z M13.131,42.853
			c-1.076-0.035-2.474-0.047-3.138-0.955c-0.81-1.105-1.255-2.516-1.619-3.819c-0.433-1.554-0.719-3.185-0.645-4.8
			c0.046-1.008,0.287-2.418,1.44-2.693c0.41-0.1,0.877-0.029,1.292-0.01c0.627,0.031,1.249,0.107,1.866,0.224
			c1.007,0.188,1.994,0.5,2.92,0.937c1.431,0.675,2.686,1.664,3.7,2.875c0.498,0.594,0.923,1.254,1.273,1.945
			c0.054,0.104,0.105,0.213,0.154,0.319c0.074,0.162,0.032,0.065,0.08,0.188c0.018,0.041,0.034,0.084,0.049,0.129
			c0.134,1.703,0.268,3.408,0.401,5.111C18.343,42.679,15.717,42.937,13.131,42.853z M37.479,37.593
			c-0.347,1.393-0.809,2.821-1.571,4.045c-0.441,0.707-0.937,0.926-1.765,1.074c-1.275,0.229-2.621,0.172-3.91,0.113
			c-1.809-0.083-3.621-0.268-5.412-0.528c0.084-1.067,0.168-2.136,0.25-3.204c0.049-0.603,0.097-1.207,0.144-1.81
			c0.005-0.056,0.019-0.109,0.024-0.138c0.016-0.041,0.031-0.084,0.049-0.125c-0.001,0.002,0.068-0.16,0.126-0.279
			c0.085-0.18,0.177-0.357,0.272-0.531c0.256-0.464,0.551-0.904,0.871-1.327c0.914-1.202,2.107-2.182,3.43-2.901
			c1.9-1.03,4.123-1.463,6.273-1.432c1.203,0.018,1.596,1.312,1.703,2.303C38.137,34.433,37.857,36.063,37.479,37.593z"/>
		<path style="fill:#39bebc;" d="M45.793,13.333H39c0-0.381,0-0.724,0-1c0-0.263-0.07-0.452-0.172-0.577
			c-0.094-0.188-0.316-0.32-0.557-0.195c-1.56,0.813-3.117,1.626-4.676,2.44c-0.262,0.136-0.262,0.555,0,0.691
			c1.559,0.813,3.18,1.626,4.738,2.44C38.6,17.27,39,17.101,39,16.786c0-0.476,0-0.968,0-1.453h6h1v-1v-0.799v-0.201H45.793z
			 M38,13.333c0,0.065,0,0.134,0,0.201c0,0.498,0,1.051,0,1.626c0,0.058,0,0.115,0,0.173c0,0.253,0,0.507,0,0.761
			c-1.039-0.583-1.939-1.165-3.204-1.747c1.259-0.576,2.173-1.152,3.204-1.728C38,12.834,38,13.072,38,13.333z"/>
		<path style="fill:#39bebc;" d="M7,16.786c0,0.314,0.525,0.484,0.79,0.345c1.559-0.813,3.211-1.626,4.77-2.44
			c0.261-0.136,0.308-0.555,0.047-0.691c-1.559-0.813-3.094-1.626-4.652-2.44c-0.154-0.08-0.312-0.05-0.439,0.027
			C7.261,11.576,7,11.822,7,12.333c0,0.276,0,0.619,0,1H0.457H0v0.201v0.799v1h1h6C7,15.818,7,16.31,7,16.786z M8,15.333
			c0-0.058,0-0.115,0-0.173c0-0.575,0-1.128,0-1.626c0-0.067,0-0.136,0-0.201c0-0.296,0-0.562,0-0.797
			c1.217,0.604,2.582,1.207,3.513,1.809C10.587,14.936,9.214,15.528,8,16.119C8,15.857,8,15.595,8,15.333z"/>
	</g>
</g>
<g>
</g>
<g>
</g>
<g>
</g>
<g>
</g>
<g>
</g>
<g>
</g>
<g>
</g>
<g>
</g>
<g>
</g>
<g>
</g>
<g>
</g>
<g>
</g>
<g>
</g>
<g>
</g>
<g>
</g>
</svg>
