<?xml version="1.0" encoding="iso-8859-1"?>
<!-- Generator: Adobe Illustrator 19.0.0, SVG Export Plug-In . SVG Version: 6.00 Build 0)  -->
<svg xmlns="http://www.w3.org/2000/svg" xmlns:xlink="http://www.w3.org/1999/xlink" version="1.1" id="Layer_1" x="0px" y="0px" viewBox="0 0 485 485" style="enable-background:new 0 0 485 485;" xml:space="preserve" width="512px" height="512px">
<g>
	<g>
		<g>
			<path d="M340.4,360.552c-8.893-4.685-30.905-17.158-40.4-26.126v-24.283c9.021-5.163,17.301-11.607,24.716-19.243l93.866,26.074     l1.324-8.291c0.27-1.691,6.582-42.005,3.91-93.559c-1.575-30.389-5.979-58.323-13.09-83.027     c-8.989-31.229-22.366-57.401-39.758-77.791C340.23,18.271,297.007,0,242.5,0c-54.507,0-97.73,18.271-128.468,54.306     c-39.172,45.923-50.36,112.801-52.849,160.818c-2.671,51.553,3.64,91.868,3.91,93.559l1.324,8.291l93.865-26.074     c7.407,7.629,15.694,14.08,24.717,19.243v24.282c-9.495,8.965-31.531,21.454-40.417,26.135     C47.099,392.186,45.04,449.929,45,452.376V485h395v-32.541C439.986,449.996,438.545,391.89,340.4,360.552z M78.803,297.965     c-1.694-14.369-4.546-45.769-2.623-82.384c2.395-45.605,12.891-108.921,49.289-151.569C153.225,31.49,192.6,15,242.5,15     c49.9,0,89.275,16.49,117.031,49.012c36.398,42.648,46.894,105.964,49.289,151.569c1.923,36.616-0.929,68.016-2.623,82.385     l-70.908-19.697C351.295,256.065,360,227.828,360,197.5v-57.631l-66.878-83.598l-5.925,5.925     c-50.284,50.284-155.181,72.742-156.235,72.962L125,136.41v61.09c0,30.328,8.705,58.565,24.711,80.768L78.803,297.965z      M168.204,277.416C150.017,256.852,140,228.471,140,197.5v-49.016c9.829-2.345,30.75-7.772,55.381-16.75     c41.514-15.131,73.875-33,96.354-53.185L345,145.131V197.5c0,30.979-10.021,59.365-28.189,79.899     c-8.043,8.989-17.382,16.27-27.773,21.648C275.075,306.315,259.417,310,242.5,310s-32.575-3.685-46.553-10.96     C185.578,293.672,176.244,286.397,168.204,277.416z M285,317.298v17.313C279.87,339.974,263.613,355,242.5,355     c-20.968,0-37.332-15.043-42.5-20.406v-17.297c13.182,5.109,27.424,7.703,42.5,7.703C257.579,325,271.823,322.405,285,317.298z      M60,470v-17.41c0.056-1.514,2.773-49.93,89.799-77.951c0,0,5.843-2.949,10.66-5.67c-5.163,7.809-10.511,16.373-15.482,25.201     c-18.773,33.345-25.576,58.745-20.373,75.83H60z M343.995,470h-202.99c-14.153-20.956,21.245-80.884,52.111-121.157     C202.068,357.055,219.777,370,242.5,370s40.432-12.945,49.385-21.157C322.75,389.116,358.148,449.044,343.995,470z M425,470     h-64.604c5.204-17.084-1.599-42.485-20.373-75.83c-4.971-8.829-10.319-17.392-15.482-25.201     c4.818,2.721,10.694,5.681,10.694,5.681c25.457,8.064,59.721,23.256,78.396,49.835c10.718,15.254,11.344,27.458,11.369,28.096     V470z" fill="#787878"/>
			<path d="M242.5,235h20v-15H250v-32.5h-15v40C235,231.642,238.358,235,242.5,235z" fill="#787878"/>
		</g>
	</g>
</g>
<g>
</g>
<g>
</g>
<g>
</g>
<g>
</g>
<g>
</g>
<g>
</g>
<g>
</g>
<g>
</g>
<g>
</g>
<g>
</g>
<g>
</g>
<g>
</g>
<g>
</g>
<g>
</g>
<g>
</g>
</svg>
