<?xml version="1.0" encoding="utf-8"?>
<!-- Generator: Adobe Illustrator 16.0.0, SVG Export Plug-In . SVG Version: 6.00 Build 0)  -->
<!DOCTYPE svg PUBLIC "-//W3C//DTD SVG 1.1//EN" "http://www.w3.org/Graphics/SVG/1.1/DTD/svg11.dtd">
<svg version="1.1" id="Layer_1" xmlns="http://www.w3.org/2000/svg" xmlns:xlink="http://www.w3.org/1999/xlink" x="0px" y="0px"
	 width="37.22px" height="34.77px" viewBox="0 0 37.22 34.77" enable-background="new 0 0 37.22 34.77" xml:space="preserve">
<g>
	<g>
		<path fill="#393939" d="M27.715,6.619h-3.311V5.791c0-0.496-0.331-0.828-0.828-0.828s-0.828,0.331-0.828,0.828v0.828h-8.277V5.791
			c0-0.496-0.332-0.828-0.828-0.828s-0.828,0.331-0.828,0.828v0.828H9.505c-2.318,0-4.139,1.822-4.139,4.141v14.906
			c0,2.318,1.821,4.141,4.139,4.141h18.21c2.318,0,4.139-1.822,4.139-4.141V10.76C31.854,8.441,30.033,6.619,27.715,6.619z
			 M30.199,25.666c0,1.325-1.159,2.484-2.483,2.484H9.505c-1.324,0-2.483-1.159-2.483-2.484V14.9h23.177V25.666z M30.199,13.244
			H7.021V10.76c0-1.324,1.159-2.484,2.483-2.484h3.311v0.828c0,0.497,0.331,0.828,0.828,0.828s0.828-0.331,0.828-0.828V8.275h8.277
			v0.828c0,0.497,0.331,0.828,0.828,0.828s0.828-0.331,0.828-0.828V8.275h3.311c1.324,0,2.483,1.16,2.483,2.484V13.244z
			 M11.16,25.666c0.497,0,0.828-0.166,1.159-0.497s0.497-0.828,0.497-1.159s-0.166-0.828-0.497-1.159
			c-0.662-0.663-1.656-0.663-2.318,0c-0.331,0.331-0.497,0.662-0.497,1.159c0,0.331,0.166,0.828,0.497,1.159
			S10.664,25.666,11.16,25.666z M11.16,20.697c0.497,0,0.828-0.166,1.159-0.497s0.497-0.828,0.497-1.159s-0.166-0.828-0.497-1.159
			c-0.662-0.662-1.656-0.662-2.318,0c-0.331,0.331-0.497,0.662-0.497,1.159s0.166,0.828,0.497,1.159S10.664,20.697,11.16,20.697z
			 M16.127,25.666c0.497,0,0.828-0.166,1.159-0.497s0.497-0.828,0.497-1.159s-0.166-0.828-0.497-1.159
			c-0.662-0.663-1.655-0.663-2.317,0c-0.332,0.331-0.497,0.828-0.497,1.159s0.165,0.828,0.497,1.159
			C15.299,25.5,15.63,25.666,16.127,25.666z M16.127,20.697c0.497,0,0.828-0.166,1.159-0.497s0.497-0.828,0.497-1.159
			s-0.166-0.828-0.497-1.159c-0.662-0.662-1.655-0.662-2.317,0c-0.332,0.331-0.497,0.828-0.497,1.159s0.165,0.828,0.497,1.159
			C15.299,20.531,15.63,20.697,16.127,20.697z M21.093,25.666c0.497,0,0.828-0.166,1.159-0.497c0.332-0.331,0.497-0.662,0.497-1.159
			s-0.165-0.828-0.497-1.159c-0.662-0.663-1.655-0.663-2.317,0c-0.331,0.331-0.497,0.828-0.497,1.159s0.166,0.828,0.497,1.159
			S20.597,25.666,21.093,25.666z M21.093,20.697c0.497,0,0.828-0.166,1.159-0.497c0.332-0.331,0.497-0.662,0.497-1.159
			c0-0.331-0.165-0.828-0.497-1.159c-0.662-0.662-1.655-0.662-2.317,0c-0.331,0.331-0.497,0.828-0.497,1.159
			s0.166,0.828,0.497,1.159S20.597,20.697,21.093,20.697z M26.06,25.666c0.497,0,0.828-0.166,1.159-0.497s0.497-0.828,0.497-1.159
			s-0.166-0.828-0.497-1.159c-0.662-0.663-1.655-0.663-2.318,0c-0.331,0.331-0.497,0.662-0.497,1.159
			c0,0.331,0.166,0.828,0.497,1.159S25.563,25.666,26.06,25.666z M26.06,20.697c0.497,0,0.828-0.166,1.159-0.497
			s0.497-0.662,0.497-1.159c0-0.331-0.166-0.828-0.497-1.159c-0.662-0.662-1.655-0.662-2.318,0
			c-0.331,0.331-0.497,0.828-0.497,1.159s0.166,0.828,0.497,1.159S25.563,20.697,26.06,20.697z"/>
	</g>
</g>
</svg>
