<?xml version="1.0" encoding="utf-8"?>
<!-- Generator: Adobe Illustrator 16.0.0, SVG Export Plug-In . SVG Version: 6.00 Build 0)  -->
<!DOCTYPE svg PUBLIC "-//W3C//DTD SVG 1.1//EN" "http://www.w3.org/Graphics/SVG/1.1/DTD/svg11.dtd">
<svg version="1.1" id="Layer_1" xmlns="http://www.w3.org/2000/svg" xmlns:xlink="http://www.w3.org/1999/xlink" x="0px" y="0px"
	 width="37.22px" height="34.77px" viewBox="0 0 37.22 34.77" enable-background="new 0 0 37.22 34.77" xml:space="preserve">
<g>
	<g>
		<path fill="#393939" d="M32.128,6.735H5.091c-0.362,0-0.655,0.293-0.655,0.656v17.288c0,1.85,1.88,3.355,3.73,3.355h21.263
			c1.851,0,3.356-1.505,3.356-3.355V7.391C32.784,7.029,32.491,6.735,32.128,6.735z M31.473,24.678c0,1.127-0.917,2.044-2.044,2.044
			H8.166c-1.127,0-2.418-0.917-2.418-2.044V8.823L17.866,18.89c0.121,0.099,0.269,0.148,0.415,0.148c0.147,0,0.295-0.05,0.416-0.148
			l8.908-7.316c0.28-0.229,0.322-0.643,0.093-0.923s-0.643-0.322-0.924-0.093l-8.492,6.977L6.872,8.047h24.601V24.678z
			 M28.841,10.374c0.146,0,0.293-0.049,0.415-0.148l0.197-0.161c0.28-0.229,0.322-0.642,0.093-0.923s-0.643-0.323-0.923-0.093
			l-0.197,0.161c-0.28,0.229-0.322,0.643-0.093,0.923C28.462,10.291,28.651,10.374,28.841,10.374z"/>
	</g>
</g>
</svg>
