<?xml version="1.0" encoding="utf-8"?>
<!-- Generator: Adobe Illustrator 16.0.0, SVG Export Plug-In . SVG Version: 6.00 Build 0)  -->
<!DOCTYPE svg PUBLIC "-//W3C//DTD SVG 1.1//EN" "http://www.w3.org/Graphics/SVG/1.1/DTD/svg11.dtd">
<svg version="1.1" id="Layer_1" xmlns="http://www.w3.org/2000/svg" xmlns:xlink="http://www.w3.org/1999/xlink" x="0px" y="0px"
	 width="37.22px" height="34.77px" viewBox="0 0 37.22 34.77" enable-background="new 0 0 37.22 34.77" xml:space="preserve">
<g>
	<g>
		<path fill="#393939" d="M27.165,20.906c-0.604-0.628-1.331-0.964-2.102-0.964c-0.765,0-1.499,0.33-2.127,0.958l-1.966,1.959
			c-0.162-0.087-0.323-0.168-0.479-0.249c-0.224-0.112-0.436-0.217-0.616-0.33c-1.841-1.169-3.514-2.694-5.119-4.666
			c-0.778-0.983-1.3-1.811-1.68-2.65c0.51-0.466,0.983-0.952,1.443-1.418c0.174-0.174,0.348-0.355,0.522-0.529
			c1.306-1.306,1.306-2.999,0-4.305l-1.698-1.698c-0.193-0.193-0.392-0.392-0.579-0.591c-0.373-0.385-0.765-0.784-1.169-1.157
			c-0.604-0.598-1.325-0.915-2.083-0.915S8.021,4.669,7.399,5.267C7.393,5.272,7.393,5.272,7.387,5.279L5.272,7.413
			c-0.796,0.796-1.25,1.767-1.35,2.893c-0.149,1.816,0.385,3.508,0.796,4.616c1.008,2.719,2.513,5.238,4.758,7.938
			c2.725,3.254,6.002,5.823,9.746,7.633c1.431,0.678,3.34,1.48,5.473,1.617c0.131,0.006,0.268,0.013,0.392,0.013
			c1.437,0,2.643-0.516,3.588-1.543c0.006-0.012,0.019-0.019,0.025-0.031c0.323-0.392,0.697-0.747,1.088-1.126
			c0.268-0.255,0.541-0.523,0.809-0.803c0.616-0.641,0.939-1.387,0.939-2.152c0-0.771-0.33-1.512-0.958-2.134L27.165,20.906z
			 M29.392,27.457c-0.243,0.261-0.491,0.498-0.759,0.759c-0.404,0.386-0.815,0.79-1.2,1.244c-0.628,0.672-1.368,0.989-2.339,0.989
			c-0.093,0-0.192,0-0.286-0.006c-1.847-0.118-3.563-0.84-4.851-1.456c-3.52-1.705-6.611-4.125-9.18-7.192
			c-2.121-2.557-3.539-4.92-4.478-7.459c-0.579-1.549-0.79-2.756-0.697-3.894C5.664,9.714,5.944,9.111,6.46,8.595l2.121-2.122
			c0.305-0.286,0.628-0.441,0.945-0.441c0.392,0,0.709,0.236,0.908,0.436c0.006,0.006,0.013,0.012,0.019,0.019
			c0.379,0.354,0.74,0.722,1.12,1.113c0.193,0.199,0.392,0.398,0.591,0.604l1.698,1.699c0.66,0.659,0.66,1.269,0,1.928
			c-0.18,0.18-0.354,0.361-0.535,0.535c-0.522,0.535-1.02,1.033-1.561,1.518c-0.013,0.013-0.025,0.019-0.031,0.031
			c-0.535,0.535-0.435,1.058-0.323,1.412c0.006,0.019,0.012,0.038,0.019,0.056c0.441,1.07,1.063,2.078,2.009,3.278l0.006,0.006
			c1.716,2.115,3.526,3.764,5.523,5.027c0.255,0.162,0.516,0.292,0.765,0.417c0.224,0.112,0.435,0.218,0.616,0.33
			c0.025,0.013,0.05,0.031,0.075,0.044c0.211,0.105,0.41,0.155,0.616,0.155c0.516,0,0.839-0.324,0.945-0.429l2.127-2.127
			c0.211-0.212,0.547-0.467,0.939-0.467c0.386,0,0.703,0.243,0.896,0.454c0.006,0.006,0.006,0.006,0.013,0.013l3.427,3.428
			C30.026,26.144,30.026,26.797,29.392,27.457z M24.093,11.886c1.182,1.182,1.947,2.663,2.227,4.292
			c0.068,0.411,0.423,0.697,0.827,0.697c0.05,0,0.093-0.006,0.143-0.013c0.46-0.075,0.765-0.51,0.69-0.971
			c-0.336-1.972-1.269-3.77-2.693-5.194s-3.222-2.357-5.193-2.694c-0.46-0.074-0.889,0.23-0.97,0.685
			c-0.081,0.454,0.218,0.896,0.678,0.97C21.431,9.932,22.911,10.704,24.093,11.886z M28.875,7.095
			c-2.351-2.351-5.305-3.882-8.552-4.436c-0.454-0.081-0.883,0.23-0.964,0.685c-0.074,0.46,0.23,0.89,0.69,0.97
			c2.898,0.492,5.542,1.866,7.644,3.963c2.102,2.103,3.47,4.747,3.962,7.646c0.068,0.411,0.423,0.697,0.827,0.697
			c0.05,0,0.093-0.006,0.143-0.012c0.454-0.068,0.765-0.504,0.685-0.958C32.756,12.402,31.227,9.447,28.875,7.095z"/>
	</g>
</g>
</svg>
