<?xml version="1.0" encoding="utf-8"?>
<!-- Generator: Adobe Illustrator 16.0.0, SVG Export Plug-In . SVG Version: 6.00 Build 0)  -->
<!DOCTYPE svg PUBLIC "-//W3C//DTD SVG 1.1//EN" "http://www.w3.org/Graphics/SVG/1.1/DTD/svg11.dtd">
<svg version="1.1" id="Layer_1" xmlns="http://www.w3.org/2000/svg" xmlns:xlink="http://www.w3.org/1999/xlink" x="0px" y="0px"
	 width="37.22px" height="34.77px" viewBox="0 0 37.22 34.77" enable-background="new 0 0 37.22 34.77" xml:space="preserve">
<g>
	<g>
		<path fill="#393939" d="M18.569,18.85c3.718,0,6.734-3.013,6.734-6.728c0-3.715-3.016-6.708-6.734-6.708s-6.734,3.013-6.734,6.708
			C11.835,15.816,14.851,18.85,18.569,18.85z M18.569,7.168c2.727,0,4.958,2.229,4.958,4.954c0,2.724-2.231,4.953-4.958,4.953
			s-4.958-2.229-4.958-4.953C13.611,9.397,15.842,7.168,18.569,7.168z M22.742,20.026h-8.263c-4.648,0-8.449,3.777-8.449,8.441
			c0,0.496,0.393,0.888,0.888,0.888h23.383c0.496,0,0.888-0.392,0.888-0.888C31.19,23.824,27.41,20.026,22.742,20.026z M7.869,27.58
			c0.434-3.24,3.223-5.779,6.61-5.779h8.263c3.388,0,6.176,2.518,6.61,5.779H7.869z"/>
	</g>
</g>
</svg>
