<?xml version="1.0" encoding="utf-8"?>
<!-- Generator: Adobe Illustrator 16.0.0, SVG Export Plug-In . SVG Version: 6.00 Build 0)  -->
<!DOCTYPE svg PUBLIC "-//W3C//DTD SVG 1.1//EN" "http://www.w3.org/Graphics/SVG/1.1/DTD/svg11.dtd">
<svg version="1.1" id="Layer_1" xmlns="http://www.w3.org/2000/svg" xmlns:xlink="http://www.w3.org/1999/xlink" x="0px" y="0px"
	 width="37.22px" height="34.77px" viewBox="0 0 37.22 34.77" enable-background="new 0 0 37.22 34.77" xml:space="preserve">
<g>
	<g>
		<path fill="#393939" d="M12.478,4.643c0.069,0.022,0.14,0.033,0.209,0.033c0.28,0,0.54-0.177,0.632-0.457
			c0.094-0.286,0.36-0.478,0.661-0.478h3.688c0.368,0,0.667-0.299,0.667-0.667s-0.298-0.667-0.667-0.667h-3.688
			c-0.876,0-1.65,0.56-1.925,1.393C11.938,4.15,12.128,4.527,12.478,4.643z M26.867,2.408h-5.393c-0.368,0-0.667,0.299-0.667,0.667
			s0.298,0.667,0.667,0.667h5.393c0.368,0,0.666-0.299,0.666-0.667S27.235,2.408,26.867,2.408z M32.919,28.37
			c-0.368,0-0.667,0.298-0.667,0.666v1.297c0,0.384-0.312,0.696-0.695,0.696H29.6c-0.368,0-0.667,0.299-0.667,0.667
			s0.298,0.666,0.667,0.666h1.958c1.118,0,2.028-0.91,2.028-2.029v-1.297C33.585,28.667,33.287,28.37,32.919,28.37z M32.919,19.162
			c-0.368,0-0.667,0.298-0.667,0.667v5.397c0,0.368,0.298,0.667,0.667,0.667c0.368,0,0.666-0.299,0.666-0.667v-5.397
			C33.585,19.459,33.287,19.162,32.919,19.162z M32.919,9.954c-0.368,0-0.667,0.298-0.667,0.667v5.397
			c0,0.368,0.298,0.667,0.667,0.667c0.368,0,0.666-0.299,0.666-0.667v-5.397C33.585,10.251,33.287,9.954,32.919,9.954z
			 M25.792,31.029H20.4c-0.368,0-0.667,0.299-0.667,0.667s0.298,0.666,0.667,0.666h5.393c0.368,0,0.667-0.298,0.667-0.666
			S26.161,31.029,25.792,31.029z M31.557,2.408h-0.883c-0.368,0-0.666,0.299-0.666,0.667s0.298,0.667,0.666,0.667h0.883
			c0.383,0,0.695,0.313,0.695,0.696V6.81c0,0.368,0.298,0.667,0.667,0.667c0.368,0,0.666-0.299,0.666-0.667V4.438
			C33.585,3.319,32.675,2.408,31.557,2.408z M16.655,24.75c-0.278,0-0.548,0.06-0.802,0.178c-0.953,0.443-1.368,1.58-0.925,2.534
			c0.312,0.671,0.99,1.104,1.729,1.104c0.279,0,0.549-0.061,0.803-0.179c0.461-0.215,0.812-0.597,0.987-1.075
			c0.174-0.479,0.152-0.997-0.062-1.459C18.073,25.184,17.395,24.75,16.655,24.75z M17.195,26.856
			c-0.053,0.144-0.158,0.259-0.297,0.323c-0.077,0.036-0.158,0.054-0.241,0.054c-0.223,0-0.427-0.131-0.521-0.332
			c-0.134-0.287-0.009-0.63,0.278-0.763c0.077-0.036,0.158-0.054,0.241-0.054c0.223,0,0.427,0.13,0.521,0.332
			C17.241,26.555,17.248,26.711,17.195,26.856z M20.827,24.717c-0.742-1.597-2.348-2.637-4.105-2.663l-2.072-4.462l4.063-8.748
			c0.45-0.969,0.029-2.123-0.939-2.573l-0.115-0.054C17.189,6,16.664,5.977,16.178,6.155s-0.873,0.533-1.091,1.003l-2.642,5.688
			L9.803,7.158C9.487,6.477,8.798,6.037,8.048,6.037c-0.283,0-0.557,0.062-0.815,0.181L7.118,6.271
			C6.15,6.721,5.729,7.875,6.179,8.844l4.063,8.748l-2.072,4.462c-1.748,0.026-3.358,1.054-4.105,2.663
			c-1.069,2.303-0.068,5.046,2.232,6.116c0.625,0.291,1.284,0.429,1.932,0.429c1.735,0,3.399-0.987,4.178-2.663
			c0.014-0.03,0.027-0.06,0.04-0.09c0.013,0.03,0.026,0.061,0.04,0.09c0.751,1.618,2.39,2.664,4.173,2.664c0,0,0,0,0,0
			c0.671,0,1.323-0.145,1.936-0.43C20.895,29.763,21.896,27.02,20.827,24.717z M16.296,7.719c0.068-0.146,0.188-0.257,0.339-0.312
			c0.151-0.056,0.315-0.049,0.461,0.02l0.115,0.054c0.301,0.14,0.433,0.499,0.292,0.801l-3.589,7.729l-0.734-1.582L16.296,7.719z
			 M10.399,23.58c-0.119,0.255-0.064,0.558,0.135,0.755c0.976,0.968,1.242,2.456,0.663,3.702c-0.76,1.636-2.707,2.348-4.34,1.588
			c-1.633-0.761-2.345-2.709-1.585-4.345c0.579-1.247,1.887-2.002,3.255-1.879c0.28,0.024,0.545-0.128,0.664-0.383l1.785-3.845
			l0.735,1.582L10.399,23.58z M12.445,24.81c-0.166-0.38-0.384-0.74-0.652-1.069l0.652-1.403l0.652,1.403
			C12.829,24.07,12.611,24.43,12.445,24.81z M18.034,29.625c-0.436,0.202-0.898,0.306-1.375,0.306c-1.268,0-2.432-0.743-2.966-1.893
			c-0.579-1.247-0.313-2.735,0.663-3.703c0.2-0.198,0.254-0.5,0.135-0.755L7.387,8.282C7.247,7.98,7.378,7.621,7.679,7.481
			l0.115-0.054C7.875,7.389,7.96,7.371,8.048,7.371c0.234,0,0.449,0.137,0.547,0.349L15.7,23.017
			c0.119,0.256,0.384,0.408,0.664,0.384c0.096-0.009,0.193-0.014,0.29-0.014c1.268,0,2.431,0.743,2.965,1.893
			C20.378,26.916,19.667,28.864,18.034,29.625z M9.038,24.928c-0.953-0.443-2.089-0.028-2.532,0.926
			c-0.214,0.462-0.236,0.98-0.062,1.459c0.174,0.479,0.525,0.86,0.987,1.075c0.259,0.121,0.532,0.178,0.8,0.178
			c0.719,0,1.409-0.409,1.731-1.104c0.215-0.462,0.236-0.979,0.062-1.459C9.85,25.525,9.5,25.143,9.038,24.928z M8.755,26.901
			c-0.134,0.287-0.476,0.412-0.762,0.278C7.854,27.115,7.748,27,7.695,26.856c-0.052-0.145-0.046-0.301,0.019-0.439
			c0.064-0.14,0.179-0.245,0.323-0.298c0.064-0.023,0.131-0.035,0.197-0.035c0.082,0,0.165,0.019,0.241,0.054
			c0.139,0.065,0.245,0.18,0.297,0.324C8.826,26.606,8.819,26.761,8.755,26.901z"/>
	</g>
</g>
</svg>
