<?xml version="1.0" encoding="utf-8"?>
<!-- Generator: Adobe Illustrator 16.0.0, SVG Export Plug-In . SVG Version: 6.00 Build 0)  -->
<!DOCTYPE svg PUBLIC "-//W3C//DTD SVG 1.1//EN" "http://www.w3.org/Graphics/SVG/1.1/DTD/svg11.dtd">
<svg version="1.1" id="Layer_1" xmlns="http://www.w3.org/2000/svg" xmlns:xlink="http://www.w3.org/1999/xlink" x="0px" y="0px"
	 width="51.73px" height="55.081px" viewBox="0 0 51.73 55.081" enable-background="new 0 0 51.73 55.081" xml:space="preserve">
<g>
	<g>
		<path fill="#393939" d="M41.437,24.51c-0.835,0-1.513,0.678-1.513,1.514v1.525c-0.002,3.979-1.552,7.717-4.364,10.528
			c-2.81,2.81-6.543,4.356-10.515,4.356h-0.009c-8.204-0.005-14.875-6.689-14.87-14.902c0.002-3.978,1.552-7.717,4.364-10.528
			c2.81-2.809,6.544-4.355,10.515-4.355h0.009c2.097,0.001,4.132,0.435,6.047,1.289c0.763,0.341,1.657-0.003,1.997-0.767
			c0.34-0.764-0.002-1.659-0.766-1.999c-2.305-1.028-4.753-1.551-7.277-1.552h-0.011c-4.778,0-9.272,1.861-12.653,5.242
			c-3.383,3.383-5.249,7.882-5.251,12.669c-0.003,4.787,1.856,9.288,5.236,12.675s7.875,5.254,12.657,5.257h0.011
			c4.778,0,9.272-1.861,12.653-5.242c3.383-3.383,5.249-7.882,5.251-12.67v-1.525C42.95,25.188,42.272,24.51,41.437,24.51z
			 M44.146,11.713c-0.591-0.592-1.548-0.592-2.139,0L25.045,28.689l-3.848-3.852c-0.591-0.591-1.548-0.591-2.139,0
			c-0.591,0.592-0.591,1.551,0,2.142l4.917,4.922c0.295,0.296,0.683,0.444,1.07,0.444s0.774-0.148,1.069-0.444l18.031-18.048
			C44.736,13.263,44.736,12.304,44.146,11.713z"/>
	</g>
</g>
</svg>
